<svg width="67" height="16" viewBox="0 0 67 16" fill="none" xmlns="http://www.w3.org/2000/svg">
<path d="M3.784 12.128C3.06933 12.128 2.42933 11.9893 1.864 11.712C1.30933 11.4347 0.877333 11.0133 0.568 10.448C0.258667 9.872 0.104 9.14133 0.104 8.256V3.392H2.6V7.888C2.6 8.60267 2.74933 9.13067 3.048 9.472C3.35733 9.80267 3.78933 9.968 4.344 9.968C4.728 9.968 5.06933 9.888 5.368 9.728C5.66667 9.55733 5.90133 9.30133 6.072 8.96C6.24267 8.608 6.328 8.17067 6.328 7.648V3.392H8.824V12H6.456V9.632L6.888 10.32C6.6 10.9173 6.17333 11.3707 5.608 11.68C5.05333 11.9787 4.44533 12.128 3.784 12.128ZM16.3684 3.264C17.051 3.264 17.659 3.40267 18.1924 3.68C18.7364 3.94667 19.163 4.36267 19.4724 4.928C19.7817 5.48267 19.9364 6.19733 19.9364 7.072V12H17.4404V7.456C17.4404 6.76267 17.2857 6.25067 16.9764 5.92C16.6777 5.58933 16.251 5.424 15.6964 5.424C15.3017 5.424 14.9444 5.50933 14.6244 5.68C14.315 5.84 14.0697 6.09067 13.8884 6.432C13.7177 6.77333 13.6324 7.21067 13.6324 7.744V12H11.1364V3.392H13.5204V5.776L13.0724 5.056C13.3817 4.48 13.8244 4.03733 14.4004 3.728C14.9764 3.41867 15.6324 3.264 16.3684 3.264ZM22.3749 15.104V0.127999H26.7109V2.08H24.8709V13.152H26.7109V15.104H22.3749ZM30.9855 12.128C30.2495 12.128 29.5402 12.0427 28.8575 11.872C28.1855 11.6907 27.6522 11.4667 27.2575 11.2L28.0895 9.408C28.4842 9.65333 28.9482 9.856 29.4815 10.016C30.0255 10.1653 30.5588 10.24 31.0815 10.24C31.6575 10.24 32.0628 10.1707 32.2975 10.032C32.5428 9.89333 32.6655 9.70133 32.6655 9.456C32.6655 9.25333 32.5695 9.104 32.3775 9.008C32.1962 8.90133 31.9508 8.82133 31.6415 8.768C31.3322 8.71467 30.9908 8.66133 30.6175 8.608C30.2548 8.55467 29.8868 8.48533 29.5135 8.4C29.1402 8.304 28.7988 8.16533 28.4895 7.984C28.1802 7.80267 27.9295 7.55733 27.7375 7.248C27.5562 6.93867 27.4655 6.53867 27.4655 6.048C27.4655 5.504 27.6202 5.024 27.9295 4.608C28.2495 4.192 28.7082 3.86667 29.3055 3.632C29.9028 3.38667 30.6175 3.264 31.4495 3.264C32.0362 3.264 32.6335 3.328 33.2415 3.456C33.8495 3.584 34.3562 3.77067 34.7615 4.016L33.9295 5.792C33.5135 5.54667 33.0922 5.38133 32.6655 5.296C32.2495 5.2 31.8442 5.152 31.4495 5.152C30.8948 5.152 30.4895 5.22667 30.2335 5.376C29.9775 5.52533 29.8495 5.71733 29.8495 5.952C29.8495 6.16533 29.9402 6.32533 30.1215 6.432C30.3135 6.53867 30.5642 6.624 30.8735 6.688C31.1828 6.752 31.5188 6.81067 31.8815 6.864C32.2548 6.90667 32.6282 6.976 33.0015 7.072C33.3748 7.168 33.7108 7.30667 34.0095 7.488C34.3188 7.65867 34.5695 7.89867 34.7615 8.208C34.9535 8.50667 35.0495 8.90133 35.0495 9.392C35.0495 9.92533 34.8895 10.4 34.5695 10.816C34.2495 11.2213 33.7855 11.5413 33.1775 11.776C32.5802 12.0107 31.8495 12.128 30.9855 12.128ZM41.8695 12V10.32L41.7095 9.952V6.944C41.7095 6.41067 41.5442 5.99467 41.2135 5.696C40.8935 5.39733 40.3975 5.248 39.7255 5.248C39.2668 5.248 38.8135 5.32267 38.3655 5.472C37.9282 5.61067 37.5548 5.80267 37.2455 6.048L36.3495 4.304C36.8188 3.97333 37.3842 3.71733 38.0455 3.536C38.7068 3.35467 39.3788 3.264 40.0615 3.264C41.3735 3.264 42.3922 3.57333 43.1175 4.192C43.8428 4.81067 44.2055 5.776 44.2055 7.088V12H41.8695ZM39.2455 12.128C38.5735 12.128 37.9975 12.016 37.5175 11.792C37.0375 11.5573 36.6695 11.2427 36.4135 10.848C36.1575 10.4533 36.0295 10.0107 36.0295 9.52C36.0295 9.008 36.1522 8.56 36.3975 8.176C36.6535 7.792 37.0535 7.49333 37.5975 7.28C38.1415 7.056 38.8508 6.944 39.7255 6.944H42.0135V8.4H39.9975C39.4108 8.4 39.0055 8.496 38.7815 8.688C38.5682 8.88 38.4615 9.12 38.4615 9.408C38.4615 9.728 38.5842 9.984 38.8295 10.176C39.0855 10.3573 39.4322 10.448 39.8695 10.448C40.2855 10.448 40.6588 10.352 40.9895 10.16C41.3202 9.95733 41.5602 9.664 41.7095 9.28L42.0935 10.432C41.9122 10.9867 41.5815 11.408 41.1015 11.696C40.6215 11.984 40.0028 12.128 39.2455 12.128ZM46.7685 12V3.2C46.7685 2.22933 47.0565 1.456 47.6325 0.879999C48.2085 0.293332 49.0298 -9.53674e-07 50.0965 -9.53674e-07C50.4592 -9.53674e-07 50.8058 0.0373325 51.1365 0.112C51.4778 0.186666 51.7658 0.303999 52.0005 0.464L51.3445 2.272C51.2058 2.176 51.0512 2.10133 50.8805 2.048C50.7098 1.99467 50.5285 1.968 50.3365 1.968C49.9738 1.968 49.6912 2.07467 49.4885 2.288C49.2965 2.49067 49.2005 2.8 49.2005 3.216V4.016L49.2645 5.088V12H46.7685ZM45.4405 5.504V3.584H51.4085V5.504H45.4405ZM56.8146 12.128C55.8333 12.128 54.9693 11.936 54.2226 11.552C53.4866 11.168 52.916 10.6453 52.5106 9.984C52.1053 9.312 51.9026 8.54933 51.9026 7.696C51.9026 6.832 52.1 6.06933 52.4946 5.408C52.9 4.736 53.4493 4.21333 54.1426 3.84C54.836 3.456 55.62 3.264 56.4946 3.264C57.3373 3.264 58.0946 3.44533 58.7666 3.808C59.4493 4.16 59.988 4.672 60.3826 5.344C60.7773 6.00533 60.9746 6.8 60.9746 7.728C60.9746 7.824 60.9693 7.936 60.9586 8.064C60.948 8.18133 60.9373 8.29333 60.9266 8.4H53.9346V6.944H59.6146L58.6546 7.376C58.6546 6.928 58.564 6.53867 58.3826 6.208C58.2013 5.87733 57.9506 5.62133 57.6306 5.44C57.3106 5.248 56.9373 5.152 56.5106 5.152C56.084 5.152 55.7053 5.248 55.3746 5.44C55.0546 5.62133 54.804 5.88267 54.6226 6.224C54.4413 6.55467 54.3506 6.94933 54.3506 7.408V7.792C54.3506 8.26133 54.452 8.67733 54.6546 9.04C54.868 9.392 55.1613 9.664 55.5346 9.856C55.9186 10.0373 56.3666 10.128 56.8786 10.128C57.3373 10.128 57.7373 10.0587 58.0786 9.92C58.4306 9.78133 58.7506 9.57333 59.0386 9.296L60.3666 10.736C59.972 11.184 59.476 11.5307 58.8786 11.776C58.2813 12.0107 57.5933 12.128 56.8146 12.128ZM66.0444 15.104H61.7244V13.152H63.5484V2.08H61.7244V0.127999H66.0444V15.104Z" fill="#383838"/>
</svg>
