<svg xmlns="http://www.w3.org/2000/svg" width="4018" height="2672" fill="none" viewBox="0 0 4018 2672"><path fill="url(#a)" fill-rule="evenodd" d="M1701.16 1025.47c17.27 15.52 11.19-16.22 27.54 13.78 4.71 7.36 13.32 18.43 1.48 23.62 10.65 13.66-21.4 44.43-35.41 47.73-24.8 5.42-39.08-31.31-30.49-51.18 6.29-14.74 26.96-21.85 36.88-33.95" clip-rule="evenodd"/><path fill="url(#b)" fill-rule="evenodd" d="M1646.08 985.119c-45.14 22.801-57.99 35.371-68.85 86.111.61-39.16 28.65-73.645 68.85-86.111" clip-rule="evenodd"/><path fill="url(#c)" fill-rule="evenodd" d="M1423.28 983.151c27.68 23.969 64.55 41.029 93.95 63.969 12.19 13.06 38.65 19.24 46.23 34.94-25.96-22.84-59.36-39.92-87.07-60.53-16.66-11.54-41.96-21.2-53.11-38.379" clip-rule="evenodd"/><path fill="url(#d)" fill-rule="evenodd" d="M1422.3 1279.9c23.27-7.13 66.69-.7 84.11 16.24-1.23 8.59 6.37 20.91-.49 27.56-12.93 11.38-25.37 28.48-44.26 31.49-10.86 5.29-22.93 3.34-34.43 3.45-11.47-4.37-22.43-14.25-33.93-18.21-10.84-23.46 5.41-52.78 29.02-60.53z" clip-rule="evenodd"/><path fill="url(#e)" fill-rule="evenodd" d="M1660.34 1329.11c13.89-11.89 45.04 6.3 43.28 23.62-7.44 29.42-40.96 20.85-62.95 17.22-51.56-9.94-9.14-39.98 19.67-40.84" clip-rule="evenodd"/><defs><radialGradient id="a" cx="0" cy="0" r="1" gradientTransform="scale(37.1936 42.835)rotate(90 10.37 35.31)" gradientUnits="userSpaceOnUse"><stop stop-color="#38D175" stop-opacity=".3"/><stop offset="1" stop-color="#38D175" stop-opacity="0"/></radialGradient><radialGradient id="b" cx="0" cy="0" r="1" gradientTransform="matrix(0 43.0579 -34.4252 0 1611.65 1028.18)" gradientUnits="userSpaceOnUse"><stop stop-color="#38D175" stop-opacity=".3"/><stop offset="1" stop-color="#38D175" stop-opacity="0"/></radialGradient><radialGradient id="c" cx="0" cy="0" r="1" gradientTransform="scale(70.0902 49.4551)rotate(90 .213 21.093)" gradientUnits="userSpaceOnUse"><stop stop-color="#38D175" stop-opacity=".3"/><stop offset="1" stop-color="#38D175" stop-opacity="0"/></radialGradient><radialGradient id="d" cx="0" cy="0" r="1" gradientTransform="matrix(0 40.937 -59.4803 0 1449.35 1317.97)" gradientUnits="userSpaceOnUse"><stop stop-color="#38D175" stop-opacity=".3"/><stop offset="1" stop-color="#38D175" stop-opacity="0"/></radialGradient><radialGradient id="e" cx="0" cy="0" r="1" gradientTransform="matrix(0 24.3321 -43.6232 0 1660.07 1349.63)" gradientUnits="userSpaceOnUse"><stop stop-color="#38D175" stop-opacity=".3"/><stop offset="1" stop-color="#38D175" stop-opacity="0"/></radialGradient></defs></svg>