<svg xmlns="http://www.w3.org/2000/svg" width="4018" height="2672" fill="none" viewBox="0 0 4018 2672"><path fill="url(#a)" fill-rule="evenodd" d="M1414.43 1127.35c45.38-3.3 95.26 3.61 136.24 23.62 35.96 12.94-12.44 57.78-32.95 60.04-14.22 7.38-33.21 2.07-48.19 0-15.58-1.89-37.54-1.76-52.62-6.89-43.26-16.81-51.74-61.74-2.46-76.77z" clip-rule="evenodd"/><path fill="url(#b)" fill-rule="evenodd" d="M1413.44 1279.41c24.37-6.6 50.6.88 72.3 12.3 55.86 31.29-8.61 67.3-46.72 58.56-14.08-1.97-32.36-2.75-38.86-18.21-17.56-14.72-3.52-43.16 13.28-52.65" clip-rule="evenodd"/><path fill="url(#c)" fill-rule="evenodd" d="M2002.18 1487.56c27.5-4.75 62.06-3.79 80.65 20.18 28.67 41.05-40.02 47.24-66.88 40.35-14.98-7.13-35.29-10.62-45.25-25.1-6.47-18.53 15.6-33.01 31.48-35.43" clip-rule="evenodd"/><path fill="url(#d)" fill-rule="evenodd" d="M2162.03 1097.34c29.12-11.2 66.8-1.46 87.56 21.65 41.92 57.49-75.37 65.55-109.18 49.7-9-5.76-6.43-20.48-10.33-29.53-7.01-20.34 17.34-33.29 31.97-41.82z" clip-rule="evenodd"/><defs><radialGradient id="a" cx="0" cy="0" r="1" gradientTransform="matrix(0 44.1175 -91.3674 0 1472.22 1170.68)" gradientUnits="userSpaceOnUse"><stop stop-color="#38D175" stop-opacity=".3"/><stop offset="1" stop-color="#38D175" stop-opacity="0"/></radialGradient><radialGradient id="b" cx="0" cy="0" r="1" gradientTransform="matrix(0 37.3308 -57.7559 0 1449.82 1314.27)" gradientUnits="userSpaceOnUse"><stop stop-color="#38D175" stop-opacity=".3"/><stop offset="1" stop-color="#38D175" stop-opacity="0"/></radialGradient><radialGradient id="c" cx="0" cy="0" r="1" gradientTransform="matrix(0 32.6083 -60.0758 0 2029.62 1517.9)" gradientUnits="userSpaceOnUse"><stop stop-color="#38D175" stop-opacity=".3"/><stop offset="1" stop-color="#38D175" stop-opacity="0"/></radialGradient><radialGradient id="d" cx="0" cy="0" r="1" gradientTransform="scale(64.8418 41.5673)rotate(90 3.272 30.56)" gradientUnits="userSpaceOnUse"><stop stop-color="#38D175" stop-opacity=".3"/><stop offset="1" stop-color="#38D175" stop-opacity="0"/></radialGradient></defs></svg>