<svg xmlns="http://www.w3.org/2000/svg" width="4018" height="2672" fill="none" viewBox="0 0 4018 2672"><path fill="url(#a)" fill-rule="evenodd" d="M1452.79 1282.85c23.79.5 53.77 8.53 59.99 34.94 1.66 7.51 7.87 20.94-1.47 25.59-1.48 9.06-5.76 18-14.75 21.65-36.72 17.27-90.7 6.46-109.69-33.95 8.19-27.39 38.21-46.07 65.9-48.23z" clip-rule="evenodd"/><path fill="url(#b)" fill-rule="evenodd" d="M1679.03 1054.5c22.85-11.42 70.04-3.48 53.11 30.51-9.53 23.38-35.26 26.25-57.54 22.64-35.45-11.87-29.26-41.93 4.43-53.15" clip-rule="evenodd"/><path fill="url(#c)" fill-rule="evenodd" d="m1853.64 1155.4 9.83-.49 9.84-.49 5.9 1.97 6.39 5.41 2.95 4.43.49 5.9-.98 3.94-2.46 4.92-3.93 3.94-2.46 2.46-5.41 5.41-3.94 3.94h-15.73l-7.38-1.97-7.38-.49-6.39-1.97-4.43-4.43-3.44-4.92-1.47-4.43-.99-4.43 2.95-6.89 5.9-5.9 8.36-3.45 5.41-1.96z" clip-rule="evenodd"/><path fill="url(#d)" fill-rule="evenodd" d="M1931.85 1358.14c35.65-10.23 88.32-12.71 108.71 24.61 7.68 61.33-107.71 59.64-142.64 35.92-12.36-24.44 8.91-55.46 33.93-60.53" clip-rule="evenodd"/><path fill="url(#e)" fill-rule="evenodd" d="M2006.11 1509.71c17.48-3.57 42.34-.1 55.57 12.79 13.71 31.8-46.1 28.01-65.41 30.02-17.47-2.28-15.86-14.05-16.22-28.54 2.72-7.92 19.16-12.26 26.06-14.27" clip-rule="evenodd"/><path fill="url(#f)" fill-rule="evenodd" d="M2188.59 1449.18c43.74-10.5 132.45 4.94 121.49 63.97-33.24 43.22-102.29 19.89-145.1 4.43-38.91-27.54-13.28-58.58 23.61-68.4" clip-rule="evenodd"/><defs><radialGradient id="a" cx="0" cy="0" r="1" gradientTransform="matrix(0 45.0493 -64.7393 0 1451.61 1327.9)" gradientUnits="userSpaceOnUse"><stop stop-color="#38D175" stop-opacity=".3"/><stop offset="1" stop-color="#38D175" stop-opacity="0"/></radialGradient><radialGradient id="b" cx="0" cy="0" r="1" gradientTransform="matrix(0 29.6658 -42.4968 0 1693.24 1079.28)" gradientUnits="userSpaceOnUse"><stop stop-color="#38D175" stop-opacity=".3"/><stop offset="1" stop-color="#38D175" stop-opacity="0"/></radialGradient><radialGradient id="c" cx="0" cy="0" r="1" gradientTransform="scale(33.1958 21.1599)rotate(90 .175 55.732)" gradientUnits="userSpaceOnUse"><stop stop-color="#38D175" stop-opacity=".3"/><stop offset="1" stop-color="#38D175" stop-opacity="0"/></radialGradient><radialGradient id="d" cx="0" cy="0" r="1" gradientTransform="matrix(0 41.1739 -73.3118 0 1967.61 1392.77)" gradientUnits="userSpaceOnUse"><stop stop-color="#38D175" stop-opacity=".3"/><stop offset="1" stop-color="#38D175" stop-opacity="0"/></radialGradient><radialGradient id="e" cx="0" cy="0" r="1" gradientTransform="matrix(0 22.0662 -41.8291 0 2021.88 1530.45)" gradientUnits="userSpaceOnUse"><stop stop-color="#38D175" stop-opacity=".3"/><stop offset="1" stop-color="#38D175" stop-opacity="0"/></radialGradient><radialGradient id="f" cx="0" cy="0" r="1" gradientTransform="matrix(0 45.8913 -82.7259 0 2228.28 1492.02)" gradientUnits="userSpaceOnUse"><stop stop-color="#38D175" stop-opacity=".3"/><stop offset="1" stop-color="#38D175" stop-opacity="0"/></radialGradient></defs></svg>