<svg xmlns="http://www.w3.org/2000/svg" width="4018" height="2672" fill="none" viewBox="0 0 4018 2672"><path fill="url(#a)" fill-rule="evenodd" d="M1676.08 1050.57c31.41-30.06 82.58 19.19 50.65 51.67-20.84 16.65-55.96 16.89-65.9-11.81-9.42-21.37 1.83-26.68 15.25-39.86" clip-rule="evenodd"/><path fill="url(#b)" fill-rule="evenodd" d="M1417.38 1279.9c30.43-13.06 66.61-9.41 89.01 16.24 30.31 46.26-36.37 67.64-72.78 63.97-48.83-7.93-57.73-54.41-16.23-80.21" clip-rule="evenodd"/><path fill="url(#c)" fill-rule="evenodd" d="M1965.78 1342.89c47.93-10.5 101.27 23.11 54.59 68.89-26.08 21.72-65.55 15.69-96.88 12.3-95.39-10.08-14.06-102.74 42.29-81.19" clip-rule="evenodd"/><path fill="url(#d)" fill-rule="evenodd" d="M1991.36 1510.2c24.2 1.41 50.08.1 74.26 1.48 2.62 6.5 10.82 14.23 8.85 21.16-20.59 10.68-46.91 17.01-68.85 7.38-9.47-2.67-22.48.88-30-6.89-6.91-10.4 5.31-22.58 15.74-23.13" clip-rule="evenodd"/><path fill="url(#e)" fill-rule="evenodd" d="M2178.75 1465.42c37.13-16.73 71.96-13.96 105.75 9.35 84.55 57.25-191.9 92.49-105.75-9.35" clip-rule="evenodd"/><defs><radialGradient id="a" cx="0" cy="0" r="1" gradientTransform="matrix(0 36.1993 -39.7434 0 1697.09 1077.42)" gradientUnits="userSpaceOnUse"><stop stop-color="#38D175" stop-opacity=".3"/><stop offset="1" stop-color="#38D175" stop-opacity="0"/></radialGradient><radialGradient id="b" cx="0" cy="0" r="1" gradientTransform="matrix(0 43.9903 -61.553 0 1452.52 1316.53)" gradientUnits="userSpaceOnUse"><stop stop-color="#38D175" stop-opacity=".3"/><stop offset="1" stop-color="#38D175" stop-opacity="0"/></radialGradient><radialGradient id="c" cx="0" cy="0" r="1" gradientTransform="matrix(0 43.9248 -79.4232 0 1958.96 1383.58)" gradientUnits="userSpaceOnUse"><stop stop-color="#38D175" stop-opacity=".3"/><stop offset="1" stop-color="#38D175" stop-opacity="0"/></radialGradient><radialGradient id="d" cx="0" cy="0" r="1" gradientTransform="matrix(0 17.3828 -50.5841 0 2024.19 1527.58)" gradientUnits="userSpaceOnUse"><stop stop-color="#38D175" stop-opacity=".3"/><stop offset="1" stop-color="#38D175" stop-opacity="0"/></radialGradient><radialGradient id="e" cx="0" cy="0" r="1" gradientTransform="matrix(0 37.7033 -69.445 0 2231.34 1492.44)" gradientUnits="userSpaceOnUse"><stop stop-color="#38D175" stop-opacity=".3"/><stop offset="1" stop-color="#38D175" stop-opacity="0"/></radialGradient></defs></svg>