<svg xmlns="http://www.w3.org/2000/svg" width="4018" height="2672" fill="none" viewBox="0 0 4018 2672"><path fill="url(#a)" fill-rule="evenodd" d="M1397.71 1296.14c10.06-8.22 65.53-10.11 76.22-2.95 37.11 3.67 42.5 33.28 27.05 62.99-18.65 17.2-47.52 23.17-72.29 22.14-38.36-6.05-35.9-52.65-30.98-82.18" clip-rule="evenodd"/><path fill="url(#b)" fill-rule="evenodd" d="M1410.98 1439.83c20.9-6.72 45.97-4.51 65.9 4.92 33.55 24.65-46.29 37.34-60.98 29.04-5.63-1.93-14.98-2.01-12.78-10.34-6.6-8.16-1.75-20.69 7.86-23.62" clip-rule="evenodd"/><path fill="url(#c)" fill-rule="evenodd" d="M1917.1 1365.53c13.6-8.23 31.49-12.39 47.21-10.34 8.77-2.5 20.53-3.63 29.01.49 14.33 2.38 30.54 8.9 44.27 13.29 23.95 14.11 9.77 33.52-.99 51.18-20.06 27.62-63.99 25.18-94.91 22.14-9.96-.39-51.74 5.43-49.67-8.36 4.05-7.55.47-17.92 1.96-26.08 11.74-11.32 11.99-30.54 23.12-42.32" clip-rule="evenodd"/><path fill="url(#d)" fill-rule="evenodd" d="M2177.27 1460.01c26.56-13.43 105.99-12.61 114.61 19.68 16.33 16.1-3.95 33.73-15.74 45.76-24.77 16.65-48.19 10.22-74.26.99-28.58-8.98-54.13-45.13-24.59-66.43z" clip-rule="evenodd"/><defs><radialGradient id="a" cx="0" cy="0" r="1" gradientTransform="matrix(0 44.8373 -57.0534 0 1452.03 1333.59)" gradientUnits="userSpaceOnUse"><stop stop-color="#38D175" stop-opacity=".3"/><stop offset="1" stop-color="#38D175" stop-opacity="0"/></radialGradient><radialGradient id="b" cx="0" cy="0" r="1" gradientTransform="matrix(0 20.1919 -42.4792 0 1442.56 1456.13)" gradientUnits="userSpaceOnUse"><stop stop-color="#38D175" stop-opacity=".3"/><stop offset="1" stop-color="#38D175" stop-opacity="0"/></radialGradient><radialGradient id="c" cx="0" cy="0" r="1" gradientTransform="matrix(0 45.5591 -79.3723 0 1971.31 1398.51)" gradientUnits="userSpaceOnUse"><stop stop-color="#38D175" stop-opacity=".3"/><stop offset="1" stop-color="#38D175" stop-opacity="0"/></radialGradient><radialGradient id="d" cx="0" cy="0" r="1" gradientTransform="matrix(0 41.9704 -66.9222 0 2231.07 1493.78)" gradientUnits="userSpaceOnUse"><stop stop-color="#38D175" stop-opacity=".3"/><stop offset="1" stop-color="#38D175" stop-opacity="0"/></radialGradient></defs></svg>