<svg xmlns="http://www.w3.org/2000/svg" width="4018" height="2672" fill="none" viewBox="0 0 4018 2672"><path fill="url(#a)" d="M2283.05 1731.3c20.1 4.21 42.07 4.97 60.19 15.65 10.72 5.48 18.87 14 24.75 24.21 13.83 20.53 16.31 38.01-9.02 49.61-11.57 5.24-23.92 8.85-36.39 9.42-6.81.33-13.79.17-20.62.21-28.49.1-55.81 1.89-78.31-18.93-6.42-5.73-13.95-12.98-20.48-19.63-4.71-4.67-8.63-11.18-7.77-17.83 4.37-26.32 34.95-34.64 56.27-42.73"/><path fill="url(#b)" d="M2192.53 1509.44c20.76 3.86 50.99 14.41 70.42 19.47 14.99 3.92 28 13.01 41.68 20.41 10.81 5.85 16.99 12.4 23.36 21.83 6.51 9.61 12.23 20.22 13.85 31.21 3.28 20.76-28.2 51.89-46.32 59.59-9 3.92-18.48 7.56-28.12 9.1-10.79 1.5-22.83.78-33.54.94h-60.37c-8.53 0-17.58.17-25.78-1.54-13.19-2.89-22.92-8.07-35.49-12.61-15.9-6.42-33.48-11.78-48.31-20.76-9.25-5.85-20.51-10.47-25.99-20.31-6.05-11.82-8.51-26.28-1.84-38.15 6.31-13.04 13.19-25.03 25.29-33.62 22.34-18.76 50.4-29.11 78.95-33.88 16.23-3.12 35.29-2.44 51.96-1.68l.29.04z"/><path fill="url(#c)" d="M1916.1 1209.69c13.68 5.4 27.79 13.76 37.99 24 22.36 21.48 47.59 63.23 16.43 87.85-18.61 15.84-45.36 14.36-68.39 14.48-22.48-.68-45.68 2.9-67.24-6.02-13.03-5.25-26.63-6.83-39.33-13.47-13.76-7.18-26.64-18.62-33.02-33.04-4.23-11.05-3.63-23.96-1.66-35.4 2.07-10.41 7.61-17.48 16.57-24.07 10.28-7.14 21.66-13.86 33.44-17.45 10.6-3.41 23.09-5.14 34.52-5.07 23.73-.44 48.04-.31 70.32 8.02l.37.15z"/><path fill="url(#d)" d="M1930.54 899.94c4.8.801 9.27 2.608 13.74 4.62 14.44 6.879 31.88 13.944 46.01 21.891 9.03 5.421 21.46 12.649 30.16 20.658 18.46 19.693-6.14 29.734-23.51 33.841-13.5 3.738-27.78 3.368-41.83 3.717-12.22.534-22.62 3.532-34.93 5.996-13.13 2.711-26.93 3.799-40.16 1.479-5.73-1.129-13.73-1.191-17.24-6.119-2.66-4.58-2.7-11.849-7.61-16.88-8.78-8.461-14.56-16.243-14.13-29.119.74-16.715 15.47-29.426 30.09-35.279 10.83-4.477 22.57-5.442 34.08-5.709 8.14 0 17.57-.369 24.96.863l.35.061z"/><path fill="url(#e)" d="M1566.42 899.067a638 638 0 0 1 48.53 0c14.32 1.171 29.79 3.84 44.15 5.627 20.31 3.039 41.31 4.107 61.13 9.98 13.84 3.799 28.98 8.871 35.09 21.972 6.81 12.342 2.22 29.981-5.58 40.741-2.81 3.758-6.54 6.715-10.62 8.933-8.04 4.189-18.81 8.44-28.35 12.526-16.74 8.034-35.43 6.574-53.64 6.614h-70.91c-34.47-.68-71.59 3.43-103.35-11.994-32.12-16.017-30.52-53.514-.98-71.769 23.67-16.839 56.12-19.611 84.18-22.609h.35z"/><defs><radialGradient id="a" cx="0" cy="0" r="1" gradientTransform="matrix(0 49.6008 -91.495 0 2286.78 1780.88)" gradientUnits="userSpaceOnUse"><stop stop-color="#38D175" stop-opacity=".3"/><stop offset="1" stop-color="#38D175" stop-opacity="0"/></radialGradient><radialGradient id="b" cx="0" cy="0" r="1" gradientTransform="scale(154.991 81.613)rotate(90 -2.688 16.8)" gradientUnits="userSpaceOnUse"><stop stop-color="#38D175" stop-opacity=".3"/><stop offset="1" stop-color="#38D175" stop-opacity="0"/></radialGradient><radialGradient id="c" cx="0" cy="0" r="1" gradientTransform="matrix(0 67.4079 -112.854 0 1872.22 1268.77)" gradientUnits="userSpaceOnUse"><stop stop-color="#38D175" stop-opacity=".3"/><stop offset="1" stop-color="#38D175" stop-opacity="0"/></radialGradient><radialGradient id="d" cx="0" cy="0" r="1" gradientTransform="matrix(0 47.2121 -92.9932 0 1934.073 946.225)" gradientUnits="userSpaceOnUse"><stop stop-color="#38D175" stop-opacity=".3"/><stop offset="1" stop-color="#38D175" stop-opacity="0"/></radialGradient><radialGradient id="e" cx="0" cy="0" r="1" gradientTransform="matrix(0 53.4663 -149.69 0 1608.95 952.071)" gradientUnits="userSpaceOnUse"><stop stop-color="#38D175" stop-opacity=".3"/><stop offset="1" stop-color="#38D175" stop-opacity="0"/></radialGradient></defs></svg>