<svg xmlns="http://www.w3.org/2000/svg" width="4018" height="2672" fill="none" viewBox="0 0 4018 2672"><path fill="url(#a)" d="M1397.04 1419.68c4.25-.41 8.55-.51 12.86-.55 10.38.22 21.81-1.01 31.86 2.07 7.63 2.32 13.74 7.19 19.79 12.3 5.05 4.27 9.69 8.48 13.17 13.55 17.01 23.41 17.13 69.62-3.03 91.04-7.2 6.94-16.89 11.52-26.63 13.53-8.06 1.54-16.2 1.52-24.51 3.14-16.64 3.08-34.24 8.13-51.06 2.96-7.81-2.45-13.66-7.64-20.31-12.37-13.74-9.38-28.45-16.83-40.53-28.35-8.98-7.31-14.85-17.68-15.26-29.62-2.63-24.86 13.11-29.42 31.2-41.48 13.25-8.11 24.08-16.96 40.04-20.47 10.95-2.32 21.56-4.54 32.04-5.71l.35-.04z"/><path fill="url(#b)" d="M2271.03 1760.97c18.11 3.45 38.11 9.65 51.12 23.21 5.54 5.73 7.44 13.92 5.11 21.37-1.77 4.87-7.18 8.83-12.48 11.5-13.27 5.98-29.27 3.27-43.48 6.02-11.2 2.32-21.83 7.08-33.4 7.45-13.97.31-32.98 3.15-39.32-13.02-3.88-11.66-6.44-26.9.53-37.62 5.56-8.5 16-11.45 25.11-14.97 14.46-5.09 30.95-6.05 46.38-4l.41.06z"/><path fill="url(#c)" d="M2587.75 1670.29c23.81 2.77 48.61 6.9 69.76 18.15 12.11 6.06 20.93 15.44 29.32 26.2 9.78 13.19 18.91 29.08 16 45.69-2.14 11.28-7.45 23.93-16.13 32.14-5.23 4.77-12.59 7.31-19.71 8.54-7.98 1.42-16.33 3.23-24.8 4.21-14.56 1.48-29.11.58-43.73.78-24.72.17-47.98-.86-71.26-9.03-16.15-5.87-33.07-10-47.64-19.51-22.52-13.82-35.85-47.54-18.03-70.04 10.18-14.26 26.05-22.92 42.3-28.49 9.46-3.43 18.05-6.28 27.75-7.88 10.16-1.69 18.88-1.32 28.83-1.38 9.55.04 18.09-.14 26.93.58l.39.04z"/><path fill="url(#d)" d="M2167.77 1526.77c14.77-1.19 30.32-1.4 44.94.33 16.31 3 34.57 7.82 49.09 13.82 11.67 5.03 22.11 13.12 27.12 25.17 14.93 28.12-6.24 60.54-32.23 72.57-30.58 14.85-65.02 9.62-97.68 10.52-16.31-.39-32.92 1.21-48.98-1.75-11.39-2.11-21.89-7.2-31.06-13.98-7.98-6.68-11.16-16.26-10.79-26.8-.25-32.42 9.89-56.59 42.87-66.12 18.65-5.57 37.25-10.8 56.29-13.7l.39-.04z"/><path fill="url(#e)" d="M2016.86 1221.99c8.39 0 16.37.37 24.08 3.02 11.1 3.8 21.72 14.5 18.91 26.94-1.41 6.53-6.6 11.6-11.28 17.17-4.45 5.09-9.05 10.45-14.69 14.17-14.95 10.37-53.99 4.39-66.68-7.77-9.44-7.84-12.64-22.01-5.65-32.54 11.92-16.68 35.18-21.09 54.88-21.01h.43z"/><path fill="url(#f)" d="M1751.69 1064.81c24.65-1.82 67.12-4.57 72.49 27.21 1.78 13.64-12.16 38.47-22.48 47.32-6.71 5.25-15.43 6.75-23.49 8.93-19.02 5.44-42.24 10.31-59.98-.74-17.13-10.35-34.93-34.36-19.96-53.29 12.47-17.06 32.02-27.47 52.99-29.36z"/><defs><radialGradient id="a" cx="0" cy="0" r="1" gradientTransform="matrix(0 70.439 -97.0315 0 1390.13 1489.51)" gradientUnits="userSpaceOnUse"><stop stop-color="#F95C65" stop-opacity=".3"/><stop offset="1" stop-color="#F95C65" stop-opacity="0"/></radialGradient><radialGradient id="b" cx="0" cy="0" r="1" gradientTransform="matrix(0 35.501 -66.7467 0 2261.49 1795.4)" gradientUnits="userSpaceOnUse"><stop stop-color="#F95C65" stop-opacity=".3"/><stop offset="1" stop-color="#F95C65" stop-opacity="0"/></radialGradient><radialGradient id="c" cx="0" cy="0" r="1" gradientTransform="matrix(0 68.2101 -125.052 0 2578.32 1737.88)" gradientUnits="userSpaceOnUse"><stop stop-color="#F95C65" stop-opacity=".3"/><stop offset="1" stop-color="#F95C65" stop-opacity="0"/></radialGradient><radialGradient id="d" cx="0" cy="0" r="1" gradientTransform="matrix(0 61.7649 -112.861 0 2181.01 1587.6)" gradientUnits="userSpaceOnUse"><stop stop-color="#F95C65" stop-opacity=".3"/><stop offset="1" stop-color="#F95C65" stop-opacity="0"/></radialGradient><radialGradient id="e" cx="0" cy="0" r="1" gradientTransform="scale(51.2661 33.3189)rotate(90 .757 38.432)" gradientUnits="userSpaceOnUse"><stop stop-color="#F95C65" stop-opacity=".3"/><stop offset="1" stop-color="#F95C65" stop-opacity="0"/></radialGradient><radialGradient id="f" cx="0" cy="0" r="1" gradientTransform="matrix(0 45.1759 -65.8424 0 1758.49 1109)" gradientUnits="userSpaceOnUse"><stop stop-color="#F95C65" stop-opacity=".3"/><stop offset="1" stop-color="#F95C65" stop-opacity="0"/></radialGradient></defs></svg>