<svg xmlns="http://www.w3.org/2000/svg" width="4018" height="2672" fill="none" viewBox="0 0 4018 2672"><path fill="url(#a)" d="M1384.3 1434.03c8.02 1.05 16.11.41 24.11 1.58 8.65 1.18 16.69 4.65 25.66 6.23 20.47 1.93 27.89 13.67 34.85 31.64 4.47 11.32 7.73 23.99 3.79 35.88-1.04 3.4-2.56 6.57-4.2 9.71-4.72 8.79-8.1 18.34-15.78 24.83-10.29 7.8-23.09 12.3-35.18 16.77-8.9 2.96-18.03 6.14-27.28 6.9-5.78.52-11.36.31-17.19.78-10.52.8-21.09 3.84-31.24.39-7.98-2.93-14.62-8.79-20.76-14.54-7.92-7.24-15.9-15.13-18.77-25.81-2.13-7.14-2.25-14.27-2.17-21.7.1-17.66-.21-34.87.12-52.51.41-20.91 18.73-18.67 33.75-21.34 16.61-3.55 33.29-1.89 49.84 1.17l.41.04z"/><path fill="url(#b)" d="M1367.93 1655.61c9.73 1.08 20.04 4.74 29.71 7 8.53 2.26 16.12 4.43 24.69 7.58 18.14 6.53 18.96 25.93 2.38 34.76-14.52 7.56-31.55 8.36-47.53 12.26-13.56 3.08-27.48 5.73-41.45 2.38-15.24-3.2-29.27-9.81-30.26-27.43-2.67-16 8.62-26.29 22.52-31.42 10.45-3.37 28.72-5.03 39.61-5.15h.31z"/><path fill="url(#c)" d="M2125.98 1538.25c19.53-3.35 38.98-6.16 58.55-7.74 16.18-.35 31.89 3.24 47.46 7.7 9.38 2.63 18.51 5.91 27.08 9.51 13.64 5.89 29.23 10.59 38.07 23.06 11.63 14.88 4.58 29.09-3.3 43.47-9.27 16.32-18.05 35.63-37.31 41.54-12.74 4.27-25.79 11.13-39.41 13.49-15.32 1.73-32.18.43-48.84.82-31.98-.18-63.44 1.44-94.85-4.53-19.14-3.02-17.44-15.16-13.83-30.29 2.94-11.56 2.49-23.31 6.88-34.69 4.45-10.78 11.46-20.39 15.07-31.54 2.79-7.23 6.14-14.89 12.45-19.65 8.8-5.85 21.11-8.5 31.61-11.05l.37-.08z"/><defs><radialGradient id="a" cx="0" cy="0" r="1" gradientTransform="matrix(0 69.7582 -87.1866 0 1387.29 1500.6)" gradientUnits="userSpaceOnUse"><stop stop-color="#F95C65" stop-opacity=".3"/><stop offset="1" stop-color="#F95C65" stop-opacity="0"/></radialGradient><radialGradient id="b" cx="0" cy="0" r="1" gradientTransform="matrix(0 32.7811 -65.7436 0 1370.82 1688.37)" gradientUnits="userSpaceOnUse"><stop stop-color="#F95C65" stop-opacity=".3"/><stop offset="1" stop-color="#F95C65" stop-opacity="0"/></radialGradient><radialGradient id="c" cx="0" cy="0" r="1" gradientTransform="matrix(0 69.8617 -122.98 0 2180.31 1600.35)" gradientUnits="userSpaceOnUse"><stop stop-color="#F95C65" stop-opacity=".3"/><stop offset="1" stop-color="#F95C65" stop-opacity="0"/></radialGradient></defs></svg>