<svg xmlns="http://www.w3.org/2000/svg" width="4018" height="2672" fill="none" viewBox="0 0 4018 2672"><path fill="url(#a)" d="M2576.69 1680.25c12.49 1.52 27.82 5.34 40.43 7.6 5.75 1.13 10.94 2.3 16.47 4.27 10.16 4.23 23.59 6.47 30.75 15.62 7.04 10.19 14.65 21.3 17.25 32.57.93 4.93-.41 11.44-2.95 16.6-9.23 20.65-27.24 36.69-47.34 46.88-11.82 6.38-25.38 5.87-38.38 5.75-8.68-.13-18.09.45-26.07-.99-6.88-1.25-13.17-4.09-19.66-6.67-11.71-4.87-23.59-9-34.97-14.93-11.41-6.59-20-18.11-28.62-27.68-15.07-19.33-10.58-52.26 9.89-65.96 10.59-6.98 21.44-6.37 34.52-8.15 15.08-1.4 34.08-4.56 48.42-4.95h.24z"/><path fill="url(#b)" d="M2032.55 1752.53c10.46-1.37 22.24-.64 33 1.34 14.75 2.32 29.79 2.46 43.94 8.05 12.31 3.88 25.44 7.1 35.9 15.31 14.28 10.19 2.26 22.88-8.18 30.19-7.06 5.22-14.18 10.17-21.93 14.05-8.23 3.96-17.44 4.15-26.26 5.01-8.57.94-16.16 2.71-24.55 3.12-7.28.43-15.55.18-22.75.25-13.11-.37-27.16 1.43-39.59-2.96-14.77-5.05-23.43-19.86-18.81-35.14 2.01-7.84 7.12-15.07 11.59-21.56 1.56-2.11 3.22-4.02 5.27-5.67 8.33-6.34 21.25-9.63 32-11.95l.37-.06z"/><path fill="url(#c)" d="M1924.32 1602.81c15.12 3.29 24.31 5.94 32.35 20.04 6.5 9.59 11.82 19.26 8.58 31.48-1.75 7.54-3.92 14.75-6.1 22.08-2.09 7.12-5.17 14.21-11.22 18.81-8.49 6.36-19.89 7.49-29.88 10.51-9.65 2.75-19.94 6.35-29.99 4.31-10.94-2.4-22.3-7.49-28.76-16.98-4.66-7.84-4.82-18.13-6.87-27.04-2.36-9.53-3.12-18.98.53-28.11 6.83-17.13 21.78-31.34 39.24-36.8 10.52-2.96 21.29-.78 31.71 1.58l.41.1z"/><path fill="url(#d)" d="M1987.15 1226.65c19.72-2.77 38.67 5.89 57.46 10.8 17.62 5.1 18.95 15.61 9.44 29.86-7.84 12.3-21.79 21.89-36.87 20.12-7.26-.73-14.21-2.81-21.33-4.49-9.52-2.12-19.34-4.15-27.24-9.92-11.73-7.58-14.95-24.77-6.15-35.57 5.86-6.53 15.55-9.38 24.28-10.76l.41-.06z"/><path fill="url(#e)" d="M1876.51 1150.69c19.03 2.8 37.97 15.96 39.1 36.45.73 8.32 1.06 17.62-2.22 24.89-3.86 8.38-11.32 15.32-20.49 17.48-13.5 2.48-28.15-.39-40.41-5.98-7.9-4.13-12.91-11.77-16.39-19.78-3.41-8.66-7.18-17.88-5.85-27.12 1.97-15.03 32.27-27.87 45.87-26z"/><path fill="url(#f)" d="M1818.85 1231.91c15.12 1.68 30.89.96 45.74 1.54 9.56-.86 17.76-.99 26.48 2.59 16.84 5.56 28.15-5.38 37.27 15.99 7.31 13.64.13 27.5-10.66 36.74-11.76 10.37-28.21 12.07-43.14 13.08-15.36 1.62-31.47 1.91-46.81 1.7-15.32-1.15-38.18 4.54-48.47-9.42-10.55-16.65-3.06-39.16 8.72-53.08 7.69-7.79 19.83-10.09 30.5-9.16h.37z"/><defs><radialGradient id="a" cx="0" cy="0" r="1" gradientTransform="matrix(0 64.6959 -103.606 0 2578.28 1744.9)" gradientUnits="userSpaceOnUse"><stop stop-color="#38D175" stop-opacity=".3"/><stop offset="1" stop-color="#38D175" stop-opacity="0"/></radialGradient><radialGradient id="b" cx="0" cy="0" r="1" gradientTransform="matrix(0 39.0425 -84.9304 0 2067 1790.87)" gradientUnits="userSpaceOnUse"><stop stop-color="#38D175" stop-opacity=".3"/><stop offset="1" stop-color="#38D175" stop-opacity="0"/></radialGradient><radialGradient id="c" cx="0" cy="0" r="1" gradientTransform="matrix(0 55.4826 -57.8935 0 1908.33 1655.16)" gradientUnits="userSpaceOnUse"><stop stop-color="#38D175" stop-opacity=".3"/><stop offset="1" stop-color="#38D175" stop-opacity="0"/></radialGradient><radialGradient id="d" cx="0" cy="0" r="1" gradientTransform="scale(51.237 30.7643)rotate(90 -.826 40.03)" gradientUnits="userSpaceOnUse"><stop stop-color="#38D175" stop-opacity=".3"/><stop offset="1" stop-color="#38D175" stop-opacity="0"/></radialGradient><radialGradient id="e" cx="0" cy="0" r="1" gradientTransform="matrix(0 39.9782 -43.0589 0 1873.04 1190.43)" gradientUnits="userSpaceOnUse"><stop stop-color="#38D175" stop-opacity=".3"/><stop offset="1" stop-color="#38D175" stop-opacity="0"/></radialGradient><radialGradient id="f" cx="0" cy="0" r="1" gradientTransform="matrix(0 36.0339 -78.5482 0 1852.76 1267.73)" gradientUnits="userSpaceOnUse"><stop stop-color="#38D175" stop-opacity=".3"/><stop offset="1" stop-color="#38D175" stop-opacity="0"/></radialGradient></defs></svg>