<svg xmlns="http://www.w3.org/2000/svg" width="4018" height="2672" fill="none" viewBox="0 0 4018 2672"><path fill="url(#a)" d="M2111.67 1567.08c7.83-6.04 22.11-4.29 34.09-4.56 22.25.06 45.47-.1 64.24.06 13.26.02 23.49 3.54 37.32 7.58 12.33 3.82 29.21 8.46 27.5 22.34-2.19 17.38-15.85 25.96-32.59 28.71-27.53 5.63-52.37 1.03-80.02-1.23-8.99-.82-19.78-1.81-27.71-2.55-10.57-.98-23.82-2.42-29.95-9.83-11.35-11.48-4.78-31.89 6.87-40.38l.25-.16z"/><path fill="url(#b)" d="M1311.24 1478.23c5.68-8.59 16.86-11.52 26.31-14.07 18.47-4.5 32.64-2.96 53.48-4.29 15.28-.58 31.39-1.28 41.99-1.62 17.72-1.5 19.06 8.11 19.86 23.92-.06 6.49-.17 13.45-3.2 19.26-13.56 20.64-55.96 13.06-77.93 12.73-19.39-1.39-40.39.08-54.48-14.91-5.09-5.48-10.98-13.47-6.22-20.78l.17-.26z"/><path fill="url(#c)" d="M1324.26 1682.38c1.46-6.55 9.6-4.45 20.91-4.9h64.04c10.95.47 19.65-1.83 23.91 6.28.6 1.68.41 3.53-.55 5.24-2.69 4.88-10.03 6.36-15.71 6.69-17.11 1.15-48.23 3-66.44 4.15-4.91.25-10.18.66-14.63-.97-6.42-2.17-12.04-10.3-11.59-16.3v-.19z"/><path fill="url(#d)" d="M2019.75 1775.14c11.16-1.58 18.15-.33 32.78-.72h37.78c11.49.04 22.01-.08 29.13.08 8.35-.16 13.09 3.39 13.64 12.72.46 5.56-.2 11.66-2.83 14.78-3.18 3.64-8.94 3.06-13.66 3.22-23.22 0-72.51.05-93.66-.02-6.36.15-12.29-1.25-13.44-8.46-1.49-7.41 2.01-19.28 10.01-21.52l.23-.06z"/><path fill="url(#e)" d="M2337.35 1073.34c2.85-4.29 16.06-3.06 23.38-3.27 27.45.31 59.84-.63 82.5.41 11.12.82 6.2 15.51 5.95 24.21-1.15 10-2.4 23.89-3.85 33.06-1.42 11.44-7.12 12.12-16.11 12.1-20.18.06-65.9.04-86.97 0-4.53-.27-10.28.55-13.13-3.1-1.04-1.56-1.35-3.92-1.25-7.27.16-4.25.98-10.19 1.87-16.94 1-7.58 2.09-15.96 3.01-22.65 1.15-8.11 2.09-13.64 4.43-16.43l.13-.14z"/><path fill="url(#f)" d="M2485.98 1446.25c4.95-4.52 16.89-4.68 25.05-4.49 18.93.53 39.38-1.18 55.59.92 10.42 2.52 9.41 18.01 6.77 25.89-3.8 9.57-21.56 5.69-31.06 6.49-14.17-.31-33.25.72-46.19-.63-7.16-1.19-12.08-4.07-13.75-9.47-1.76-5.96-1.51-14.29 3.41-18.54l.2-.17z"/><path fill="url(#g)" d="M1292.86 864.332c2.66 8.132 17.06 4.724 26.23 5.422h55.29c28.86-.432 49.76.862 67.85-.555 9.09-1.745-.96-22.465-7.59-26.018-4.02-2.217-8.26-1.971-13-2.053h-114.51c-4.57.123-10.03-.267-12.94 3.532-3.44 4.723-3.47 14.046-1.43 19.467l.08.205z"/><defs><radialGradient id="a" cx="0" cy="0" r="1" gradientTransform="matrix(0 30.7094 -88.1418 0 2186.8 1593.19)" gradientUnits="userSpaceOnUse"><stop stop-color="#F95C65" stop-opacity=".3"/><stop offset="1" stop-color="#F95C65" stop-opacity="0"/></radialGradient><radialGradient id="b" cx="0" cy="0" r="1" gradientTransform="matrix(0 28.8476 -71.7899 0 1381.09 1486.94)" gradientUnits="userSpaceOnUse"><stop stop-color="#F95C65" stop-opacity=".3"/><stop offset="1" stop-color="#F95C65" stop-opacity="0"/></radialGradient><radialGradient id="c" cx="0" cy="0" r="1" gradientTransform="matrix(0 11.2986 -54.6445 0 1378.82 1688.78)" gradientUnits="userSpaceOnUse"><stop stop-color="#F95C65" stop-opacity=".3"/><stop offset="1" stop-color="#F95C65" stop-opacity="0"/></radialGradient><radialGradient id="d" cx="0" cy="0" r="1" gradientTransform="matrix(0 15.4608 -62.0294 0 2071.19 1789.78)" gradientUnits="userSpaceOnUse"><stop stop-color="#F95C65" stop-opacity=".3"/><stop offset="1" stop-color="#F95C65" stop-opacity="0"/></radialGradient><radialGradient id="e" cx="0" cy="0" r="1" gradientTransform="scale(61.3138 34.9575)rotate(90 3.68 35.287)" gradientUnits="userSpaceOnUse"><stop stop-color="#F95C65" stop-opacity=".3"/><stop offset="1" stop-color="#F95C65" stop-opacity="0"/></radialGradient><radialGradient id="f" cx="0" cy="0" r="1" gradientTransform="matrix(0 16.7933 -46.8816 0 2528.28 1458.4)" gradientUnits="userSpaceOnUse"><stop stop-color="#F95C65" stop-opacity=".3"/><stop offset="1" stop-color="#F95C65" stop-opacity="0"/></radialGradient><radialGradient id="g" cx="0" cy="0" r="1" gradientTransform="matrix(0 14.3801 -77.2389 0 1368.62 855.508)" gradientUnits="userSpaceOnUse"><stop stop-color="#F95C65" stop-opacity=".3"/><stop offset="1" stop-color="#F95C65" stop-opacity="0"/></radialGradient></defs></svg>