<svg xmlns="http://www.w3.org/2000/svg" width="4018" height="2672" fill="none" viewBox="0 0 4018 2672"><path fill="url(#a)" d="M1333.02 1664.07c4.6-2.73 15.59-.04 22.18.26 15.91 1.65 37.82 3.84 48.88 5.03 2.79.44 6.19.54 7.63 3.06 1.74 4.71-1.34 11.79-3.3 18.4-2.08 6.49-5.07 9.37-12.17 8.96-18.21 0-67.65.06-83.4-.02-1.93-.15-4.23.1-4.97-1.48-.24-.84.33-2.22 1.58-4.21 1.52-2.4 4.02-5.79 6.83-9.63 4.88-6.2 11.2-16.64 16.54-20.27l.2-.12z"/><path fill="url(#b)" d="M1892.36 1635.67c6.42-2.51 15.47-2.24 22.83-1.54 4.07.55 8.29.88 11.64 3.12 4.55 2.81-1.83 10.22-7.02 14.41-6.17 5.16-11.82 11.46-19.12 14.71-7.75 3.55-23.42 3.12-27.28-4.81-2.4-9.2 10.93-22.2 18.61-25.75l.36-.14z"/><path fill="url(#c)" d="M2058.81 1586.67c3.36-3.33 7.96-5.36 12.43-7.19 17.1-6.28 41.43-16.67 58.23-21.89 7.8-1.31 13.15.64 22.2 1.48 10.95 1.42 24.61 3.14 36.37 4.66 11.42 1.46 22.73 2.92 33.93 4.36 9.53 1.25 15.65 1.35 22.44 6.85 6.85 5.18 14.03 11.09 20.61 16.6 12.54 9.2 9.66 24.35-3.03 31.87-2.86 1.64-6.08 2.79-9.28 3.88-10.21 3.14-20.86 7.23-30.72 9.38-9.77 2.06-18.86-2.15-28.11-5.03-8.96-2.85-18.93-5.09-27.73-6.1-12.68-1.82-30.07-.65-44-1.5-9.27-.51-16.74-3.84-25.62-5.13-11.51-1.62-24.57.29-34.4-7.1-9.01-6.17-11.45-17.19-3.55-24.89l.21-.23z"/><path fill="url(#d)" d="M1817.68 1185.77c7.73-8.01 20.92-11.98 30.99-17.29 15.26-8.16 18.98-5.28 32.93 2.85 4.37 2.48 9.31 5.3 13.58 7.74 3.71 2.59 14.25 6.57 11.09 10.39-1.47 1.77-5.51 3.92-10.81 6.96-9.9 5.63-20.67 11.79-30.68 17.48-7.59 4.29-12.11 7.23-17.46 7.04-9.95-.96-21.44-5.77-29.33-11.25-7.49-5.59-6.75-17.31-.56-23.66z"/><path fill="url(#e)" d="M1817.29 1239.81c9.5-1.06 17.7 1.44 28.18 2.63 12.35 1.83 33.97 4.91 46.48 6.8 3.88.62 7.92 1.58 10.98 3.84 15.38 12.12-9.46 26.18-20.88 29.53-8.91 3.28-16.95-.39-25.75.37-8.04.51-16.12 6.22-24.04 2.4-4.47-1.97-8.63-4.64-14.11-3.96-9.15 1.13-15.59 9.32-22.67-.86-1.97-2.49-6.05-3.54-7.4-5.73-1.68-2.47-.56-7.62-5.13-6.6-2.05.19-5.74.99-8.33.76-3.61-.1-6.01-2.93-3.47-6.22 6.59-6.06 16.33-9.49 25.99-15.17 6.22-3.35 12.85-6.84 19.8-7.77l.33-.04z"/><path fill="url(#f)" d="M1422.03 945.528c2.11-1.705 4.1-2.321 6.68-2.362 6.42 0 20.56.205 38.61.37 18.03.184 39.88.431 61.46.657 39.17.452 77.37.76 90.27 1.006 2.89.164 6.4 1.396 6.63 4.538.24 4.621-4.95 12.054-10.16 16.161-7.71 6.12-18.23 7.331-27.85 7.187-11.57-.041-23.3 1.664-35.14 3.656-15 2.977-29.33.123-44.43-1.972-11.37-1.868-23.24 1.13-34.69 1.643-11.24-.801-22.38-3.162-33.66-1.992-4.27.226-8.62.206-12.92.247-6.3 0-13.36 1.971-18.49 1.807-18.33-.863 8.91-26.778 13.52-30.782l.19-.144z"/><defs><radialGradient id="a" cx="0" cy="0" r="1" gradientTransform="matrix(0 18.4809 -52.2037 0 1360.02 1681.33)" gradientUnits="userSpaceOnUse"><stop stop-color="#38D175" stop-opacity=".3"/><stop offset="1" stop-color="#38D175" stop-opacity="0"/></radialGradient><radialGradient id="b" cx="0" cy="0" r="1" gradientTransform="matrix(0 17.4264 -27.6287 0 1900.75 1651.07)" gradientUnits="userSpaceOnUse"><stop stop-color="#38D175" stop-opacity=".3"/><stop offset="1" stop-color="#38D175" stop-opacity="0"/></radialGradient><radialGradient id="c" cx="0" cy="0" r="1" gradientTransform="matrix(0 40.0337 -109.637 0 2163.46 1597.18)" gradientUnits="userSpaceOnUse"><stop stop-color="#38D175" stop-opacity=".3"/><stop offset="1" stop-color="#38D175" stop-opacity="0"/></radialGradient><radialGradient id="d" cx="0" cy="0" r="1" gradientTransform="rotate(90 333.72 1526)scale(28.6699 47.1389)" gradientUnits="userSpaceOnUse"><stop stop-color="#38D175" stop-opacity=".3"/><stop offset="1" stop-color="#38D175" stop-opacity="0"/></radialGradient><radialGradient id="e" cx="0" cy="0" r="1" gradientTransform="matrix(0 23.5671 -68.8587 0 1838.96 1263.12)" gradientUnits="userSpaceOnUse"><stop stop-color="#38D175" stop-opacity=".3"/><stop offset="1" stop-color="#38D175" stop-opacity="0"/></radialGradient><radialGradient id="f" cx="0" cy="0" r="1" gradientTransform="matrix(0 17.4294 -111.808 0 1513.88 960.595)" gradientUnits="userSpaceOnUse"><stop stop-color="#38D175" stop-opacity=".3"/><stop offset="1" stop-color="#38D175" stop-opacity="0"/></radialGradient></defs></svg>