<svg xmlns="http://www.w3.org/2000/svg" width="4018" height="2672" fill="none" viewBox="0 0 4018 2672"><path fill="url(#a)" d="M1313.55 1462.56c7.28-5.42 17.83-5.83 26.59-8.11 12.82-3 24.82-.99 38.38-.21 10.11 1.36 24.96-.41 32.39 5.91 2.01 1.71 3.75 3.78 5.35 5.94 4.53 6.32 8.82 12.59 7.08 19.34-3.1 9.28-10.34 18.51-15.31 26.68-4.51 7.06-8.08 7.02-14.68 5.71-19.14-3.47-70.44-12.67-86.83-15.73-6.24-.97-6.81-4.05-4.95-10.41 2.73-7.85 5.64-23.07 11.72-28.94l.24-.2z"/><defs><radialGradient id="a" cx="0" cy="0" r="1" gradientTransform="matrix(0 32.8225 -61.5492 0 1362.19 1485.68)" gradientUnits="userSpaceOnUse"><stop stop-color="#F95C65" stop-opacity=".3"/><stop offset="1" stop-color="#F95C65" stop-opacity="0"/></radialGradient></defs></svg>