<svg xmlns="http://www.w3.org/2000/svg" width="4018" height="2672" fill="none" viewBox="0 0 4018 2672"><path fill="url(#a)" d="M1742.83 1392.82c1.57 2.65-.41 10.66-2.38 13.29-2.4 2.87-6.32 7.9-10.47 5.68-5.23-3.08-2.62-10.94.21-14.88 2.44-3.41 8.45-6.74 12.45-4.25l.19.18z"/><path fill="url(#b)" d="M2250.33 1289.55c12.93-3.31 27.8-4.62 41.07-3.18 10.36.86 21.35.96 31.18 4.02 13.05 3.88 19.94 14.07 17.76 27.5-1.68 12.28-5.64 24.23-14.58 32.92-4.8 4.6-11.98 8.81-19.65 12.52-7.9 3.99-14.75 7.21-23.53 8.75-11.22 2.03-23.32 4.46-34.17 5.13-6.86.37-14.26 1.17-21.19.87-14.4-1.15-26.53-10.37-33.62-22.22-4.68-8.07-2.12-18.96.88-27.62 7.16-22.14 35.44-32.06 55.49-38.57l.36-.1z"/><defs><radialGradient id="a" cx="0" cy="0" r="1" gradientTransform="matrix(0 10.2758 -8.21024 0 1735.19 1402.07)" gradientUnits="userSpaceOnUse"><stop stop-color="#38D175" stop-opacity=".3"/><stop offset="1" stop-color="#38D175" stop-opacity="0"/></radialGradient><radialGradient id="b" cx="0" cy="0" r="1" gradientTransform="scale(74.8588 46.1779)rotate(90 .712 29.557)" gradientUnits="userSpaceOnUse"><stop stop-color="#38D175" stop-opacity=".3"/><stop offset="1" stop-color="#38D175" stop-opacity="0"/></radialGradient></defs></svg>