<svg xmlns="http://www.w3.org/2000/svg" width="4018" height="2672" fill="none" viewBox="0 0 4018 2672"><g clip-path="url(#a)"><path fill="url(#b)" d="M1379.44 1445.98c14.59-1.66 29.85-5.81 44.17-5.03 7.46.31 14.74 1.46 22.17 2.55 7.92 1.33 15.24 1.91 21.52 5.33 11.55 5.62 12.33 19.76 12.59 31.31-.43 23.99-15.98 42.1-37.27 51.72-34.26 15.76-36.08 20.01-74.48 10.96-23.39-7.02-51.47-14.3-67.49-33.63-10.67-14.22-3.92-37.93 7.8-49.05 10.46-8.87 24.51-9.15 38.23-10.71 10.91-1.19 21.44-2.01 32.33-3.37l.39-.04z"/><path fill="url(#c)" d="M1446.83 1701.44c7.11-8.83 14.89-17.61 24.55-24.23 8.37-5.77 17.37-7.29 24.74-14.14 6.56-6.07 11.61-13.95 17.17-21.01 8-10.63 14.13-18.44 22.27-28.17 9.4-11.16 17.65-22.49 29.99-30.57 9.38-6.32 22.01-15.92 30.61-17.95 8-2.05 12.33 4.06 5.87 11.45-3.72 4.55-8.6 8.37-13.24 11.9-9.6 7.12-20.04 15.81-31.01 24.84-8.7 7.39-18.24 14.34-25.99 22.22-6.69 6.98-10.34 13.85-16.57 21.87-7.18 9.26-15.61 18.67-23.1 27.64-7.69 9.01-14.07 17.29-21.64 26.88-8.35 10.85-18.61 20.35-27.84 30.34-12.45 14.55-22.28 34.1-33.27 49.49-7.47 10.79-15.1 1.27-13.15-7.74.66-3.67 2.56-7.18 4.51-10.48 5.5-9.07 13.83-22.55 19.37-31.6 8.69-13.91 16.61-26.77 26.46-40.4l.25-.32z"/><path fill="url(#d)" d="M1866.52 1699.71c1.68-.63 2.6 7.68 3.22 10.4 3.49 19.17 6.15 43.19 10.6 61.53 5.07 12.99 13.95 26.25 20.72 39.25 3.16 6.12 7.43 11.88 8.43 18.53.95 8-6.44 7.78-11.07-3.04-7.59-18.13-17.24-42.06-24.29-59.25-4.25-10.03-5.36-19.49-16.25-20.95-22.85-3.42-76.06-10.34-98.34-13.52-3.55-.61-10.89-2.07-9.74-6.11.57-.97 2.19-1.73 4.84-1.95 3.51-.35 9.01.68 15.9 1.5 24.96 2.95 60.24 8.24 83.88 10.46 6.21.16 6.81-6.93 7.67-11.71 1.52-8.89 1.84-19.41 4.37-25.1l.06-.06z"/><path fill="url(#e)" d="M2146.23 1558.84c4.31-1.1 8.84-1.04 13.4-1.08 11.42 0 30.91-.02 41.78 0 7.77-.13 15.04.86 22.44 3.3 10.48 3.61 23.88 6.67 33.93 12.33 5.09 3.12 8.78 6.71 13.54 11.26 4.65 4.64 9.97 9.22 12.51 15.35 6.61 17.34-14.46 33.16-28.76 39.52-11.53 4.2-26.36 5.27-37.93 7.42-10.21 1.89-18.72.89-29.21-1.17-19.5-3.77-39.67-5.39-57.43-14.17-15.02-7.29-37.07-12.7-39.96-30.16-2.16-14.12 14.48-21.26 25.04-27.13 9.34-4.82 21.77-12.76 30.38-15.43l.27-.06z"/><path fill="url(#f)" d="M2569.02 1116.42c18.15-2.32 36.82-2.65 55.08-2.79 7.98-.58 44.04 2.95 39.01-8.78-2.34-3.39-8.65-5.28-13.17-5.99-10.09-1.75-21.33-3-31.69-3.64-21.54-1.06-42.95.15-64.29 2.02-23.34 5.68-51.77 15.92-86.23 26.18-43.96 13.23-84.39 27.39-129.19 42.49-11.24 3.67-16 5.78-25.93 11.48-27.9 15.43-57.29 32.65-76.82 58.62-6.59 9.23-15.02 18.28-18.28 28.89-4.74 20.17 11 11.78 19.74 2.4 13.76-14.59 28.8-24.64 43.03-37.67 4.84-4.47 9.23-8.94 14.26-13.15 13.15-10.96 29.56-19.18 44.18-28.27 12.25-7.14 23.88-15.06 37.11-19.23 16.72-5.11 31.45-8.41 48.53-14.19 19.33-5.98 38.14-12.89 57.48-18.53 14.32-3.94 29.05-5.44 42.57-8.66 14.62-3.28 29.53-8.62 44.2-11.1l.37-.06z"/></g><defs><radialGradient id="b" cx="0" cy="0" r="1" gradientTransform="matrix(0 53.3269 -92.2874 0 1387.6 1494.18)" gradientUnits="userSpaceOnUse"><stop stop-color="#F95C65" stop-opacity=".3"/><stop offset="1" stop-color="#F95C65" stop-opacity="0"/></radialGradient><radialGradient id="c" cx="0" cy="0" r="1" gradientTransform="scale(104.621 115.917)rotate(90 -.08 14.422)" gradientUnits="userSpaceOnUse"><stop stop-color="#F95C65" stop-opacity=".3"/><stop offset="1" stop-color="#F95C65" stop-opacity="0"/></radialGradient><radialGradient id="d" cx="0" cy="0" r="1" gradientTransform="matrix(0 67.6661 -79.9476 0 1829.63 1767.34)" gradientUnits="userSpaceOnUse"><stop stop-color="#F95C65" stop-opacity=".3"/><stop offset="1" stop-color="#F95C65" stop-opacity="0"/></radialGradient><radialGradient id="e" cx="0" cy="0" r="1" gradientTransform="matrix(0 45.0987 -97.3656 0 2187.71 1602.84)" gradientUnits="userSpaceOnUse"><stop stop-color="#F95C65" stop-opacity=".3"/><stop offset="1" stop-color="#F95C65" stop-opacity="0"/></radialGradient><radialGradient id="f" cx="0" cy="0" r="1" gradientTransform="scale(223.475 91.2314)rotate(90 -1.04 11.96)" gradientUnits="userSpaceOnUse"><stop stop-color="#F95C65" stop-opacity=".3"/><stop offset="1" stop-color="#F95C65" stop-opacity="0"/></radialGradient><clipPath id="a"><path fill="#fff" d="M1289 837h1440v998H1289z"/></clipPath></defs></svg>