<svg xmlns="http://www.w3.org/2000/svg" width="4018" height="2672" fill="none" viewBox="0 0 4018 2672"><path fill="url(#a)" d="M2515.58 1191.7c16.62 1.01 33.5 3.16 48.33 11.56 14.61 8.36 8.43 21.56-4.69 26.9-24.31 10.11-51.96 5.92-77.24 6.68-10.91-.37-33.35.24-36.63-12.36-1.29-9.1 5.39-17.19 13.78-21.61 8.02-4 17.34-5.79 26.2-7.74 9.93-1.85 19.65-3.47 29.82-3.41h.43z"/><path fill="url(#b)" d="M2262.56 1285.53c17.35-1.98 35.59-6.33 52.41-.21 9.44 3.31 19.94 5.65 28.49 10.64 7.71 5.15 14.3 13.02 17.64 21.74 3.26 10.72-2.38 23.58-9.29 32.14-5.54 6.08-13.46 10.62-20.16 15.28-14.44 10.33-33.34 14.19-49.56 19.92-15.45 5.62-31.76 3.41-48.23 3.82-8.65.08-16.31-.33-23.83-4.46-7.02-3.78-15.72-8.6-20.66-15.03-9.07-11.52-6.18-29.82-1.03-42.47 5.28-11.09 17.48-20.86 27.51-28.4 3.82-2.48 8-4.02 12.39-5.23 10.73-2.71 22.93-5.73 33.97-7.7l.35-.06z"/><path fill="url(#c)" d="M2191.38 1544.88c10.65 1.34 21.11 5.92 31.77 9.26 7.45 2.51 14.34 5.82 20.84 10.27 7.25 4.97 15 9.92 20 16.74 9.26 13.94 15.06 36.22 2.51 49.92-5.38 6.06-15.08 9.71-23.02 13.08-12.2 5.54-24.57 5.85-38.05 7.45-17.6 1.36-34.71 5.57-52.16 3.25-11.41-1.38-23.43-2.9-34.96-4.32-18.15-2.32-32.18-3.92-47.48-11.91-13.24-7.86-16.09-25.27-11.53-39.32 4.84-20.33 14.62-22.86 32.08-31.4 21.48-10.86 40.64-14.15 63.94-18.46 12.06-1.62 23.98-5.03 35.75-4.56h.33z"/><path fill="url(#d)" d="M1933.51 1607.76c4.76-7.04 11.88-8.11 17.25-2.42 5.87 8.15 6.88 18.01 4.7 28.07-2.48 13.34-9.23 25.07-16.33 37-8.35 13.74-21.33 32.28-39.05 26.68-8.74-3.43-11.86-10.46-12.72-20.31-1.03-8.98-1.07-17.58 4.59-24.21 8.25-8.94 20.64-15.01 28.52-24.63 4.84-5.93 7.87-13.38 12.8-19.85z"/><path fill="url(#e)" d="M1777.66 1321.67c13.33-2.8 31.42-11.77 44.57-5.81 10.77 6.38 15.41 22.67 16.06 34.93.41 41.27-21.17 80.31-49.45 109.04a248 248 0 0 1-28.23 22.24c-11.2 7.18-22.36 15.93-36.04 16.3-16.84 1.48-33.95-1.31-37.21-20.64-3.53-28.54 10.77-51.79 22.32-77.6 5.49-11.01 10.13-22.81 16.8-32.94 6.46-9.11 14.19-18.23 21.49-27.45 7.18-9.86 17.6-15.26 29.3-17.97l.37-.1z"/><path fill="url(#f)" d="M1765.94 1311.15c-8.61-11.72-2.91-24.91 5.69-34.41 6.74-8.44 14.35-15.47 23.2-22.61 8.12-7.15 16.9-13.04 28-13.76 15.77-1.5 33.12-5.57 49.06-2.92 11.49 1.85 24.82 4.48 35.96 6.92 6.18 1.38 12.21 3.33 17.42 7.09 13.84 10.57 24.82 26.4 12.74 42.4-6.08 8.81-19.43 16.45-28.74 23.27-13.52 9.71-32.15 10.2-48.17 14.15-30.99 5.01-74.68 10.28-94.99-19.76l-.23-.33z"/><path fill="url(#g)" d="M1851.5 1159.17c10.32-3 19.12-12.3 28.86-14.62 5.85-1.17 11.51.49 17.65 2.57 21.51 6.61 28.41 25.58 22.54 46.16-4.68 20.8-20.62 35.61-40.99 41.26-10.74 4.02-21.29 1.39-31.01-4.25-12.82-6-18.03-11.34-20.37-25.51-1.52-7.68-3.04-14.27-.99-21.13 3.59-10.9 13.26-20.88 24-24.35z"/><path fill="url(#h)" d="M1994.68 1236.53c12.31.35 25.54 1.74 37.68 5.07 11.59 4.09 23.47 14.68 23.2 27.46-4.51 26.26-51.89 26.16-72.41 23.94-10.83-1.77-22.72-4.41-30.21-12.96-6.03-7.45-8.15-19.32-3.49-27.78 7.86-12.63 31.18-14.27 44.88-15.73h.37z"/><defs><radialGradient id="a" cx="0" cy="0" r="1" gradientTransform="matrix(0 22.686 -63.5817 0 2508.77 1214.39)" gradientUnits="userSpaceOnUse"><stop stop-color="#38D175" stop-opacity=".3"/><stop offset="1" stop-color="#38D175" stop-opacity="0"/></radialGradient><radialGradient id="b" cx="0" cy="0" r="1" gradientTransform="scale(89.2746 53.3904)rotate(90 .222 25.237)" gradientUnits="userSpaceOnUse"><stop stop-color="#38D175" stop-opacity=".3"/><stop offset="1" stop-color="#38D175" stop-opacity="0"/></radialGradient><radialGradient id="c" cx="0" cy="0" r="1" gradientTransform="matrix(0 55.3471 -108.216 0 2165.49 1600.18)" gradientUnits="userSpaceOnUse"><stop stop-color="#38D175" stop-opacity=".3"/><stop offset="1" stop-color="#38D175" stop-opacity="0"/></radialGradient><radialGradient id="d" cx="0" cy="0" r="1" gradientTransform="matrix(0 48.2147 -34.8441 0 1921.67 1649.9)" gradientUnits="userSpaceOnUse"><stop stop-color="#38D175" stop-opacity=".3"/><stop offset="1" stop-color="#38D175" stop-opacity="0"/></radialGradient><radialGradient id="e" cx="0" cy="0" r="1" gradientTransform="matrix(0 92.4256 -75.7424 0 1762.56 1406.28)" gradientUnits="userSpaceOnUse"><stop stop-color="#38D175" stop-opacity=".3"/><stop offset="1" stop-color="#38D175" stop-opacity="0"/></radialGradient><radialGradient id="f" cx="0" cy="0" r="1" gradientTransform="matrix(0 49.2875 -90.7648 0 1852.43 1285.86)" gradientUnits="userSpaceOnUse"><stop stop-color="#38D175" stop-opacity=".3"/><stop offset="1" stop-color="#38D175" stop-opacity="0"/></radialGradient><radialGradient id="g" cx="0" cy="0" r="1" gradientTransform="scale(48.175 46.1567)rotate(90 6.56 32.348)" gradientUnits="userSpaceOnUse"><stop stop-color="#38D175" stop-opacity=".3"/><stop offset="1" stop-color="#38D175" stop-opacity="0"/></radialGradient><radialGradient id="h" cx="0" cy="0" r="1" gradientTransform="matrix(0 28.6854 -54.3252 0 2001.24 1265.21)" gradientUnits="userSpaceOnUse"><stop stop-color="#38D175" stop-opacity=".3"/><stop offset="1" stop-color="#38D175" stop-opacity="0"/></radialGradient></defs></svg>