<svg xmlns="http://www.w3.org/2000/svg" width="4018" height="2672" fill="none" viewBox="0 0 4018 2672"><path fill="url(#a)" d="M2163.58 1553.67c21.03 4.5 41.11 17.37 63.29 13.02 8.92-1.54 14.09-5.01 14.77-.58-.95 11.32-4.78 22.72-6.92 34.28-1.45 6.57-2.87 13.04-4.04 18.34-1.7 7.53-2.36 12.25-5.76 14.33-7.12 3.41-16.72 1.66-24.64 2.09-8.82 0-14.6.07-22.69-2.3-7.24-1.93-13.98-5.87-21.02-8.21-6.28-2.14-12.47-1.52-18.59.66-7.95 2.56-16.53 7.02-25.08 7.27-8.88.12-22.22-7.29-24.47-16-.78-4.87 1.37-9.06 2.93-13.96 1.21-3.47 2.6-7.44 4.02-11.48 3.43-8.3 6.34-22.28 11.34-27.64 3.8-3.31 9.01-.74 13.48.04 15.65 4.19 27.24-14.48 42.97-9.96l.41.08z"/><path fill="url(#b)" d="M2195.91 1372.12c3.1-.9 7.45-3.18 11.14-3.78 9.58-1.91 19.49-.84 29.31-.98 6.53-.06 13.42-.23 20.23-2.26 3.38-.97 6.97-2.2 10.36-2.71 9.07-1.42 12.68 3.14 15.92-7.87 3.32-10.76 9.1-30.2 12.61-41.87 3.35-8.75 2.3-19.86-8.74-20.53-8.51-.99-16.55 5.4-24.67 6.38-21.56.87-33.48-9.42-42.92 16.7-6.62 14.78-15.28 34.09-21.7 48.38-2.26 5.34-4.04 8.56-1.66 8.54h.14z"/><path fill="url(#c)" d="M2292.9 1105.43c-8.04 1.05-16.08-.3-22.44 3.97-7.98 5.15-9.32 16.18-7.98 24.97 1.62 9.03 10.01 17.95 17.95 20.1 7.18 2.4 13.04-3.24 19.77-4.58 6.5-.84 13.64 0 19.59-3.88 11.84-7.08 2.54-22.03-.18-31.87-4.35-14.07-13.69-10.29-26.26-8.75z"/><path fill="url(#d)" d="M2725.59 1163.22c1.97-1.5-2.74-4.33-9.62-9.74-18.77-14.43-51.05-39.07-65.1-49.9-8.43-6.71-17.44-12.09-26.79-18-10.1-6.37-15.57-10.15-28.62-5.24-62.28 19.77-118.81 32.44-194.67 51.03-10.99 3.1-18.52 3.26-28.96 9.1-33 17.33-99.75 50.04-122.42 63.08-20.04 26.02-57.33 82.57-72.39 103.29-7.06 9.82-10.19 19.04-16.06 30.97-5.38 11.43-11.2 23.84-16.58 35.3-4.3 9.52-7.22 15.87-13.51 23.8-13.44 17.84-27.8 36.96-41.19 54.74-4.74 6.35-8.86 11.67-11.53 15.4-1.38 1.97-2.4 3.78-2.59 6.1-.2 5.16 4 11.09 8 13.49 3.94 2.2 7.08-1.17 9.81-4 10.93-11.83 34.79-37.83 44.9-48.81 5.01-5.18 8.45-9.86 11.47-16.22 9.31-17.93 29.99-58.53 41.04-79.8 9.48-16.84 22.32-32.94 30.79-55.8 2.88-7.47 4.5-15.28 8-22.38 11.12-21.03 46.45-41.83 61.09-51.52 7.63-4.93 13.21-6.96 22.34-10.62 22.99-9.14 47.28-19.22 68.59-27.43 28.05-10.83 67.64-26.1 96.78-37.36 6.69-2.58 8.91-3.36 17.17-5.48 18.88-4.66 37.48-9.84 56.41-13.66 34.26-7.35 35.78-10.74 71.27.52 7.77 2.22 12.47 7.6 19.17 14.25 10.9 10.35 27.2 28.48 38.32 37.8 4.58 3.37 10.34 2.61 15.72 2.04 7.3-.93 17.62-2.32 23.5-3.27 2.05-.41 3.96-.61 5.58-1.6l.11-.08z"/><defs><radialGradient id="a" cx="0" cy="0" r="1" gradientTransform="matrix(0 41.1847 -76.6875 0 2164.95 1594.04)" gradientUnits="userSpaceOnUse"><stop stop-color="#38D175" stop-opacity=".3"/><stop offset="1" stop-color="#38D175" stop-opacity="0"/></radialGradient><radialGradient id="b" cx="0" cy="0" r="1" gradientTransform="scale(51.2493 40.0537)rotate(90 5.283 38.54)" gradientUnits="userSpaceOnUse"><stop stop-color="#38D175" stop-opacity=".3"/><stop offset="1" stop-color="#38D175" stop-opacity="0"/></radialGradient><radialGradient id="c" cx="0" cy="0" r="1" gradientTransform="matrix(0 25.6529 -31.8133 0 2293.84 1129.41)" gradientUnits="userSpaceOnUse"><stop stop-color="#38D175" stop-opacity=".3"/><stop offset="1" stop-color="#38D175" stop-opacity="0"/></radialGradient><radialGradient id="d" cx="0" cy="0" r="1" gradientTransform="scale(325.244 204.628)rotate(90 .556 6.825)" gradientUnits="userSpaceOnUse"><stop stop-color="#38D175" stop-opacity=".3"/><stop offset="1" stop-color="#38D175" stop-opacity="0"/></radialGradient></defs></svg>