<svg xmlns="http://www.w3.org/2000/svg" width="4018" height="2672" fill="none" viewBox="0 0 4018 2672"><path fill="url(#a)" d="M1845.37 1052.39c4.57-.74 9.48-.96 14.21-.96 13.17.41 28.23-1.05 40.97 1 14.58 3.74 26.87 13.7 43.06 8.4 8.63-1.95 21.02-5.03 28.67-6.82 4.1-.92 8.15-1.64 12.29-.8 7.49 1.73 14.89 5.4 22.17 8.79 2.65 1.38 5.17 2.98 7.2 5.11 7.49 8.18 10.53 23.07 1.38 31.01-15.78 13.62-37.77 20.43-57.79 25.26-8.82 2.14-19.91 5.73-27.71 5.32-2.56-.02-5.62-.19-9.44-.37-17.86-1.09-38.48-1.42-54.07-2.94-8.55-1.43-15.53-3.75-25-6.16-8.47-2.32-16.7-4.23-24.37-6.71-4.58-1.67-9.09-3.23-12.35-6.86-6.79-8.26-5.89-21.99 2.38-29.78 3.1-3.12 6.77-5.85 10.36-8.7 8.1-6.6 17.82-13.39 27.73-14.73l.33-.06z"/><path fill="url(#b)" d="M2023.24 1240.92c6.46.23 14.68-.41 23.07-.61 7.24-.15 14.51-.56 20.37 3.1 17.93 15.4-18.21 40.66-30.93 46.71-13.6 6.43-29.42 2.84-43.61 1.34-16.25-2.08-35.34-4.25-45.33-18.15-4.56-7.64-1.58-20.52 3.71-27.42 4.86-5.91 13.21-6.63 21-8.32 16.91-3.32 34.34 2.84 51.37 3.31h.37z"/><path fill="url(#c)" d="M2141.78 1513.07c4.84-2.28 11.88-1.72 18.01-1.82 5.78 0 11.86-.05 17.64.02 9.91-.25 16.08 2.44 23.36 7.7 5.32 3.73 10.92 7.74 15.37 12.34 8.29 9.22 15.92 20.64 25.21 29.65 9.07 9.78 20.49 19.43 24.66 32.18 3.93 11.54 8.73 22.81 6.62 35.44-1.09 6.68-1.97 14.6-5.6 20.21-4.63 6.08-14.69 7.6-21.99 10.53-5.09 1.75-10.21 3.54-15.24 5.22-11.32 4.27-22.19 4.27-34.46 5.4-12.08.86-23.47 2.81-34.79-.21-16.06-3.67-34.15-8.58-49.07-9.42-10.81-1.23-23.34-1.13-32.55-6.82-8.56-5.13-20.1-11.95-22.71-21.7-2.13-8.48.19-17.58 1.74-25.96 2.22-13.66 11.33-24.31 18.57-35.73 7.81-13.08 22.23-16.72 34.01-24.75 12.33-8.29 19.06-24.25 30.97-32.15l.27-.13z"/><path fill="url(#d)" d="M1908.22 1616.63c5.21-.47 13.85 2.12 19.98 3.49 11.14 3.21 22.52 4.31 28.82 14.13 6.67 11.03-.88 21.5-11.69 25.63-22.75 10.98-45.7 27.47-72.58 24.17-9.17-.84-20.16-.8-28.24-4.44-15.55-9.28 3.2-24.85 11.38-33.31 7.65-7.82 11.96-12.19 20.88-16.32 9.56-4.05 20.74-11.46 31.1-13.35z"/><defs><radialGradient id="a" cx="0" cy="0" r="1" gradientTransform="matrix(0 38.7144 -110.455 0 1910.52 1090.02)" gradientUnits="userSpaceOnUse"><stop stop-color="#38D175" stop-opacity=".3"/><stop offset="1" stop-color="#38D175" stop-opacity="0"/></radialGradient><radialGradient id="b" cx="0" cy="0" r="1" gradientTransform="matrix(0 28.6133 -63.5057 0 2008.07 1265.21)" gradientUnits="userSpaceOnUse"><stop stop-color="#38D175" stop-opacity=".3"/><stop offset="1" stop-color="#38D175" stop-opacity="0"/></radialGradient><radialGradient id="c" cx="0" cy="0" r="1" gradientTransform="scale(108.893 80.0636)rotate(90 0 19.875)" gradientUnits="userSpaceOnUse"><stop stop-color="#38D175" stop-opacity=".3"/><stop offset="1" stop-color="#38D175" stop-opacity="0"/></radialGradient><radialGradient id="d" cx="0" cy="0" r="1" gradientTransform="matrix(0 33.9517 -60.5011 0 1899.03 1650.53)" gradientUnits="userSpaceOnUse"><stop stop-color="#38D175" stop-opacity=".3"/><stop offset="1" stop-color="#38D175" stop-opacity="0"/></radialGradient></defs></svg>