<svg xmlns="http://www.w3.org/2000/svg" width="4018" height="2672" fill="none" viewBox="0 0 4018 2672"><path fill="url(#a)" d="M2234.48 1257.27c14.58-3.57 29.95-3.62 45.47-4.58 7.8-.31 15.47-.19 23.18.78 27.74 4.21 57.64 10.29 77.01 32.32 11.1 11.58 16.98 25.81 15.88 41.54-.93 12.59-9.6 23.04-19.33 30.17-14.42 9.43-34.03 16.04-52.18 22.98-12.84 4.76-22.83 7.64-36.11 10.29-17.92 3.24-36.04 7.96-54.27 7.53-16.43-.98-33.89-2.85-49.23-8.17-12.52-4.89-24.39-13.53-33.75-23.55-13.58-14.56-14.07-33.31-5.74-50.68 6.65-15.18 21.99-24.24 36.16-32.37 17.26-8.81 34.14-20.43 52.58-26.18z"/><path fill="url(#b)" d="M1980.36 1206.42c19.84-10.57 43.7-17.49 65.69-11.5 28.28 8.44 57.7 25.2 74.54 50.07 29.19 45.71 3.41 84.89-41.05 105.3-31.85 14.19-58.7 23.76-90.23 2.18-27-17.39-34.65-33.31-38.18-64.91-2.46-17.11-4.39-31.26.19-46.82 4.8-13.78 15.14-27.46 28.7-34.13l.37-.19z"/><path fill="url(#c)" d="M1978.52 1201.45c-16.15-25.42-48.89-30.28-76.99-32.07-30.93-2.86-61.58.12-90.79 10.82-23.05 8.34-44.41 20.02-59.18 40.5-11.59 16.05-19.16 35.99-20.76 55.34-1.97 24.74-5.55 50.94 2.32 75.01 3.69 11.93 9.15 23.12 14.07 34.62 6.03 13.56 11.39 27.58 22.49 37.71 10.97 10.51 25.78 13.57 40.75 15.56 26.57 2.92 54.24-8.6 77.75-20 26.71-14.15 54.4-31.17 73.56-55.28 9.72-11.85 17.17-26.2 23.38-40.45 6.59-14.05 9.62-29.2 9.01-44.69-1.13-26.26-1.07-54.03-15.41-76.74l-.22-.33z"/><defs><radialGradient id="a" cx="0" cy="0" r="1" gradientTransform="scale(128.125 72.8955)rotate(90 -.24 17.942)" gradientUnits="userSpaceOnUse"><stop stop-color="#38D175" stop-opacity=".3"/><stop offset="1" stop-color="#38D175" stop-opacity="0"/></radialGradient><radialGradient id="b" cx="0" cy="0" r="1" gradientTransform="scale(92.2272 86.2198)rotate(90 3.647 18.48)" gradientUnits="userSpaceOnUse"><stop stop-color="#38D175" stop-opacity=".3"/><stop offset="1" stop-color="#38D175" stop-opacity="0"/></radialGradient><radialGradient id="c" cx="0" cy="0" r="1" gradientTransform="matrix(0 135.521 -132.975 0 1861.23 1303.88)" gradientUnits="userSpaceOnUse"><stop stop-color="#38D175" stop-opacity=".3"/><stop offset="1" stop-color="#38D175" stop-opacity="0"/></radialGradient></defs></svg>