<svg xmlns="http://www.w3.org/2000/svg" width="4018" height="2672" fill="none" viewBox="0 0 4018 2672"><path fill="url(#a)" d="M2146.52 1566.18c36-3.97 52.06-7.48 83.92 14.25 10.58 6.9 22.29 16.39 25.19 29.04 1.6 10.06-3.7 20.22-13.3 24.23-8.78 4.23-20.84 5.42-31.05 6.86-12.27 1.33-27.02.22-38.57.88-13.47.59-27.55-.91-41.21-2.24-11.22-.92-21.17-3.29-31.26-8.19-7.92-4.03-17.48-9.08-19.51-18.12-3.79-14.08 2.73-32.97 16.91-38.95 15.03-6.61 32.41-5.75 48.49-7.72l.41-.04z"/><path fill="url(#b)" d="M1747.07 1089.4c7.59-.11 14.5 1.93 21.93 4.31 9.52 2.63 16.33 7.14 20.22 15.79 6.3 14.07-11.48 21.91-22.99 24.27-6.4 1.07-12.88.72-19.59.8-7.43.11-18.07.37-22.97-4.39-8.85-7.95-4.95-26.02 3.22-33.86 5.31-4.97 11.83-6.68 19.73-6.9h.43z"/><defs><radialGradient id="a" cx="0" cy="0" r="1" gradientTransform="scale(88.1195 39.1788)rotate(90 -8.15 32.75)" gradientUnits="userSpaceOnUse"><stop stop-color="#38D175" stop-opacity=".3"/><stop offset="1" stop-color="#38D175" stop-opacity="0"/></radialGradient><radialGradient id="b" cx="0" cy="0" r="1" gradientTransform="matrix(0 22.6109 -35.9545 0 1754.58 1112)" gradientUnits="userSpaceOnUse"><stop stop-color="#38D175" stop-opacity=".3"/><stop offset="1" stop-color="#38D175" stop-opacity="0"/></radialGradient></defs></svg>