<svg xmlns="http://www.w3.org/2000/svg" width="4018" height="2672" fill="none" viewBox="0 0 4018 2672"><path fill="url(#a)" d="M1422.99 1453.62c6.01 6.86 12.14 15.32 14.07 24.26 3.14 18.09-6.56 34.97-20.61 45.85-10.86 9.28-23.45 18.44-37.56 21.09-18.34 4.21-42.94-2.28-57.19-14.58-18.57-16.1-10.57-44.85-2.32-64.27 10.71-23.8 40-31.34 63.59-32.63 15.28-.7 29.62 9.36 39.75 19.98l.25.28z"/><path fill="url(#b)" d="M1361.62 1625.77c12.75-.17 26.13-.08 37.9 4.72 11.24 4.33 22.05 10.64 30.92 18.73 23.36 20.68 4.47 49.76-13.11 67.03-7.8 6.98-16.76 12.93-25.83 17.64-10.71 4.68-22.89 8.02-34.09 11.99-13.7 5.71-23.61 2.42-34.99-4.4-10.67-6.2-12-19.26-12.23-30.82-.94-16.69 2.01-31.93 6.52-47.95 6.65-22.48 19.51-37.72 44.49-36.92h.42z"/><defs><radialGradient id="a" cx="0" cy="0" r="1" gradientTransform="matrix(0 56.4005 -63.639 0 1374.01 1489.7)" gradientUnits="userSpaceOnUse"><stop stop-color="#38D175" stop-opacity=".3"/><stop offset="1" stop-color="#38D175" stop-opacity="0"/></radialGradient><radialGradient id="b" cx="0" cy="0" r="1" gradientTransform="matrix(0 61.5375 -65.6571 0 1375.67 1687.26)" gradientUnits="userSpaceOnUse"><stop stop-color="#38D175" stop-opacity=".3"/><stop offset="1" stop-color="#38D175" stop-opacity="0"/></radialGradient></defs></svg>