<svg xmlns="http://www.w3.org/2000/svg" width="4018" height="2672" fill="none" viewBox="0 0 4018 2672"><path fill="url(#a)" d="M1754.64 1372.96c-7.49 4.93-10.83 16.76-6.15 24.64 4 6.74 12.24 7.91 14.35 8.22 2.3.33 10.08 1.44 16.41-4.11 4.58-3.98 7.41-10.53 6.16-16.43-2.42-11.45-20.08-19.36-30.77-12.32"/><path fill="url(#b)" d="M1857.21 1218.95c-9.32.72-16.52 8.36-18.47 16.43-2.07 8.56 2.3 15.58 4.11 18.48 1.37 2.22 6.48 10.41 16.41 12.32 2.03.39 8.14 1.27 14.36-2.05 1.8-.97 6.17-3.31 8.2-8.22 1.58-3.82.95-7.25 0-12.32-.76-4.02-1.52-8.17-4.1-12.32-.94-1.52-8.23-13.28-20.51-12.32"/><path fill="url(#c)" d="M1984.39 1198.42c-9.32.71-16.52 8.35-18.47 16.42-2.07 8.57 2.3 15.59 4.11 18.49 1.37 2.21 6.48 10.41 16.41 12.32 2.03.39 8.14 1.27 14.36-2.06 1.8-.96 6.17-3.3 8.2-8.21 1.58-3.82.94-7.25 0-12.32-.76-4.03-1.52-8.18-4.1-12.32-.94-1.52-8.23-13.29-20.51-12.32"/><path fill="url(#d)" d="M1906.44 1602.95c-9.32.72-16.52 8.36-18.46 16.43-2.08 8.57 2.29 15.59 4.1 18.48 1.37 2.22 6.48 10.42 16.41 12.33 2.03.39 8.14 1.27 14.36-2.06 1.8-.96 6.17-3.3 8.2-8.21 1.58-3.82.95-7.25 0-12.32-.76-4.03-1.52-8.18-4.1-12.32-.94-1.52-8.23-13.29-20.51-12.33"/><path fill="url(#e)" d="M1467.46 1662.51c-12.2 1.8-18.13 13.67-18.46 14.37-7.43 15.48 4.72 31.07 6.15 32.86 1.97 2.44 11.08 13.76 22.57 12.32 13.25-1.65 23.51-19.47 20.51-34.91-2.75-14.15-16.72-26.72-30.77-24.64"/><path fill="url(#f)" d="M2095.15 1810.36c-7.01-3.53-18.23-3.23-22.56 4.1-3.12 5.3-2.11 13.35 2.05 16.43 3.49 2.59 6.67-.24 18.46 0 8.47.19 10.77 1.73 12.31 0 3.1-3.49-1.05-15.89-10.26-20.53"/><path fill="url(#g)" d="M1543.36 902.712c-8.78 3.717-10.07 17.557-10.26 20.535-.59 9.651 3.53 16.674 8.21 24.642 5.02 8.563 12.7 21.603 20.51 20.535 1.73-.246 3.59-1.171 14.36-20.535 8.12-14.6 8.88-17.311 8.21-20.535-1.17-5.524-5.69-8.563-14.36-14.374-12.06-8.071-19.72-13.204-26.67-10.268"/><defs><radialGradient id="a" cx="0" cy="0" r="1" gradientTransform="matrix(0 17.9161 -19.6866 0 1766.02 1388.22)" gradientUnits="userSpaceOnUse"><stop stop-color="#38D175" stop-opacity=".3"/><stop offset="1" stop-color="#38D175" stop-opacity="0"/></radialGradient><radialGradient id="b" cx="0" cy="0" r="1" gradientTransform="matrix(0 23.8455 -22.2916 0 1860.49 1242.74)" gradientUnits="userSpaceOnUse"><stop stop-color="#38D175" stop-opacity=".3"/><stop offset="1" stop-color="#38D175" stop-opacity="0"/></radialGradient><radialGradient id="c" cx="0" cy="0" r="1" gradientTransform="matrix(0 23.8455 -22.2916 0 1987.67 1222.2)" gradientUnits="userSpaceOnUse"><stop stop-color="#38D175" stop-opacity=".3"/><stop offset="1" stop-color="#38D175" stop-opacity="0"/></radialGradient><radialGradient id="d" cx="0" cy="0" r="1" gradientTransform="matrix(0 23.8455 -22.2916 0 1909.72 1626.74)" gradientUnits="userSpaceOnUse"><stop stop-color="#38D175" stop-opacity=".3"/><stop offset="1" stop-color="#38D175" stop-opacity="0"/></radialGradient><radialGradient id="e" cx="0" cy="0" r="1" gradientTransform="matrix(0 29.9512 -26.0704 0 1472.68 1692.23)" gradientUnits="userSpaceOnUse"><stop stop-color="#38D175" stop-opacity=".3"/><stop offset="1" stop-color="#38D175" stop-opacity="0"/></radialGradient><radialGradient id="f" cx="0" cy="0" r="1" gradientTransform="matrix(0 11.912 -17.8305 0 2088.6 1820.08)" gradientUnits="userSpaceOnUse"><stop stop-color="#38D175" stop-opacity=".3"/><stop offset="1" stop-color="#38D175" stop-opacity="0"/></radialGradient><radialGradient id="g" cx="0" cy="0" r="1" gradientTransform="scale(25.7656 33.3045)rotate(90 16.21 44.29)" gradientUnits="userSpaceOnUse"><stop stop-color="#38D175" stop-opacity=".3"/><stop offset="1" stop-color="#38D175" stop-opacity="0"/></radialGradient></defs></svg>