<svg xmlns="http://www.w3.org/2000/svg" width="4018" height="2672" fill="none" viewBox="0 0 4018 2672"><path fill="url(#a)" d="M1332.73 1417.89c-4.12 3.37.04 21.09.97 29.74 2.62 18.4 5.7 39.98 8.39 58.67 1.02 7.06 1.86 13.74 3.03 20.41 1.66 9.24 3.78 12.01 11.63 10.82 23.72-5.03 50.98-13.2 74.14-18.97 17.52-4.69 21.23-6.12 17.88-24.26-4.16-23.41-8.75-51.37-13.41-75.21-2.05-9.25-4.58-12.53-12.39-12.72-9.21-.04-18.15 1.42-27.69 2.24-13.38 1.38-28.09 2.86-41.11 4.19-7.8.8-19.3 1.87-21.33 4.95l-.13.12z"/><path fill="url(#b)" d="M1313.35 1625.13c-2.26 3.74.37 8.83 4.82 17.83 16.61 32.79 39.53 79.69 52.78 104.91 3.08 5.65 6.75 7.68 12.61 3.45 8.72-6.1 19.33-16.06 28.6-23.9 9.02-8.79 25.7-18.83 25.5-29.7-.21-5.25-2.67-10.84-4.62-16.03-9.78-23.91-23.28-60.4-33.62-83.66-3.92-8.57-10.56-7.42-19.02-3.99-13.16 5.24-33.43 14.09-46.99 19.78-7.63 3.24-18.52 7.84-19.94 11.15l-.1.14z"/><path fill="url(#c)" d="M1703.63 1461.71c-4.41 2.41-4 14.81-4 23.76v46.39c.65 10.8-2.69 28.57 6.48 34.38 9.41 5.77 21.43 7.84 31.96 11.13 10.7 2.69 21.35 6.71 22.46-7.15 2.73-24.25 6.56-69.16 8.92-93.33.21-5.15 1.58-11.4-2.07-15.11-6.63-4.34-14.85-2.69-24.53-3.17-7.45 0-15.66-.04-22.28.07-8.04.14-13.72.59-16.78 2.91z"/><path fill="url(#d)" d="M1385.57 857.925c-3.24 2.444-.78 14.374.7 22.65 3.18 17.845 7.1 39.899 10.38 58.381 1.46 8.009 2.67 15.689 4.31 23.225 2.07 9.22 4.49 11.623 12.94 11.15 31.04-3.203 66.59-8.419 97.05-12.074 18.38-2.875 25.35-.739 17.27-19.324-9.42-22.567-21.15-50.351-30.93-73.597-4.41-10.103-7.49-21.048-19.94-20.206-6.65-.041-13.05.636-20.06 1.15-16.19 1.273-35.61 2.813-51.31 4.045-10.85.924-17.62 1.479-20.28 4.477z"/><defs><radialGradient id="a" cx="0" cy="0" r="1" gradientTransform="scale(59.4711 65.7092)rotate(90 .488 22.891)" gradientUnits="userSpaceOnUse"><stop stop-color="#38D175" stop-opacity=".3"/><stop offset="1" stop-color="#38D175" stop-opacity="0"/></radialGradient><radialGradient id="b" cx="0" cy="0" r="1" gradientTransform="scale(62.5671 81.0524)rotate(90 .671 21.307)" gradientUnits="userSpaceOnUse"><stop stop-color="#38D175" stop-opacity=".3"/><stop offset="1" stop-color="#38D175" stop-opacity="0"/></radialGradient><radialGradient id="c" cx="0" cy="0" r="1" gradientTransform="matrix(0 60.7265 -35.1634 0 1734.71 1519.33)" gradientUnits="userSpaceOnUse"><stop stop-color="#38D175" stop-opacity=".3"/><stop offset="1" stop-color="#38D175" stop-opacity="0"/></radialGradient><radialGradient id="d" cx="0" cy="0" r="1" gradientTransform="scale(73.7847 62.6518)rotate(90 2.61 17.147)" gradientUnits="userSpaceOnUse"><stop stop-color="#38D175" stop-opacity=".3"/><stop offset="1" stop-color="#38D175" stop-opacity="0"/></radialGradient></defs></svg>