<svg xmlns="http://www.w3.org/2000/svg" width="4018" height="2672" fill="none" viewBox="0 0 4018 2672"><path fill="url(#a)" d="M1856.86 1146.71c-5.93.24-11.45 3.61-19.39 9.07-8.06 5.61-15.75 11.11-24.18 17.03-11.67 9.09-25.62 15.19-32.62 28.15-5.6 12.01-5.43 29.47 7.51 36.64 11.28 5.64 24.35 7.98 36.64 11.97 17.49 5.01 32.16 9.81 49.25 13.18 19.83 3.31 48.12 10.74 67.52 8.81 15.49-1.81 21.26-19.63 22.14-33.59 2.44-21.26-9.85-33.31-24.08-47.5-11.74-12.36-22.01-19.94-36.72-26.41-9.11-4.17-20.6-9.43-29.27-13.12-5.3-2.16-10.85-4.38-16.52-4.23z"/><path fill="url(#b)" d="M1671.95 1125.82c.66 7.77 14.83 17.95 23.47 23.91 19.16 13.78 41.83 30.51 57.66 41.68 13.42 10.6 21.56 3.66 34.61-5.36 5.92-4.14 12.78-9.01 18.79-13.28 24.39-16.39 23.44-21.61 17.92-49.33-2.91-12.57-4-28.83-10.11-39.38-4.76-7.46-14.54-9.68-23.49-11.96-42.01-10.12-40.65-10.94-76.86 13.23-12.53 9.18-44.06 23.96-42.03 40.31l.04.23z"/><path fill="url(#c)" d="M2214.97 1312.75c-7.69 8.77-15.34 28.86-21.93 41.65-3.65 7.7-6.99 14.58-8.96 19.49-1.62 4.02-2.32 6.79-1.77 8.46 1.4 3.06 5.58 2.21 9.09 2.15 31.59-3.02 101.64-10.43 133.35-13.67 14.77-.91 17.28-8.48 19.31-21.44 1.78-9.82 5.12-20.11 9.23-29.43 4.53-10.55 10.38-23.02 13.39-30.82.99-2.65 2.07-5.48 2.11-8.11.09-6.43-13.39-1.26-18.25-.7-5.75 1.23-12.64 2.71-20.23 4.33-10.4 2.24-22.09 4.75-33.86 7.27-19.63 4.21-36.74 7.87-54.86 11.77-8.92 2.09-21.88 3.69-26.44 8.93l-.16.17z"/><path fill="url(#d)" d="M1883.28 1600.76c-4.49 5.36-4.47 13.33-5.42 20.22-1.47 14.85-3.69 37.23-5.04 51.59-2.14 19.84.73 21.29 20.73 18.85 13.26-1.5 32.8-3.72 45.65-5.26 14.93-1.64 19.93-4.06 20.06-16.84.43-19.26.08-50.02.14-69.73-.14-13.66-.27-20.33-16.68-16.31-11.77 2.57-29.64 6.98-41.47 9.82-8.72 2.2-14.61 3.96-17.85 7.47l-.16.19z"/><path fill="url(#e)" d="M2095.09 1564.41c-2.81 3.55 3.22 13.27 7.33 19.92 9.04 14.82 20.28 33.22 29.66 48.54 3.91 6.37 7.42 12.37 11.38 18.24 7.34 12.4 15.55 8.23 26.5 4.74 25.71-8.64 56.04-18.93 81.13-27.41 17.01-6.04 21.64-6.43 5.81-18.69-19.18-15.3-42.77-34.11-62.67-49.96-5.58-4.46-10.89-8.71-16.31-12.96-8.67-6.8-13.29-9.65-21.49-8.07-11.78 2.65-23.2 7.99-34.73 12.14-8.45 3.55-22.57 7.37-26.51 13.32l-.1.17z"/><path fill="url(#f)" d="M2059.95 1759.76c-1.21 2.81.11 6.96 2.79 12.92 4.85 10.39 11.41 23.24 16.66 33.98 6.09 11.69 10.38 25.45 25.93 25.47 20.1.78 43.42.28 63.14.26 16.51-.16 16.2-4.02 10.75-18.48-7.41-19.24-16.02-41.79-23.7-61.3-3.44-8.87-7.05-15.44-17.02-13.75-5.46.63-10.57 1.86-16.25 3.1-14.4 3.24-32.22 7.18-46.05 10.35-8.98 2.11-14.65 3.77-16.16 7.25l-.09.16z"/><path fill="url(#g)" d="M2267.07 1744.15c-2.36 6.96 2.01 14.29 4.74 20.85 6.3 13.34 14.11 30.47 20.47 43.3 6.87 14.52 12.86 13.47 26.38 6.18 10.83-5.81 26.77-14.53 37.31-20.47 15.37-8.42 15.92-12.98 7.16-25.15-8.98-12.57-21.37-29.1-30.7-41.79-6.06-8.11-13.03-18.3-24.29-12.41-8.9 4.05-20.62 12.04-29.09 17.54-6.05 4.13-10.34 7.7-11.9 11.71l-.1.24z"/><defs><radialGradient id="a" cx="0" cy="0" r="1" gradientTransform="matrix(0 62.5872 -93.4367 0 1870.603 1209.185)" gradientUnits="userSpaceOnUse"><stop stop-color="#F95C65" stop-opacity=".3"/><stop offset="1" stop-color="#F95C65" stop-opacity="0"/></radialGradient><radialGradient id="b" cx="0" cy="0" r="1" gradientTransform="matrix(0 65.6679 -77.906 0 1749.72 1131.09)" gradientUnits="userSpaceOnUse"><stop stop-color="#F95C65" stop-opacity=".3"/><stop offset="1" stop-color="#F95C65" stop-opacity="0"/></radialGradient><radialGradient id="c" cx="0" cy="0" r="1" gradientTransform="matrix(0 53.4096 -93.335 0 2275.46 1331.25)" gradientUnits="userSpaceOnUse"><stop stop-color="#F95C65" stop-opacity=".3"/><stop offset="1" stop-color="#F95C65" stop-opacity="0"/></radialGradient><radialGradient id="d" cx="0" cy="0" r="1" gradientTransform="matrix(0 55.0955 -43.6276 0 1915.85 1637.22)" gradientUnits="userSpaceOnUse"><stop stop-color="#F95C65" stop-opacity=".3"/><stop offset="1" stop-color="#F95C65" stop-opacity="0"/></radialGradient><radialGradient id="e" cx="0" cy="0" r="1" gradientTransform="matrix(0 60.5533 -86.1231 0 2180.49 1598.89)" gradientUnits="userSpaceOnUse"><stop stop-color="#F95C65" stop-opacity=".3"/><stop offset="1" stop-color="#F95C65" stop-opacity="0"/></radialGradient><radialGradient id="f" cx="0" cy="0" r="1" gradientTransform="matrix(0 46.9867 -61.5326 0 2121.03 1785.58)" gradientUnits="userSpaceOnUse"><stop stop-color="#F95C65" stop-opacity=".3"/><stop offset="1" stop-color="#F95C65" stop-opacity="0"/></radialGradient><radialGradient id="g" cx="0" cy="0" r="1" gradientTransform="matrix(0 53.3887 -51.2186 0 2317.62 1766.3)" gradientUnits="userSpaceOnUse"><stop stop-color="#F95C65" stop-opacity=".3"/><stop offset="1" stop-color="#F95C65" stop-opacity="0"/></radialGradient></defs></svg>