<svg xmlns="http://www.w3.org/2000/svg" width="4018" height="2672" fill="none" viewBox="0 0 4018 2672"><g clip-path="url(#a)"><path fill="url(#b)" d="M1460.9 1489.48c12-.91 22.05 6.9 26.19 17.54 4.41 10.61-5.1 22.89-14.87 26.44-10.13 2.35-27.77 1.89-30.68-10.45-1.09-5.77.26-11.99 1.25-17.76 1.58-10.33 7.32-16.65 17.78-15.77h.35z"/><path fill="url(#c)" d="M2001.37 1799.23c11.69 1.54 25.43 6.84 29.68 18.66 5.78 16.95-12.06 17.54-24.45 17.01-6.59-.11-13.07-.78-18.24-3.97-5.33-3.16-8.55-8.91-9.39-14.97-1.85-12.4 10.64-18.66 21.97-16.77z"/><path fill="url(#d)" d="M2136.57 1768.3c7.4-.37 14.36-2.56 21.52-5.17 18.01-6.18 25.49-18.18 17.76-36.19-3.65-8.87-9.62-17.1-20.06-17.94-12.19-1.15-25.09 4.74-34.05 12.87-14.94 13.82-9.81 47.77 14.44 46.45h.41z"/><path fill="url(#e)" d="M2342.52 1778.65c7.18.17 14.32 3.7 17.8 10.15 3.94 8.17 5.69 18.54 3.18 27.43-3.53 11.48-22.58 15.59-32.31 12.79-7.4-2.81-9.35-11.41-10.76-18.48-4-17.64 1.66-32.22 21.7-31.91h.39z"/><path fill="url(#f)" d="M2280.84 1588.31c10.03-.32 17.94 8.38 21.19 17.5 3.5 8.77 6.35 22.49-5.54 25.87-7.65 2.49-16.56 2.51-24.02-.33-6.67-2.87-8.84-9.5-8.31-18.02.57-10.25 4.45-23.95 16.33-25h.37z"/><path fill="url(#g)" d="M2479.77 1078.29c10.5 4.62 26.59 4.74 30.26 17.49 5.33 19.12 1.35 33.86-19.18 39.7-33.13 8.87-58.57 7.59-44.99-33.89 5.07-15.13 21.27-21.83 36.08-23.3"/></g><defs><radialGradient id="b" cx="0" cy="0" r="1" gradientTransform="matrix(0 22.5891 -23.5353 0 1464.67 1511.99)" gradientUnits="userSpaceOnUse"><stop stop-color="#F95C65" stop-opacity=".3"/><stop offset="1" stop-color="#F95C65" stop-opacity="0"/></radialGradient><radialGradient id="c" cx="0" cy="0" r="1" gradientTransform="matrix(0 18.0798 -26.6936 0 2005.48 1816.94)" gradientUnits="userSpaceOnUse"><stop stop-color="#F95C65" stop-opacity=".3"/><stop offset="1" stop-color="#F95C65" stop-opacity="0"/></radialGradient><radialGradient id="d" cx="0" cy="0" r="1" gradientTransform="matrix(0 29.7531 -32.764 0 2146.12 1738.61)" gradientUnits="userSpaceOnUse"><stop stop-color="#F95C65" stop-opacity=".3"/><stop offset="1" stop-color="#F95C65" stop-opacity="0"/></radialGradient><radialGradient id="e" cx="0" cy="0" r="1" gradientTransform="matrix(0 25.6208 -22.7226 0 2341.95 1804.25)" gradientUnits="userSpaceOnUse"><stop stop-color="#F95C65" stop-opacity=".3"/><stop offset="1" stop-color="#F95C65" stop-opacity="0"/></radialGradient><radialGradient id="f" cx="0" cy="0" r="1" gradientTransform="matrix(0 22.6054 -20.4983 0 2284.58 1610.91)" gradientUnits="userSpaceOnUse"><stop stop-color="#F95C65" stop-opacity=".3"/><stop offset="1" stop-color="#F95C65" stop-opacity="0"/></radialGradient><radialGradient id="g" cx="0" cy="0" r="1" gradientTransform="matrix(0 30.8118 -35.0192 0 2477.15 1109.1)" gradientUnits="userSpaceOnUse"><stop stop-color="#F95C65" stop-opacity=".3"/><stop offset="1" stop-color="#F95C65" stop-opacity="0"/></radialGradient><clipPath id="a"><path fill="#fff" d="M1289 837h1440v998H1289z"/></clipPath></defs></svg>