<svg xmlns="http://www.w3.org/2000/svg" width="4018" height="2672" fill="none" viewBox="0 0 4018 2672"><path fill="url(#a)" d="M2143.57 1627.14c-3.29 4.56-2.16 14.91-3.12 21.4-.45 5.94-1.64 12.36 2.83 16.9 9.27 8.85 39.75 4.83 49.97-2.07 8.74-7.09 2.01-25.28-5.48-30.62-5.35-4.31-15.16-5.38-22.67-6.41-6.81-.63-17.76-3.92-21.35.6l-.16.2z"/><path fill="url(#b)" d="M2028.65 1425.96c3.57-2.44 6.65-7.1 9.89-12.28 4.94-7.62 8.12-14.95 6.34-23.53-2.75-17.89-17.79-21.01-33.32-22.01-24.43-.27-42.15 13.73-39.07 39.51 2.66 16.12 16.31 24.21 32.55 22.63 7.41-.5 18.11-.44 23.32-4.15l.27-.19z"/><path fill="url(#c)" d="M1689.08 1400.25c-16.63 6.8-23.38 28.98-17.6 44.95 6.24 12.57 33.15 7.95 43.88 4.38 9.13-3.57 21.31-9.51 23.71-19.45 1.81-7.9-1.15-16.8-7.94-21.46-4.37-3.12-13.08-4.68-20.47-6.49-6.87-1.58-15.94-4.23-21.27-2.03l-.33.12z"/><path fill="url(#d)" d="M1877.08 1326.8c16.08-9.88 17.4-24.91 2.75-37.41-5.23-4.97-14.09-7.34-21.99-9.06-9.68-2.05-20.88-3.76-29.93.31-6.34 2.69-12.65 7.49-15.55 14.02-3.71 10.04-.88 26.04 8.54 31.75 8.35 4.5 19.28 2.61 30.46 3.04 8.29-.21 19.75.99 25.43-2.51l.29-.16z"/><path fill="url(#e)" d="M1928.9 1194.68c6.4-16.14-13.01-25.03-26.32-26.35-9.54-.68-21.48 2.59-27.75 9.67-6.38 6.55-4.45 16.94.55 23.72 3.92 5.09 10.83 7.02 19.53 5.65 6.63-1.07 13.95-3.08 20.35-4.85 6.93-1.99 11.16-3.16 13.5-7.6l.12-.26z"/><path fill="url(#f)" d="M1974.31 1219.79c8.5 17.68 38.57 15.1 53.95 7.35 13.17-6.88 22.11-22.61 8.49-34.11-8.96-7.78-22.68-12.42-34.54-10.94-6.99 1.4-10.42 7.27-14.87 12.81-4.64 6.96-15 16.74-13.11 24.6z"/><defs><radialGradient id="a" cx="0" cy="0" r="1" gradientTransform="matrix(0 22.9653 -28.7072 0 2168.67 1647.56)" gradientUnits="userSpaceOnUse"><stop stop-color="#38D175" stop-opacity=".3"/><stop offset="1" stop-color="#38D175" stop-opacity="0"/></radialGradient><radialGradient id="b" cx="0" cy="0" r="1" gradientTransform="matrix(0 31.1687 -36.6193 0 2008.76 1399.3)" gradientUnits="userSpaceOnUse"><stop stop-color="#38D175" stop-opacity=".3"/><stop offset="1" stop-color="#38D175" stop-opacity="0"/></radialGradient><radialGradient id="c" cx="0" cy="0" r="1" gradientTransform="matrix(0 27.065 -35.0729 0 1704.52 1426.38)" gradientUnits="userSpaceOnUse"><stop stop-color="#38D175" stop-opacity=".3"/><stop offset="1" stop-color="#38D175" stop-opacity="0"/></radialGradient><radialGradient id="d" cx="0" cy="0" r="1" gradientTransform="matrix(0 25.6646 -39.6224 0 1850.41 1303.82)" gradientUnits="userSpaceOnUse"><stop stop-color="#38D175" stop-opacity=".3"/><stop offset="1" stop-color="#38D175" stop-opacity="0"/></radialGradient><radialGradient id="e" cx="0" cy="0" r="1" gradientTransform="matrix(0 19.7776 -29.6868 0 1900.47 1188.02)" gradientUnits="userSpaceOnUse"><stop stop-color="#38D175" stop-opacity=".3"/><stop offset="1" stop-color="#38D175" stop-opacity="0"/></radialGradient><radialGradient id="f" cx="0" cy="0" r="1" gradientTransform="matrix(0 25.635 -34.773 0 2008.78 1207.45)" gradientUnits="userSpaceOnUse"><stop stop-color="#38D175" stop-opacity=".3"/><stop offset="1" stop-color="#38D175" stop-opacity="0"/></radialGradient></defs></svg>