<svg xmlns="http://www.w3.org/2000/svg" width="4018" height="2672" fill="none" viewBox="0 0 4018 2672"><path fill="url(#a)" d="M1771.99 1053.25c-14.7 1.44-30.42 8.24-43.75 13.31-12.02 4.72-23.22 12.59-33.44 21.36-5.04 4.41-10.31 8.66-13.64 14.35-6.81 13.72-2.23 35.67 10.01 45.59 5.64 4.82 13.21 8.25 20.45 11.46 10.73 4.39 19.53 10.16 28.48 17.06 16.24 13.1 28.59 2.8 40.63-9.75 9.4-9.8 20.39-18.5 27.98-29.92 7.59-11.07 9.54-24.68 10.32-37.93.61-8.89 1.31-19.51-1.54-27.66-4.68-11.79-20.45-13.18-32.61-16.55-4.15-.9-8.33-1.52-12.54-1.34h-.37z"/><path fill="url(#b)" d="M1701.82 1490.83c-15.28 5.81-28.6 15.34-41.54 25.24-18.54 13.66-14.11 23.6 3.26 35.2 7.3 4.99 16.41 9.4 24.88 12.67 12.23 4.43 24.23 10.55 37.21 12.01 22.98 3.18 43.53-13.37 32.13-37.11-6.65-13.63-16.99-25.25-25.09-38.31-7.18-12.16-16.72-15.36-30.42-9.84l-.39.14z"/><path fill="url(#c)" d="M2025.47 1642.61c-7.18 18.44-3.98 39.63.88 58.95 3.96 17.48 9.48 34.91 30.55 35.39 32.06.55 59.24-19.47 85.48-35.41 11.13-6.81 15.87-16.92 10.07-29.16-3.12-8.27-7.02-15.81-12.6-22.63-8.55-11.41-22.54-17.82-33.25-27.21-6.6-5.31-11.45-12.17-17.85-17.63-13.68-10.89-25.66-8.44-36.3 4.23-8.43 10.2-21.6 21.78-26.85 33.16l-.15.33z"/><path fill="url(#d)" d="M2179.52 1377.89c9.21 17.72 35.88 10.78 52.1 9.98 19.51-1.91 38.49-7.74 56.17-16.36 19.96-10.19 39.55-19.16 30.3-45.74-5.48-21.33-29.05-17.72-46.12-18.07-14.07-.16-28.04.91-42.64 2.16-13.44 1.52-23.96-.6-29.48 14.11-4.47 9.57-11.94 25.87-17.01 36.84-3.3 7.18-5.06 12.54-3.42 16.84z"/><defs><radialGradient id="a" cx="0" cy="0" r="1" gradientTransform="scale(70.7902 64.6322)rotate(90 3.704 21)" gradientUnits="userSpaceOnUse"><stop stop-color="#38D175" stop-opacity=".3"/><stop offset="1" stop-color="#38D175" stop-opacity="0"/></radialGradient><radialGradient id="b" cx="0" cy="0" r="1" gradientTransform="matrix(0 44.1341 -56.3569 0 1704.65 1532.21)" gradientUnits="userSpaceOnUse"><stop stop-color="#38D175" stop-opacity=".3"/><stop offset="1" stop-color="#38D175" stop-opacity="0"/></radialGradient><radialGradient id="c" cx="0" cy="0" r="1" gradientTransform="scale(66.8325 69.4724)rotate(90 3.62 27.623)" gradientUnits="userSpaceOnUse"><stop stop-color="#38D175" stop-opacity=".3"/><stop offset="1" stop-color="#38D175" stop-opacity="0"/></radialGradient><radialGradient id="d" cx="0" cy="0" r="1" gradientTransform="matrix(0 41.1054 -70.8243 0 2249.62 1348.77)" gradientUnits="userSpaceOnUse"><stop stop-color="#38D175" stop-opacity=".3"/><stop offset="1" stop-color="#38D175" stop-opacity="0"/></radialGradient></defs></svg>