<svg xmlns="http://www.w3.org/2000/svg" width="4018" height="2672" fill="none" viewBox="0 0 4018 2672"><path fill="url(#a)" d="M1533.02 1448.33c6.21 13.12 7.34 31.87 15.49 45.34 9.9 13.96 33.92 17.35 46.52 28.13 15.1 12.14-.66 30.02-11.1 40.37-9.21 8.96-22.44 13.51-33.99 19.22-11.24 4.99-19.71 10.35-28.06 18.46-13.74 12.24-24.39 24.6-36.82 36.45-13.66 12-29.11 20.42-45.09 29.68-8.06 4.49-16.16 9.16-25.23 11.04-11.85 2.37-27.24 3.99-39.24 5.73-8.1 1.15-15.9 1.44-23.96.31-8.12-1.11-17.8-2.18-25.19-5.93-8.1-3.78-12.78-11.07-16.24-19.04-2.92-6.39-5.23-12.71-6.42-19.16-3.31-20.1-2.44-40.99-2.88-61.25-.18-23.62-.47-45.61-.67-69.02-.29-10.58-2.87-19.1-5.23-29.33-1.19-5.01-3-13.88-1.77-17.51.84-2.67 3.14-3.68 5.81-3.8 25.39-1.42 136.06-7.41 194.99-10.64 16.13-.84 28.33-1.6 33.97-1.81 2.16-.04 3.88.48 4.99 2.55l.08.17z"/><path fill="url(#b)" d="M2099.91 1697.89c-6.48 1.72-14.97 6.98-22.36 11-10.27 5.75-22.81 12.61-30.11 16.8-3.55 2.12-7.28 4.42-8.1 8.71-1.07 6.18 1.11 15.69 2.01 22.51 1.39 9.91 4.39 15.62 13.33 17.76 25.75 6.32 37.13 2.42 61.11-6.45 13.85-4.87 29.54-6.41 40.98-16.24 12.83-11.36 16.31-35.36 4.15-48.28-15.76-14.64-41.6-10.25-60.66-5.91l-.33.1z"/><defs><radialGradient id="a" cx="0" cy="0" r="1" gradientTransform="matrix(0 119.102 -154.267 0 1447 1564.67)" gradientUnits="userSpaceOnUse"><stop stop-color="#F95C65" stop-opacity=".3"/><stop offset="1" stop-color="#F95C65" stop-opacity="0"/></radialGradient><radialGradient id="b" cx="0" cy="0" r="1" gradientTransform="matrix(0 42.0821 -64.6903 0 2103.74 1735.7)" gradientUnits="userSpaceOnUse"><stop stop-color="#F95C65" stop-opacity=".3"/><stop offset="1" stop-color="#F95C65" stop-opacity="0"/></radialGradient></defs></svg>