<svg xmlns="http://www.w3.org/2000/svg" width="4018" height="2672" fill="none" viewBox="0 0 4018 2672"><g clip-path="url(#a)"><path fill="url(#b)" d="M1487.4 848.44c-8.29 6.324-12.8 12.3-24.82 23.532-17.05 16.674-38.69 37.804-47.34 46.306-5.23 4.661-7.57 10.164-9.71 17.002-3.26 9.857-9.1 27.742-11.89 38.975-.89 3.593-1.56 7.29-1.23 10.863 1.23 10.821 16.88 24.082 25.6 29.732 6.17 3.6 11.87 3.96 19.89 3.72 7.35-.25 16.21-.6 24.08-.78 8.13-.19 16.29-.31 24.31 0 11.65.41 17.03 1.99 28.45 2.79 19.16.72 39.9 1.48 58.51-2.03 15.96-5.01 37.25-14.56 52.94-20.29 19.47-7.536 38.93-15.093 59.45-23.04 14.05-4.743 21.92-13.553 32.78-22.711 3.93-3.409 8.32-7.187 11.91-10.432 7.33-6.242 10.42-12.218 13.38-21.232 4.26-13.43 11.36-27.661 5.06-41.542-4.04-9.713-6.11-19.877-14.44-25.689-9.31-5.523-22.95-9.096-32.43-12.957-5.88-2.053-11.14-4.209-17-3.552-18.05.944-84.47 4.415-134.94 7.064-26.19 1.375-48.04 2.505-56.67 2.977-2.1.144-4 .205-5.79 1.212l-.12.061z"/><path fill="url(#c)" d="M1665.14 1099.54c-2.46 3.28-4.14 7.16-5.74 11-3.2 9.45-9.52 19.02-8.96 29 1.35 7.9 7.18 14.72 12.73 20.22 4.76 4.79 15.06 5.63 22.98 7.62 9.84 2.16 20.2 4.5 30.03 6.94 12.25 3.06 19.55 5.77 31.22 6.39 6.79.39 14.36.2 21.01-.31 10.89-.31 20.61-6.49 30.81-11.6 17.23-8.91 24.55-9.9 23.42-31.46v-30.62c.17-12.38-.1-18.7-11.77-26.49-7.06-5.36-15-11.37-22.16-16.79-6.91-5.2-13.1-10.76-21.8-9.55-9.87.78-21.89 2.42-31.8 3.49-6.38.72-12.24 1.72-17.93 4.31-12.18 5.75-21.74 13.06-33.33 21.85-6.15 4.87-13.95 9.94-18.5 15.71l-.21.24z"/><path fill="url(#d)" d="M1750.29 1194.28c-4.37 4.02-9.97 12.65-14.38 18.95-4.74 7.03-9.82 14.3-13.78 21.71-5.64 9.51-3.35 18.4-.25 28.25 2.18 7.27 4.78 15.24 7.04 22.37 4.1 13.69 8.51 23.98 16.47 35.66 5.8 8.55 13.07 18.28 21.87 23.25 7.93 4.21 16.14 5.07 25.1 7.37 10.16 2.34 20.74 5.28 30.83 8.4 19.27 6.08 37.77 11.91 56.85 16.53 12.59 2.79 23.09 6.61 35.95 4.4 9.26-1.38 19.7-3.52 28.97-5.75 12.78-2.57 22.6-9.41 34.01-16.88 14.36-9.88 29.62-17.4 40.43-30.95 5.81-6.65 14.77-16.74 20.49-23.47 5.17-5.59 7.98-12.55 6.65-20.23-1.7-15.54-7.61-28.75-15.65-43.12-5.83-11.6-11.67-22.67-22.44-30.14-11.35-8.75-24.02-20.4-35.8-28.18-4.12-2.42-8.66-3.57-13.37-4.72-18.96-4.33-41.5-9.86-60.8-13.82-14.05-2.63-29.85-7.06-44.37-7.72-11.53-.12-22.07-1.21-32.08 2.42-18.42 8.13-47.31 22.88-62.57 30.04-3.26 1.63-6.36 3.17-9.02 5.45l-.19.16z"/><path fill="url(#e)" d="M1835.89 1383.75c-4.31-1.68-8.84-1.93-13.47-1.93-9.83-.02-26.08 0-36.27 0-10.09-.14-18.38.54-28.64 2.32-14.75 2.34-38.85 6.39-50.38 8.38-5.6.88-10.17 2.51-14.44 6.55-5.78 5.26-11.96 11.66-17.56 17.31-11.14 10.95-19.16 25.65-28.59 38.83-6.2 9.7-13.91 17.91-14.79 29.22-.92 6.51-1.68 16.55-.33 24.21 1.27 8.94 6.77 16.1 12.94 22.39 16.68 16.57 28.7 32.69 49.79 40.18 13.89 5.96 29.19 12.88 43.59 18.11 13.7 5.63 27.71 4.38 42.69 4.56 18.95 0 36.88-.33 55.28-.26 13.54.04 33.08.26 45.56.2 8.22.27 12.2-2.24 19.87-6.12 20.39-10.51 47.96-24.09 68.52-34.82 14.81-7.83 38.5-20.95 50.95-27.79 4.94-2.69 8.7-5.48 12.37-9.94 5.23-6.2 10.89-13.55 16.1-19.94 7.96-10.08 14.89-15.25 24.78-24.19 9.72-8.64 19.98-17.74 29.72-26.4 7.61-6.45 10.71-10.33 14.59-18.48 2.83-5.96 6.03-12.14 7.63-18.55 2.05-8.29-.02-16.65-1.72-25.32-1.71-9.61-6.46-17.53-12.37-25.5-15.49-23.35-16.76-20.14-43.08-25.81-12.76-2.61-21.68-5.38-33.66 1.72-12.66 6.68-29.01 15.9-39.67 24.3-9.62 8.58-18.48 18.62-29.38 25.93-11.07 8.24-26.79 9.14-40.51 12.12-15.94 2.64-28.25 6.38-44.76 3.51-6.69-1.03-13.54-1.93-20.08-3.56-9.56-2.19-15.98-7.63-24.35-11.1l-.31-.13z"/><path fill="url(#f)" d="M2298.72 1190.59c-21.78 14.55-60.04 31.06-81.23 44.66-2.83 2.61-3.3 5.07-4.31 9.32-1.62 8.19-4.06 20.56-5.9 30.21-2.01 10.35-4.04 20.86-6.01 31.05-1.93 9.91-3.2 15.17-.39 24.43 2.6 9.8 5.58 20.06 8.65 29.8 2.26 6.88 4.95 16.2 9.03 20.26 3.01 2.76 7.24 2 14.4 1.17 17.13-2.07 48.7-6.16 67.14-7.74 22.97-1.41 46.13-4.02 68.96-8.07 17.21-2.44 29.79-6.53 45.23-13.51 9.81-4.62 20.74-8.73 27.96-16.71 8.51-9.68 12.88-26.72 16.04-37.56 2.26-7.72 2.65-14.4 2.59-22.28 0-11.77.04-33.72 0-45.03.04-6.35-.45-12.45-4.27-17.64-3.9-5.71-11.67-13.64-20.45-18.87-15.57-8.98-39.9-16.45-54.34-22.43-5.31-1.99-9-3.41-14.38-2.87-12.82 1.74-28.18 5.58-41.46 8.11-10.31 1.66-19.22 6.96-27.01 13.49l-.25.18z"/><path fill="url(#g)" d="M1867.52 1602.08c-13.78.33-30.42 3-44.26 4.19-14.61 1.35-28.45 4.29-43.16 6.96-19.78 4.17-39.04 5.38-55.02 16.73-7.01 6.14-10.27 15.98-14.44 24.21-7.42 14.79-9.82 28.59-4.59 43.68 2.93 7.39 9.37 12.24 15.73 16.57 18.42 12.57 41.29 25.1 63.84 29.61 17.9 1.69 39.07-2.19 58.44-.74 10.09.52 19.13 2.8 28.98 4.44 18.2 2.67 37.89 4.58 55 4.07 5.21-.37 9.6-1.22 15.11-2.51 19.41-5.07 42.59-11.27 60.48-18.25 8.75-3.93 17.72-9.18 25.9-14.4 11.57-7.15 17.11-20.55 21.38-32.9 2.87-10.53-7.04-17.9-13.54-24.64-9.95-10.74-25.58-14.45-39.16-20.49-15.55-5.89-30.77-13.62-46.24-17.78-22.07-4.62-60.96-15.28-84.18-18.73h-.25z"/><path fill="url(#h)" d="M1473.14 1541.21c3.8-.86 7.74.11 11.55.95 13.32 3.65 31.78 6.63 44.43 14.35 9.69 6.39 18.85 16.76 24.93 26.12 4.59 7 5.08 15.44 3.67 23.53-1.25 8.18-3.55 18.67-5.17 26.06-1.46 7.19-3.63 13.08-8.12 18.69-7.47 8.87-15.37 20.9-24.15 29.22-7.51 6.59-16.88 12.09-25.33 17.6-9.48 6.22-16.58 9.77-27.71 13.41-12.37 4.27-30.92 10.22-41.89 13.4-10.48 3.06-14.71 3.6-26.24 5.22-15.67 2.12-36.98 5.65-51.4 7.64-12.6 1.27-27.92.45-39.72-4.5-7.75-3.51-8.71-12.59-8.41-20.27.62-12.87-1.33-22.03 2.55-35.36 3.16-10.47 7.51-21.64 12.94-30.94 4.31-7.13 8.51-8.89 17.03-14.42 8.8-5.75 17.8-12.54 26.13-18.89 18.65-15.69 42.26-25.87 63.26-37.93 14.3-7.9 27.65-18.91 41.29-28.31 3.2-2.2 6.47-4.56 10.14-5.51l.24-.06z"/></g><defs><radialGradient id="b" cx="0" cy="0" r="1" gradientTransform="matrix(0 92.1022 -179.475 0 1571.8 929.087)" gradientUnits="userSpaceOnUse"><stop stop-color="#38D175" stop-opacity=".3"/><stop offset="1" stop-color="#38D175" stop-opacity="0"/></radialGradient><radialGradient id="c" cx="0" cy="0" r="1" gradientTransform="matrix(0 63.5994 -86.1759 0 1736.617 1117.314)" gradientUnits="userSpaceOnUse"><stop stop-color="#38D175" stop-opacity=".3"/><stop offset="1" stop-color="#38D175" stop-opacity="0"/></radialGradient><radialGradient id="d" cx="0" cy="0" r="1" gradientTransform="scale(164.092 112.944)rotate(90 .12 11.354)" gradientUnits="userSpaceOnUse"><stop stop-color="#38D175" stop-opacity=".3"/><stop offset="1" stop-color="#38D175" stop-opacity="0"/></radialGradient><radialGradient id="e" cx="0" cy="0" r="1" gradientTransform="matrix(0 132.858 -247.985 0 1878.734 1460.907)" gradientUnits="userSpaceOnUse"><stop stop-color="#38D175" stop-opacity=".3"/><stop offset="1" stop-color="#38D175" stop-opacity="0"/></radialGradient><radialGradient id="f" cx="0" cy="0" r="1" gradientTransform="matrix(0 106.795 -130.826 0 2330.07 1275.46)" gradientUnits="userSpaceOnUse"><stop stop-color="#38D175" stop-opacity=".3"/><stop offset="1" stop-color="#38D175" stop-opacity="0"/></radialGradient><radialGradient id="g" cx="0" cy="0" r="1" gradientTransform="matrix(0 74.9006 -174.088 0 1877.33 1676.98)" gradientUnits="userSpaceOnUse"><stop stop-color="#38D175" stop-opacity=".3"/><stop offset="1" stop-color="#38D175" stop-opacity="0"/></radialGradient><radialGradient id="h" cx="0" cy="0" r="1" gradientTransform="matrix(0 98.5289 -129.442 0 1429.04 1639.52)" gradientUnits="userSpaceOnUse"><stop stop-color="#38D175" stop-opacity=".3"/><stop offset="1" stop-color="#38D175" stop-opacity="0"/></radialGradient><clipPath id="a"><path fill="#fff" d="M1289 837h1440v998H1289z"/></clipPath></defs></svg>