<svg xmlns="http://www.w3.org/2000/svg" width="4018" height="2672" fill="none" viewBox="0 0 4018 2672"><path fill="url(#a)" d="M1346.33 1568.99c18.18-1.34 44.06-6.1 62.05-8.4 7.2-.84 12.76-2.55 18.22-7.78 10.99-9.47 30.22-26.37 40.86-35.65 5.25-4.33 9.09-9.32 11.3-15.85 4.09-11.67 10.14-23.95 1.48-34.79-4.25-6.49-10.83-16.14-15.26-22.65-3.18-4.58-6.4-8.75-11.36-11.15-10.38-4.5-22.92-7.93-34.14-10.64-14.48-2.32-31.03-1.64-45.89-1.72-8.06.2-13.72 1.08-20.45 3.57-16.18 6.82-33.1 12.44-45.76 24.81-10.28 8.68-14.65 15.5-16 29.98-1.68 12.36-3.96 24.66-.76 36.75 3.16 11.01 5.13 23.13 11.84 32.22 2.23 2.76 5.04 5.03 7.98 7.11 11.22 7.58 22.29 14.91 35.61 14.19h.3z"/><defs><radialGradient id="a" cx="0" cy="0" r="1" gradientTransform="matrix(0 74.3565 -97.822 0 1386.83 1494.68)" gradientUnits="userSpaceOnUse"><stop stop-color="#F95C65" stop-opacity=".3"/><stop offset="1" stop-color="#F95C65" stop-opacity="0"/></radialGradient></defs></svg>