<svg xmlns="http://www.w3.org/2000/svg" width="4018" height="2672" fill="none" viewBox="0 0 4018 2672"><path fill="url(#a)" d="M1676.57 1129.91c2.67 11.07 11.14 21.13 22.81 22.16 11.61 1.81 33.83 5.11 45.66 6.9 8.76 1.31 12.19 1.56 20.45.61 51.02-6.73 103.49-11.17 154.34-21.31 6.42-1.19 12.74-2.3 18.36-3.47 9.78-1.97 22.54-8.07 32.86-12.05 44.58-17.3 55.24-39.37 6.18-62-15.92-4.87-40.21-6.57-57.26-9.73-14.68-2.61-27.15-1.54-41.96-1.75-9.97.08-20.09-.22-29.54.27-15.65 1.37-36.76 4.45-53.73 6.38-18.6 1.81-34.29 8.14-52.1 12.59-11.3 3.39-24.41 4.01-34.91 9.22-11.26 7.03-21.36 17.38-26.36 29.53-2.61 7.05-5.93 14.7-4.86 22.3z"/><path fill="url(#b)" d="M1846.33 1158.13c-18.23 2.01-37.15 13.73-40.69 32.83-1.67 7.25-1.48 14.74-1.4 22.18.14 6.04.35 13.31 1.95 18.77 5.93 17.55 26.63 19.24 42.75 18.01 13.31-1.09 24.84-10.5 35.12-17.97 6.6-5.63 13.78-11.32 18.25-18.89 4.84-9.12 9.34-20.11 8.47-30.54-1.16-10.16-4.77-25.28-14.4-30.68-4.55-2.38-14.74.47-21.37 1.36-9.07 1.54-20.92 3.43-28.31 4.82l-.35.06z"/><path fill="url(#c)" d="M1803.32 1243.08c-14.32-2.59-25.97 10.72-32.37 22.14-7.84 15.01-9.17 32.13-3.57 48.05 2.19 8.68 7.26 17.62 14.24 22.53 9.02 7.9 23.07 9.22 34.93 10.04 12.92 1.48 26.42-4.83 39.01-8.24 12.76-3.57 22.73-9.94 33.83-16.65 10.03-6.1 18.4-17.54 26.09-27.07 4.15-5.36 4.76-11.13 4.04-17.53-.74-7.23-1.58-15.32-4.35-21.26-7.93-19.4-27.28-10.63-42.6-7.43-18.77 5.56-36.86 12.51-55.51 1.54-4.22-2.4-8.61-4.97-13.37-6.02l-.37-.08z"/><path fill="url(#d)" d="M1958.29 1226.9c-13.78 8.13-18.11 16.74-23.24 31.83-6.75 16.1-1.82 34.44 8.76 47.5 7.24 7.29 15.71 16.07 26.07 18.62 13.15 2.01 24.02.64 37.75-2.44 8.47-1.99 17.47-3.19 24.45-8.65 8.55-6.82 16.18-15.4 22.68-24.31 8.41-10.35 8.76-19.06 6.2-31.4-1.42-10.6-5.19-19.53-11.14-28.4-7.38-12.63-18.32-21.66-31.73-27.33-15.67-7.8-34.12-3.39-45.66 10.23-4.29 4.86-8.6 10.34-13.81 14.12l-.31.23z"/><path fill="url(#e)" d="M2129.14 1523.46c-10.6.99-22.56 1.07-33.37 2.06-30.2 3-43.96 29.22-47.8 56.43-1.7 11.46 2.34 23.37 4.5 34.5 1.12 4.95 2.58 9.65 5.08 14.06 3.59 6.29 8.07 12.69 12.21 18.73 7.18 11.03 19.32 17.46 30.17 24.52 6.22 3.96 12.29 4.7 20.23 4.95 8.27.35 17.33.76 25.48 1.03 6.83.34 13.02-.58 19.44-2.71 8.23-2.84 17.83-5.28 25.38-9.29 8.26-4.78 14.31-13.14 21.21-20.24 3.55-3.91 6.66-7.6 9.82-11.75 6.24-9.14 15.26-17.91 17.89-28.85 2.3-15.53.61-33.04-5.74-47.44-3.59-7.29-10.73-13.08-17.17-18.77-6.46-5.52-13.34-10.41-20.7-14.95-19.24-11.78-44.62-3.71-66.3-2.34l-.35.04z"/><path fill="url(#f)" d="M1894.97 1592.22c-20.7 2.19-29.81 26.55-28.53 45.03.06 10.62-.78 22.18 3.48 31.87 3.59 8.19 10.07 16.06 18.12 19.82 9.19 4.23 21.43 6.09 30.89 5.73 18.85-2.2 27.03-10.99 30.46-29.43 1.13-5.36 1.17-11.75 1.15-17.95.14-7.82-.49-15.79-4.86-22.42-9.73-15.98-30.69-33.21-50.32-32.69z"/><path fill="url(#g)" d="M1703.85 1470.77c-9.74 2.01-22.05 12.18-31.53 17.68-12.71 8.09-21.78 18.77-25.68 32.69-2.52 13.12-1.25 27.05 3.2 39.64 3.88 10.59 12.64 18.5 21.99 24.29 9.05 5.05 20.12 6.8 30.38 6.34 8.02-.8 15.88-3.96 23.45-6.69 11.05-4.25 19.24-12.2 26.97-20.88 5.58-6.66 10.61-13.56 12.76-22.06 2.63-12.28-.86-27.35-4.96-39.12-8.54-17.99-36.58-33.7-56.25-31.97l-.33.06z"/><defs><radialGradient id="a" cx="0" cy="0" r="1" gradientTransform="matrix(0 55.4661 -166.616 0 1842.92 1104.69)" gradientUnits="userSpaceOnUse"><stop stop-color="#38D175" stop-opacity=".3"/><stop offset="1" stop-color="#38D175" stop-opacity="0"/></radialGradient><radialGradient id="b" cx="0" cy="0" r="1" gradientTransform="matrix(0 49.6586 -53.3505 0 1857.504 1200.596)" gradientUnits="userSpaceOnUse"><stop stop-color="#38D175" stop-opacity=".3"/><stop offset="1" stop-color="#38D175" stop-opacity="0"/></radialGradient><radialGradient id="c" cx="0" cy="0" r="1" gradientTransform="scale(77.911 51.652)rotate(90 -.71 24.35)" gradientUnits="userSpaceOnUse"><stop stop-color="#38D175" stop-opacity=".3"/><stop offset="1" stop-color="#38D175" stop-opacity="0"/></radialGradient><radialGradient id="d" cx="0" cy="0" r="1" gradientTransform="matrix(0 63.6604 -65.2008 0 1997.16 1262.14)" gradientUnits="userSpaceOnUse"><stop stop-color="#38D175" stop-opacity=".3"/><stop offset="1" stop-color="#38D175" stop-opacity="0"/></radialGradient><radialGradient id="e" cx="0" cy="0" r="1" gradientTransform="matrix(0 80.1889 -96.3959 0 2143.96 1599.62)" gradientUnits="userSpaceOnUse"><stop stop-color="#38D175" stop-opacity=".3"/><stop offset="1" stop-color="#38D175" stop-opacity="0"/></radialGradient><radialGradient id="f" cx="0" cy="0" r="1" gradientTransform="scale(42.1186 51.2735)rotate(90 6.63 38.682)" gradientUnits="userSpaceOnUse"><stop stop-color="#38D175" stop-opacity=".3"/><stop offset="1" stop-color="#38D175" stop-opacity="0"/></radialGradient><radialGradient id="g" cx="0" cy="0" r="1" gradientTransform="matrix(0 60.4618 -60.4703 0 1705.83 1531.02)" gradientUnits="userSpaceOnUse"><stop stop-color="#38D175" stop-opacity=".3"/><stop offset="1" stop-color="#38D175" stop-opacity="0"/></radialGradient></defs></svg>