<svg xmlns="http://www.w3.org/2000/svg" width="4018" height="2672" fill="none" viewBox="0 0 4018 2672"><path fill="url(#a)" d="M2472.82 1194.33c-9.46.88-20.35-.91-28.99 2.73-10.34 4.76-18.81 14.41-21.8 25.67-4.5 14.91 2.83 29.69 17.7 34.21 12.9 3.76 25.39 5.13 38.99 3.53 18.69-1.91 37.17-4.74 54.75-11.87 12.33-5.97 36.7-13.9 35.3-30.72-1.78-15.65-15.93-23.18-30.05-26.12-21.1-5.97-44.12 1.27-65.49 2.53h-.39z"/><path fill="url(#b)" d="M1367.09 1656.32c-11.09-.47-23.14-4.08-34.29-2.17-3.76.9-7.12 3.02-10.3 5.21-11.96 7.5-21.29 19.16-18.46 33.7 3.5 14.99 17.29 21.5 30.36 27.83 12.28 6.34 26.31 9.75 40.16 12.01 18.46 2.26 36.82-2.63 53.72-10.76 11.78-5.14 25.54-11.36 26.22-26.16.59-8.67-3.49-17.27-9.95-23.11-5.46-4.8-13.31-7.49-20.02-10.16-6.81-2.81-13.68-4.35-21.03-4.54-11.36-.61-24.69-.96-36.08-1.83h-.33z"/><path fill="url(#c)" d="M1358.13 1448.08c-10.55-.37-22.69 1.54-32.78 3.35-19.24 3.3-24.9 22.57-25.38 39.82-.59 10.82 4.05 23.1 13.07 30.2 13.79 10.09 32.14 7.93 48.51 10.48 14.01.82 31.94 3.84 44.89 1.27 20.47-4.81 49.88-18.15 38.93-43.74-3.45-7.48-12.76-13.1-20.96-15.81a610 610 0 0 1-28.8-11.46c-12.83-5.09-23.74-13.02-37.11-14.09h-.37z"/><defs><radialGradient id="a" cx="0" cy="0" r="1" gradientTransform="matrix(0 35.85 -74.0591 0 2494.77 1225.28)" gradientUnits="userSpaceOnUse"><stop stop-color="#F95C65" stop-opacity=".3"/><stop offset="1" stop-color="#F95C65" stop-opacity="0"/></radialGradient><radialGradient id="b" cx="0" cy="0" r="1" gradientTransform="matrix(0 39.9282 -75.5146 0 1379.04 1693.52)" gradientUnits="userSpaceOnUse"><stop stop-color="#F95C65" stop-opacity=".3"/><stop offset="1" stop-color="#F95C65" stop-opacity="0"/></radialGradient><radialGradient id="c" cx="0" cy="0" r="1" gradientTransform="matrix(0 43.0888 -73.9083 0 1373.83 1491.12)" gradientUnits="userSpaceOnUse"><stop stop-color="#F95C65" stop-opacity=".3"/><stop offset="1" stop-color="#F95C65" stop-opacity="0"/></radialGradient></defs></svg>