<svg xmlns="http://www.w3.org/2000/svg" width="4018" height="2672" fill="none" viewBox="0 0 4018 2672"><path fill="url(#a)" d="M1373 1517.73c12.35 0 28.27.05 40.31-.04 8-.02 15.03-2.95 19.92-10.04 3.75-5.36 4.24-11.77 4.59-18.48.94-8.73-2.19-15.03-9.78-20.9-2.22-1.81-4.66-3.76-6.84-5.41-6.87-5.68-16.2-7.9-25.06-10.71-3.28-1.03-7.02-2.18-10.03-2.92-7.47-1.95-17.68-1.17-26.07-1.34-9.01.15-18.34-.32-27 .27-7.04.62-13.6 4.79-18.21 10.04-12.46 12.71-13.85 31.32-1.28 44.28 5.91 7.57 15.1 9.5 24.21 11.02 11.51 2.86 23.18 4.81 34.91 4.19h.35z"/><path fill="url(#b)" d="M1369.9 1645.81c13.54 0 32.35-.06 44.97.04 3.91.02 7.61.8 10.62 3.35 4.91 4.27 10.4 9.92 12.27 16.28 2.42 12.98-1.23 28.89-11.28 37.46-7.02 5.09-17.48 5.32-26.05 7.14-7.86 1.17-14.28 2.78-21.83 2.32-8.72-.82-18.89-3.1-27.65-4.78-8.25-1.73-16.14-4.37-24.37-6.94-7.22-2.32-15.73-4.77-19.73-10.68-9.6-15.24-16.76-23.7 3.16-34.29 7.32-3.58 19.03-6.18 27.69-8.44 10.19-2.3 21.93-1.34 31.92-1.54h.3z"/><defs><radialGradient id="a" cx="0" cy="0" r="1" gradientTransform="matrix(0 34.9777 -66.6025 0 1371.38 1482.83)" gradientUnits="userSpaceOnUse"><stop stop-color="#F95C65" stop-opacity=".3"/><stop offset="1" stop-color="#F95C65" stop-opacity="0"/></radialGradient><radialGradient id="b" cx="0" cy="0" r="1" gradientTransform="matrix(0 33.3937 -70.5868 0 1367.89 1679.09)" gradientUnits="userSpaceOnUse"><stop stop-color="#F95C65" stop-opacity=".3"/><stop offset="1" stop-color="#F95C65" stop-opacity="0"/></radialGradient></defs></svg>