<svg xmlns="http://www.w3.org/2000/svg" width="4018" height="2672" fill="none" viewBox="0 0 4018 2672"><path fill="url(#a)" d="M1853.9 1156.2c-10.77 2.4-22.46 6.73-32.86 10.47-5.56 2.17-8.25 7.58-10.69 12.93-1.43 3.23-2.95 6.6-2.87 10.15.33 6.53 7.16 13.02 12.54 17.1 8.14 4.87 18.89 6.64 27.79 9.29 9.99 2.5 19.12-3.1 28.51-6.04 8.17-3.41 16.95-6.43 23.65-12.36 9.48-8.98 7.06-26.82-1.08-35.86-4.95-5.05-15.72-4.72-24.06-5.25-6.26-.23-15.7-1.13-20.62-.5l-.29.04z"/><path fill="url(#b)" d="M1854.89 1230.61c-10.36-1.35-22.42.48-32.78.68-6.3.31-12.49 1.07-18.61 2.55-6.6 1.72-14.62 4.35-19.16 10.02-6.36 7.19-6.11 20.04-.63 27.33 7.79 8.63 22.48 8.75 33.06 11.03 7.35 1.23 14.24 2.36 22.08 3.26 15.81 1.36 31.26 5.4 47.44 3.7 14.83-2.42 39.37-4.42 42.85-21.79 2.36-19.9-30.97-26.28-45.58-29.47-9.97-1.56-18.91-5.15-28.32-7.2l-.35-.07z"/><path fill="url(#c)" d="M1962.05 1234.54c-15.43 3.65-27.41 11.39-24.21 29.26 1.85 6.36 8.02 9.3 13.91 11.42 5.7 2.26 10.95 4.8 16.86 6.24 11.92 3.04 24.66-.27 36.7-3.47 7.3-1.79 14.91-2.86 22.3-4.38 5.96-1.27 12.34-4.23 15.5-9.26 5.73-7.92 8.29-20.7-3.18-24.62-11.44-4.13-23.22-7.51-35.55-9.14-4.14-.35-8.28-.2-12.39.17-9.88 1.15-19.91 1.52-29.55 3.67l-.41.11z"/><path fill="url(#d)" d="M1675.01 956.289c-1.05-3.635-3.49-6.592-5.99-9.405-3.98-4.333-9.54-10.268-13.58-14.539-4.31-4.6-8.25-8.07-14.62-10.001-9.38-2.916-20.21-5.708-29.69-8.357-11.67-3.245-24.67-6.613-37-6.346-18.46.719-37.05-2.608-55.32-2.546-19.66-.082-39.49 4.189-58.92 4.435-14.71-.554-26.89 2.711-40.65 9.734-13.58 5.627-23.08 17.578-27.47 31.747-7 20.679-3.8 49.409 22.05 53.099 8.35 1.69 16.68 2.24 25.29 3.72 11.37 2.01 19.45 3.18 32.19 2.92 26.93 1.13 53.99-3.7 82.32-6.86 21.88-3.18 44.82-3.8 67.28-3.47 10.85.08 20.57-2.035 31.24-5.382 5.52-1.663 11.44-3.717 15.75-7.413 7.61-6.304 8.86-21.931 7.18-31.028l-.08-.308z"/><path fill="url(#e)" d="M2176.41 1552.09c-12.15-1.25-25.28-3.1-37.3-3.66-8.51.07-17.02 2.71-25.54 4.32-16.39 4-34.76 4.99-43.03 20.72-4.15 8.99-4.64 20.04-.47 29.01 8.76 17.58 37.21 22.47 55.44 28.13 25.09 7.54 49.62 13.52 76.37 15.82 9.19 1.52 17.56-.15 26.22-3.08 9.91-3 19.12-6.29 28.8-10.19 9.95-3.96 20.78-9.86 23.26-21.13 2.28-12.73-5.33-25.73-15.98-32.55-11.16-7.94-23.61-11.27-36.25-15.75-5.43-1.85-10.52-3.86-15.89-5.54-10.4-3.33-24.6-4.56-35.29-6.02l-.34-.04z"/><path fill="url(#f)" d="M1734.76 1486.73c-13.8.24-38.64 1.29-51.52 1.74-7.59-.04-13.3 3.72-18.28 9.86-10.46 13.96.57 30.16 15.59 34.03 19.9 4.86 45.58 6.16 64.2-3.82 22.32-13 18.85-43.15-9.66-41.81z"/><path fill="url(#g)" d="M1909.74 1624.66c-9.68-.82-20.31-.8-29.05 3.33-7.46 3.65-16.06 8.37-19.59 16.26-7.12 19.45 23.37 22.75 36.58 23.1 8.65-.12 17.95-1.95 26.09-4.04 3.43-.91 6.56-2.02 9.41-4.19 6.45-4.62 11.35-13.84 7.51-21.36-5.6-9.94-20.16-11.77-30.54-13.06l-.43-.04z"/><defs><radialGradient id="a" cx="0" cy="0" r="1" gradientTransform="matrix(0 30.4272 -49.3122 0 1856.79 1186.34)" gradientUnits="userSpaceOnUse"><stop stop-color="#38D175" stop-opacity=".3"/><stop offset="1" stop-color="#38D175" stop-opacity="0"/></radialGradient><radialGradient id="b" cx="0" cy="0" r="1" gradientTransform="matrix(0 29.7372 -74.8383 0 1854.42 1259.85)" gradientUnits="userSpaceOnUse"><stop stop-color="#38D175" stop-opacity=".3"/><stop offset="1" stop-color="#38D175" stop-opacity="0"/></radialGradient><radialGradient id="c" cx="0" cy="0" r="1" gradientTransform="matrix(0 26.1333 -55.3254 0 1992.65 1256.53)" gradientUnits="userSpaceOnUse"><stop stop-color="#38D175" stop-opacity=".3"/><stop offset="1" stop-color="#38D175" stop-opacity="0"/></radialGradient><radialGradient id="d" cx="0" cy="0" r="1" gradientTransform="matrix(0 52.9107 -143.585 0 1532.14 958.004)" gradientUnits="userSpaceOnUse"><stop stop-color="#38D175" stop-opacity=".3"/><stop offset="1" stop-color="#38D175" stop-opacity="0"/></radialGradient><radialGradient id="e" cx="0" cy="0" r="1" gradientTransform="matrix(0 49.2831 -106.693 0 2173.87 1597.72)" gradientUnits="userSpaceOnUse"><stop stop-color="#38D175" stop-opacity=".3"/><stop offset="1" stop-color="#38D175" stop-opacity="0"/></radialGradient><radialGradient id="f" cx="0" cy="0" r="1" gradientTransform="matrix(0 24.6852 -49.2306 0 1710.07 1511.37)" gradientUnits="userSpaceOnUse"><stop stop-color="#38D175" stop-opacity=".3"/><stop offset="1" stop-color="#38D175" stop-opacity="0"/></radialGradient><radialGradient id="g" cx="0" cy="0" r="1" gradientTransform="matrix(0 21.5581 -41.0021 0 1901.04 1645.79)" gradientUnits="userSpaceOnUse"><stop stop-color="#38D175" stop-opacity=".3"/><stop offset="1" stop-color="#38D175" stop-opacity="0"/></radialGradient></defs></svg>