<svg xmlns="http://www.w3.org/2000/svg" width="4018" height="2672" fill="none" viewBox="0 0 4018 2672"><path fill="url(#a)" d="M1427.44 1016.58c-16.66-8.48-49.56-24.253-64.02-31.214-4.27-1.663-11.81-6.653-9.17 1.602 14.83 49.062 103.71 391.812 117.17 425.672 11.92-34.21 88.66-263.77 100.99-300.1 1.66-4.42.84-6.78-3.43-9.43-40.68-25.05-98.48-61.07-141.33-86.43z"/><path fill="url(#b)" d="M1294.23 1381.34c1.85 1.07 4.21 1.46 6.48 1.93 38.55 6.96 131.31 23.72 158.63 28.63 7.16 1.25 10.19 1.76 10.91.63-7.59-37.23-100.22-384.62-109.93-424.599-.35-1.335-.61-2.259-.82-2.793-.39-.965-.59-.533-.96 1.356-.53 2.895-1.58 9.302-3.12 18.486-7.65 45.89-17.19 102.61-26.09 155.94-10.67 63.72-28.41 169.39-36.19 216.6-.16 1.56-.22 2.79 1.01 3.74l.06.04z"/><path fill="url(#c)" d="M1802.15 1477.08c-135.32-28.57-371.3-72.82-498.79-95.39-4.84-.57-6.09-1.11-6.34 2.65-.08 25.98 0 247.76-.04 368.32.53 41.74-.96 65.58.53 77.82 39.67 2.45 302.32-.08 413.79.8 20.12-.02 34.64.07 41-.04 5.85-.14 5.75-10.63 7.16-17.66 7.04-53.94 25.42-196.43 35.28-272.48 3.94-30.63 6.98-53.43 7.8-60.63.16-1.28.16-2.39-.37-3.33l-.04-.04z"/><path fill="url(#d)" d="M1973.27 1823.27c1.8 5.73-1.15 12.3-7.63 11.69-35.66-2.32-175.25-2.94-214.26-8.13-4.33-4.23-1.25-16.57 5.95-17.15 9.91-.25 22.97.84 42.73 1.46 17.43.7 38.05 1.54 58.85 2.36 35.61 1.44 70.54 2.83 101.39 4.09 7 .28 10.89-.04 12.93 5.5l.06.16z"/><path fill="url(#e)" d="M1637.1 1147.36c0 3.66 4.8 5.84 12.99 10.21 4.24 2.24 8.47 4.48 12.84 6.76 23.69 12.46 49.66 26.18 73.45 38.68 10.18 5.71 13.97 5.8 22.77-1.68 9.89-7.91 19.86-16.08 29.97-24.27 10.55-8.52 24.39-19.8 33.58-27.27 7.08-5.88 9.93-8.75 9.15-14.09-6.64-23.55-22.75-63.23-29.87-84.19-2.01-4.73-3.26-10.85-8.32-12.8-5.75-1.33-10.9.68-17.87 2.18-5.81 1.44-12.55 3.14-18.61 4.64-15.15 3.9-30.33 6.53-42.68 15.49-13.03 9.34-27.51 17.9-38.07 29.89-10.57 13.04-22.63 30.5-32.44 43.6-2.64 3.98-6.37 8.05-6.91 12.67v.16z"/><path fill="url(#f)" d="M2305 1163.04c14.13 8.11 43.61 2.05 59.1-1.11 18.83-4.01 32.55-16.97 46.4-29.27 8.65-7.82 17.9-15.03 24.43-24.35 7.05-9.47 9.5-21.54 10.13-33.72.49-7.04.74-14.78-.47-21.38-1.81-13.9-11.55-18.42-24.53-20.49-12.11-1.91-24.27-3.51-36.25-5.75-14.77-2.46-30.69-2.59-44.98 2.49-10.75 3.63-20.33 11.33-29.71 19.15-9.35 8.3-19.69 16.49-25.23 27.89-10.44 21.65-4.41 46.51 6.14 67.34 4.04 8.39 7.69 14.84 14.66 18.97l.29.16z"/><path fill="url(#g)" d="M2607.11 1309.41c-17.06-1.24-33.43 6.36-49.17 12.65-9.35 3.86-19.87 6.55-29.41 10.59-31.71 13.29-54.77 42.84-59.78 76.82-1.88 17.58-4 39.39 7.1 53.21 3.65 4.68 8.66 8.13 13.93 10.86 17.54 9.49 37.27 14.07 57.11 14.23 45.78.76 88.7 4.03 111.1-44.27 15.05-28.93 12.53-63.41.73-93.29-8.24-25.01-24.39-39.24-51.22-40.8z"/><path fill="url(#h)" d="M2512.73 1601.91c-26.19 11.58-51.3 25.44-73.58 43.57-10.01 7.7-20.32 15.57-28.02 25.36-5.33 6.7-10.23 14.4-14.89 21.77-17.25 25.77-29.04 56.31-23.2 87.68 1.56 9.51 4.86 19.98 8.17 28.53 4.51 12.38 10.7 18.09 23.17 20.06 33.17 4.7 65.77 1.81 98.67-3.55 35-3.99 69.21-17.07 103.98-23.56 15.94-3.2 31.9-5.3 46.69-11.27 18.95-7.35 38.42-17.81 49.15-34.62 14.6-23.04 20.26-51.53 18.81-78.71-.82-15.26.28-33.66-6.57-47.17-5.04-9.22-15.24-13.86-24.86-17.23-20.24-6.78-40.29-19.72-62.23-22.08-38.2-3.43-78.96-3.26-114.96 11.07l-.35.15z"/><defs><radialGradient id="a" cx="0" cy="0" r="1" gradientTransform="matrix(0 215.145 -109.752 0 1463.433 1197.497)" gradientUnits="userSpaceOnUse"><stop stop-color="#F95C65" stop-opacity=".3"/><stop offset="1" stop-color="#F95C65" stop-opacity="0"/></radialGradient><radialGradient id="b" cx="0" cy="0" r="1" gradientTransform="scale(88.5978 214.259)rotate(90 5 10.595)" gradientUnits="userSpaceOnUse"><stop stop-color="#F95C65" stop-opacity=".3"/><stop offset="1" stop-color="#F95C65" stop-opacity="0"/></radialGradient><radialGradient id="c" cx="0" cy="0" r="1" gradientTransform="scale(252.905 225.149)rotate(90 -.504 6.631)" gradientUnits="userSpaceOnUse"><stop stop-color="#F95C65" stop-opacity=".3"/><stop offset="1" stop-color="#F95C65" stop-opacity="0"/></radialGradient><radialGradient id="d" cx="0" cy="0" r="1" gradientTransform="matrix(0 12.6773 -112.199 0 1861.59 1822.32)" gradientUnits="userSpaceOnUse"><stop stop-color="#F95C65" stop-opacity=".3"/><stop offset="1" stop-color="#F95C65" stop-opacity="0"/></radialGradient><radialGradient id="e" cx="0" cy="0" r="1" gradientTransform="matrix(0 84.4286 -97.447 0 1734.53 1122.71)" gradientUnits="userSpaceOnUse"><stop stop-color="#F95C65" stop-opacity=".3"/><stop offset="1" stop-color="#F95C65" stop-opacity="0"/></radialGradient><radialGradient id="f" cx="0" cy="0" r="1" gradientTransform="matrix(0 70.8841 -83.5029 0 2361.96 1096.2)" gradientUnits="userSpaceOnUse"><stop stop-color="#F95C65" stop-opacity=".3"/><stop offset="1" stop-color="#F95C65" stop-opacity="0"/></radialGradient><radialGradient id="g" cx="0" cy="0" r="1" gradientTransform="matrix(0 89.4194 -100.597 0 2567.84 1398.69)" gradientUnits="userSpaceOnUse"><stop stop-color="#F95C65" stop-opacity=".3"/><stop offset="1" stop-color="#F95C65" stop-opacity="0"/></radialGradient><radialGradient id="h" cx="0" cy="0" r="1" gradientTransform="matrix(0 121.196 -175.186 0 2546.679 1709.954)" gradientUnits="userSpaceOnUse"><stop stop-color="#F95C65" stop-opacity=".3"/><stop offset="1" stop-color="#F95C65" stop-opacity="0"/></radialGradient></defs></svg>