<svg xmlns="http://www.w3.org/2000/svg" width="4018" height="2672" fill="none" viewBox="0 0 4018 2672"><path fill="url(#a)" d="M1733.78 1059.87c10.63-3.56 21.62-2.2 32.82-.39 16.31 2.62 30.73 12.03 40.72 24.97 5.97 8.25 10.05 17.43 9.48 27.35-1.56 13.02-8.8 26.2-18.9 34.78-11.55 9.06-25.02 16.6-38.54 22.76-5.83 2.56-12.35 4.54-18.63 5.15-13.04 1.25-23.32-5.01-34.38-12.67-6.25-4.31-12.1-8.5-15.83-13.47-11.51-14.62-7.02-35.05.04-51.07 6.87-18.75 24.04-31.23 42.83-37.31l.39-.13z"/><path fill="url(#b)" d="M1992.26 1224.11c-17.7 3.22-49.86 25.54-45.43 46.18 4.86 23.88 30.07 28.91 49.23 17.56 14.54-6.64 28.1-18.9 26.07-36.27-1.07-14.5-14.28-29.4-29.48-27.52z"/><path fill="url(#c)" d="M1718.81 1379.97c22.21-4.87 30.44 28.97 7.57 33.78-5.93 1.45-13.89.8-18.36-2.47-10.55-9.47-2.94-28.91 10.42-31.23l.39-.08z"/><path fill="url(#d)" d="M1701.51 1420.21c24.52-15.23 43.18-9.94 68.37-.7 11.49 3.97 21.97 11.96 27.04 23.25 5.66 15.26 13.06 42.3-10.81 44.79-9.46 1.43-19.1.53-28.82.65-14.98.56-30.42.76-44.54-5.05-15.75-5.44-25.68-20.24-26.91-36.47-1.5-11.54 5.68-20.31 15.34-26.22l.35-.21z"/><path fill="url(#e)" d="M2443.4 1207.29c-11.59 7.31-13.93 23.71-4.53 33.51 7.55 8.58 20.63 11.21 31.4 11.62 9.87.27 22.18-3.41 32.49-5.91 13.71-3.99 43.8-11.4 45.11-27.62-.2-17.87-22.42-17.58-35.63-19.24-7.42-.85-14.26-2.02-21.89-2.67-15.65-1.4-33.14.82-46.58 10.04l-.35.24z"/><defs><radialGradient id="a" cx="0" cy="0" r="1" gradientTransform="matrix(0 58.5037 -66.6863 0 1750.16 1116.15)" gradientUnits="userSpaceOnUse"><stop stop-color="#38D175" stop-opacity=".3"/><stop offset="1" stop-color="#38D175" stop-opacity="0"/></radialGradient><radialGradient id="b" cx="0" cy="0" r="1" gradientTransform="scale(37.9598 34.8738)rotate(90 8.09 44.185)" gradientUnits="userSpaceOnUse"><stop stop-color="#38D175" stop-opacity=".3"/><stop offset="1" stop-color="#38D175" stop-opacity="0"/></radialGradient><radialGradient id="c" cx="0" cy="0" r="1" gradientTransform="matrix(0 17.496 -18.4718 0 1721.53 1396.98)" gradientUnits="userSpaceOnUse"><stop stop-color="#38D175" stop-opacity=".3"/><stop offset="1" stop-color="#38D175" stop-opacity="0"/></radialGradient><radialGradient id="d" cx="0" cy="0" r="1" gradientTransform="matrix(0 38.9305 -58.4922 0 1744.13 1449.54)" gradientUnits="userSpaceOnUse"><stop stop-color="#38D175" stop-opacity=".3"/><stop offset="1" stop-color="#38D175" stop-opacity="0"/></radialGradient><radialGradient id="e" cx="0" cy="0" r="1" gradientTransform="matrix(0 27.9206 -57.4087 0 2490.46 1224.51)" gradientUnits="userSpaceOnUse"><stop stop-color="#38D175" stop-opacity=".3"/><stop offset="1" stop-color="#38D175" stop-opacity="0"/></radialGradient></defs></svg>