<svg xmlns="http://www.w3.org/2000/svg" width="4018" height="2672" fill="none" viewBox="0 0 4018 2672"><path fill="url(#a)" d="M1879.77 1161.45c-1.91.13-9.97.76-18.46 6.16-7.57 4.83-11.41 10.87-12.31 12.32-1.89 3.08-9.21 16.04-4.1 28.75.82 2.06 2.91 7.25 8.2 10.27 3.94 2.26 7.76 2.2 12.31 2.05 2.56-.08 7.08-.41 18.46-4.1 10.46-3.39 15.75-5.16 18.46-8.22 2.96-3.36 4.02-7.02 6.16-14.37 1.66-5.75 2.5-8.63 2.05-12.32-.99-8.13-6.96-13.31-8.21-14.38-8.14-7.04-18.27-6.42-22.56-6.16"/><path fill="url(#b)" d="M1842.85 1235.38c-2.73.45-14.81 2.54-30.77 8.21-7.66 2.71-11.47 4.07-14.36 6.16-2.14 1.54-13.58 9.82-14.36 24.65-.51 9.73 3.73 19.03 10.25 24.64 1.67 1.43 3.33 2.48 12.31 6.16 15.26 6.24 22.92 9.36 28.72 10.27 4.23.65 3.45.1 28.72 0 9.45-.05 8.22.04 16.41 0 22.28-.11 29.15-.58 36.92-2.06 3.12-.59 9.54-1.93 16.41-6.16 6.69-4.11 7.92-7.35 8.21-8.21 1.13-3.35.28-6.53-2.05-12.32-4.13-10.17-6.18-15.26-10.26-20.54-5.79-7.47-16.25-12.61-36.92-22.59-17.81-8.6-23.22-9.85-28.72-10.26-5.75-.44-10.67.41-20.51 2.05"/><path fill="url(#c)" d="M1721.82 1492.07c-10.01-.29-18.3 3.22-34.87 10.26-12.04 5.12-16.11 8.24-18.46 10.27-5.09 4.37-11.29 9.71-12.31 18.48-1.17 9.98 5.21 17.42 6.15 18.48 4.19 4.75 9.15 6.51 14.36 8.22 18.93 6.2 28.39 9.3 38.97 10.27 18.73 1.7 14.88-2.98 38.98-2.06 10.09.39 18.93 1.5 26.67-4.11 2.46-1.78 4.41-3.96 8.2-8.21 6.13-6.88 9.21-10.31 10.26-14.37 2.48-9.61-4.76-18.83-6.16-20.54-4.02-4.89-10.25-7.43-22.56-12.32-3.43-1.35-10.97-4.25-24.62-8.21-13.9-4.03-20.86-6.06-24.61-6.16"/><path fill="url(#d)" d="M2218.23 1551.62c-9.66-2.82-26.61-7.6-49.23-6.16-15.39.96-32.99 2.09-49.23 14.37-10.46 7.91-15.45 16.72-16.41 18.48-9.17 16.66-6.85 32.92-6.16 36.97.39 2.21 3.94 21.27 20.52 34.91 6.68 5.5 12.67 7.78 24.61 12.32 10.91 4.14 20.15 7.66 32.82 8.21 15.14.66 26.65-3.26 34.87-6.16 13.71-4.83 22.9-11.07 30.77-16.43 9.79-6.65 15.74-12.22 24.62-20.53 14.79-13.84 16-17.83 16.41-20.54 1.7-10.98-6.63-20.72-8.21-22.59-1.99-2.32-2.7-2.5-16.41-12.32-12.16-8.7-11.71-8.62-14.36-10.27-9.29-5.72-17.45-8.17-24.61-10.26"/><path fill="url(#e)" d="M2398.74 1060.83c-28.47-2.69-49.66 11.17-57.43 16.43-11.88 8.03-29.56 19.96-30.77 39.02-.9 14.08 7.65 24.9 12.31 30.8 17.82 22.55 45.66 26.04 53.33 26.69 15.67 1.34 29.6-3.9 57.44-14.37 19.77-7.43 25.02-11.89 28.71-16.43 7.76-9.53 13.23-25.07 8.21-39.02-3.82-10.57-11.98-15.6-26.67-24.64-15.38-9.46-27.3-16.79-45.13-18.48"/><path fill="url(#f)" d="M2499.26 1177.88c-15.26 7.7-23.45 19.88-30.77 30.8-8.88 13.23-17.15 25.55-14.36 41.07.18 1.01 3.55 18.22 18.46 26.7 11.26 6.41 23.92 3.59 49.23-2.05 18.13-4.05 28.68-6.49 41.03-14.38 10.64-6.78 22.56-14.37 26.66-28.75 5.93-20.7-8.92-39.43-10.25-41.07-18.59-22.75-55.65-24.6-80-12.32"/><path fill="url(#g)" d="M2616.18 993.066c-29.21 1.992-50.69 12.794-57.44 16.424-22.83 12.26-19.18 18.51-45.12 32.86-20.46 11.31-35.33 14.42-34.88 20.53.31 4.17 7.39 5.26 26.67 16.43 9.99 5.79 12.33 7.97 16.41 10.27 12 6.78 24.9 6.72 59.49 2.05 57.99-7.82 55.47-12.24 73.84-10.26 13.13 1.41 22.16 4.49 34.88 0 12.14-4.3 25.37-14.71 24.61-24.65-.41-5.29-4.47-6.4-12.31-16.42-9.82-12.57-7.61-16.19-14.35-24.65-11.08-13.88-27.98-17.902-38.98-20.531-13.7-3.265-24.53-2.608-32.82-2.053"/><path fill="url(#h)" d="M2251.05 1286.72c-4.96 2.21-12.2 8.31-26.66 20.53-21.85 18.42-23.78 23.14-24.62 26.7-2.44 10.35 2.38 19.63 8.21 30.8 3.73 7.19 8.96 17.21 20.51 24.64 9.76 6.28 19.14 7.54 24.61 8.21 10.63 1.32 18.85-.47 34.88-4.1 34.74-7.87 52.18-11.93 55.38-18.48 3.67-7.5-1.85-10.15 2.05-24.65 3.47-12.91 9.35-16.44 8.21-24.64-.58-4.15-2.79-8.27-12.31-16.43-12.92-11.08-23.32-20-41.03-24.64-7.22-1.89-28.16-7.37-49.23 2.06"/><defs><radialGradient id="a" cx="0" cy="0" r="1" gradientTransform="matrix(0 29.8764 -33.7705 0 1876.89 1191.19)" gradientUnits="userSpaceOnUse"><stop stop-color="#38D175" stop-opacity=".3"/><stop offset="1" stop-color="#38D175" stop-opacity="0"/></radialGradient><radialGradient id="b" cx="0" cy="0" r="1" gradientTransform="matrix(0 41.2841 -79.2435 0 1862.56 1274.5)" gradientUnits="userSpaceOnUse"><stop stop-color="#38D175" stop-opacity=".3"/><stop offset="1" stop-color="#38D175" stop-opacity="0"/></radialGradient><radialGradient id="c" cx="0" cy="0" r="1" gradientTransform="matrix(0 38.1863 -72.1231 0 1728.16 1530.24)" gradientUnits="userSpaceOnUse"><stop stop-color="#38D175" stop-opacity=".3"/><stop offset="1" stop-color="#38D175" stop-opacity="0"/></radialGradient><radialGradient id="d" cx="0" cy="0" r="1" gradientTransform="matrix(0 62.7999 -92.8109 0 2189.24 1607.99)" gradientUnits="userSpaceOnUse"><stop stop-color="#38D175" stop-opacity=".3"/><stop offset="1" stop-color="#38D175" stop-opacity="0"/></radialGradient><radialGradient id="e" cx="0" cy="0" r="1" gradientTransform="matrix(0 56.745 -81.001 0 2391.47 1117.23)" gradientUnits="userSpaceOnUse"><stop stop-color="#38D175" stop-opacity=".3"/><stop offset="1" stop-color="#38D175" stop-opacity="0"/></radialGradient><radialGradient id="f" cx="0" cy="0" r="1" gradientTransform="scale(68.6635 54.8804)rotate(90 7.204 29.53)" gradientUnits="userSpaceOnUse"><stop stop-color="#38D175" stop-opacity=".3"/><stop offset="1" stop-color="#38D175" stop-opacity="0"/></radialGradient><radialGradient id="g" cx="0" cy="0" r="1" gradientTransform="matrix(0 51.1601 -117.969 0 2596.7 1043.77)" gradientUnits="userSpaceOnUse"><stop stop-color="#38D175" stop-opacity=".3"/><stop offset="1" stop-color="#38D175" stop-opacity="0"/></radialGradient><radialGradient id="h" cx="0" cy="0" r="1" gradientTransform="matrix(0 58.3399 -77.3207 0 2276.44 1339.7)" gradientUnits="userSpaceOnUse"><stop stop-color="#38D175" stop-opacity=".3"/><stop offset="1" stop-color="#38D175" stop-opacity="0"/></radialGradient></defs></svg>