<svg xmlns="http://www.w3.org/2000/svg" width="4018" height="2672" fill="none" viewBox="0 0 4018 2672"><path fill="url(#a)" d="M1854.5 1152.01c-8.45 1.52-17.28 4.86-23.82 11.5-7.92 9.03-14.4 23.98-16.98 35.87-1.58 10.31-2.34 23.56 5.7 30.54 9.27 6.9 21.37 11.72 32.53 14.35 10.96 1.73 23.43.78 34.63 1.03 15.94-.21 33.93.47 49.52-.37 10.64-.37 11.85-9.86 11.71-18.59.04-9.85 0-20.22 0-31.23.8-19.04-5.11-25.83-23-31.56-6.68-2.32-13.17-3.55-20.24-4.83-10.42-1.85-25.03-4.51-34.4-6.14-5.13-.86-10.22-1.46-15.33-.63z"/><path fill="url(#b)" d="M1807.83 1245.48c-3.03.52-6.17 1.26-9.27 2.02-12.68 3.16-26.89 5.64-32.47 18.48-3.26 7.18-8.17 16.96-7.12 23.14 1.27 4.17 4.74 5.01 10.5 7.02 5.89 1.79 13.23 3.88 19.63 5.69 6.96 1.95 13.91 3.9 20.84 5.57 13.5 3.59 26.45 3.14 41.13 3.14 15.04-.33 30.57.84 45.15-.86 11.12-1.98 21.7-5.18 33.89-8.59 11.4-3.26 21.99-8.23 32.57-14 4.72-2.75 13.52-6.53 15.06-11.05.94-6.22-11.18-12.32-17.54-17.27-4.9-3.29-9.83-6.37-15.75-6.86-19.24-1.4-58.81-3.24-92.72-5.22-20.06-.59-28.64-2.81-43.63-1.27l-.29.04z"/><path fill="url(#c)" d="M2149.02 1536.38c-5.76-.18-18.93 2.46-26.79 3.61-21.5 3.78-44.37 6.51-61 10.25-7.29 2.51-6.26 8.4-6.69 16.51-.04 3.33-.02 7.15-.04 11.09.1 7.95-.29 15.96.43 23.7.76 7.33 3.79 9.71 11.81 13.43 12.17 5.6 24.97 11.35 37.26 16.96 7.95 3.59 14.03 6.45 21.23 9.59 9.47 4.99 18.64 3.12 29.45 1.54 11.8-1.68 25.15-3.62 36.76-5.26 10.07-1.5 18.65-2.46 28.62-2.81 7.05-.37 16.86-.58 24.49-1.13 7.42-.31 14.77-3 18.85-9.53 10.07-14.8 9.31-26.51.62-41.6-5.01-9.1-8.64-20.09-19.43-22.55-14.19-3.92-36.47-9.38-58.07-15.03-16.62-3.88-24.33-7.17-37.27-8.79h-.21z"/><path fill="url(#d)" d="M2193.8 1347.89c1.87 2.69 4.96 3.8 8.02 4.85 5.85 1.87 15.34 4.62 26.15 7.86 18.63 5.55 40.64 12.14 52.11 15.53 6.68 2.21 12.59 3.12 19.13-.44 14.01-6.69 35.7-17.51 51.04-25.05 6.52-3.22 15.16-6.9 14.42-12.71-.2-6.14-2.71-11.97-4.53-17.99-4.41-12.96-5.95-23.39-21.29-24.95-24.87-4.19-52.74-9.2-78.67-12.75-14.91-1.4-30.81-6.47-45.52-3.78-3.3.74-6.65 1.89-9.87 3.12-7.95 3.37-15.87 5.77-19.32 11.67-3.42 8.52.72 17.84 1.72 26.98 1.75 8.46 3.02 21.83 6.47 27.48l.12.18z"/><path fill="url(#e)" d="M1448.55 1017.13c3.96 1.85 8.29 1.34 12.7.99 29.52-3.41 69.54-6.61 98.95-11.13 22.34-3.47 75.49-11.665 95.51-14.787 8.72-.965 16.16-4.374 23.67-8.891 9.44-5.935 22.63-11.87 31.3-19.488 3.78-3.779 3.33-8.378 1.6-13.389-2.44-6.941-6.27-15.401-9.25-22.527-4.51-9.59-6.5-19.857-17.48-21.623-18.46-3.06-54.13-7.578-76.59-10.863-11.3-1.54-17.56-2.834-27.92-1.951-22.46 1.561-73.41 5.319-94.38 6.818-18.05 1.129-35.2 6.509-53.86 10.247-5.79 1.293-11.35 2.484-16.95 3.799-8.53 1.991-12.76 3.799-13.7 9.548-.98 7.496.51 15.258 1.07 22.958 1.25 12.876 1.51 24.519 10.83 34.355 6.66 7.783 13.93 15.587 20.76 23.244 5.8 6.39 9.76 10.76 13.53 12.59z"/><defs><radialGradient id="a" cx="0" cy="0" r="1" gradientTransform="matrix(0 46.9045 -67.5889 0 1880.27 1198.46)" gradientUnits="userSpaceOnUse"><stop stop-color="#38D175" stop-opacity=".3"/><stop offset="1" stop-color="#38D175" stop-opacity="0"/></radialGradient><radialGradient id="b" cx="0" cy="0" r="1" gradientTransform="matrix(0 32.8708 -109.482 0 1868.31 1277.76)" gradientUnits="userSpaceOnUse"><stop stop-color="#38D175" stop-opacity=".3"/><stop offset="1" stop-color="#38D175" stop-opacity="0"/></radialGradient><radialGradient id="c" cx="0" cy="0" r="1" gradientTransform="matrix(0 54.1977 -108.132 0 2162.61 1590.56)" gradientUnits="userSpaceOnUse"><stop stop-color="#38D175" stop-opacity=".3"/><stop offset="1" stop-color="#38D175" stop-opacity="0"/></radialGradient><radialGradient id="d" cx="0" cy="0" r="1" gradientTransform="matrix(0 50.1953 -90.2884 0 2274.43 1327.88)" gradientUnits="userSpaceOnUse"><stop stop-color="#38D175" stop-opacity=".3"/><stop offset="1" stop-color="#38D175" stop-opacity="0"/></radialGradient><radialGradient id="e" cx="0" cy="0" r="1" gradientTransform="matrix(0 62.6379 -155.873 0 1557.69 955.822)" gradientUnits="userSpaceOnUse"><stop stop-color="#38D175" stop-opacity=".3"/><stop offset="1" stop-color="#38D175" stop-opacity="0"/></radialGradient></defs></svg>