<svg xmlns="http://www.w3.org/2000/svg" width="4018" height="2672" fill="none" viewBox="0 0 4018 2672"><path fill="url(#a)" d="M1789.92 1714.17c.06-4.56 4.08-8.21 6.9-11.7 9.68-10.39 20.43-23 30.7-32.63 5.36-4.73 10.38-6.59 17.36-9.39 14.21-5.56 34.77-13.67 50.64-19.9 11.43-4.49 22.61-8.87 32.99-12.95 4.26-1.56 7.79-3.19 12.1-2.92 10.69 1.93 17.25 16.37 26.13 23.41 6.94 6.41 15.12 10.97 23.43 15.55 8.45 4.92 20.88 10.06 17.7 21.37-2.28 8.36-8.02 16.21-10.34 24.75-.71 2.4-1.27 4.82-1.62 7.27-1.84 11.25 1.54 19.16-3.46 26.1-2.73 4.17-12.48 7.8-19.94 11.31-21.09 9.41-47.12 21.69-63.39 28.57-8.51 3.9-15.5.35-22.99-4.93-5.64-3.84-11.92-8.38-17.6-12.38-15.82-11.71-32.78-21.26-50.77-31.51-6.24-3.59-13.54-7.72-19.18-11.13-5.25-3.22-8.37-5.72-8.68-8.66v-.21z"/><path fill="url(#b)" d="M2080.55 1574.97c-7.84 1.72-16.82 4.43-24.14 6.85-7.43 2.61-11.98 3.6-17.3 8.2-6.77 6.57-12.33 13.72-18.05 21.72-15.81 21.98-7.65 37.56-2.6 61.53 1.82 10.33 5.47 26.32 3.85 34.95-1.31 6.9-9.82 9.36-15.28 11.09-4.18 2.28 10.09 3.32 13.27 3.75 12.82 1.26 26.94 1.95 39.22 2.78 9.83.88 16.25-.62 18.98 8.23 1.37 4.66-1.13 10.12 1.39 14.4 1.68 2.64 5.73 2.34 9.91 4.8 6.03 2.63 9.99 8.63 15.16 11.73 6.21 1.82 11.59-2.18 18.5-5.49 11.24-5.95 23.47-12.42 34.77-18.42 23.3-12.95 46.13-20.61 70.65-30.72 8.55-3.71 20.31-7.14 25.97-12.03 5.99-5.5-5.34-18.6-8.99-25.13-5.27-8.14-10.28-16.02-15.71-24.19-5.11-7.85-10.03-13.82-10.2-18.14.62-7.12 10.4-6.77 16.23-8.87 14.22-3.96 17.83-14.33 7.32-25.11-6.58-6.92-17.8-12.49-26.75-17.54-11.3-6.92-23.09-7.17-36.18-6.84h-67.2c-11.06-.06-21.6-.1-32.45 2.43l-.37.08z"/><path fill="url(#c)" d="M2193.9 1325.03c.47-4.35 3.37-8.25 7.55-11.23 13.54-10.21 33.46-8.01 49.37-7.95 16.27 0 31.18 7.29 45.71 13.95 15.3 6.71 23.24 21.41 32.04 34.5 4.9 7.94 3.4 9.59-6.91 8.74-15.94-1.23-35.39-2.87-51.98-4.21-21.99-2.09-39.43-1.25-58.63-12.65-7.43-4.78-17.8-11.06-17.17-20.82v-.31z"/><path fill="url(#d)" d="M1776.18 1219.98c33.15-3.39 85.66-8.5 116.72-11.6 2.6-.27 9.93-1.24 7.77 2.09-3.14 4.7-13.27 10.68-14.83 16.43-1.31 7.6 10.95 9.69 16.02 13 11.9 5.52 14.85 18.09 24.76 25.85 4.84 4.27 12.84 6.3 16.12 11.89 3.74 11.21-25.9 10.27-27.77 18.13-.1 3.97 12.35 6.98 11.94 10.87-4.11 6.01-38.69 4.18-38.59 12.13.08 1.52 1.36 3.45 3.41 5.71 5.43 6.02 13.37 11.38 17.33 18.77 4.21 7.74 1.46 14.05 3.73 20.99 2.28 8.13 10.63 14.06 12.56 22.11.96 8.73-10.28 11.48-16.99 13.99-24.43 7.51-70.21 23.02-92.08 29.16-5.78 1.23-7.22-2.18-7.81-7.03-.54-4.88-1.83-10.39-5.85-13.76-6.03-5.64-18.73-5.72-27.92-7.24-11.07-1.63-19.3-2.82-20.47-7.23-.62-2.2.98-5.16 4.16-9.08 2.47-3.04 5.71-6.69 9.13-10.64 8.41-10.32 18.75-19.85 25.77-31.11 3.52-6.69 1.66-12.3 2.29-18.74.21-3.09.68-6.14.97-9.23 1.5-10.84-.25-17.14-9.87-23.28-11.2-7.15-23.77-16.41-36.76-19.65-6.13-1.01-11.34 1.56-16.92 4.35-5.95 3.02-14.38 7.52-20.35 9.32-17.97 5.07 8.88-19.12 14.63-24.52 8.26-7.66 15.91-14.66 23.36-21.52 5.76-5.21 10.91-10.2 15.02-13.61 2.27-1.93 5.21-3.57 7.75-3.16 4.86.88 8.06 5.4 11.28 9.03 12.15 14.75 26.61 32.41 38.67 47.09"/><path fill="url(#e)" d="M1655.24 1507.82c3.01-5.86 12.24-7.95 20.84-9.96 13.68-2.88 27.46-7.42 39.98-8.83 4.78-.35 8.02 2.28 10.85 5.73 2.48 2.77 5.84 5.21 9.39 6.88 4.17 2.15 9.48 3.2 11.65 7.74 3.1 6.53-1.37 17.45-7.61 22.03-3.54 2.53-8.22 3.39-12.61 4.21-13.25 2.32-35 6.1-48.62 8.42-6.93 1.13-15.36 2.01-19.98-4.15-5.21-7.88-8.24-23.16-4.06-31.81l.15-.24z"/><defs><radialGradient id="a" cx="0" cy="0" r="1" gradientTransform="matrix(0 80.0038 -109.239 0 1899.14 1704.66)" gradientUnits="userSpaceOnUse"><stop stop-color="#38D175" stop-opacity=".3"/><stop offset="1" stop-color="#38D175" stop-opacity="0"/></radialGradient><radialGradient id="b" cx="0" cy="0" r="1" gradientTransform="scale(125.147 96.5109)rotate(90 -.13 17.162)" gradientUnits="userSpaceOnUse"><stop stop-color="#38D175" stop-opacity=".3"/><stop offset="1" stop-color="#38D175" stop-opacity="0"/></radialGradient><radialGradient id="c" cx="0" cy="0" r="1" gradientTransform="matrix(0 28.8141 -68.7043 0 2262.56 1334.43)" gradientUnits="userSpaceOnUse"><stop stop-color="#38D175" stop-opacity=".3"/><stop offset="1" stop-color="#38D175" stop-opacity="0"/></radialGradient><radialGradient id="d" cx="0" cy="0" r="1" gradientTransform="matrix(0 110.855 -118.262 0 1824.81 1318.89)" gradientUnits="userSpaceOnUse"><stop stop-color="#38D175" stop-opacity=".3"/><stop offset="1" stop-color="#38D175" stop-opacity="0"/></radialGradient><radialGradient id="e" cx="0" cy="0" r="1" gradientTransform="matrix(0 27.9263 -47.9273 0 1701.03 1516.92)" gradientUnits="userSpaceOnUse"><stop stop-color="#38D175" stop-opacity=".3"/><stop offset="1" stop-color="#38D175" stop-opacity="0"/></radialGradient></defs></svg>