<svg xmlns="http://www.w3.org/2000/svg" width="4018" height="2672" fill="none" viewBox="0 0 4018 2672"><path fill="url(#a)" d="M1747.42 1513.63c9.81 1.58 13.05 15.52 5.68 21.66-3.22 2.34-7.94 3.86-10.99 1.32-3.98-3.33-3.3-8.87-3.37-13.72-.3-5.59 2.14-10.95 8.29-9.34l.37.08z"/><path fill="url(#b)" d="M1298.72 1198.33c11.16 5.32 25.6 9.57 38.14 13.76 10.66 3.23 21 1.83 32.35 1.64 9.49-.39 19.34-.47 28.67-1.13 7.24-.61 7.86-2.25 9.4-7.86 12.51-46.59 38.46-142.43 46.21-171.9.97-3.26-.35-4.91-3.36-6.22-4.8-2.34-15.57-7.27-29.42-13.74-34.29-15.954-81.23-37.763-114.54-53.246-4.02-1.848-6.65-3.142-8.12-3.532-2.2-.575-2.03 1.129-2.16 2.895-.08 21.973-.02 177.973 0 233.853.02 2.32.52 4.11 2.71 5.4l.16.1z"/><defs><radialGradient id="a" cx="0" cy="0" r="1" gradientTransform="matrix(0 12.3347 -9.20418 0 1747.92 1525.59)" gradientUnits="userSpaceOnUse"><stop stop-color="#F95C65" stop-opacity=".3"/><stop offset="1" stop-color="#F95C65" stop-opacity="0"/></radialGradient><radialGradient id="b" cx="0" cy="0" r="1" gradientTransform="matrix(0 129.102 -78.9767 0 1374.83 1085.09)" gradientUnits="userSpaceOnUse"><stop stop-color="#F95C65" stop-opacity=".3"/><stop offset="1" stop-color="#F95C65" stop-opacity="0"/></radialGradient></defs></svg>