<svg xmlns="http://www.w3.org/2000/svg" width="4018" height="2672" fill="none" viewBox="0 0 4018 2672"><path fill="url(#a)" d="M1923.63 1602.34c10.91 1.7 24.47.39 32.92 8.69 13.5 12.77 11.16 32.32 1.62 46.77-6.07 10.7-15.86 18.18-27.24 22.26-9.29 3.15-20.27 4.01-30.38 3.45-12.33-.71-25.13-1.43-34.87-9.67-9.36-8.31-26.3-28.71-21.69-41.62 3.22-8.46 14.71-12.08 23.27-16.72 17.72-8.7 36.3-17.12 56-13.18l.37.04z"/><path fill="url(#b)" d="M1767.2 1164.08c16.34-9.63 34.05-15.61 51.91-22.36 9.73-3.35 19.7-7.54 29.97-8.07 9.64-.37 19.67.98 29.11 2.81 28.47 7.19 54.3 23.92 77.83 41.32 10.81 9.01 17.29 20.02 20.8 32.93 2.13 9.41 2.23 19.94 3.11 29.76.31 4.39.6 7.99.82 11.95 1.28 13.7-2.11 28.15-4.14 42.63-2.52 14.89-3.75 30.25-9.05 43.41-2.52 6.66-5.82 15.22-8.86 22.1-4.28 10.37-11.98 18.62-19.91 26.43-12.05 12.13-23.86 22.61-37.79 31.89-9.31 5.93-20.22 8.46-30.89 11.56-9.87 2.85-17.77 4.02-28.23 1.46-14.85-3.88-32.16-6.51-45.37-14.85-6.3-3.84-12.64-7.91-18.59-12.24-9.1-6.2-15.26-16.26-21.31-26.06-8.27-12.22-13.74-24.09-17.33-38.97-4.35-16.82-10.85-32.51-10.55-49.88.19-25.12-.71-50.79.46-75.74.73-11.7 10.74-20.47 18.01-29.32 6.09-6.88 12.8-15.71 19.71-20.58l.27-.18z"/><path fill="url(#c)" d="M1592.14 975.24c10.93-5.174 23.34-11.273 34.56-13.614 16.35-2.156 33.44-.514 49.05 4.723 11.18 3.532 23.1 8.974 30.21 18.235 5.97 7.372 11.37 16.426 14.67 24.886 9.09 21.13 6.59 33.33-7.47 51.05-8.22 11.65-24.9 16.35-37.8 22.08-9.37 4.06-17.5 7.18-27.49 4.25-6.95-1.77-14.19-3.99-20.94-6.37-13.31-4.13-19.69-16.04-27.22-26.59-10.83-14.17-12.19-33.43-19.04-48.96-8.2-15.212-4.47-22.276 11.12-29.484l.37-.185z"/><defs><radialGradient id="a" cx="0" cy="0" r="1" gradientTransform="matrix(0 41.1755 -61.393 0 1904.61 1642.5)" gradientUnits="userSpaceOnUse"><stop stop-color="#38D175" stop-opacity=".3"/><stop offset="1" stop-color="#38D175" stop-opacity="0"/></radialGradient><radialGradient id="b" cx="0" cy="0" r="1" gradientTransform="matrix(0 149.866 -126.229 0 1854.8 1283.45)" gradientUnits="userSpaceOnUse"><stop stop-color="#38D175" stop-opacity=".3"/><stop offset="1" stop-color="#38D175" stop-opacity="0"/></radialGradient><radialGradient id="c" cx="0" cy="0" r="1" gradientTransform="matrix(0 63.6497 -74.769 0 1651.21 1024.35)" gradientUnits="userSpaceOnUse"><stop stop-color="#38D175" stop-opacity=".3"/><stop offset="1" stop-color="#38D175" stop-opacity="0"/></radialGradient></defs></svg>