<svg xmlns="http://www.w3.org/2000/svg" width="4018" height="2672" fill="none" viewBox="0 0 4018 2672"><path fill="url(#a)" d="M1705.57 1131.18c11-2.34 23.39-4.45 34.59-6.49 7.14-1.25 12.02-1.35 18.46 0 7.71 1.63 15.41 4.23 23.2 5.34 9.93 1.52 22.69.37 31.84 1.36 7.46.84 12.69 3.18 20.34 5.97 4.68 1.77 9.58 3.58 14.2 5.36 7.71 2.92 11.53 5.26 12.53 11.52 1.23 13.15 1.89 25.77-7.01 37.07-6.32 7.66-11.49 21.83-23.86 17.06-9.33-2.93-17.99-9.32-27.81-6.81-17.32 3.65-56.02 12.09-71.47 15.4-3.78.78-6.91 1.41-10.71 1.04-12.82-1.66-29.21-4.97-42.54-7.14-7.76-1.36-12.17-2.16-15.1-6.35-3.3-4.88-5.07-10.92-6.83-16.53-2.48-7.16-.92-14.17 2.71-20.62 4.18-7.7 7.92-16.4 12.78-23.2 1.88-2.46 4.2-4.23 7.01-5.5 7.69-3.17 18.67-5.32 27.35-7.46l.32-.08z"/><defs><radialGradient id="a" cx="0" cy="0" r="1" gradientTransform="matrix(0 47.1986 -103.626 0 1757.82 1170.91)" gradientUnits="userSpaceOnUse"><stop stop-color="#38D175" stop-opacity=".3"/><stop offset="1" stop-color="#38D175" stop-opacity="0"/></radialGradient></defs></svg>