<svg xmlns="http://www.w3.org/2000/svg" width="4018" height="2672" fill="none" viewBox="0 0 4018 2672"><path fill="url(#a)" d="M1290.56 1524.67c1.5-1.74 4.51-2.91 9.21-4.55 11.98-3.87 27.9-9.9 39.53-13.04 7.71-1.75 14.5.37 22.56 1.66 8.16 1.48 16.78 3.08 24.9 4.5 8.86 1.66 14.71 1.39 23.72 1.39 24.86.5 61.76-.96 79.96.62 4.1 1.25 6.15 3.41 10.21 6.65 7.06 5.96 15.9 13.39 23.3 19.65 7.96 7.38 19.14 13.45 21.36 24.01 1.54 5.63 2.62 11.7 3.81 17.47 1.85 8.38 3.04 16.31-4.57 21.46-6.85 5.36-16.82 12.28-23.82 17.27-5.21 3.86-10.38 5.53-15.34.35-4.17-3.8-9.87-10.61-14.18-15.15-4.98-5.2-7.42-8.05-13.84-7.81-20.35.29-100.78 1.61-119.69 1.91-6.22.09-9.26.74-16.35 2-9.46 1.7-27.28 5.05-36.91 6.73-3.2.33-7.01 1.69-9.53-.51-1.15-1.4-1.44-3.7-1.62-5.79-.82-11.79-2.47-41.59-3.61-60.27-.11-5.61-1.79-15.96.8-18.42l.12-.15z"/><defs><radialGradient id="a" cx="0" cy="0" r="1" gradientTransform="matrix(0 59.4768 -130.739 0 1419.76 1565.89)" gradientUnits="userSpaceOnUse"><stop stop-color="#F95C65" stop-opacity=".3"/><stop offset="1" stop-color="#F95C65" stop-opacity="0"/></radialGradient></defs></svg>