<svg xmlns="http://www.w3.org/2000/svg" width="4018" height="2672" fill="none" viewBox="0 0 4018 2672"><g clip-path="url(#a)"><path fill="url(#b)" d="M1661.99 838.971c4.88 2.382 11.77 8.337 16.96 12.547 5.91 4.969 12.29 9.487 16.43 16.017 4.43 7.249 6.01 17.352 6.97 26.387 1.38 13.245-4.79 29.345-7.99 42.877-5.19 19.509-14.04 38.401-21.3 57.498-3.63 8.953-6.13 12.563-13.31 19.163-7.47 6.83-16.27 14.74-23.92 21.68-8.92 8.5-15.96 13.68-27.65 18.77-19.73 8.89-45.15 23.23-64.06 30.17-7.53 1.27-14.13-1.85-22.11-3.82-8.99-2.61-18.57-5.18-27.49-7.91-12.1-2.96-18.83-12.2-26.93-21.05-9.07-10.31-18.36-18.93-23.35-31.64-4.29-10.15-9.02-20.824-12.82-31.051-4.84-11.048 2.4-22.26 6.18-33.184 3.5-8.995 7.22-18.626 10.68-27.415 3.98-11.499 9.3-16.797 17.25-25.278 8.82-9.487 18.28-19.714 27.02-29.119 6.73-7.31 10.87-11.294 20.08-15.134 2.32-1.027 4.6-2.053 7.08-3.101 12.72-5.339 27.3-12.28 39.79-16.838 4.37-1.438 8.31-1.541 12.93-1.582 16.53-.02 59.4 0 77.23 0 4.28.062 8.28.041 12.14 1.848l.23.103z"/><path fill="url(#c)" d="M1774.46 1373.56c10.23-1.36 20.16-6.2 30.35-4.56 19.49 3.66 18.24 23.14 15.55 38.79-.82 6.35-2.05 12.12-3.98 18.26-3.28 10.55-9.37 29.75-12.84 40.68-3.36 12.69-8.1 14.8-19.79 17.31-13.62 2.97-27.32 7.57-41.27 4.88-14.47-2.09-26.12-3.75-32.72-17.76-2.85-4.99-6.03-10.66-8.72-15.63-1.97-3.69-2.85-5.46-2.07-4.76 11.32 13 1.76-13.88.86-18.32-4.74-13.14 3-22.44 10.69-31.93 10.15-12.89 26.66-19.57 42.03-23.7 7.18-1.6 14.21-1.91 21.5-3.2z"/><path fill="url(#d)" d="M1294.44 1437.36c5.97-8.63 16.53-15.77 24.26-23.18 23.55-24.67 52.27-18.12 82.24-13.76 11.18 2.01 23.86 4.14 35.38 6.57 8.23 1.64 13.64 5.17 20.72 10.74 6.91 5.36 16.74 12.91 23.1 17.95 3.49 2.85 6.99 5.75 8.82 9.89 3.36 9.37 2.58 20.72 3.45 30.7.16 5.18.06 10.58-3.12 14.85-6.28 7.72-15.67 13.9-23.26 20.62-8.78 7.41-14.32 11.48-26.36 15.19-11.72 3.99-24.58 8.42-36.39 12.39-13.44 5.15-27.33 3.86-41.95 4.7-20.39.68-37.09 2.3-53.21-5.9-20.58-10.57-20.06-31.15-18.4-51.27.49-9.3 1.04-20.15 1.54-29.67.47-7.48.45-15.59 3.03-19.57z"/><path fill="url(#e)" d="M2091.46 1532.62c3.22-1.74 6.83-2.46 10.54-3.28 13.5-2.8 43.08-8.81 57.65-11.79 8.53-1.93 15.15-2.55 24.12-1.36 14.01 1.42 43.81 4.42 58.09 5.9 4.27.47 8.27.98 12.17 2.56 8.67 3.91 17.21 10.44 25.23 15.92 15.52 10.86 21.31 26.65 15.36 43.7-3.96 13.51-8.41 30.74-12.43 43.41-2.18 7.49-7.14 10.55-14.03 14.5-12.35 7.24-35.26 20.65-47.22 27.64-8.88 5.91-16.45 7.78-27.43 8.76-18.21 2.37-51.92 6.76-67.57 8.77-5.06.56-9.97 1.62-14.54-.92-11.92-7.74-25.15-19.12-37.23-28.05-5.38-4.15-10.63-8.15-15.82-12.24-6.34-4.97-8.61-7.76-10.34-15.16-2.64-12.93-5.8-28.29-7.4-41.05-.96-7.35 3.98-12.17 8.8-16.94 9.21-9.18 24.98-24.91 33.17-33 2.77-2.69 5.48-5.4 8.68-7.22l.2-.11z"/></g><defs><radialGradient id="b" cx="0" cy="0" r="1" gradientTransform="matrix(0 123.712 -136.371 0 1566.22 960.624)" gradientUnits="userSpaceOnUse"><stop stop-color="#F95C65" stop-opacity=".3"/><stop offset="1" stop-color="#F95C65" stop-opacity="0"/></radialGradient><radialGradient id="c" cx="0" cy="0" r="1" gradientTransform="matrix(0 60.5365 -61.7475 0 1760.13 1429.2)" gradientUnits="userSpaceOnUse"><stop stop-color="#F95C65" stop-opacity=".3"/><stop offset="1" stop-color="#F95C65" stop-opacity="0"/></radialGradient><radialGradient id="d" cx="0" cy="0" r="1" gradientTransform="matrix(0 74.1886 -101.728 0 1390.72 1470.43)" gradientUnits="userSpaceOnUse"><stop stop-color="#F95C65" stop-opacity=".3"/><stop offset="1" stop-color="#F95C65" stop-opacity="0"/></radialGradient><radialGradient id="e" cx="0" cy="0" r="1" gradientTransform="matrix(0 86.2341 -128.214 0 2168.7 1601.82)" gradientUnits="userSpaceOnUse"><stop stop-color="#F95C65" stop-opacity=".3"/><stop offset="1" stop-color="#F95C65" stop-opacity="0"/></radialGradient><clipPath id="a"><path fill="#fff" d="M1289 837h1440v998H1289z"/></clipPath></defs></svg>