<svg xmlns="http://www.w3.org/2000/svg" width="4018" height="2672" fill="none" viewBox="0 0 4018 2672"><path fill="url(#a)" d="M1752.69 1050.36c4.15.55 7.94 2.55 11.47 4.78 9 6.33 18.87 11.44 25.39 20.21 5.23 7.68 10.77 18.05 14.69 25.77 1.15 2.55 2.09 5.26 1.83 7.99-1.23 7.49-8.66 13.63-13.3 19.84-5.62 6.94-11.42 13.18-20.55 13.98-13.83 1.56-28.49 3.82-41.19-3.14-6.91-3.25-15.3-6.9-21.76-10.31-6.53-2.87-9.44-8.97-9.91-15.83-.78-6.64-1.77-16.08-2.32-22.75-.31-4.44-.35-9.02 2.15-12.78 4.74-6.49 12.29-10.84 19.2-16.32 9.93-7.21 21.87-12.39 33.93-11.5l.37.04z"/><path fill="url(#b)" d="M1852.02 1171c11.3-2.03 23.59-2.81 35.05-1.97 9.25 1.62 19.37 5.83 25.95 12.75 4.84 5.83 2.38 15.32-.43 22.59-5.05 12.01-17.39 18.97-26.69 27.56-8.22 7.12-13.39 7.53-23.22 8.09-8.51.53-18.75 1.19-27.57 1.72-19.5.89-23.81 4.73-30.21-15.19-6.81-16.47-4.9-22.32 7.79-35.2 10.1-10.82 24.91-16.04 38.96-20.27z"/><defs><radialGradient id="a" cx="0" cy="0" r="1" gradientTransform="matrix(0 47.1825 -54.6086 0 1751.5 1097.38)" gradientUnits="userSpaceOnUse"><stop stop-color="#38D175" stop-opacity=".3"/><stop offset="1" stop-color="#38D175" stop-opacity="0"/></radialGradient><radialGradient id="b" cx="0" cy="0" r="1" gradientTransform="matrix(0 36.9649 -57.3743 0 1858.4 1205.66)" gradientUnits="userSpaceOnUse"><stop stop-color="#38D175" stop-opacity=".3"/><stop offset="1" stop-color="#38D175" stop-opacity="0"/></radialGradient></defs></svg>