<svg xmlns="http://www.w3.org/2000/svg" width="4018" height="2672" fill="none" viewBox="0 0 4018 2672"><g clip-path="url(#a)"><path fill="url(#b)" d="M1741.47 1482.74c8.52-.39 17.03 1.01 26.03 2.1 5.58.84 10.04 2.42 13.83 5.42 4.96 4.08 9.99 9.47 10.63 16.14.36 6.1-4.5 11.93-9.15 16.69-4.68 4.89-10.26 7.64-16.64 10.07-18.56 7.06-35.57 14.78-55.34 18.03-15.33 3.24-37.99 8.09-49.56 10.51-5.38 1.21-10.34 1.54-15.69-.19-18.38-4.72-23.24-15.91-11-31.93 7.18-7.74 16.76-13.49 25.68-18.93 13.34-6.96 27.49-11.31 41.56-16.14 12.84-3.74 26.44-9.86 39.35-11.73h.32z"/><path fill="url(#c)" d="M2000.22 1234.27c7.53-.02 18.83 2.16 27.73 3.37 11 1.64 23.55 3.49 31.64 4.7 5.51.8 10.72 1.91 15.46 4.99 6.73 4.56 15.74 10.62 17.03 18.42.94 7.29-2.18 16.08-6.69 22.18-7.01 7.94-19.47 11.5-28.33 16.24-10.11 4.95-20.9 7-31.94 9.63-11.67 2.69-22.13 5.87-33.9 4.44-3.55-.29-7.59-.68-11.33-1.03-3.55-.35-7.14-.66-10.62-1.07-9.91-.84-16.35-3.76-24.15-8.93-9.39-5.79-20-12.88-24.41-23.02-2.56-5.22-3.87-10.94-1.53-16.33 2.03-4.64 5.74-8.62 9.06-12.46 4.84-5.59 9.87-10.19 16.45-12.32 17.52-5.46 37.71-8.71 55.2-8.81z"/><path fill="url(#d)" d="M1851.26 1162.91c-8.56 3.1-17.11 7.15-26.24 10.68-5.76 2.34-11.3 5.05-15.75 9.44-11.47 12.43-23.92 21.36-12.39 38.45 6.68 10.88 21.76 11.7 32.71 15.09 14.02 3.74 28.56.39 42.88-.62 7.5-.57 14.21-3.02 20.08-7.88 12.45-9.88 25.21-20.06 32.2-34.15 3.16-8.38-4.8-13.12-11.42-19.3-9.72-9.57-19.53-9.47-33.15-10.44-8.29-.28-22.01-2.69-28.76-1.33l-.2.06z"/><path fill="url(#e)" d="M1350.62 1226.3c6.24 1.23 11.47 3.8 17.95 3.66 12.94-.58 27.04-4.25 39.88-5.51 10.85-1.08 21.6 1.93 32.49 3.5 11.84 1.97 22.11 3.55 32.53 7.12 12.68 4.19 25.77 7.87 36.89 15.16 6.01 3.69 13.17 8.07 15.95 14.68 4.03 12.03-14.93 16.98-23.34 21.83-13.5 6.42-29.7 14.66-42.36 20.35-4.76 2.03-9.39 2.5-14.56 3.2-14.48 1.87-45.52 5.85-59.45 7.62-9.54 1.68-15.98.02-25.76-2.92-10.92-3.08-22.96-6.45-34.03-9.57-14.18-4.29-24.78-6.38-33.42-17.14-4.84-7.11-5.04-18.01-3.71-26.49 1.25-6.78 6.23-11.11 11.42-15.45 14.98-12.89 27.96-24.27 49.13-20.12l.35.06z"/><path fill="url(#f)" d="M2247.46 1286.45c12.82-1.5 28.64.53 41.38.65 8.08.11 15.52 1.81 22.95 5.06 7.51 3.01 19.16 7.72 27.06 10.94 6.36 2.59 12.82 5.38 16.96 11.05 11.55 14.87-.49 28.23-11.84 38.75-9.12 9.53-22.68 9.77-35.03 13.06-13.99 2.89-24.97 6.65-39.43 6.18h-29.27c-8.12-.16-15.55.51-22.95-.76-10.85-3-20.66-9.63-30.77-15.09-9.15-6.04-14.26-13.25-12.27-22.43 2.96-9.2 12.74-14.84 19.32-21.54 5.69-5.3 11.9-9.51 19.12-12.4 10.71-4.17 23.16-10.6 34.48-13.41l.31-.06z"/></g><defs><radialGradient id="b" cx="0" cy="0" r="1" gradientTransform="matrix(0 40.0167 -82.0717 0 1709.9 1522.69)" gradientUnits="userSpaceOnUse"><stop stop-color="#38D175" stop-opacity=".3"/><stop offset="1" stop-color="#38D175" stop-opacity="0"/></radialGradient><radialGradient id="c" cx="0" cy="0" r="1" gradientTransform="matrix(0 42.1627 -87.1447 0 2005.1 1276.43)" gradientUnits="userSpaceOnUse"><stop stop-color="#38D175" stop-opacity=".3"/><stop offset="1" stop-color="#38D175" stop-opacity="0"/></radialGradient><radialGradient id="d" cx="0" cy="0" r="1" gradientTransform="matrix(0 37.9289 -66.5914 0 1858.88 1200.37)" gradientUnits="userSpaceOnUse"><stop stop-color="#38D175" stop-opacity=".3"/><stop offset="1" stop-color="#38D175" stop-opacity="0"/></radialGradient><radialGradient id="e" cx="0" cy="0" r="1" gradientTransform="matrix(0 47.1795 -118.947 0 1407.92 1271.4)" gradientUnits="userSpaceOnUse"><stop stop-color="#38D175" stop-opacity=".3"/><stop offset="1" stop-color="#38D175" stop-opacity="0"/></radialGradient><radialGradient id="f" cx="0" cy="0" r="1" gradientTransform="matrix(0 43.141 -93.3373 0 2267.16 1329.04)" gradientUnits="userSpaceOnUse"><stop stop-color="#38D175" stop-opacity=".3"/><stop offset="1" stop-color="#38D175" stop-opacity="0"/></radialGradient><clipPath id="a"><path fill="#fff" d="M1289 837h1440v998H1289z"/></clipPath></defs></svg>