<svg xmlns="http://www.w3.org/2000/svg" width="4018" height="2672" fill="none" viewBox="0 0 4018 2672"><path fill="url(#a)" d="M2307.46 1094.71c4-9.79 8.82-21.68 20.52-30.8 11.91-9.3 24.06-10.35 47.18-12.32 8.18-.7 24.65-1.54 45.12 2.05 15.7 2.75 23.78 4.17 32.82 10.27 3 2.01 23.7 15.96 22.57 34.91-.86 14.27-13.62 23.74-28.72 34.91-6.69 4.95-12.94 9.59-22.56 12.32-10.44 2.96-14.03.6-34.88 0-22.85-.66-24.24 2.03-41.02 0-14.26-1.72-22.36-4.76-28.72-8.21-6.83-3.72-13.29-7.23-16.41-14.38-3.94-9.01-.14-18.3 4.1-28.75"/><path fill="url(#b)" d="M1675.67 1084.45c.24.59 12.96-7.27 20.51-2.06 4.64 3.21 5.42 10.04 6.15 16.43 1.38 11.91-2.31 15.54 0 22.59 2.43 7.35 8.99 11.21 14.36 14.37 15.59 9.16 31.96 7.37 43.08 6.16 13.13-1.43 25.11-2.75 34.87-12.32 2.81-2.75 9.34-9.16 10.26-18.48 2.07-21.07-26.48-36.76-30.77-39.02-14.85-7.86-28.68-8.13-36.92-8.21-36.04-.33-61.91 19.65-61.54 20.54"/><path fill="url(#c)" d="M2081.82 1556.75c18.21-17 41.62-16.61 53.33-16.43 11.59.19 20 2.55 32.82 6.16 24.19 6.8 24.78 11.52 47.18 18.48 28.25 8.79 36.7 4.23 45.13 14.38 7.55 9.1 9.6 23.41 6.15 34.91-2.44 8.17-7.15 13.28-8.2 14.37-1.89 1.97-7.26 7.17-18.46 10.27-11.78 3.27-18.83 1.15-34.87 0-.54-.04-12.66-.02-36.93 0-37.64.04-36.28.21-43.07 0-39.31-1.23-46.73-5.81-51.29-10.27-7.5-7.35-9.41-16.49-10.25-20.53-5.81-27.99 17.47-50.42 18.46-51.34"/><path fill="url(#d)" d="M1337.21 1421.22c55.4-19.18 113.12 30.21 121.02 36.96 21.81 18.67 22.89 29.68 22.56 34.91-.86 13.99-14.05 25.06-18.46 28.75-8.76 7.33-17.29 10.45-22.56 12.32-42.42 14.97-63.63 22.47-80 18.48-13.01-3.16-23.04-11-43.08-26.69-15.59-12.2-20.31-19.18-22.56-26.7-2.55-8.48-1.4-15.77 0-24.64 1.27-8.05 3.32-21.07 12.31-32.85 10.03-13.17 23.57-18.06 30.77-20.54"/><path fill="url(#e)" d="M1326.95 1603.98c32.76-21.95 69.7-7.37 77.95-4.11 8.3 3.29 36.12 14.28 47.18 43.13 1.92 5.01 8.1 21.85 2.05 41.07-8.91 28.29-37.17 39.24-47.18 43.12-4.11 1.58-33.34 12.4-65.64 0-7.41-2.83-21.3-8.38-32.82-22.59-2.75-3.39-11.72-14.7-14.36-30.8-4.37-26.61 10.48-54.85 32.82-69.82"/><path fill="url(#f)" d="M1642.85 1763.62c-27.8-2.89-51.61-5.4-69.75 6.72-3.48 2.34-17.95 12.67-16.41 25.15 2.07 16.9 31.9 26.1 45.13 30.19 48.1 14.87 114.44 11.85 123.08-8.38 5.78-13.59-15.57-32.2-28.72-40.25-15.43-9.46-30.3-11-53.33-13.41z"/><defs><radialGradient id="a" cx="0" cy="0" r="1" gradientTransform="scale(87.0028 48.2672)rotate(90 2.34 25.115)" gradientUnits="userSpaceOnUse"><stop stop-color="#F95C65" stop-opacity=".3"/><stop offset="1" stop-color="#F95C65" stop-opacity="0"/></radialGradient><radialGradient id="b" cx="0" cy="0" r="1" gradientTransform="matrix(0 39.5176 -64.671 0 1740.34 1103.42)" gradientUnits="userSpaceOnUse"><stop stop-color="#F95C65" stop-opacity=".3"/><stop offset="1" stop-color="#F95C65" stop-opacity="0"/></radialGradient><radialGradient id="c" cx="0" cy="0" r="1" gradientTransform="matrix(0 50.1774 -102.813 0 2165.24 1590.45)" gradientUnits="userSpaceOnUse"><stop stop-color="#F95C65" stop-opacity=".3"/><stop offset="1" stop-color="#F95C65" stop-opacity="0"/></radialGradient><radialGradient id="d" cx="0" cy="0" r="1" gradientTransform="matrix(0 68.4393 -94.1078 0 1386.73 1485.26)" gradientUnits="userSpaceOnUse"><stop stop-color="#F95C65" stop-opacity=".3"/><stop offset="1" stop-color="#F95C65" stop-opacity="0"/></radialGradient><radialGradient id="e" cx="0" cy="0" r="1" gradientTransform="matrix(0 70.4832 -81.6786 0 1375.04 1662.59)" gradientUnits="userSpaceOnUse"><stop stop-color="#F95C65" stop-opacity=".3"/><stop offset="1" stop-color="#F95C65" stop-opacity="0"/></radialGradient><radialGradient id="f" cx="0" cy="0" r="1" gradientTransform="matrix(0 36.8812 -84.646 0 1641.22 1798.12)" gradientUnits="userSpaceOnUse"><stop stop-color="#F95C65" stop-opacity=".3"/><stop offset="1" stop-color="#F95C65" stop-opacity="0"/></radialGradient></defs></svg>