<svg xmlns="http://www.w3.org/2000/svg" width="4018" height="2672" fill="none" viewBox="0 0 4018 2672"><path fill="url(#a)" d="M1289 872.937c2.03-12.999 7.53-20.166 12.31-24.334 16.14-14.046 35.1-3.245 86.15-7.475 29.72-2.464 44.58-7.906 51.28 0 5.54 6.53 1.91 17.906-2.05 24.334-7.87 12.773-23.67 16.613-49.23 22.445-20.76 4.743-31.71 7.248-47.18 5.606-24.65-2.608-42.32-13.8-51.28-20.576"/><path fill="url(#b)" d="M1856.18 1293.9c-1.79 3.6-.82 8.87 2.05 12.32 8.99 10.83 36.92 4.11 36.92 4.11-3.01-14.91-4.1-16.43-4.1-16.43-6.73-9.38-30.3-9.22-34.87 0"/><path fill="url(#c)" d="M1700.28 1488.98c-.59 5.08 5.66 7.46 6.16 16.43.2 3.74-.66 7.6-.72 7.89-.37 1.64-.93 3.98-2.36 6.67-.74 1.38-.97 1.46-1.03 1.87-.67 4.66 24.86 16.65 30.77 10.27 2.87-3.1-1.39-7.85-6.15-26.7-4.58-18.13-3.34-24.5-8.21-26.69-6.36-2.88-17.72 3.82-18.46 10.26"/><path fill="url(#d)" d="M2081.82 1581.39c-6.75 9.55-9.68 23.07-6.15 34.91 5.84 19.68 27.38 27.75 41.02 32.86 31.18 11.68 58.87 6 88.21 0 8.7-1.79 26.64-5.96 45.13-18.48 9.17-6.2 17.19-11.79 18.46-20.54 2.19-14.99-16.95-28.79-22.57-32.85-26.7-19.26-57.29-18.18-92.3-16.43-37.09 1.85-59.61 3.31-71.8 20.53"/><path fill="url(#e)" d="M2241.82 1743.62c-11.22.7-21.37 9.84-22.56 20.53-1.71 15.36 15.57 29.88 30.77 26.7 9.33-1.95 17.53-10.51 18.46-20.54 1.31-14.12-12.11-27.61-26.67-26.69"/><defs><radialGradient id="a" cx="0" cy="0" r="1" gradientTransform="matrix(0 28.5083 -76.2867 0 1365.29 865.508)" gradientUnits="userSpaceOnUse"><stop stop-color="#F95C65" stop-opacity=".3"/><stop offset="1" stop-color="#F95C65" stop-opacity="0"/></radialGradient><radialGradient id="b" cx="0" cy="0" r="1" gradientTransform="matrix(0 12.732 -19.9373 0 1875.22 1299.66)" gradientUnits="userSpaceOnUse"><stop stop-color="#F95C65" stop-opacity=".3"/><stop offset="1" stop-color="#F95C65" stop-opacity="0"/></radialGradient><radialGradient id="c" cx="0" cy="0" r="1" gradientTransform="matrix(0 27.9544 -16.8952 0 1717.14 1505.99)" gradientUnits="userSpaceOnUse"><stop stop-color="#F95C65" stop-opacity=".3"/><stop offset="1" stop-color="#F95C65" stop-opacity="0"/></radialGradient><radialGradient id="d" cx="0" cy="0" r="1" gradientTransform="matrix(0 47.9885 -97.2494 0 2171.41 1607.97)" gradientUnits="userSpaceOnUse"><stop stop-color="#F95C65" stop-opacity=".3"/><stop offset="1" stop-color="#F95C65" stop-opacity="0"/></radialGradient><radialGradient id="e" cx="0" cy="0" r="1" gradientTransform="scale(24.7182 23.8589)rotate(90 8.35 82.428)" gradientUnits="userSpaceOnUse"><stop stop-color="#F95C65" stop-opacity=".3"/><stop offset="1" stop-color="#F95C65" stop-opacity="0"/></radialGradient></defs></svg>