<svg xmlns="http://www.w3.org/2000/svg" width="4018" height="2672" fill="none" viewBox="0 0 4018 2672"><path fill="url(#a)" d="M1947.46 1204.58c-38.19-.07-59.86 4.53-100.51 10.26-92.74 13.06-100.97 6.16-116.93 20.54-29.64 26.69-33.31 79.43-18.46 117.05 14.73 37.31 45.11 53.27 92.31 78.03 43.24 22.69 118.89 62.41 174.36 30.8 7.61-4.33 29.29-16.69 34.87-39.01 7.98-31.98-25.7-49.94-18.46-82.14 6.11-27.19 32.74-26.04 41.03-57.5 5.33-20.29.88-45.9-14.36-61.61-6.92-7.12-20.06-16.34-73.85-16.42"/><defs><radialGradient id="a" cx="0" cy="0" r="1" gradientTransform="matrix(0 134.216 -167.382 0 1870.494 1338.805)" gradientUnits="userSpaceOnUse"><stop stop-color="#38D175" stop-opacity=".3"/><stop offset="1" stop-color="#38D175" stop-opacity="0"/></radialGradient></defs></svg>