<svg xmlns="http://www.w3.org/2000/svg" width="4018" height="2672" fill="none" viewBox="0 0 4018 2672"><g clip-path="url(#a)"><path fill="url(#b)" d="M2190.91 950.948c4.12-4.497 13.39-8.604 20.04-12.731 8.92-5.175 18.28-10.391 26.97-15.586 7.26-4.374 5.38-6.161 11.57-8.687 14.38-5.503 30.75-5.688 46.16-5.503 32.59.965 66.23 4.292 98.4 6.489 2.31.164 4.39.329 6.54.493 3.51.328 3.32-.144 7.34 2.156 12.78 6.756 25.58 18.03 31.37 32.199 5.62 13.122-2.65 31.439-14.73 38.174-29.85 14.358-62.34 15.278-96 21.848-11.78 1.93-18.5 3.64-30.63 1.81-15.05-1.73-32.06-3.76-46.87-5.48-21.41-2.71-52.9-4.6-60.29-30.868-1.37-5.052-1.74-10.206-1.84-14.149.02-4.004-.19-6.817 1.76-9.857l.25-.328z"/><path fill="url(#c)" d="M2461.41 937.086c2.73-23.615 31.32-32.199 50.13-41.091 6.18-2.833 11.92-5.4 17.87-8.131 4.94-2.136 5.03-2.691 7.45-2.341 21.41 4.969 60.49 15.134 81.66 20.288 17.89 4.312 36.9 6.715 55.53 8.974 11.57.883 21.99-6.304 33.84-4.887 27.18 3.388 14.51 37.25 10.96 54.52-1.67 6.674-4.64 20.371-5.83 23.677-.41 1.314-2.03 1.807-3.22 1.868-2.52.267-6.11.165-8.33.185-22.17-.308-53.04.76-76.2-.76-16.47-1.006-33.62-2.402-49.87-3.141-12.18-.514-26.34.225-38.46-.616-7.18-.411-13.27-4.066-19.26-7.598-12.62-7.372-33.3-19.344-45.75-26.675-6.15-3.676-11.63-7.68-10.6-13.985v-.287z"/><path fill="url(#d)" d="M2468.82 1057.34c-.58-9.65 4.49-21.42 8.69-29.1 2.9-4.68 7.78-6.88 13.25-8.27 6.73-1.71 16.05-3.57 22.88-5.09 11.24-2.53 20.2-3.74 31.69-5.2 9.58-1.13 19.3-2.92 28.82-2.85 10.48.28 22.34 2.56 32.59 4.08 8.45 1.3 15.53 3.88 23.51 7.44 18.69 8.33 37.97 15.46 55.34 25.29 8.13 4.5 20.8 11.34 28.87 15.94 7.3 3.63 12.22 10.72 11.67 18.83.24 15.55-17.6 23-28.15 30.04-6.09 4.01-11.89 5.51-18.95 5.16-23.2-.19-70.6.37-98.21-.21-21.36-3.74-47.51-11.81-72.25-17.56-8.76-2.36-17.93-3.38-23.04-10.3-6.19-8.44-14.52-17.44-16.67-27.83l-.04-.33z"/><path fill="url(#e)" d="M2353.18 1098.76c4.05-2.81 8.7-4.09 13.52-5.13 10.24-2.2 27.35-5.82 39.02-8.3 7.49-1.54 12.76-2.96 19.9-2.22 13.04 1.83 27.07 4.99 38.19 12.77 7 5.04 15.51 9.47 20.9 16.31 6.71 9.88 4.66 32.14-3.61 41.25-9.72 9.31-26.29 8.49-38.99 11.4-14.05 2.77-27.3 2.22-41.93 2.24-11.1-.14-23.14 1.13-32.49-4.35-5.87-3.04-11.55-6.74-17.27-10.15-4.95-3.22-9.65-5.09-13.03-9.38-7.16-12.41 3.9-36.95 15.55-44.3l.27-.18z"/><path fill="url(#f)" d="M2432.49 1200.9c.86-9.67 5.49-20.12 14.38-24.6 6.36-3 13.47-4.52 20.35-6.67 13.86-4.15 26.72-8.75 40.86-6.72 11.03.76 23.34 1.54 34.46 2.34 10.4.31 14.99 3.02 21.7 11.21 8.08 9.1 21.99 24.71 29.91 33.68 2.95 3.47 6.4 7.09 5.93 11.87-1.4 7.62-6.55 15.42-11.18 21.71-4.04 5.52-11.49 7.24-19.39 8.56-8.76 1.6-18.83 3.43-27.36 4.97-11.9 2.46-19.32 1.87-30.89.86-9.3-.76-19.76-1.52-28.84-2.34-12.97-.49-21.5-7.56-31.92-15.63-11.63-8.79-17.77-24.25-18.01-38.83z"/><path fill="url(#g)" d="M2488.9 1398.4c9.31-3.75 22.25-5.13 33.13-5.87 12.14.04 24.67 2.05 36.65 4.19 12.78 2.63 21.64 16.47 31.35 25.16 6.17 6.22 12.63 12.5 15.36 18.66 6.97 13.33 5.6 31.81-3.22 43.74-6.61 9.02-19.02 11.07-29.31 14.09-16.23 3.59-34.94 4.48-51.16 5.79-7.51.23-12.31-1.87-19.88-4.68-11.73-4.44-30.69-11.56-41.52-15.69-4.43-1.79-9.33-3.47-11.01-8.28-2.26-8.19-1.44-18.46-1.01-27.08.7-11.81 11.9-20.25 19.16-29.2 6.38-6.76 14.32-17.58 21.17-20.74l.29-.15z"/><path fill="url(#h)" d="M2449.53 1735.44c.5-4.12 3.65-7.57 6.1-10.98 6.64-8.61 17.49-22.69 23.54-30.39 3.31-4.09 6.51-8.14 11.76-9.37 17.78-3.14 49.15-5.85 67.07-8.25 3.86-.43 7.62-.91 11.31-.66 17.35 3.22 39.87 12.38 57.88 17.62 14.32 3.49 24.33 14.76 32.66 26.35 8.37 13.45 16.74 29.55 15.14 46.06-1.13 10.72-1.15 22.34-11.41 28.62-11.24 7.31-27.09 16.82-38.29 23.53-6.79 3.89-9.73 4.09-17.42 2.96-6.21-.88-11.88-1.81-19.77-2.98-19.16-2.89-43.55-6.59-55.45-8.39-10.5-1.32-20.04-5.18-30.07-8.96-10.81-3.9-18.05-7.47-24.6-18.54-7.38-11.01-15.46-23.16-22.72-34.03-3.68-5.58-5.93-9.09-5.75-12.36v-.23z"/><path fill="url(#i)" d="M2211.63 1771.2c16.67-2.55 41.78-6.35 59.46-8.83 11.45-2.01 17.97 4.48 29.15 10.58 7.32 4.29 15.1 8.83 22.42 13.12 6.57 3.86 10.65 6.36 12.04 10.68 2.48 12.62-1.39 33.39-15.67 36.94-3.65 1.07-7.47 1.25-11.34 1.23-23.31-.25-72.17.47-101.23-.27-3.41-.39-6.47-1.78-9.48-3.47-8.76-5.09-21.21-13.04-30.44-18.79-13.09-7.86-20.7-20.84-2.77-28.42 14.65-5.81 32.78-9.18 47.55-12.73l.33-.06z"/><path fill="url(#j)" d="M1846.7 1669.55c-11.55 16.08-7.36 37.09 13.64 42.53 11.61 2.38 24.58 3.94 36.21 4.86 19.67-.82 47.4-6.81 69.39-9.59 9.09-1.37 13.17-2.07 18.75-6.55 6.96-5.77 13.93-12.63 20.25-18.99 5.99-5.94 8.29-12.34 10.56-20.99 2.48-9.03 5.23-18.87 7.59-27.82 2.53-8.81 1.83-13.19-7.05-15.22-7.37-1.95-17.01-3.84-24.54-5.52-8.45-2.08-16.65-2.69-25.23-1.17-13.21 1.78-39.03 5.32-51.98 7.1-8.31.68-14.87 3.64-20.8 9.3-7.65 6.49-21.27 18.26-30.15 25.86-5.83 5.19-12.23 9.28-16.45 15.89l-.19.29z"/><path fill="url(#k)" d="M1662.37 1500.3c6.24-6.47 16.07-8.69 24.5-12.75 12.22-5.65 25.86-4.83 39.03-4.6 15.04 0 28.19 8.56 40.47 15.71 3.66 2.34 7.1 4.97 10.45 7.72 9.14 7.49 15.83 13.45 9.53 23.53-3.01 5.61-7.83 13.55-11.48 19.8-2.69 4.45-5.19 8.6-9.09 11.91-11.57 8.23-26.5 13.72-41.76 13.57-11.27-.43-23.43 1.64-33.99-2.81-8.95-4.73-18.73-11.6-25.69-18.01-4.35-4.07-4.73-10.8-4.67-17.93v-22.07c.04-6.43.24-10.83 2.52-13.88l.16-.23z"/><path fill="url(#l)" d="M1476 1443.23c19.46 6.33 47.11 22.16 32.34 48.41-3.69 6.57-10.03 12.79-16 18.35-11.05 10.19-20.59 18.59-30.38 27.4-2.29 2.07-4.34 3.88-6.52 5.85-3.51 3.08-3.83 3.72-5.95 4.21-4.33.78-8.16.94-13.02 1.54-19.35 2.05-58.36 6.26-74.05 7.86-4.05.39-7.96.6-11.59-1.06-13.89-7.42-31.96-20.31-45.32-28.59-9.66-5.71-10.97-10.22-10.64-21.09 0-12.26-.02-32.69 0-44.83-1.44-15.64 9.27-27.74 16.96-40.63 6.11-10.25 13.01-15.8 22.73-21.05 7.01-4.05 16.06-9.26 23.01-5.18 21.91 8.89 87.98 36.6 118.26 48.75l.14.06z"/><path fill="url(#m)" d="M1730.74 1085.06c8.37-4.17 18.51-2.28 27.57-2.63 11.8-.04 23.06 3.35 34.38 8.05 6.59 2.57 12.06 6.47 15.53 12.88 2.97 5.65 6.73 11.91 6.85 18.4-.53 7.43-7.24 11.42-13.33 16.77-9.07 8.28-17.17 8.92-29.7 8.55-9.89-.23-20.66.59-30.26-.64-10.69-1.95-25.46-17.06-27.73-27.62-1.83-11.44 6.5-27.89 16.39-33.59l.32-.17z"/><path fill="url(#n)" d="M1773.35 1260.31c3.51-10.04 12.84-18.96 19.16-26.72 3.49-3.94 7.49-7.33 12.92-7.68 16.8-.74 46.01-.08 62.07-.28 6.26-.03 11.51.39 17.38 2.83 6.87 2.73 18.93 8.21 27.14 11.79 12.49 5.66 21.23 9.18 26.81 20.33 3.52 9.24-3.78 16.1-8.37 24.14-5.89 11.94-13.09 17.05-26.16 23.8-11.22 6.14-20.92 12.8-33.76 13.8-3.73.48-7.49.91-11.34 1.34-13.87.98-28.23 5.58-41.11-.72-7.65-3.53-15.59-7.29-22.81-11.6-16.31-10.43-27.94-31.54-22.05-50.68z"/><path fill="url(#o)" d="M1833.45 1088.86c-.22-5.44 4.19-10.66 7.67-15.32 3.86-4.95 7.68-10.18 11.82-14.76 4.74-5.67 10.46-6.74 18.23-8.01 8.52-1.48 17.11-2.98 25.79-4.5 10.54-1.82 21.8-3.8 31.77-5.54 9.46-1.71 14.01-2.42 23.72-.45 10.5 1.93 21.47 4.04 32.06 6.01 8.74 1.81 16.7 2.67 24.55 5.32 10.09 4.19 18.2 11.46 27.51 17.89 13.58 8.73 13.05 23.1 11.82 37.31-.5 6.86-6.24 10.58-12.52 12.55-12.49 4.35-34.95 12.07-49.27 17.02-8.49 2.83-14.17 5.42-22.56 5.73-11.82.37-27.65.08-40.09.14-9.74.35-17.58-1.39-26.54-5.91-9.87-4.48-20.92-9.49-30.93-14.05-8.72-3.94-13.71-6.3-18.55-11.21-5.58-6.34-13-13.43-14.44-21.97v-.29z"/><path fill="url(#p)" d="M1724.69 955.59c6.71 14.436-3.18 22.629-15.96 29.673-5.74 3.388-12.22 7.803-18.31 9.836-3.74 1.171-7.43 1.109-11.43 1.15h-81.09c-11.87-.02-16.94.144-27.14-.349-19.03-.883-90.27-4.21-114.05-5.339-5.23-.185-9.45-.842-14.4-3.08-5.06-2.218-10.89-5.298-13.06-10.74-3.2-8.871 2.93-20.33 10.62-25.32 5.79-3.183 14.36-4.189 21.7-5.873 7.92-1.642 16.15-3.367 24-4.99 24.56-4.784 48.89-10.411 73.58-13.922 16.54-.883 38.9-.165 54.61-.391 28.57.493 63.06-4.23 91.71 12.629 4.31 2.608 8.04 5.442 10.91 7.578 3.59 2.649 6.4 5.134 8.19 8.933l.1.225z"/><path fill="url(#q)" d="M1308.9 1665.85c.67-3.49-.39-6.22-2.2-9.07-4.84-7.79-13.64-23.6-7.12-31.67 11.78-11.91 34.59-3.37 49.65.6 26.54 8.21 53.08 17.35 78.91 25.75 8.22 2.87 15.73 4.82 17.82 6.2 6.38 4 12.52 9.77 13.77 17.86 4.1 24.01-19.65 41.69-40.8 45.96-12.15 2.96-25.46 6.98-37.52 9.24-11.08 1.54-22.69 1.23-34.24.72-11.91-.78-22.07-8.03-31.93-14.31-19.12-13.08-12.5-33.31-6.42-51.03l.04-.27z"/><path fill="url(#r)" d="M1588.9 1787.03c21.78-16.29 63.4-36.84 95.36-31.46 8.7 1.4 17.17 5.07 24.94 9.88 14.55 9.28 30.98 22.79 42.1 31.37.74.81.63 1.5-.23 2.39-6.21 5.56-12.29 9.59-19.88 15.56-7.79 5.59-15.93 13.21-23.65 16.92-18.56 1.89-60.76-1.85-97.76.06-16.43.13-35.82 3.17-51.08 3.25-1.8-.35-1.93-2.49-1.68-3.78 3.82-22.26 16.08-31.27 31.67-44.03z"/></g><defs><radialGradient id="b" cx="0" cy="0" r="1" gradientTransform="matrix(0 51.9953 -126.08 0 2315.02 960.394)" gradientUnits="userSpaceOnUse"><stop stop-color="#F95C65" stop-opacity=".3"/><stop offset="1" stop-color="#F95C65" stop-opacity="0"/></radialGradient><radialGradient id="c" cx="0" cy="0" r="1" gradientTransform="matrix(0 52.4017 -131.849 0 2593.074 937.833)" gradientUnits="userSpaceOnUse"><stop stop-color="#F95C65" stop-opacity=".3"/><stop offset="1" stop-color="#F95C65" stop-opacity="0"/></radialGradient><radialGradient id="d" cx="0" cy="0" r="1" gradientTransform="matrix(0 53.4236 -128.7 0 2597.423 1060.245)" gradientUnits="userSpaceOnUse"><stop stop-color="#F95C65" stop-opacity=".3"/><stop offset="1" stop-color="#F95C65" stop-opacity="0"/></radialGradient><radialGradient id="e" cx="0" cy="0" r="1" gradientTransform="matrix(0 42.1013 -76.7998 0 2411.92 1125.01)" gradientUnits="userSpaceOnUse"><stop stop-color="#F95C65" stop-opacity=".3"/><stop offset="1" stop-color="#F95C65" stop-opacity="0"/></radialGradient><radialGradient id="f" cx="0" cy="0" r="1" gradientTransform="matrix(0 48.2844 -83.8167 0 2516.3 1210.7)" gradientUnits="userSpaceOnUse"><stop stop-color="#F95C65" stop-opacity=".3"/><stop offset="1" stop-color="#F95C65" stop-opacity="0"/></radialGradient><radialGradient id="g" cx="0" cy="0" r="1" gradientTransform="matrix(0 55.8224 -81.0259 0 2528.8 1448.35)" gradientUnits="userSpaceOnUse"><stop stop-color="#F95C65" stop-opacity=".3"/><stop offset="1" stop-color="#F95C65" stop-opacity="0"/></radialGradient><radialGradient id="h" cx="0" cy="0" r="1" gradientTransform="scale(112.843 72.9035)rotate(90 -.64 23.346)" gradientUnits="userSpaceOnUse"><stop stop-color="#F95C65" stop-opacity=".3"/><stop offset="1" stop-color="#F95C65" stop-opacity="0"/></radialGradient><radialGradient id="i" cx="0" cy="0" r="1" gradientTransform="matrix(0 36.5006 -91.0966 0 2244.3 1798.5)" gradientUnits="userSpaceOnUse"><stop stop-color="#F95C65" stop-opacity=".3"/><stop offset="1" stop-color="#F95C65" stop-opacity="0"/></radialGradient><radialGradient id="j" cx="0" cy="0" r="1" gradientTransform="matrix(0 53.3511 -91.9826 0 1932.38 1663.59)" gradientUnits="userSpaceOnUse"><stop stop-color="#F95C65" stop-opacity=".3"/><stop offset="1" stop-color="#F95C65" stop-opacity="0"/></radialGradient><radialGradient id="k" cx="0" cy="0" r="1" gradientTransform="matrix(0 46.2672 -64.5806 0 1724.24 1529.04)" gradientUnits="userSpaceOnUse"><stop stop-color="#F95C65" stop-opacity=".3"/><stop offset="1" stop-color="#F95C65" stop-opacity="0"/></radialGradient><radialGradient id="l" cx="0" cy="0" r="1" gradientTransform="matrix(0 82.0946 -108.892 0 1403.63 1475.03)" gradientUnits="userSpaceOnUse"><stop stop-color="#F95C65" stop-opacity=".3"/><stop offset="1" stop-color="#F95C65" stop-opacity="0"/></radialGradient><radialGradient id="m" cx="0" cy="0" r="1" gradientTransform="matrix(0 32.4277 -50.6392 0 1764.472 1114.735)" gradientUnits="userSpaceOnUse"><stop stop-color="#F95C65" stop-opacity=".3"/><stop offset="1" stop-color="#F95C65" stop-opacity="0"/></radialGradient><radialGradient id="n" cx="0" cy="0" r="1" gradientTransform="matrix(0 50.3256 -84.0415 0 1855.72 1275.88)" gradientUnits="userSpaceOnUse"><stop stop-color="#F95C65" stop-opacity=".3"/><stop offset="1" stop-color="#F95C65" stop-opacity="0"/></radialGradient><radialGradient id="o" cx="0" cy="0" r="1" gradientTransform="matrix(0 51.6061 -107.762 0 1941.21 1090.7)" gradientUnits="userSpaceOnUse"><stop stop-color="#F95C65" stop-opacity=".3"/><stop offset="1" stop-color="#F95C65" stop-opacity="0"/></radialGradient><radialGradient id="p" cx="0" cy="0" r="1" gradientTransform="matrix(0 35.1337 -149.238 0 1577.62 961.126)" gradientUnits="userSpaceOnUse"><stop stop-color="#F95C65" stop-opacity=".3"/><stop offset="1" stop-color="#F95C65" stop-opacity="0"/></radialGradient><radialGradient id="q" cx="0" cy="0" r="1" gradientTransform="matrix(0 56.4199 -81.4653 0 1378.73 1675.44)" gradientUnits="userSpaceOnUse"><stop stop-color="#F95C65" stop-opacity=".3"/><stop offset="1" stop-color="#F95C65" stop-opacity="0"/></radialGradient><radialGradient id="r" cx="0" cy="0" r="1" gradientTransform="matrix(0 40.1518 -97.4329 0 1654.36 1794.85)" gradientUnits="userSpaceOnUse"><stop stop-color="#F95C65" stop-opacity=".3"/><stop offset="1" stop-color="#F95C65" stop-opacity="0"/></radialGradient><clipPath id="a"><path fill="#fff" d="M1289 837h1440v998H1289z"/></clipPath></defs></svg>