<svg xmlns="http://www.w3.org/2000/svg" width="4018" height="2672" fill="none" viewBox="0 0 4018 2672"><path fill="url(#a)" d="M1837.33 924.005c-6.36 1.294-14.73.205-19.41 5.483-6.46 9.282 6.18 20.412 12.08 26.983 12.44 12.239 23.96 22.444 34.77 32.589 2.81 2.526 3.57 3.84 7.66 4.6 2.93.595 5.14.821 8.12 1.252 9.04 1.253 18.89 2.649 27.73.411 7.53-1.787 15.35-4.374 22.94-6.551 11.52-3.203 20.2-6.242 27.85-13.471 4.62-4.209 10.24-9.015 11.04-15.442.49-4.949-2.09-10.124-4.41-14.682-4.72-10.186-12.91-19.036-22.55-24.026-11.03-6.551-23.28-10.617-36.26-15.053-9.52-3.799-17.32-3.388-26.81.863-12.93 4.908-30.1 13.635-42.51 17.003z"/><path fill="url(#b)" d="M1835.95 1167.31c19.12-39.61 37.46-25.69 62.71-1.75 1.68 1.62 3.14 3.96 3.98 5.85 2.81 7.52 7.61 16.27 6.67 24.71-.86 5.54-6.2 10.47-11.59 14.95-5.36 4.56-11.57 7.66-18.71 8.07-11.98.49-25.11 1.56-34.26-6.2-11.09-11.13-17.99-31.36-8.96-45.35l.14-.28z"/><path fill="url(#c)" d="M1963.61 1251.81c2.15-9.39 11.3-15.12 19.71-19.12 18.54-9.8 25.78-7.37 42.64 3.92 9.01 5.81 17.54 14.31 19.64 24.29 1.14 13.82-16.25 24.73-26.02 31.87-14.87 10.68-35.05 6.06-49.23-3.61-10.93-7.74-9.64-25.38-6.85-36.98z"/><path fill="url(#d)" d="M2053.43 1611.64c3.12-9.55 11.43-17.02 18.34-25.52 2.95-3.37 5.93-6.78 9.33-9.55 8.56-6.29 18.34-8.77 28.54-13.41 10.87-4.48 22.07-9.22 32.84-13.6 11.24-5.52 17.92-.8 28.57 1.79 16.25 4.66 35.92 10.27 52.78 15.09 8.99 2.57 17.58 5.03 26.34 7.54 6.99 2.01 12.55 3.06 15.18 9.36 3.57 8.09 6.73 17.19 8.8 25.82 4.59 15.87-7.06 24.31-17.89 34.33-6.42 5.85-13.64 10.66-22.15 12.73-15.39 3.82-30.16 7.7-45.85 8.75-17.76 1.25-35.59 3.24-53.19 3.16-12.2-.59-28.02 1.71-40.14-2.11-9.44-4.07-17.77-11.11-26.07-17.66-9.83-8.52-17.46-23.68-15.51-36.41z"/><path fill="url(#e)" d="M2184.92 1345.42c1.15-6.12 6.13-11.17 10.6-16.05 4.66-4.99 9.4-10.31 14.14-15.12 5.84-5.95 9.53-7.7 18.19-10.14 6.81-1.95 13.74-3.88 20.68-5.83 42.58-12.8 32.51-8.71 73.76-.95 14.98 1.25 35 6.12 38.14 24.62 1.86 11.4-2.53 22.8-5.65 33.5-1.55 5.07-3.97 12.91-5.27 16.83-.74 2.12-1.52 3.54-3.44 4.38-1.91.84-3.7 1.13-5.83 1.62-10.07 1.99-25.48 4.93-36.74 7-9.97 1.81-20.55 3.62-30.71 5.4-11.03 2.32-19.91 2.73-30.4-1.7-11.46-3.99-24.55-8.54-36.26-12.63-8.43-2.92-13.66-4.66-16.68-9.36-3.77-6.19-5.6-14.07-4.57-21.26l.06-.33z"/><defs><radialGradient id="a" cx="0" cy="0" r="1" gradientTransform="matrix(0 46.5077 -77.0192 0 1893.15 950)" gradientUnits="userSpaceOnUse"><stop stop-color="#38D175" stop-opacity=".3"/><stop offset="1" stop-color="#38D175" stop-opacity="0"/></radialGradient><radialGradient id="b" cx="0" cy="0" r="1" gradientTransform="matrix(0 38.5477 -38.8987 0 1870.53 1180.93)" gradientUnits="userSpaceOnUse"><stop stop-color="#38D175" stop-opacity=".3"/><stop offset="1" stop-color="#38D175" stop-opacity="0"/></radialGradient><radialGradient id="c" cx="0" cy="0" r="1" gradientTransform="matrix(0 36.1686 -42.0454 0 2003.6 1262.73)" gradientUnits="userSpaceOnUse"><stop stop-color="#38D175" stop-opacity=".3"/><stop offset="1" stop-color="#38D175" stop-opacity="0"/></radialGradient><radialGradient id="d" cx="0" cy="0" r="1" gradientTransform="matrix(0 60.6444 -111.067 0 2164.11 1607.64)" gradientUnits="userSpaceOnUse"><stop stop-color="#38D175" stop-opacity=".3"/><stop offset="1" stop-color="#38D175" stop-opacity="0"/></radialGradient><radialGradient id="e" cx="0" cy="0" r="1" gradientTransform="matrix(0 51.1686 -88.1389 0 2272.73 1341.22)" gradientUnits="userSpaceOnUse"><stop stop-color="#38D175" stop-opacity=".3"/><stop offset="1" stop-color="#38D175" stop-opacity="0"/></radialGradient></defs></svg>