<svg xmlns="http://www.w3.org/2000/svg" width="4018" height="2672" fill="none" viewBox="0 0 4018 2672"><path fill="url(#a)" d="M2065.88 1297.37c-3.07 2.8-3.85 7.58-5.35 11.52-5.79 17.3-11.9 39.78-17.97 55.94-3.69 7.93-7.98 12.26-13.66 20.39-15.71 21.4-43.32 59.08-54.34 74.07-5.58 8.89-11.73 10.19-21.74 11.71-12.04 2.03-32.41 5.42-44.48 7.43-10.91 2.28-19.77 1.99-30.89-.82-16.69-3.51-47.32-9.92-61.37-12.88-9.83-1.88-16.92-4.45-26.55-8.48-13.45-5.46-36.86-14.95-49.16-19.96-8.62-3.38-15.47-6.9-23.35-12.17-16.49-10.76-35.96-23.47-51.49-33.82-5.86-3.8-11.81-8.22-18.05-11.16-5.58-2.75-9.04-.59-13.25 2.61-20.53 15.42-73.33 54.71-102.36 76.45-6.19 4.73-9.56 6.64-7.09 9.92 1.72 2.1 4.06 3.93 6.4 5.67 11.67 8.32 27.54 20.31 40.16 28.73 23.55 13.55 64.82 33.29 84.8 43.96 9.39 4.99 16.31 7.23 27.04 10.74 22.44 7.38 55.18 18.59 75.42 25.14 9.85 3.12 18.77 3.63 29.66 5.11 10.81 1.34 22.28 2.84 33.05 4.09 10.5 1.21 13.15.76 23.88-1.03 31.15-5.21 73.31-12.2 103.2-17.25 6.44-.96 10.97-2.89 16.86-5.48 17.95-7.95 62.5-27.5 83.48-36.8.89-.39 1.71-.76 2.49-1.13 8.02-3.1 10.17-7.43 14.97-15.09 19.06-31.44 46.48-73.41 64.62-104.81 9.76-17.72 27.01-49.76 35.48-65.36 3.29-6.51 5.19-10.13-3.55-13.11-16.3-6.3-65.43-24.84-85.45-32.46-3.53-1.17-8-3.66-11.26-1.75l-.13.11z"/><path fill="url(#b)" d="M1803.81 1598.37c-6.34 12.2-10.65 26.7-15.73 39.72-1.48 4.19-3.04 8.5-3.47 12.83-.45 10.6 6.4 19.33 10.52 29.33 4.7 9.63 9.28 19.63 14.42 28.89 5.34 10.78 15.23 15.24 25.95 20.93 21.5 11.23 55.55 27.37 72.19 35.23 5.02 2.32 9.7 4.44 15.2 4.77 3.67.31 8.86-.37 13.19-1.23 18.99-4.11 43.81-11.46 60.08-17.38 6.26-2.65 9.5-6.53 14.13-12.07 12.04-14.85 33.64-42.55 44.8-57.46 5.44-6.57 5.01-12.42 2.22-20.6-3.59-11.74-10.55-33.92-15.26-49.14-3.2-10.18-5.52-19.4-12.52-26.86-5.76-6.63-12.43-13.38-18.56-19.89-10.65-12.39-22.67-18.2-37.27-24.13-4.12-1.79-8.23-3.56-12.33-5.16-12.96-5.68-27.75-4.6-42.09-4.68-12.25-.2-23.67.6-35.37 4.03-10.03 2.83-21.47 5.46-30.99 8.89-7.32 2.71-11.41 6.47-17.54 13.82-9.25 11.76-23.79 27.62-31.43 39.92l-.14.26z"/><path fill="url(#c)" d="M2059.59 1583.22c-12.11 2.09-23.41 9.55-33.87 15.5-10.34 6.12-14.52 18.09-19.34 28.36-17.01 33.17-16.31 53.85-11.31 89.02 2.67 13.35 8.27 27.33 13.6 39.78 6.55 13 15.49 25.52 23.22 38.32 6.67 10.18 11.53 21.39 23.53 26.51 6.28 3.1 13.13 5.97 19.59 8.81 6.93 2.97 14.01 6.12 21.09 5.36 12.74-2.02 28.27-8.03 41.29-11.65 10.28-3.18 20.72-5.4 24.6-15.23 4.51-9.29 8.63-19.35 12.88-28.81 5.41-12.2 10.77-22.33 9.95-35.3.08-14.36.2-43.31.26-58.34.09-8.38-.18-14.03-5.45-20.44-11.33-14.27-23.8-29.59-35.43-43.41-6.03-7.25-16.55-13.49-25.48-19.28-8-5.07-15.73-10.43-24.82-13.51-10.5-3.23-23.63-6.72-33.95-5.77l-.34.04z"/><path fill="url(#d)" d="M1802.91 1452.33c17.17 6.9 43.85 15.14 61.76 21.58 3.35 1.13 6.71 2.28 9.97 2.65 3.43.23 5.42-.82 8.7-2.63 27.61-15.99 84.43-49.42 102.11-59.77 8.1-4.27 7.9-10.35 10.89-19.55 7.84-27.68 23.72-80.13 28.76-99.31 1.3-7.72-2.03-11.7-5-20.14-6.85-17.05-18.94-47.24-24.31-60.54-2.28-5.65-4.35-10.23-8.62-14.7-9.39-9.98-21.1-21.83-31.05-32.1-9.31-9.06-16.95-19.51-28.45-24.33-1.97-.93-3.88-1.89-5.97-2.86-12.35-5.81-32.56-15.36-43.51-20.49-10.01-5.47-20-5.79-31.47-5.55-8.84.04-18.15-.08-26.95.08-9.4.17-13.31 1.42-22.79 5.55-10.93 4.74-29.83 13-42.07 18.32-6.22 2.77-11.1 4.55-16 8.62-7.78 7.11-13.97 16.68-20.9 25.32-9.69 11.68-13.26 26.51-18.12 40.7-3.73 11.11-6.58 19.76-6.25 31.44-.11 10.84 0 25.44-.02 36.2-.15 10.07.34 17.75 2.6 27.19 2.65 11.97 7.9 35.55 10.81 48.57 2.2 12.81 7.75 23.24 14.18 34.8 4.9 8.61 9.7 18.4 16.43 25.32 4.06 4.03 9.12 6.39 14.25 9 15.18 7.29 36.29 19.53 50.77 26.55l.23.1z"/><path fill="url(#e)" d="M1818.44 1040.54c-1.4 3.33-1.83 7.48-2.34 11.36-1.46 11.85-4.12 33.84-5.66 47.04-.37 3.84-.99 8.2.18 11.65 2.11 6.3 16.02 4.54 22.83 4.88 15.96.23 30.22-1.68 44.99 6.23 14.75 6.94 30.62 14.47 45.43 21.56 17.03 7.41 26.05 21.11 39.24 33.86 9.11 9.82 22.59 21.97 28.11 31.6 3.63 5.67 5.68 12.94 10.15 17.85 3.43 3.63 7.86 1.46 11.77-.41 21.44-10.47 69.89-34.03 97.6-47.58 9.15-4.91 13.83-5.24 11.29-10.56-2.12-4.02-7.37-12.5-14.26-24.19-13.83-23.18-32.84-55.26-48.06-80.78-15.71-26.43-30.91-51.97-46.28-77.787-4.04-7.598-5.93-6.079-13.11-3.902-14.89 4.641-29.25 9.097-44.67 13.902-32.91 10.227-72.52 22.587-104.25 32.467-11.84 3.7-21.19 6.57-26.54 8.3-2.57.86-5.13 1.78-6.32 4.39l-.08.14z"/><path fill="url(#f)" d="M1693.08 1139.31c14.71 12.76 32.99 29.43 46.65 43.27 3.08 3.27 5.89 6.68 7.51 10.78 2.85 7.15 2.17 18.75 2.29 27.46.48 13-2.17 25.81-14.17 33.04-10.63 7.97-24.74 10.06-37.58 10.2-16.88.52-33.07-5.05-49.37-9.22-11.82-3.01-20.68-5.36-30.12-13.3-3.98-3.04-7.57-5.9-11.98-9.35-6.77-5.33-13.84-10.76-20.51-16.1-6.89-5.56-9.62-9.07-10.26-16.53-.69-10.12-.22-21.11-.34-31.29 0-9.28-.07-17.31 7.11-23.33 13.05-9.98 27.31-20.55 44.87-23.61 38.91-9.02 35.44-7.17 65.7 17.74l.24.2z"/><defs><radialGradient id="a" cx="0" cy="0" r="1" gradientTransform="matrix(0 147.822 -322.542 0 1846.51 1444.42)" gradientUnits="userSpaceOnUse"><stop stop-color="#38D175" stop-opacity=".3"/><stop offset="1" stop-color="#38D175" stop-opacity="0"/></radialGradient><radialGradient id="b" cx="0" cy="0" r="1" gradientTransform="scale(137.366 119.353)rotate(90 .08 13.911)" gradientUnits="userSpaceOnUse"><stop stop-color="#38D175" stop-opacity=".3"/><stop offset="1" stop-color="#38D175" stop-opacity="0"/></radialGradient><radialGradient id="c" cx="0" cy="0" r="1" gradientTransform="matrix(0 126.005 -96.5645 0 2088.53 1708.99)" gradientUnits="userSpaceOnUse"><stop stop-color="#38D175" stop-opacity=".3"/><stop offset="1" stop-color="#38D175" stop-opacity="0"/></radialGradient><radialGradient id="d" cx="0" cy="0" r="1" gradientTransform="matrix(0 181.029 -165.9 0 1859.573 1295.625)" gradientUnits="userSpaceOnUse"><stop stop-color="#38D175" stop-opacity=".3"/><stop offset="1" stop-color="#38D175" stop-opacity="0"/></radialGradient><radialGradient id="e" cx="0" cy="0" r="1" gradientTransform="matrix(0 124.472 -156.386 0 1966.33 1104.06)" gradientUnits="userSpaceOnUse"><stop stop-color="#38D175" stop-opacity=".3"/><stop offset="1" stop-color="#38D175" stop-opacity="0"/></radialGradient><radialGradient id="f" cx="0" cy="0" r="1" gradientTransform="matrix(0 73.8613 -87.2164 0 1662.37 1190.24)" gradientUnits="userSpaceOnUse"><stop stop-color="#38D175" stop-opacity=".3"/><stop offset="1" stop-color="#38D175" stop-opacity="0"/></radialGradient></defs></svg>