<svg xmlns="http://www.w3.org/2000/svg" width="4018" height="2672" fill="none" viewBox="0 0 4018 2672"><g clip-path="url(#a)"><path fill="url(#b)" d="M1472.34 1513.96c25.68 1.11 106.96 18.4 134.18 22.13 4.61.85 7.89 1.38 12.2 3.27 30.52 13.41 98.75 44.09 119.06 53.12 3.65 1.71 6.42 3.02 7.01 7.33 3.06 18.22 5.34 35.02 9.46 61.24 6.87 44.93 15.32 99.74 17.66 115.55.31 2.14.41 3.98-.49 5.83-3.61 4.97-8.62 7.35-15.16 12.08-11.26 7.55-23.26 16.08-34.65 23.45-7.01 4.93-11.73 3.74-20.1 2.83-10.48-1.19-20.76-2.32-31.55-3.53-32.12-3.12-65.93-8.4-97.15-9.47-23.93-.37-94.19-1.45-118.27-1.82-7.76-.09-11.55 1.06-20.43 2.77-14.51 2.93-41.67 8.54-54.77 11.15-7.82 1.76-13.25 1.93-19.26-4.4-12.87-11.82-48.39-44.8-62.49-57.84-4.35-4.11-8.49-7.54-8.43-13.97-.24-28.95-.26-79.55.02-102.73.41-6.84 3.45-10.13 7.94-16.06 5.15-6.49 12-15.36 17.74-22.61 5.93-7.56 11.9-15.18 17.75-22.59 6.07-7.8 9.72-11.66 19.94-14.91 16.55-5.89 35.03-11.27 51.03-17.56 21.95-9.63 47.51-24.99 68.54-33.24l.18-.04z"/><path fill="url(#c)" d="M2362.52 1365.16c-2.93.9-5.11 2.15-7.65 3.78-7.43 4.8-23.98 15.6-43.08 28.05-31.53 20.53-69.66 45.34-83.3 54.25-6.18 3.76-8.78 7.52-12.74 14.36-5.27 9.07-11.49 19.56-16.72 28.89-6.15 9.98-6.52 17.97-6.4 28.93 0 10.02-.1 21.71.13 31.42-.25 8.44 3.24 14.56 9.19 20.08 11.22 10.87 27.5 28.32 39.13 38.57 4.39 3.69 9.54 4.35 15.08 5.23 20.12 2.9 57.76 8.83 79.51 11.85 25.82.45 70.83-6.71 106.69-9.48 12.47-1.34 19.61-1.2 30.25-5.43 16.51-5.93 61.85-22.23 86.4-31.04 6.94-2.55 11.41-3.86 16.76-6.39 4.43-2.28 7.63-6.06 11.22-9.69 10.34-10.82 32-33.52 42.85-44.91 6.18-6.49 8.58-9.8 9.17-17.48.56-7.72.27-15.85.33-23.63-.08-7.03.14-13.56-2.07-19.92-5.91-13.41-17.15-27.75-24.53-40.03-2.96-4.35-5.58-8.58-9.48-11.58-3.67-2.79-8.08-4.47-12.41-6.34-20.27-7.85-44.88-20.02-66.03-25.86-24.93-6.65-48.39-13.9-73.89-18.07-11.71-1.89-23.77-5.27-35.38-5.44-4.56.08-9.13.9-13.71 1.75-12.69 2.67-26.93 4.82-39.07 8.07l-.21.06z"/><path fill="url(#d)" d="M2545.45 1131.02c9.11 1.34 23.41.64 34.4.8h63.41c5.27-.1 10.56.23 14.91-2.97 10.65-9.35 20.74-24.17 30.77-35.53 4.2-5.24 8.57-10.43 9.8-17.13 1.71-11.64.62-24.91.93-36.96.08-12.63-.08-22.01-4.72-34.01-2.85-8.107-6.13-17.142-9.11-25.356-3.85-10.945-7.36-19.406-15.88-27.702-5.86-6.119-13.27-13.389-19.38-19.447-11.12-11.91-25.78-17.454-41.05-23.368-8.98-3.491-16.41-5.401-27.48-7.804-15.37-3.224-30.57-7.392-46.26-7.618-14.85.164-31.88-3.429-43.43 8.091-6.29 5.893-12.59 12.608-17.98 19.385-7.72 9.282-9.38 24.518-12.5 36.922-3.36 15.565-8.16 30.186-5.62 45.897 1.32 12.73 3.74 35.65 5.13 48.75.7 5.89 1.23 11.72 4.08 16.86 8.74 13.61 22.12 27.76 32.08 40.62 2.94 3.51 5.42 6.42 8.7 9.07 10.89 7.89 26.01 8.77 38.87 11.44l.29.04z"/></g><defs><radialGradient id="b" cx="0" cy="0" r="1" gradientTransform="matrix(0 153.835 -241.579 0 1530.55 1667.77)" gradientUnits="userSpaceOnUse"><stop stop-color="#F95C65" stop-opacity=".3"/><stop offset="1" stop-color="#F95C65" stop-opacity="0"/></radialGradient><radialGradient id="c" cx="0" cy="0" r="1" gradientTransform="scale(223.376 137.656)rotate(90 -.015 10.83)" gradientUnits="userSpaceOnUse"><stop stop-color="#F95C65" stop-opacity=".3"/><stop offset="1" stop-color="#F95C65" stop-opacity="0"/></radialGradient><radialGradient id="d" cx="0" cy="0" r="1" gradientTransform="matrix(0 119.171 -122.092 0 2577.64 1012.69)" gradientUnits="userSpaceOnUse"><stop stop-color="#F95C65" stop-opacity=".3"/><stop offset="1" stop-color="#F95C65" stop-opacity="0"/></radialGradient><clipPath id="a"><path fill="#fff" d="M1289 837h1440v998H1289z"/></clipPath></defs></svg>