<svg xmlns="http://www.w3.org/2000/svg" width="4018" height="2672" fill="none" viewBox="0 0 4018 2672"><path fill="url(#a)" d="M1778.54 1188.23c-4.04 4.23-5.03 16.57-5.89 23.72-.62 5.81-1.33 12.83.23 17.56 3.15 6.42 6.46-5.51 7.18-11.87.82-5.47 5.06-32.18-1.38-29.51l-.14.12z"/><path fill="url(#b)" d="M1833.66 1236.74c-3.47 2.93-5.22 12.28-6.53 17.78-1.06 4.5-2.21 9.14-1.41 13.02 2.21 6.01 6.68-5.3 7.69-11.36.88-4.43 5.25-20.82.39-19.55z"/><path fill="url(#c)" d="M1935.69 1239.49c-.15 3.51 3.59 4.7 8.14 8.19 3.57 2.65 6.18 6.22 7.22 10.74 1.75 6.06.8 13.04 3.43 15.81 4.26 1.54 8.69-15.77 7.81-22.09-.39-8.32-2.54-16-4.78-23.89-2.4-6.94-4.24-13.98-7.18-16.16-1.06-.24-1.76.78-2.4 1.73-1.33 2.19-2.56 4.72-3.93 7.27-2.51 5.07-7.7 13.59-8.31 18.19z"/><path fill="url(#d)" d="M1993.06 1258.07c-1.93-1.99-.53-3.59 3.49-4.66 10.07-2.2 28.3 3.41 33.27 13.39 5.64 12.81-15.28 26.16-23 27.1-2.77.35-2.68-2.32-1.99-4.41 7.2-20.52 3.88-20.07-11.63-31.28l-.16-.16z"/><path fill="url(#e)" d="M2181.12 1317.54c-3.61-.43-13.06 15.44-16.84 21.42-14.87 23.39-33.58 52.81-48.78 76.72-6.6 8.81-8.55 21.72 1.87 14.99 6.89-5.18 11.08-13.19 16.24-20.39 13.17-20.31 28.68-38.9 38.2-60.85 2.32-5.71 13.72-28.3 9.42-31.87h-.09z"/><path fill="url(#f)" d="M2211.79 1309.14c-4.47 3.72-6.17 12.94-7.45 20.7-1.23 7.5-2.54 14.99-2.58 19.73-.21 5.55 2.01 8.38 8.88 8.55 24.29.7 54.2.9 79.45 1.41 13.95-.12 21.93 1.22 32.06-.35 21.29-5.42 16.35-36.86 2.15-47.76-11.32-9.18-35.57-8.36-50.25-10.35-11.37-1.19-22.57-.84-33.89.66-10.63 1.66-20.7 1.33-28.14 7.23l-.23.2z"/><defs><radialGradient id="a" cx="0" cy="0" r="1" gradientTransform="matrix(0 21.7049 -5.12468 0 1777.06 1209.65)" gradientUnits="userSpaceOnUse"><stop stop-color="#38D175" stop-opacity=".3"/><stop offset="1" stop-color="#38D175" stop-opacity="0"/></radialGradient><radialGradient id="b" cx="0" cy="0" r="1" gradientTransform="matrix(0 16.3432 -5.30371 0 1830.75 1252.91)" gradientUnits="userSpaceOnUse"><stop stop-color="#38D175" stop-opacity=".3"/><stop offset="1" stop-color="#38D175" stop-opacity="0"/></radialGradient><radialGradient id="c" cx="0" cy="0" r="1" gradientTransform="scale(13.3612 31.1362)rotate(90 52.973 92.9)" gradientUnits="userSpaceOnUse"><stop stop-color="#38D175" stop-opacity=".3"/><stop offset="1" stop-color="#38D175" stop-opacity="0"/></radialGradient><radialGradient id="d" cx="0" cy="0" r="1" gradientTransform="matrix(0 20.5 -19.2844 0 2011.49 1273.43)" gradientUnits="userSpaceOnUse"><stop stop-color="#38D175" stop-opacity=".3"/><stop offset="1" stop-color="#38D175" stop-opacity="0"/></radialGradient><radialGradient id="e" cx="0" cy="0" r="1" gradientTransform="matrix(0 57.5052 -36.0687 0 2146.12 1375.04)" gradientUnits="userSpaceOnUse"><stop stop-color="#38D175" stop-opacity=".3"/><stop offset="1" stop-color="#38D175" stop-opacity="0"/></radialGradient><radialGradient id="f" cx="0" cy="0" r="1" gradientTransform="matrix(0 29.7965 -67.4038 0 2269.15 1330.15)" gradientUnits="userSpaceOnUse"><stop stop-color="#38D175" stop-opacity=".3"/><stop offset="1" stop-color="#38D175" stop-opacity="0"/></radialGradient></defs></svg>