<svg xmlns="http://www.w3.org/2000/svg" width="4018" height="2672" fill="none" viewBox="0 0 4018 2672"><path fill="url(#a)" d="M2196.78 1507.61c-9.81-1.37-19.68 8.05-29.11 12.69-34.81 20.35-103.2 60.25-123.55 72.18-8.82 4.38-12.1 13.95-15.82 22.76-1.51 3.77-2.95 7.68-4.12 11.58-4.82 15.77-2.36 37.84-2.93 55.5.06 8.9-.25 16.16 1.52 24.48 1.78 8.11 5.92 16.82 9.64 23.78 3.32 5.77 6.01 11.6 13.02 7.62 33.83-14.62 190.14-81.57 224.76-96.68 5.15-2.73 3.43-6.53 1.87-13.39-3.49-11.99-8.49-25.03-13.77-36.76-6.83-15.13-15.36-35.58-22.23-49.98-7.67-15.71-22.14-30.45-39.06-33.72h-.24z"/><path fill="url(#b)" d="M1826.83 1143.96c-.35 2.5-8.54 6.18-14.01 8.99-15.55 7.82-35.26 17.78-51.53 26-6.79 3.43-12.31 6.2-18.38 9.26-10.48 5.65-21.7 8.56-29.27-3.6-5.52-8.66-9.27-19.07-13.97-28.7-5.85-12.84-12.9-27.87-18.11-39.59-5.89-13.43-6.51-18.44 5.84-25.04 23.2-11.91 72-38.34 95.26-49.57 3.7-1.29 5.01-.04 6.9 3.74 1.47 3.1 3.34 8.03 5.84 14.29 7.12 17.95 18.2 45.88 25.29 63.8 2.05 5.71 7.72 17.29 6.18 20.27l-.06.15z"/><defs><radialGradient id="a" cx="0" cy="0" r="1" gradientTransform="scale(126.262 116.017)rotate(90 1.507 15.5)" gradientUnits="userSpaceOnUse"><stop stop-color="#F95C65" stop-opacity=".3"/><stop offset="1" stop-color="#F95C65" stop-opacity="0"/></radialGradient><radialGradient id="b" cx="0" cy="0" r="1" gradientTransform="matrix(0 75.936 -74.8167 0 1752.31 1117.15)" gradientUnits="userSpaceOnUse"><stop stop-color="#F95C65" stop-opacity=".3"/><stop offset="1" stop-color="#F95C65" stop-opacity="0"/></radialGradient></defs></svg>