<svg xmlns="http://www.w3.org/2000/svg" width="4018" height="2672" fill="none" viewBox="0 0 4018 2672"><path fill="url(#a)" d="M1368.75 1749.47c5.29-.57-3.22 16.9-5.02 20.08-2.65 5.18-5.6 10.6-7.68 14.58-1.04 2.32-4.2 7.27.13 7.15 10.83-1.21 15.03-.66 6.15 9.47-6.09 6.1-15.83 10.33-21.72 4.74-4.74-4.85-6.46-13.7-3.76-19.75 1.17-2.8 2.71-3.25 5.17-3.58 3.53-.16 6.08-2.81 7.84-5.79 5.23-7.33 10.3-21.15 18.73-26.84z"/><path fill="url(#b)" d="M1664.59 1323.33c-3.67 4.11-3.34 15.05-3.28 22.08.26 4.66-.62 10.34 2.4 14.04 4.12 3.33 10.13 1.36 15.36 1.11 5.6-.82 13.42-.72 16.76-4.89 2.83-3.82 2.28-10.82 2.4-16.06-.06-5.68-.22-11.97-3.69-16.46-5.62-6.68-24.1-6.56-29.77-.09l-.18.23z"/><defs><radialGradient id="a" cx="0" cy="0" r="1" gradientTransform="scale(17.4463 29.3209)rotate(90 8.444 69.11)" gradientUnits="userSpaceOnUse"><stop stop-color="#38D175" stop-opacity=".3"/><stop offset="1" stop-color="#38D175" stop-opacity="0"/></radialGradient><radialGradient id="b" cx="0" cy="0" r="1" gradientTransform="matrix(0 21.5939 -18.4789 0 1679.75 1339.77)" gradientUnits="userSpaceOnUse"><stop stop-color="#38D175" stop-opacity=".3"/><stop offset="1" stop-color="#38D175" stop-opacity="0"/></radialGradient></defs></svg>