<svg xmlns="http://www.w3.org/2000/svg" width="4018" height="2672" fill="none" viewBox="0 0 4018 2672"><path fill="url(#a)" d="M1862.29 1150.1c-21.43.49-41.52 9.24-55.9 25.25-6.31 6.37-13.27 15.26-14.68 23.15-1.36 7.27.8 15.34 4.8 21.48 4.28 6.11 12.67 9.24 21.33 10.2 15.41 2.22 29.23 2.49 44.97-.08 12.49-1.79 25.92-1.68 36.1-9.98 6.62-4.95 13.72-10.93 16-18.63 2.81-9.57 1.5-20.94-2.38-29.94-8.41-18.54-31.22-22.73-49.83-21.5h-.41z"/><path fill="url(#b)" d="M1685.25 1153.14c3.75 2.67 7.89 4.82 12.14 6.71 9.56 3.92 18.11 8.44 27.63 10.31 9.89 1.33 20.25-.53 30.38-1.01 4.84-.39 9.58-.63 14.26-1.23 17.31-2.38 23.85-14.29 30.68-29.57 3.72-9.63 8.74-20.64 7.72-30.62-.97-8.56-3.16-19.55-6.34-26.51-5.23-10.06-18.42-11.97-28.19-15.97-10.13-3.64-19.05-3.76-29.35-3.58-11.9 0-22.34-.33-34.24 3.68-9.99 3.63-21.78 6.28-28.06 15.38-13.58 21.48-22.21 55.83 3.02 72.2l.31.23z"/><path fill="url(#c)" d="M1700.02 1191.86c-3.51-2.46-9.75-2.85-14.22-3.18-2.15-.1-3.92.18-5.07 1.01-.92.63-1.49 1.56-1.78 2.62-1.89 7.23 8.74 12.06 14.69 14.28 8.88 3.67 12.96-10.07 6.66-14.52l-.31-.21z"/><path fill="url(#d)" d="M1601.06 1395.43c-10.4 1.66-23.94 7.86-34.83 11.93-13.89 4.87-24.98 14.48-33.62 26.16-11.73 15.1-15.63 34.6-16.64 53.27-.94 22.92 17.38 42.1 39.39 46.51 32.49 5.26 70.91-16.47 100.25-29.96 12.8-5.56 19.38-12.85 28.43-22.53 3.26-3.47 6.62-6.92 9.27-10.65 10.25-14.26 4.2-33.87-9.15-44.09-23.41-20.17-50.89-35.32-82.77-30.68l-.37.06z"/><defs><radialGradient id="a" cx="0" cy="0" r="1" gradientTransform="matrix(0 41.0399 -62.555 0 1853.86 1190.9)" gradientUnits="userSpaceOnUse"><stop stop-color="#38D175" stop-opacity=".3"/><stop offset="1" stop-color="#38D175" stop-opacity="0"/></radialGradient><radialGradient id="b" cx="0" cy="0" r="1" gradientTransform="scale(69.7154 54.5054)rotate(90 2.23 22.707)" gradientUnits="userSpaceOnUse"><stop stop-color="#38D175" stop-opacity=".3"/><stop offset="1" stop-color="#38D175" stop-opacity="0"/></radialGradient><radialGradient id="c" cx="0" cy="0" r="1" gradientTransform="matrix(0 9.27217 -12.3098 0 1691.04 1197.93)" gradientUnits="userSpaceOnUse"><stop stop-color="#38D175" stop-opacity=".3"/><stop offset="1" stop-color="#38D175" stop-opacity="0"/></radialGradient><radialGradient id="d" cx="0" cy="0" r="1" gradientTransform="matrix(0 69.7793 -91.2653 0 1607.2 1464.33)" gradientUnits="userSpaceOnUse"><stop stop-color="#38D175" stop-opacity=".3"/><stop offset="1" stop-color="#38D175" stop-opacity="0"/></radialGradient></defs></svg>