<svg xmlns="http://www.w3.org/2000/svg" width="4018" height="2672" fill="none" viewBox="0 0 4018 2672"><path fill="url(#a)" d="M1373.37 1392.8c9.95-.06 20.33 3.84 29.64 6.41 13.38 4.08 25.87 10.98 38.18 17.6 20.51 12.05 32.96 34.76 36.65 57.68.66 8.5-1.15 17.19-3.32 25.44-9.17 28.98-40.49 41.38-67.65 47.29-10.51 2.51-20.15 4.83-30.94 3.08-6.54-.86-13.45-1.86-19.98-3.05-9.7-1.48-16.65-5.96-24.06-11.98-3.98-3.14-8.02-6.32-11.48-9.96-5.71-5.87-9.21-13.57-12.31-21.64-9.89-25.87-2.48-61.69 15.85-81.91 12.58-14.44 29.38-28.36 49.07-28.94h.39z"/><path fill="url(#b)" d="M1343.42 1637.82c14.69-8.29 26.73-21.91 41.23-30.21 6.83-3.49 14.73-5.27 22.26-7.55 9.31-2.73 19.03-5.79 27.94-3.64 20.67 4.44 32.28 8.4 44.37 26.35 10.72 12.69 14.66 29.59 15.36 45.53.29 10.57-3.86 23.84-6.69 34.74-4.45 16.24-15.81 28.17-28.59 38.46-10.18 8.59-21.85 16.41-33.83 21.4-13.54 5.79-29.7 10.9-44.88 11.44-17.93-1.09-35.14-9.06-50.44-18.79-23.51-14.99-31.53-25.57-32.45-54.03-.84-13.51 5.23-25.89 13.15-36.45 4.45-6.47 8.14-11.6 13.86-16.1 5.66-4.72 12.39-7.8 18.38-10.98l.33-.19z"/><path fill="url(#c)" d="M1746.89 1074.51c9.02-1.17 18.17 2.26 27.28 4.43 19.4 5.42 41.29 23.93 34.69 46.23-6.01 15.64-23.98 21.91-39.02 25.36-20.27 5.83-43.38-2.92-49.68-24.11-4.06-10.78-2.46-22.69 1.48-33 4.12-9.39 14.87-16.98 24.88-18.85z"/><defs><radialGradient id="a" cx="0" cy="0" r="1" gradientTransform="matrix(0 79.0559 -87.1409 0 1390.84 1471.86)" gradientUnits="userSpaceOnUse"><stop stop-color="#F95C65" stop-opacity=".3"/><stop offset="1" stop-color="#F95C65" stop-opacity="0"/></radialGradient><radialGradient id="b" cx="0" cy="0" r="1" gradientTransform="matrix(0 89.3215 -98.4871 0 1396.11 1685.02)" gradientUnits="userSpaceOnUse"><stop stop-color="#F95C65" stop-opacity=".3"/><stop offset="1" stop-color="#F95C65" stop-opacity="0"/></radialGradient><radialGradient id="c" cx="0" cy="0" r="1" gradientTransform="matrix(0 39.0124 -46.1345 0 1763.92 1113.28)" gradientUnits="userSpaceOnUse"><stop stop-color="#F95C65" stop-opacity=".3"/><stop offset="1" stop-color="#F95C65" stop-opacity="0"/></radialGradient></defs></svg>