<svg xmlns="http://www.w3.org/2000/svg" width="4018" height="2672" fill="none" viewBox="0 0 4018 2672"><path fill="url(#a)" d="M1506.11 910.453c18.56-1.355 43.83-.287 61.66-.596 5.66.021 10.83.083 16.35 1.089 14.52 2.854 30.79 6.797 45.56 10.041 14.52 2.834 24.26 7.824 37.04 13.862 15.51 6.406 28.25 18.83 34.69 34.622 3.63 8.768 2.2 17.475.45 26.818-3.73 19.921-21.35 29.381-38.01 39.021-9.58 5.23-17.82 10.18-26.81 13.96-10.85 4.31-22.69 7.33-33.93 10.84-31.75 9.26-63.92 15.26-96.41 19.14-14.11 1.99-25 1.48-40 1.4-10.62-.17-22.52.57-31.46-4.34-7.16-3.71-14.55-8.13-20.93-13.24-21.04-18.87-22.93-54.67-13.84-79.923 4.02-11.541 13.56-25.587 18.42-33.678-10.53 11.48-32.23 38.606-41.58 49.141-5.4 5.87 3.48-10.432 4.14-12.178 7.22-15.483 15.73-27.167 28.02-37.907 8.37-7.578 15.51-13.327 25.5-18.03 14.75-6.201 31.59-13.04 46.6-15.976 7.92-1.54 16.35-3.06 24.25-3.984l.33-.041z"/><path fill="url(#b)" d="M2283.93 1283.14c10.69-.37 21.13.72 30.51 6.96 7.91 5.24 15.71 12.45 20.41 20.56 7.65 13.92 6.09 30.66 1.17 45.14-2.57 6.75-8.02 13.55-13.87 18.35-16.9 14.91-38.77 20.07-60.43 23.68-10.03 1.99-18.4 3.37-28.37 1.31-4.39-.73-9.21-1.68-13.68-2.54-34.34-4.33-34.81-28.32-32.93-56.82 1.36-14.31 12.6-23.92 22.79-33.25 28.87-24.64 37.58-23.84 74.01-23.37h.39z"/><path fill="url(#c)" d="M2114.66 1354.69c9.93-8.44 21.4-21.73 33.6-25.26 20.45-4.36 21.91 21.09 17.85 35.58-2.11 9.12-4.13 17.44-7.49 25.18-3.81 8.34-9.21 16.18-14.34 23.84-11.05 15.49-24.98 27.89-36.86 42.78-8.22 9.34-15.84 19.42-22.93 29.18-5.83 7.88-13.71 14.95-21.38 21.33-9.7 8.67-19.69 13.64-30.64 19.61-7.65 4.34-13.89 9.12-21.19 14.23-10.26 6.25-19.02 14.97-29.66 20.44-7.68 3.69-16 3.55-24.27 5.44-14.42 3.71-25.95 9.18-41.44 11-19.44 3.89-37.43 4.17-57.9 3.87-12.7-.42-24.54 2.54-36.23 7.1-14.73 5.5-29.01 10.93-43.51 2.18-9.82-4.89-14.44-8.63-7.26-19.37 13.05-22.87-11.69-28.85 23.9-53.61 27.14-17.27 248.72-124.22 319.53-163.34l.16-.14z"/><defs><radialGradient id="a" cx="0" cy="0" r="1" gradientTransform="matrix(0 85.5102 -164.045 0 1539.62 995.256)" gradientUnits="userSpaceOnUse"><stop stop-color="#38D175" stop-opacity=".3"/><stop offset="1" stop-color="#38D175" stop-opacity="0"/></radialGradient><radialGradient id="b" cx="0" cy="0" r="1" gradientTransform="matrix(0 58.5729 -77.0049 0 2263.14 1341.59)" gradientUnits="userSpaceOnUse"><stop stop-color="#38D175" stop-opacity=".3"/><stop offset="1" stop-color="#38D175" stop-opacity="0"/></radialGradient><radialGradient id="c" cx="0" cy="0" r="1" gradientTransform="matrix(0 133.431 -200.204 0 1967.72 1462.36)" gradientUnits="userSpaceOnUse"><stop stop-color="#38D175" stop-opacity=".3"/><stop offset="1" stop-color="#38D175" stop-opacity="0"/></radialGradient></defs></svg>