<svg xmlns="http://www.w3.org/2000/svg" width="4018" height="2672" fill="none" viewBox="0 0 4018 2672"><path fill="url(#a)" d="M1851.65 1141.02c19.26-2.22 36.84.37 55.63 3.43 23.18 3.24 44.82 7.53 67.57 12.81 6.6 1.38 11.3 5.81 15.05 11.26 9.21 13.43 21.75 27.78 29.07 42.48 6.42 13.9 14.3 27.7 17.89 42.65 2.44 12.34 8.61 25.55 6.03 38.3-3.88 14.09-7.98 30.31-13.46 44.01-4.08 7.99-10.3 15.15-15.65 22.77-16.08 23.02-35.51 45.14-53.29 66.29-7.47 8.6-15.94 16.69-24 25.07-8.54 8.69-13.62 14.25-24.95 21.07-18.83 11.44-36.8 25.24-55.71 34.29-11.69 5.71-30.26 14.6-40.49 19.57-8.88 4.46-12.99 5.63-22.36 8.53-11.94 3.65-32.68 10-45.68 13.98-8.58 2.69-15.31 4.66-23.72 6.78-12.16 2.75-27.54 8.58-40.65 5.21-12.17-3.22-25.11-.39-37.4 1.3-33.99 3.61-39.81-15.53-43.87-44.91-3.9-21.42-4.27-43.66-2.96-65.29 3.28-20.61 7.84-40.72 12.99-60.98 2.62-9.49 5.54-21.57 8.33-30.97 3.2-11.48 11.93-21.77 18.46-31.97 9.95-15.88 23.94-29.78 36.47-44.11 14.46-16.29 31.96-31.44 48.33-47.66 6.99-6.64 10.34-10.33 14.48-17.62 2.5-4.32 4.86-8.92 7.49-13.19 6.4-10.9 18.05-21.02 27.32-30.37 7.59-7.9 17.85-11.79 28.04-16.45 16.35-7.82 32.43-13.67 50.67-16.24l.41-.04z"/><defs><radialGradient id="a" cx="0" cy="0" r="1" gradientTransform="scale(222.744 210.533)rotate(90 .88 7.295)" gradientUnits="userSpaceOnUse"><stop stop-color="#38D175" stop-opacity=".3"/><stop offset="1" stop-color="#38D175" stop-opacity="0"/></radialGradient></defs></svg>