<svg xmlns="http://www.w3.org/2000/svg" width="4018" height="2672" fill="none" viewBox="0 0 4018 2672"><path fill="url(#a)" d="M1529.76 1442.97c19.49 5.09 56.51 16.57 75.55 21.91 3.77 1.15 7.05 2.13 10.21 4.41 10.22 7.95 23.76 21.4 34.44 30.72 3.12 2.86 6.24 5.65 8.89 8.81 9.04 12.06 19.2 30.76 27.48 43.54 1.69 2.77 3.26 5.52 4.15 8.52 1.19 4.06.49 8.27-.09 12.71-1.98 11.19-3.4 26.26-6.23 37.39-1.23 4.25-3.71 7.7-6.63 11.01-6.75 7.39-15.5 16.8-22.64 24.15-8.6 8.62-18.24 16.92-27.37 25.4-8.96 8.05-15.73 14.97-25.47 20.41-15.35 9.2-30.55 18.16-45.69 27.52-13.31 8.21-37.17 22.92-48.39 29.84-6.72 4.27-12.08 6.94-19.83 9.89-10.67 4.26-30.69 12.28-40.97 16.35-4.67 1.83-8.94 3.47-13.92 3.78-12.41.61-29.3.04-43.2.22-9.03 0-14.98-.12-23.27-3.08-13.29-5.01-28.26-7.86-39.05-17.57-6.57-6.08-14.52-12.55-20.08-19.61-3.27-4.48-4.78-8.92-6.67-14.42-4.9-16.35-12.78-31.32-11.88-48.2V1640c-.04-6.22.29-11.11 1.6-17 2.61-12.06 6.61-28.14 9.48-40.79 2.36-10 3.16-14.12 3.26-22.95.1-7.42 0-15.32.08-22.72-.22-14.58 4.31-27.47 8.41-41.11 3.37-11.25 14.36-19.44 22.49-28.07 9.51-10.47 19.28-16.63 31.54-23.12 9.5-4.91 18.71-11.75 28.7-14.79 3.71-.88 7.63-.96 11.51-1 12.1.12 25.85-.29 37.27.18 26.83 3.49 62.18 10.15 86.13 14.29z"/><defs><radialGradient id="a" cx="0" cy="0" r="1" gradientTransform="scale(201.048 175.612)rotate(90 -.861 8.273)" gradientUnits="userSpaceOnUse"><stop stop-color="#F95C65" stop-opacity=".3"/><stop offset="1" stop-color="#F95C65" stop-opacity="0"/></radialGradient></defs></svg>