<svg xmlns="http://www.w3.org/2000/svg" width="4018" height="2672" fill="none" viewBox="0 0 4018 2672"><g clip-path="url(#a)"><path fill="url(#b)" d="M1449 949.942c4.06-11.335 3.61-14.662 6.15-22.588 5.03-15.648 14.28-25.936 20.52-32.856 8.16-9.076 16.43-15.237 24.61-20.535 28.04-18.112 66.75-43.123 104.62-32.856 10.13 2.752 4.35 3.717 38.97 20.535 25.13 12.198 33.15 14.847 41.03 24.642 11.69 14.559 12.31 32.199 12.31 36.963.04 29.735-22.65 62.549-51.29 73.926-14.19 5.647-30.89 6.447-43.07 20.537-2.01 2.32-6.05 7.1-8.21 14.37-2.54 8.59-.57 14.25 0 24.64 0 0 .8 14.34-2.05 26.7-5.25 22.79-27.73 36.02-32.82 39.02-13.81 8.13-29.72 9.52-61.54 12.32-9.82.86-16.68 1-24.61 0-7.16-.91-19.51-2.57-32.82-10.27-15.61-9.02-23.84-21.27-28.72-28.75-3.45-5.28-9.01-13.92-12.31-26.69-5.35-20.68-.98-37.48 0-41.07 4.08-14.79 11.79-24.89 16.41-30.807 10.3-13.225 16.51-14.436 24.62-28.749 4.2-7.454 6.91-14.867 8.2-18.482"/><path fill="url(#c)" d="M1293.1 1397.6c90.89-10.65 131.49-21.56 149.75-30.8 2.7-1.37 10.78-5.67 20.51-4.1 13.29 2.13 22.23 14.02 36.92 39.01 15 25.51 24.31 44.81 30.77 57.5 15.73 30.93 19 31.48 32.82 57.5 39.61 74.56 42.01 125.12 69.74 129.37 8.48 1.29 23.16-1.11 30.77 8.21 3.2 3.92 7.57 12.61 8.21 14.38 6.91 19.44 11.71 20.22 28.72 51.33 20.57 37.64 67.36 115.51 55.38 115-94.36-4.11-191.08 0-191.08 0l-272.51-3.53z"/><path fill="url(#d)" d="M2729 1039.76c-57.21 15.67-104.74 29.08-139.49 39.02-148.41 42.42-83.9 27.17-114.87 34.91 0 0-29.87 7.72-114.87 47.23-5.38 2.5-17.46 8.32-22.57 20.53-1.86 4.5-2.48 9.08-2.05 20.54.84 21.75 4.1 36.96 4.1 36.96 6.49 30.17 1.17 11.42 10.26 53.39 10.38 47.95 13.89 56.68 12.31 75.98-.47 5.83-1.81 17.21-6.15 30.8-7.84 24.48-16.37 27.77-30.77 57.5-6.67 13.76-13.38 27.89-16.41 47.23-2.61 16.7-.99 27.75 0 41.07 1.02 13.66 4.12 59.62-8.21 104.73-6.38 23.35-12.55 45.96-32.82 61.61-8.59 6.63-18.73 10.57-38.97 18.48-9.21 3.59-16.5 6.08-22.4 7.9-18.94 5.92-28.07 9.94-28.89 10.58-11.75 9.24-4.57 18.83-16.41 63.66-1.68 6.4-3.79 13.67 0 18.48 3.9 4.95 11.78 4.43 22.57 4.11 12.98-.39 26.05 1.35 38.97 0 29.25-3.06 58.81 0 88.21 0H2729z"/></g><defs><radialGradient id="b" cx="0" cy="0" r="1" gradientTransform="scale(150.025 148.372)rotate(90 1.83 8.483)" gradientUnits="userSpaceOnUse"><stop stop-color="#F95C65" stop-opacity=".3"/><stop offset="1" stop-color="#F95C65" stop-opacity="0"/></radialGradient><radialGradient id="c" cx="0" cy="0" r="1" gradientTransform="matrix(0 236.322 -232.761 0 1525.748 1598.718)" gradientUnits="userSpaceOnUse"><stop stop-color="#F95C65" stop-opacity=".3"/><stop offset="1" stop-color="#F95C65" stop-opacity="0"/></radialGradient><radialGradient id="d" cx="0" cy="0" r="1" gradientTransform="scale(285.165 397.614)rotate(90 2.477 6.092)" gradientUnits="userSpaceOnUse"><stop stop-color="#F95C65" stop-opacity=".3"/><stop offset="1" stop-color="#F95C65" stop-opacity="0"/></radialGradient><clipPath id="a"><path fill="#fff" d="M1289 837h1440v998H1289z"/></clipPath></defs></svg>