<svg xmlns="http://www.w3.org/2000/svg" width="4018" height="2672" fill="none" viewBox="0 0 4018 2672"><path fill="url(#a)" d="M1521.82 985.879c-4.61 6.099-2.3 15.481-2.05 16.431 2.71 10.39 11.81 13.8 10.4 20.06-.96 4.29-6.38 6.53-6.3 6.63.08.11 10.75-15.65 26.67-18.48 11.03-1.97 17.66 3.51 20.51 0 3.32-4.09-1.95-15.934-10.25-22.588-11.82-9.466-32-11.294-38.98-2.053"/><path fill="url(#b)" d="M1843.87 1205.6c1.23 3.51 3 9.22 4.1 16.43 3.18 20.72-2.38 32.51 2.06 34.91 5.76 3.12 20.41-13.9 22.56-16.43 4.7-5.46 8.31-9.65 10.26-16.43.24-.82 5.25-19.01-4.11-26.69-7.65-6.31-23.44-4.29-34.87 8.21"/><path fill="url(#c)" d="M1891.05 1100.87c-8.35 4.97-7.92 17.4-4.1 24.65 2.81 5.36 9.54 11.8 16.41 10.26 6.77-1.52 9.46-9.81 10.26-12.32.8-2.48 3.73-11.58-2.06-18.48-4.82-5.77-14.03-7.97-20.51-4.11"/><path fill="url(#d)" d="M2200.79 1334.97c-9.72 1.67-16.67 22.06-10.25 34.91.76 1.52 4.57 9.14 12.31 10.27 7.87 1.15 13.66-5.34 14.35-6.16 5.4-6.28 4.39-14.21 4.11-16.43-1.52-11.85-12.21-24-20.52-22.59"/><path fill="url(#e)" d="M2467.46 1226.14c-13.09 11.27-4.47 52.38 16.41 57.5 10.65 2.6 25.42-3.91 30.77-16.43 7-16.39-7.03-31.65-8.2-32.86-10.9-11.44-30.36-15.63-38.98-8.21"/><path fill="url(#f)" d="M2147.46 1628.62c-17.15 10.39-17.72 44.46 0 57.5 12.95 9.53 35.02 7.37 43.08-4.11 5.39-7.7 3.55-18.21 2.05-26.69-1.27-7.25-2.54-14.52-8.21-20.54-9.04-9.63-26.09-12.73-36.92-6.16"/><path fill="url(#g)" d="M1876.69 1599.87c-6.29 5.36 1.25 32.63 20.52 45.18 17.12 11.15 42.05 9.71 45.12 2.05 4.07-10.06-29.43-31.43-34.87-34.9-12.12-7.75-25.86-16.51-30.77-12.33"/><path fill="url(#h)" d="M1359.77 1628.62c-11.34 11.46-6.93 35.88 6.15 41.07 9.6 3.82 23.55-2.81 28.72-14.37 4.62-10.33 2.28-24.81-8.2-30.8-8.91-5.1-20.41-2.22-26.67 4.1"/><defs><radialGradient id="a" cx="0" cy="0" r="1" gradientTransform="matrix(0 24.5937 -26.5445 0 1545.52 1004.41)" gradientUnits="userSpaceOnUse"><stop stop-color="#38D175" stop-opacity=".3"/><stop offset="1" stop-color="#38D175" stop-opacity="0"/></radialGradient><radialGradient id="b" cx="0" cy="0" r="1" gradientTransform="matrix(0 31.7029 -20.2654 0 1864.14 1225.62)" gradientUnits="userSpaceOnUse"><stop stop-color="#38D175" stop-opacity=".3"/><stop offset="1" stop-color="#38D175" stop-opacity="0"/></radialGradient><radialGradient id="c" cx="0" cy="0" r="1" gradientTransform="matrix(0 18.5379 -15.3688 0 1899.7 1117.48)" gradientUnits="userSpaceOnUse"><stop stop-color="#38D175" stop-opacity=".3"/><stop offset="1" stop-color="#38D175" stop-opacity="0"/></radialGradient><radialGradient id="d" cx="0" cy="0" r="1" gradientTransform="matrix(0 22.713 -16.7584 0 2204.81 1357.57)" gradientUnits="userSpaceOnUse"><stop stop-color="#38D175" stop-opacity=".3"/><stop offset="1" stop-color="#38D175" stop-opacity="0"/></radialGradient><radialGradient id="e" cx="0" cy="0" r="1" gradientTransform="matrix(0 30.8879 -27.6658 0 2488.92 1253.32)" gradientUnits="userSpaceOnUse"><stop stop-color="#38D175" stop-opacity=".3"/><stop offset="1" stop-color="#38D175" stop-opacity="0"/></radialGradient><radialGradient id="f" cx="0" cy="0" r="1" gradientTransform="matrix(0 33.4897 -29.8828 0 2164.27 1658.63)" gradientUnits="userSpaceOnUse"><stop stop-color="#38D175" stop-opacity=".3"/><stop offset="1" stop-color="#38D175" stop-opacity="0"/></radialGradient><radialGradient id="g" cx="0" cy="0" r="1" gradientTransform="matrix(0 27.1718 -34.0778 0 1908.6 1625.96)" gradientUnits="userSpaceOnUse"><stop stop-color="#38D175" stop-opacity=".3"/><stop offset="1" stop-color="#38D175" stop-opacity="0"/></radialGradient><radialGradient id="h" cx="0" cy="0" r="1" gradientTransform="matrix(0 24.4368 -21.8159 0 1375.08 1646.34)" gradientUnits="userSpaceOnUse"><stop stop-color="#38D175" stop-opacity=".3"/><stop offset="1" stop-color="#38D175" stop-opacity="0"/></radialGradient></defs></svg>