<svg xmlns="http://www.w3.org/2000/svg" width="4018" height="2672" fill="none" viewBox="0 0 4018 2672"><g clip-path="url(#a)"><path fill="url(#b)" d="M1726.95 1244.62c20.57-63.49 101.89-91.81 137.43-71.87 11.2 6.28 5.81 10.59 36.93 43.12 11.42 11.95 24.96 24.74 26.66 43.12.41 4.4.11 8.75 0 10.27-.96 13.35-5.43 23.82-10.25 32.86-18.32 34.29-27.49 51.44-47.18 63.66-27.04 16.77-67.67 21.06-100.51 2.05-43.33-25.07-56.68-81.22-43.08-123.21"/><path fill="url(#c)" d="M2202.85 985.879c4.88-16.182 22.54-71.688 80-106.782 56.51-34.54 112.92-25.751 131.28-22.588 13.95 2.402 41.04 8.645 69.74 26.695 23.45 14.744 54.07 34.006 61.54 67.765 9.33 42.179-23.51 79.721-32.82 90.351-30.63 35.02-69.07 44.38-131.28 59.55-61.52 15.02-95.67 10.81-110.77 8.22-25.44-4.35-50.32-8.61-65.64-28.75-21.85-28.73-9.38-70.17-2.05-94.461"/><path fill="url(#d)" d="M1356.98 1449.97c68.02-44.54 142.24-27.5 153.85-24.64 48.94 12.07 78.7 39.65 104.61 63.66 40.25 37.31 91.55 84.85 86.16 143.74-6.28 68.44-85.58 113.15-139.49 127.32-86.32 22.69-183.65-12.86-233.85-84.2-6.89-9.79-61.89-90.43-28.72-164.28 15.27-33.98 42.65-51.91 57.44-61.6"/></g><defs><radialGradient id="b" cx="0" cy="0" r="1" gradientTransform="matrix(0 106.941 -103.166 0 1825.02 1273.39)" gradientUnits="userSpaceOnUse"><stop stop-color="#38D175" stop-opacity=".3"/><stop offset="1" stop-color="#38D175" stop-opacity="0"/></radialGradient><radialGradient id="c" cx="0" cy="0" r="1" gradientTransform="matrix(0 129.263 -177.227 0 2369.84 982.408)" gradientUnits="userSpaceOnUse"><stop stop-color="#38D175" stop-opacity=".3"/><stop offset="1" stop-color="#38D175" stop-opacity="0"/></radialGradient><radialGradient id="d" cx="0" cy="0" r="1" gradientTransform="scale(206.499 173.549)rotate(90 -.97 8.211)" gradientUnits="userSpaceOnUse"><stop stop-color="#38D175" stop-opacity=".3"/><stop offset="1" stop-color="#38D175" stop-opacity="0"/></radialGradient><clipPath id="a"><path fill="#fff" d="M1289 837h1440v998H1289z"/></clipPath></defs></svg>