<svg xmlns="http://www.w3.org/2000/svg" width="4018" height="2672" fill="none" viewBox="0 0 4018 2672"><path fill="url(#a)" d="M1740.28 1108.06c-2.66 5.42 5.23 14.62 12.31 18.48 1.99 1.09 4.72 2.53 8.2 2.06 4.99-.68 9.91-5.08 10.26-10.27.49-7.37-8.57-11.54-10.26-12.32-7.26-3.35-18.05-2.96-20.51 2.05"/><path fill="url(#b)" d="M1766.95 1401.71c-1.05 3.68.45 8.24 4.1 10.27 2.38 1.33 5.58 1.52 8.21 0 4.1-2.38 4.1-7.41 4.1-8.21 0-.42-.08-6.19-4.1-8.22-4.25-2.13-10.81.95-12.31 6.16"/><defs><radialGradient id="a" cx="0" cy="0" r="1" gradientTransform="matrix(0 12.4278 -15.6595 0 1755.41 1116.26)" gradientUnits="userSpaceOnUse"><stop stop-color="#F95C65" stop-opacity=".3"/><stop offset="1" stop-color="#F95C65" stop-opacity="0"/></radialGradient><radialGradient id="b" cx="0" cy="0" r="1" gradientTransform="matrix(0 9.09224 -8.36822 0 1774.99 1403.96)" gradientUnits="userSpaceOnUse"><stop stop-color="#F95C65" stop-opacity=".3"/><stop offset="1" stop-color="#F95C65" stop-opacity="0"/></radialGradient></defs></svg>