<svg xmlns="http://www.w3.org/2000/svg" width="4018" height="2672" fill="none" viewBox="0 0 4018 2672"><path fill="url(#a)" d="M1461.31 1436.62c-.21 1.56-.58 5.96 2.05 10.27.86 1.44 3.84 6.3 8.2 6.16 4.37-.14 8.21-5.22 8.21-10.27 0-4.64-3.28-9.3-8.21-10.27-3.79-.73-7.77.87-10.25 4.11"/><path fill="url(#b)" d="M1369 1565.99c-4.82 6.66-.04 19.39 6.15 20.54 3.94.72 7.59-3.41 8.21-4.11 3.59-4.07 4.02-9.96 2.05-14.37-.57-1.28-2.28-5.1-6.15-6.16-4.02-1.11-8.25 1.31-10.26 4.1"/><path fill="url(#c)" d="M1422.33 1697.42c1.58 5.23 7.84 9.71 12.31 8.21 3.59-1.19 4.66-5.79 6.16-12.32 1.29-5.65 2.35-10.27 0-12.32-3.14-2.73-10.53.65-14.36 4.1-1.15 1.05-3.22 2.94-4.11 6.16-.26.97-.82 3.48 0 6.17"/><path fill="url(#d)" d="M2460.28 1255.91c-3.01-.18-6.83 1.15-8.2 4.11-2.34 5.07 3.57 12.49 8.2 12.32 1.71-.06 3-1.13 4.11-2.05.92-.78 4.88-4.05 4.1-8.22-.7-3.71-4.76-5.95-8.21-6.16"/><defs><radialGradient id="a" cx="0" cy="0" r="1" gradientTransform="matrix(0 10.358 -9.30276 0 1470.47 1442.69)" gradientUnits="userSpaceOnUse"><stop stop-color="#F95C65" stop-opacity=".3"/><stop offset="1" stop-color="#F95C65" stop-opacity="0"/></radialGradient><radialGradient id="b" cx="0" cy="0" r="1" gradientTransform="matrix(0 12.5003 -9.77298 0 1376.8 1574.11)" gradientUnits="userSpaceOnUse"><stop stop-color="#F95C65" stop-opacity=".3"/><stop offset="1" stop-color="#F95C65" stop-opacity="0"/></radialGradient><radialGradient id="c" cx="0" cy="0" r="1" gradientTransform="matrix(0 12.9656 -10.1451 0 1432.05 1692.96)" gradientUnits="userSpaceOnUse"><stop stop-color="#F95C65" stop-opacity=".3"/><stop offset="1" stop-color="#F95C65" stop-opacity="0"/></radialGradient><radialGradient id="d" cx="0" cy="0" r="1" gradientTransform="matrix(0 8.22375 -8.51988 0 2460.07 1264.12)" gradientUnits="userSpaceOnUse"><stop stop-color="#F95C65" stop-opacity=".3"/><stop offset="1" stop-color="#F95C65" stop-opacity="0"/></radialGradient></defs></svg>