<svg xmlns="http://www.w3.org/2000/svg" width="4018" height="2672" fill="none" viewBox="0 0 4018 2672"><path fill="url(#a)" d="M1836.69 1167.61c-3.46 4.75-.39 11.52 0 12.32.76 1.61 2.57 5.43 6.16 6.16 5.31 1.11 9.78-5.48 10.25-6.16.45-.67 5.01-7.55 2.05-12.32-3.28-5.29-14.33-5.62-18.46 0"/><path fill="url(#b)" d="M1730.03 1188.15c-.54 5.05 3.42 9.81 8.2 10.27 3.3.3 6.46-1.48 8.21-4.11 2.05-3.08 2.05-7.19 0-10.27-1.73-2.59-4.84-4.39-8.21-4.11-4.31.37-7.75 4.05-8.2 8.22"/><path fill="url(#c)" d="M1996.69 1227.16c-1.11 5.36 5.38 10.74 10.26 10.27.29 0 2.52-.29 4.1-2.05 2.61-2.92 1.4-7.68 0-10.27-.65-1.21-1.8-3.33-4.1-4.11-3.92-1.31-9.38 1.89-10.26 6.16"/><path fill="url(#d)" d="M1762.85 1393.5c-3.8 3.82-6.18 10.18-4.11 12.32 1.67 1.7 5.71.16 6.16 0 3.38-1.3 5.02-4.13 6.15-6.16 1.33-2.38 4.08-8.5 2.05-10.27-1.86-1.62-7.14.97-10.25 4.11"/><path fill="url(#e)" d="M1851.05 1703.58c-3.04 3.73-3.71 10.06 0 14.37 3.73 4.35 10.09 4.56 14.36 2.05 5.66-3.32 7.65-11.45 4.1-16.42-4.02-5.65-13.95-5.55-18.46 0"/><path fill="url(#f)" d="M2023.36 1693.31c-.72 3.49.53 8.07 4.1 10.27 4.35 2.67 9.64.22 12.31-2.06.53-.47 5.21-4.6 4.1-10.26-.1-.54-.9-4.38-4.1-6.17-5.37-2.99-14.97 1.32-16.41 8.22"/><path fill="url(#g)" d="M1777.21 1524.92c-1.19 2.88-.37 6.96 2.05 8.22 1.29.67 2.68.32 4.1 0 1.58-.37 4.82-1.15 6.15-4.11 1.23-2.75.45-6.57-2.05-8.22-3.38-2.23-8.72.35-10.25 4.11"/><defs><radialGradient id="a" cx="0" cy="0" r="1" gradientTransform="matrix(0 11.3523 -10.5413 0 1845.6 1174.87)" gradientUnits="userSpaceOnUse"><stop stop-color="#38D175" stop-opacity=".3"/><stop offset="1" stop-color="#38D175" stop-opacity="0"/></radialGradient><radialGradient id="b" cx="0" cy="0" r="1" gradientTransform="matrix(0 9.273 -8.9985 0 1738.98 1189.18)" gradientUnits="userSpaceOnUse"><stop stop-color="#38D175" stop-opacity=".3"/><stop offset="1" stop-color="#38D175" stop-opacity="0"/></radialGradient><radialGradient id="c" cx="0" cy="0" r="1" gradientTransform="matrix(0 8.37766 -8.00848 0 2004.58 1229.08)" gradientUnits="userSpaceOnUse"><stop stop-color="#38D175" stop-opacity=".3"/><stop offset="1" stop-color="#38D175" stop-opacity="0"/></radialGradient><radialGradient id="d" cx="0" cy="0" r="1" gradientTransform="matrix(0 8.86117 -7.9249 0 1765.9 1397.75)" gradientUnits="userSpaceOnUse"><stop stop-color="#38D175" stop-opacity=".3"/><stop offset="1" stop-color="#38D175" stop-opacity="0"/></radialGradient><radialGradient id="e" cx="0" cy="0" r="1" gradientTransform="matrix(0 11.1204 -11.3855 0 1859.9 1710.5)" gradientUnits="userSpaceOnUse"><stop stop-color="#38D175" stop-opacity=".3"/><stop offset="1" stop-color="#38D175" stop-opacity="0"/></radialGradient><radialGradient id="f" cx="0" cy="0" r="1" gradientTransform="matrix(0 10.3074 -10.4381 0 2033.6 1694.43)" gradientUnits="userSpaceOnUse"><stop stop-color="#38D175" stop-opacity=".3"/><stop offset="1" stop-color="#38D175" stop-opacity="0"/></radialGradient><radialGradient id="g" cx="0" cy="0" r="1" gradientTransform="matrix(0 6.77033 -6.7103 0 1783.38 1526.75)" gradientUnits="userSpaceOnUse"><stop stop-color="#38D175" stop-opacity=".3"/><stop offset="1" stop-color="#38D175" stop-opacity="0"/></radialGradient></defs></svg>