<svg xmlns="http://www.w3.org/2000/svg" width="4018" height="2672" fill="none" viewBox="0 0 4018 2672"><path fill="url(#a)" d="M1851.05 1128.6c-2.36 1.97-2.23 7.22 0 10.26 1.91 2.59 6.05 3.1 14.36 4.11 1.03.12 4.16.49 8.21 0 3.36-.41 5.21-.66 6.15-2.05 1.44-2.12.27-6.06-2.05-8.22-2.59-2.4-5.15-1.19-12.31-2.05-9.23-1.11-12.04-3.98-14.36-2.05"/><path fill="url(#b)" d="M1807.97 1260.02c-2.4 2.2-2.97 5.57-4.1 12.32-.9 5.34-1.31 8.05 0 10.27 1.6 2.69 5.15 4.85 8.21 4.11 4.59-1.11 5.8-8.22 6.15-10.27.47-2.77-.12-2.88 0-8.22.16-7.2 1.31-8.97 0-10.26-1.93-1.89-7.16-.76-10.26 2.05"/><path fill="url(#c)" d="M1723.87 1352.43c-2.6 2.65-3.18 5.56-4.1 10.27-.97 4.84-1.64 8.33 0 12.32.41.98 2.62 6.07 8.2 8.21 5.97 2.3 12.6 0 16.41-4.11 3.98-4.27 4.07-9.61 4.11-12.32.04-2.46.45-12.07-6.16-16.43-3.3-2.17-6.87-2.09-8.2-2.05-1.11 0-6.38.17-10.26 4.11"/><defs><radialGradient id="a" cx="0" cy="0" r="1" gradientTransform="matrix(0 7.63694 -15.5348 0 1864.86 1135.58)" gradientUnits="userSpaceOnUse"><stop stop-color="#38D175" stop-opacity=".3"/><stop offset="1" stop-color="#38D175" stop-opacity="0"/></radialGradient><radialGradient id="b" cx="0" cy="0" r="1" gradientTransform="matrix(0 14.9142 -7.90922 0 1810.94 1271.95)" gradientUnits="userSpaceOnUse"><stop stop-color="#38D175" stop-opacity=".3"/><stop offset="1" stop-color="#38D175" stop-opacity="0"/></radialGradient><radialGradient id="c" cx="0" cy="0" r="1" gradientTransform="matrix(0 17.9175 -14.8648 0 1733.64 1366.23)" gradientUnits="userSpaceOnUse"><stop stop-color="#38D175" stop-opacity=".3"/><stop offset="1" stop-color="#38D175" stop-opacity="0"/></radialGradient></defs></svg>