<svg xmlns="http://www.w3.org/2000/svg" width="4018" height="2672" fill="none" viewBox="0 0 4018 2672"><path fill="url(#a)" d="M2004.9 1227.16c-9.01.05-29.81.15-38.98 14.38-9.49 14.72-2.01 37.54 10.26 49.28 25.62 24.54 81.62 10 88.21-12.32 4.71-15.99-16.25-35.01-18.47-36.96-16.02-14.21-34.79-14.42-41.02-14.38"/><path fill="url(#b)" d="M2140.28 1565.99c-37.84 12.82-46.13 26.76-49.23 34.91-5.54 14.6-3.83 35.47 8.21 47.23 16.02 15.67 36.76 1.91 106.66-2.05 44.13-2.51 56.84 1.81 69.75-10.27 15.98-14.95 21.37-44.85 10.25-63.66-26.77-45.28-138.68-8.5-145.64-6.16"/><path fill="url(#c)" d="M1721.82 1494.12c-10.79.86-18.28 4.7-32.82 12.32-20.25 10.62-46.87 24.58-45.13 39.02 1.07 8.91 12.52 14.54 20.52 18.48 15.28 7.51 21.68 3.28 41.02 8.21 25.76 6.57 30.05 18.09 41.03 14.38 10.58-3.6 14.87-17.15 20.51-34.91 5.5-17.36 8.59-27.11 4.1-36.97-7.92-17.37-33.35-21.8-49.23-20.53"/><path fill="url(#d)" d="M2107.46 1732.32c-13.52-.61-16.43 3.27-55.38 18.49-50.16 19.59-64.23 20.53-69.75 34.91-4.14 10.8-2.11 25.71 6.16 34.91 14.01 15.6 34.32 1.78 90.25 6.16 29.54 2.3 39.59 7.39 61.54 2.05 11.24-2.73 33.38-8.11 38.98-24.64 5.41-15.98-7.88-32.86-14.36-41.07-2.61-3.31-23.72-29.26-57.44-30.81"/><defs><radialGradient id="a" cx="0" cy="0" r="1" gradientTransform="matrix(0 38.218 -51.7258 0 2013.35 1265.38)" gradientUnits="userSpaceOnUse"><stop stop-color="#F95C65" stop-opacity=".3"/><stop offset="1" stop-color="#F95C65" stop-opacity="0"/></radialGradient><radialGradient id="b" cx="0" cy="0" r="1" gradientTransform="scale(101.879 52.8821)rotate(90 -4.405 25.9)" gradientUnits="userSpaceOnUse"><stop stop-color="#F95C65" stop-opacity=".3"/><stop offset="1" stop-color="#F95C65" stop-opacity="0"/></radialGradient><radialGradient id="c" cx="0" cy="0" r="1" gradientTransform="matrix(0 46.6666 -64.7078 0 1708.5 1540.58)" gradientUnits="userSpaceOnUse"><stop stop-color="#F95C65" stop-opacity=".3"/><stop offset="1" stop-color="#F95C65" stop-opacity="0"/></radialGradient><radialGradient id="d" cx="0" cy="0" r="1" gradientTransform="matrix(0 49.465 -100.137 0 2080.39 1781.73)" gradientUnits="userSpaceOnUse"><stop stop-color="#F95C65" stop-opacity=".3"/><stop offset="1" stop-color="#F95C65" stop-opacity="0"/></radialGradient></defs></svg>