<svg xmlns="http://www.w3.org/2000/svg" width="4018" height="2672" fill="none" viewBox="0 0 4018 2672"><path fill="url(#a)" d="M1920.79 1151.19c-29.1-.42-73.47-1.01-114.87 26.69-23.03 15.42-34.5 32.88-57.43 67.77-28.11 42.75-42.16 64.13-41.03 92.4 1.4 35.43 23.82 72.2 57.44 88.3 28.16 13.5 54.42 7.79 90.25 0 14.94-3.24 57.03-13.84 100.52-47.23 28.59-21.95 52.9-40.64 61.53-73.92 6.55-25.24.83-46.29-6.15-71.87-7.28-26.74-15.92-58.45-43.08-73.93-13.33-7.6-25.21-7.91-47.18-8.21"/><defs><radialGradient id="a" cx="0" cy="0" r="1" gradientTransform="matrix(0 141.696 -156.342 0 1863.74 1292.77)" gradientUnits="userSpaceOnUse"><stop stop-color="#38D175" stop-opacity=".3"/><stop offset="1" stop-color="#38D175" stop-opacity="0"/></radialGradient></defs></svg>