<svg xmlns="http://www.w3.org/2000/svg" width="4018" height="2672" fill="none" viewBox="0 0 4018 2672"><g clip-path="url(#a)"><path fill="url(#b)" d="M1635.66 1570.1c-1.68-.53-7.95-2.47-16.41-4.11-12.36-2.4-15.87-1.52-18.46 0-.67.39-5.37 3.29-6.15 8.22-.92 5.81 4.2 10.67 10.26 16.42 9.78 9.29 19.63 13.27 22.56 14.38 7.98 3.02 14.42 3.69 18.46 4.11 8.47.84 14.54 1.43 20.51-2.06 1.52-.9 7.74-4.54 8.21-10.27.49-5.97-5.52-10.67-10.26-14.37-6.97-5.46-14.32-7.82-28.72-12.32"/><path fill="url(#c)" d="M1816.18 1650.19c-19.53-10.64-41.29 1.06-43.08 2.05-19.55 10.9-23.94 31.44-24.61 34.91-1.42 7.25 1.78 19.2 8.2 43.12 3.92 14.6 6.4 20.7 12.31 24.64 3.45 2.3 5.72 2.3 18.46 4.11 26.48 3.76 25.91 5.09 30.77 4.11 11.24-2.28 22.71-11.07 26.67-22.59 1.39-4.05 1.13-6.3-2.05-28.75-4.05-28.6-4.43-30.74-6.16-34.91-3.32-8.07-8.26-20.02-20.51-26.69"/><path fill="url(#d)" d="M2220.28 1557.78c-7.28-4.79-19.57-12.71-36.92-16.43-7.59-1.62-35.59-7.64-63.59 8.21-6.62 3.76-37.23 22.3-41.02 57.5-.68 6.31-2.51 31.69 14.35 49.29 8.35 8.7 22.1 12.09 49.23 18.48 27.66 6.51 41.5 9.77 59.49 8.21 16.74-1.46 36.19-3.14 51.28-18.48 2.1-2.14 18.88-19.71 16.41-43.12-1.35-12.8-7.77-21.11-18.46-34.91-12.59-16.29-25.78-25.47-30.77-28.75"/><path fill="url(#e)" d="M1869.51 1155.29c-1.82.04-4.47.21-7.61.68-2.97.45-23.65 3.92-37.52 19.86-13.64 15.69-20.65 43.41-8.2 61.6 8.51 12.43 23.14 16.08 32.82 18.48 12.24 3.04 21.45 2 38.97 0 21.03-2.4 31.55-3.59 38.98-10.26 15.5-13.95 12.53-37.42 12.3-39.02-2.56-18.11-15.3-28.81-22.56-34.91-10.11-8.5-20.37-12.46-26.67-14.37"/><path fill="url(#f)" d="M1717.72 1165.56c-23.3 1.56-40.9 7.04-55.39 14.37-12.41 6.29-15.16 10.19-16.41 12.33-9.68 16.59 5.17 39.59 6.16 41.07 11.4 17.18 29.72 22.13 38.97 24.64 10.75 2.91 29.17 7.88 47.18-2.06 17.46-9.63 23.37-27.1 24.62-30.8 4.02-11.89 2.95-22.14 2.05-30.8-1.19-11.5-1.83-17.62-6.16-22.59-7.3-8.42-19.89-7.58-41.02-6.16"/><path fill="url(#g)" d="M1865.41 837.431c-30.95.78-34.54.698-38.97 4.107-10.57 8.152-10.32 24.375-10.26 28.749.27 18.03 11.47 34.704 26.67 43.123 17.06 9.467 34.05 5.668 41.02 4.107 7.02-1.56 29.69-6.632 38.98-26.695 1.19-2.567 7.1-15.299 2.05-28.749-7.1-18.954-30.05-23.656-34.87-24.642-3.08-.637-3.94-.534-24.62 0"/></g><defs><radialGradient id="b" cx="0" cy="0" r="1" gradientTransform="matrix(0 22.6296 -40.0682 0 1634.6 1587.13)" gradientUnits="userSpaceOnUse"><stop stop-color="#38D175" stop-opacity=".3"/><stop offset="1" stop-color="#38D175" stop-opacity="0"/></radialGradient><radialGradient id="c" cx="0" cy="0" r="1" gradientTransform="matrix(0 58.8459 -48.7718 0 1796.93 1704.59)" gradientUnits="userSpaceOnUse"><stop stop-color="#38D175" stop-opacity=".3"/><stop offset="1" stop-color="#38D175" stop-opacity="0"/></radialGradient><radialGradient id="d" cx="0" cy="0" r="1" gradientTransform="scale(95.7141 72.2749)rotate(90 .211 22.503)" gradientUnits="userSpaceOnUse"><stop stop-color="#38D175" stop-opacity=".3"/><stop offset="1" stop-color="#38D175" stop-opacity="0"/></radialGradient><radialGradient id="e" cx="0" cy="0" r="1" gradientTransform="scale(64.9638 51.264)rotate(90 2.66 26.197)" gradientUnits="userSpaceOnUse"><stop stop-color="#38D175" stop-opacity=".3"/><stop offset="1" stop-color="#38D175" stop-opacity="0"/></radialGradient><radialGradient id="f" cx="0" cy="0" r="1" gradientTransform="matrix(0 48.5825 -61.5386 0 1704.2 1213.24)" gradientUnits="userSpaceOnUse"><stop stop-color="#38D175" stop-opacity=".3"/><stop offset="1" stop-color="#38D175" stop-opacity="0"/></radialGradient><radialGradient id="g" cx="0" cy="0" r="1" gradientTransform="matrix(0 41.3044 -55.3699 0 1871.54 878.296)" gradientUnits="userSpaceOnUse"><stop stop-color="#38D175" stop-opacity=".3"/><stop offset="1" stop-color="#38D175" stop-opacity="0"/></radialGradient><clipPath id="a"><path fill="#fff" d="M1289 837h1440v998H1289z"/></clipPath></defs></svg>