<svg xmlns="http://www.w3.org/2000/svg" width="4018" height="2672" fill="none" viewBox="0 0 4018 2672"><path fill="url(#a)" d="M2047.74 1384.6c-.35-1.3-1.64-6.86 4.1-16.43 4.93-8.19 10.88-12.42 22.57-20.54 23.53-16.32 22.4-15.32 26.67-18.48 13.7-10.1 14.17-12.09 26.66-20.53 6.94-4.68 15.28-9.8 26.67-12.32 7.83-1.75 11.65-1.05 14.36 0 6.54 2.5 9.97 8.27 12.31 12.32 4.16 7.23 5.12 13.43 6.15 18.48 3.96 19.67 8.2 19.43 14.36 45.18 3.63 15.21 3.12 19.28 2.05 22.58-1.23 3.87-3.14 6.51-16.41 18.49-18.87 17.02-26.42 21.97-30.77 24.64-10.67 6.55-15.49 7.72-18.46 8.21-3.34.56-11.57 1.48-20.51-2.05-5.85-2.32-7.59-4.81-16.41-12.32-8.87-7.56-6.61-4.62-26.67-20.54-.33-.24.08.06-18.46-16.43-4.64-4.12-7.14-6.34-8.21-10.26"/><path fill="url(#b)" d="M2416.98 1897.97c-1.36-6.94-1.01-12.11 0-22.59 1.7-17.72 2.58-26.67 4.1-30.8 1.35-3.7 5-9.32 12.31-20.53 12.88-19.82 16.51-22.78 20.51-24.65 4.98-2.32 8.43-1.99 18.46-2.05 24.23-.12 22.44-2.16 41.03-2.05 10.33.06 21.92 1.41 45.12 4.1 43.08 5.01 48.21 7.52 59.49 6.16 4.08-.49 12.35-1.88 22.57 0 3.3.62 5.02 1.24 10.25 2.06 10.24 1.6 11.49.43 14.36 2.05 3.63 2.05 4.43 5.55 8.21 18.48 5.6 19.22 5 15.57 6.15 20.54 1.93 8.4 4.18 18.13 4.1 30.8s-.14 24.5-8.2 34.91c-4.43 5.71-9.62 8.85-12.31 10.27-11.96 6.26-19.47 1.91-45.13 2.05-3.03 0-12.96.7-32.82 2.05-21.29 1.46-20.45 1.65-28.72 2.06-14.85.76-28.35 1.44-45.13 0-15.4-1.32-10.85-2.49-38.97-6.16-11.04-1.44-21.81-4.56-32.82-6.16-6.05-.89-11.84-1.56-16.41-6.16-4.08-4.11-5.17-9.29-6.15-14.38"/><path fill="url(#c)" d="M2244.67 2004.75c-6.53 1.09-11.26 4.85-20.52 12.32-8.18 6.62-12.28 9.92-14.35 14.38-2.86 6.12-2.57 11.91-2.06 22.59.33 6.57.5 9.92 2.06 14.37 1.06 3.04 4.37 12.45 12.3 16.43 3.29 1.64 6.26 1.83 24.62-2.05 24.22-5.12 27.79-7.25 30.77-10.27 4.57-4.62 6.09-9.59 8.2-16.43 2.88-9.32 7.26-23.57 0-34.91-5.58-8.73-15.46-11.66-24.61-14.37-5.64-1.69-10.34-3.06-16.41-2.06"/><defs><radialGradient id="a" cx="0" cy="0" r="1" gradientTransform="matrix(0 75.7526 -78.527 0 2125.9 1370.99)" gradientUnits="userSpaceOnUse"><stop stop-color="#38D175" stop-opacity=".3"/><stop offset="1" stop-color="#38D175" stop-opacity="0"/></radialGradient><radialGradient id="b" cx="0" cy="0" r="1" gradientTransform="matrix(0 68.1887 -133.779 0 2549.87 1863.48)" gradientUnits="userSpaceOnUse"><stop stop-color="#38D175" stop-opacity=".3"/><stop offset="1" stop-color="#38D175" stop-opacity="0"/></radialGradient><radialGradient id="c" cx="0" cy="0" r="1" gradientTransform="matrix(0 40.7669 -41.1218 0 2248.54 2045.18)" gradientUnits="userSpaceOnUse"><stop stop-color="#38D175" stop-opacity=".3"/><stop offset="1" stop-color="#38D175" stop-opacity="0"/></radialGradient></defs></svg>