<svg xmlns="http://www.w3.org/2000/svg" width="4018" height="2672" fill="none" viewBox="0 0 4018 2672"><path fill="url(#a)" d="M1317.72 1214.84c19.38-14.86 47.18-18.48 47.18-18.48s23.69-11.76 43.07-8.21c11.33 2.07 10.28 7.37 30.77 20.53 25.34 16.29 34.46 13.02 45.13 26.7 2.26 2.87 11.88 15.24 10.26 30.8-1.44 13.62-10.77 23.04-20.52 32.86-3.28 3.3-10.05 10.04-20.51 16.42-13.78 8.4-21.91 8.83-28.72 18.49-4.39 6.22-2.27 7.84-6.15 12.32-1.95 2.26-8.66 9.01-38.97 8.21-20.74-.55-31.12-.82-41.03-6.16-12-6.47-17.74-15.54-28.72-32.86-6.89-10.88-13.99-22.32-16.41-39.01-.76-5.26-1.82-12.98 0-22.59 4.39-23.08 21.56-36.68 24.62-39.02"/><path fill="url(#b)" d="M1297.21 1487.96c2.6-7.41 8.06-22.32 22.56-34.91 20.94-18.17 49.13-21.48 69.74-16.43 7.65 1.87 14.67 5.36 28.72 12.32 9.42 4.66 19.45 9.72 30.77 18.48 12.37 9.59 19.04 14.77 22.56 24.65 4.37 12.26.99 23.57 0 26.69-2.68 8.56-6.64 11.85-16.41 24.64-15.59 20.46-11.77 20.35-18.46 26.7-20.2 19.2-51.75 16.98-59.48 16.43-7.76-.56-14.75-2.43-28.72-6.16-24.21-6.49-31.65-11.83-34.87-14.38-3.88-3.06-9.73-8.5-14.36-16.43-14.81-25.34-4.54-54.56-2.05-61.6"/><path fill="url(#c)" d="M2396.69 1054.67c-9.41.95-24.9 2.53-38.97 14.38-3.2 2.69-11.76 10.06-16.41 22.58-1.69 4.54-2.51 8.75-2.05 30.81.1 4.97.53 23.2 4.1 49.28 1.6 11.66 2.87 18.03 8.2 22.59 3.22 2.75 7.65 3.92 16.41 6.16 11.57 2.96 17.34 4.43 22.57 4.11 12.53-.78 12.57-7.23 28.72-10.27 10.07-1.89 14.01-.15 18.46-4.11 3.42-3.06 4.06-6.71 6.15-16.43 1.62-7.47 3.96-18.42 6.15-26.69 2.77-10.52 4.62-14.21 8.21-28.75 1.44-5.79 2.15-8.73 2.05-10.27-.63-10.55-9.64-13.28-16.41-26.69-5.41-10.7-1.6-12.78-6.15-18.49-9.13-11.43-29.4-9.38-41.03-8.21"/><path fill="url(#d)" d="M2210.03 1555.72c-26.2-.55-30.1-.76-36.93-2.05-17.78-3.37-21.13-7.64-34.87-8.21-18.46-.78-32.63 6.08-36.92 8.21-11.41 5.69-19.39 14.83-34.87 32.86-18.57 21.62-27.9 32.69-30.77 45.17-.91 3.95-6.2 26.99 6.15 43.13 5.09 6.65 7.78 5.07 26.67 18.48 14.44 10.25 15.16 12.79 26.66 20.53 7.29 4.91 17.19 11.57 30.77 16.43 19.14 6.86 35.55 6.55 57.44 6.16 12.35-.22 18.54-.33 24.61-2.05 18.79-5.32 20.15-15.32 38.98-24.64 20.2-10 25.35-1.83 43.08-12.32 5.35-3.19 20.43-12.41 26.66-30.81.99-2.87 7.8-23-2.05-36.96-5.62-7.97-10.93-5.81-16.41-14.37-5.99-9.39-2.05-15.82-6.15-28.75-.29-.87-4.66-14.19-14.36-22.59-8.56-7.39-16.8-7.13-67.69-8.22"/><path fill="url(#e)" d="M2359.77 1835c.78-.14 1.6-.35 2.46-.62 1.95-.63 4.02-1.7 5.74-3.49 7.14-7.35 3.96-22.38-2.05-30.8-5.68-7.97-13.88-10.04-32.82-14.37-40.26-9.22-60.59-13.8-69.74-12.32-21.31 3.42-36.1 13.59-43.08 18.48-13.6 9.55-30.99 19.77-34.32 38.03-.39 2.13-.51 3.92-.55 5.09z"/><path fill="url(#f)" d="M2476.69 1752.86c15.92-25.22 44-34.03 53.33-36.96 28.68-9.02 53.13-4.54 77.95 0 13.21 2.42 25.87 4.82 41.03 12.32 13.35 6.61 11.65 8.77 38.97 26.69.62.39 7.27 4.77 14.36 12.32 5.27 5.63 7.92 8.51 8.21 12.33.53 7.22-6.98 9.13-8.21 18.48-.96 7.27 3.12 9.63 2.05 14.37-2.23 9.92-23.07 13.23-30.77 14.38-44.26 6.59-77.94 6.16-77.94 6.16-42.86-.56-59.31-2.1-73.85-4.11-39.26-5.44-48.98-12.18-53.33-20.54-5.03-9.67-3.1-21.97-2.05-28.74 2.11-13.6 7.89-22.98 10.25-26.7"/><defs><radialGradient id="a" cx="0" cy="0" r="1" gradientTransform="matrix(0 83.5336 -101.108 0 1393.2 1271.01)" gradientUnits="userSpaceOnUse"><stop stop-color="#F95C65" stop-opacity=".3"/><stop offset="1" stop-color="#F95C65" stop-opacity="0"/></radialGradient><radialGradient id="b" cx="0" cy="0" r="1" gradientTransform="matrix(0 76.2046 -91.1612 0 1382.58 1510.69)" gradientUnits="userSpaceOnUse"><stop stop-color="#F95C65" stop-opacity=".3"/><stop offset="1" stop-color="#F95C65" stop-opacity="0"/></radialGradient><radialGradient id="c" cx="0" cy="0" r="1" gradientTransform="matrix(0 75.4439 -60.5789 0 2399.71 1129.18)" gradientUnits="userSpaceOnUse"><stop stop-color="#F95C65" stop-opacity=".3"/><stop offset="1" stop-color="#F95C65" stop-opacity="0"/></radialGradient><radialGradient id="d" cx="0" cy="0" r="1" gradientTransform="matrix(0 95.6035 -143.066 0 2176.84 1641)" gradientUnits="userSpaceOnUse"><stop stop-color="#F95C65" stop-opacity=".3"/><stop offset="1" stop-color="#F95C65" stop-opacity="0"/></radialGradient><radialGradient id="e" cx="0" cy="0" r="1" gradientTransform="matrix(0 30.9391 -93.3288 0 2278.74 1804.06)" gradientUnits="userSpaceOnUse"><stop stop-color="#F95C65" stop-opacity=".3"/><stop offset="1" stop-color="#F95C65" stop-opacity="0"/></radialGradient><radialGradient id="f" cx="0" cy="0" r="1" gradientTransform="matrix(0 61.1347 -122.691 0 2587.87 1771.82)" gradientUnits="userSpaceOnUse"><stop stop-color="#F95C65" stop-opacity=".3"/><stop offset="1" stop-color="#F95C65" stop-opacity="0"/></radialGradient></defs></svg>