<svg xmlns="http://www.w3.org/2000/svg" width="4018" height="2672" fill="none" viewBox="0 0 4018 2672"><path fill="url(#a)" d="M1953.39 1156.66c-24.74.86-78.34 3.39-127.18 39.01-16.84 12.28-33.42 24.75-38.98 47.23-6.48 26.23 4.6 55.76 24.62 71.88 3.92 3.16 15.73 11.87 63.59 14.37 41.66 2.18 72.69 3.8 110.77-10.27 26.23-9.69 55.98-20.67 73.84-51.33 12-20.6 23.24-57.95 6.16-84.2-19.47-29.92-64.7-28.36-112.82-26.69"/><path fill="url(#b)" d="M2099.03 1327.1c-16.37 20.68-24.56 31.03-26.67 41.07-5.74 27.29 10.73 50.37 14.36 55.44 4.76 6.68 15.04 21.07 32.82 26.7 33.83 10.72 78.48-15.4 88.21-51.34 3.97-14.66 3.69-36.74-8.21-51.34-5.93-7.29-8.37-4.86-20.51-16.42-16.21-15.43-16.76-24.4-28.72-28.75-10.07-3.68-19.53-.89-22.56 0-7.88 2.32-14.84 7.08-28.72 24.64"/><path fill="url(#c)" d="M2236.46 1415.4c-23.86 1.33-64.31 4.11-106.67 30.8-19.56 12.34-44.34 27.93-59.48 59.55-19.67 41.07-9.66 80.58-6.16 94.46 15.53 61.34 64.48 92.1 77.95 100.63 7.84 4.94 34.01 20.67 71.8 26.69 23.96 3.82 56.26 8.95 90.25-8.21 8.23-4.17 46.55-24.79 57.44-65.71 3.77-14.22.08-35.04-8.21-75.98-8.06-39.82-12.3-60.32-22.56-88.3-13.83-37.75-21.44-56.74-41.03-67.77-14.48-8.15-27.89-7.6-53.33-6.16"/><path fill="url(#d)" d="M2074.41 1803.51c-14.46-.16-17.05-1.05-22.56 0-3.65.7-9.95 1.91-14.36 6.16-10.44 10.06-7.86 34.75 4.1 47.23 7.71 8.05 22.54 14.38 22.56 14.38-6.83-.05 13.69.28 20.52 0 13.56-.58 20.35-.85 24.61-4.11 4.9-3.74 6.69-9.34 10.26-20.54 2.17-6.81 3.24-10.31 2.05-14.37-1.11-3.78-3.26-5.11-12.31-12.32-15.34-12.22-17.84-15.3-24.61-16.43-1.81-.31-.45.1-10.26 0"/><path fill="url(#e)" d="M1752.36 1900.02c-11.94.58-19.88 4.65-34.87 12.33-21.28 10.9-33.19 16.69-36.93 28.74-1.02 3.31-.47 3.95 6.16 34.91 4.37 20.48 5.27 25.53 10.25 30.81 5.3 5.6 11.22 7.27 22.57 10.26 26.66 7.07 48.26 3.08 53.33 2.06 14.93-3 23.53-4.73 30.77-12.32 10.54-11.05 10.48-26.29 10.26-39.02-.29-15.4-.64-35.59-16.41-51.34-17.17-17.16-40.19-16.67-45.13-16.43"/><path fill="url(#f)" d="M2062.1 1994.49c-17.07-1.05-43.38 45.03-28.72 69.81 4.17 7.03 13.05 14.75 24.62 16.43 7.9 1.15 18.4-.31 24.61-6.16 19.12-18.03-1.43-78.91-20.51-80.08"/><defs><radialGradient id="a" cx="0" cy="0" r="1" gradientTransform="matrix(0 87.3386 -144.778 0 1930.16 1243.25)" gradientUnits="userSpaceOnUse"><stop stop-color="#38D175" stop-opacity=".3"/><stop offset="1" stop-color="#38D175" stop-opacity="0"/></radialGradient><radialGradient id="b" cx="0" cy="0" r="1" gradientTransform="matrix(0 76.065 -69.4427 0 2140.6 1376.67)" gradientUnits="userSpaceOnUse"><stop stop-color="#38D175" stop-opacity=".3"/><stop offset="1" stop-color="#38D175" stop-opacity="0"/></radialGradient><radialGradient id="c" cx="0" cy="0" r="1" gradientTransform="matrix(0 158.396 -152.295 0 2210.78 1572.94)" gradientUnits="userSpaceOnUse"><stop stop-color="#38D175" stop-opacity=".3"/><stop offset="1" stop-color="#38D175" stop-opacity="0"/></radialGradient><radialGradient id="d" cx="0" cy="0" r="1" gradientTransform="matrix(0 34.1944 -45.5655 0 2076.52 1837.2)" gradientUnits="userSpaceOnUse"><stop stop-color="#38D175" stop-opacity=".3"/><stop offset="1" stop-color="#38D175" stop-opacity="0"/></radialGradient><radialGradient id="e" cx="0" cy="0" r="1" gradientTransform="matrix(0 60.61 -66.8968 0 1747.06 1960.57)" gradientUnits="userSpaceOnUse"><stop stop-color="#38D175" stop-opacity=".3"/><stop offset="1" stop-color="#38D175" stop-opacity="0"/></radialGradient><radialGradient id="f" cx="0" cy="0" r="1" gradientTransform="matrix(0 43.3138 -30.5742 0 2059.67 2037.78)" gradientUnits="userSpaceOnUse"><stop stop-color="#38D175" stop-opacity=".3"/><stop offset="1" stop-color="#38D175" stop-opacity="0"/></radialGradient></defs></svg>