<svg xmlns="http://www.w3.org/2000/svg" width="4018" height="2672" fill="none" viewBox="0 0 4018 2672"><path fill="url(#a)" d="M1635.67 1299.04c-1.91 2.26-1.97 5.87 0 8.21 1.41 1.66 3.83 2.69 6.15 2.05 2.65-.71 3.71-3.18 4.1-4.1.33-.76 1.66-3.84 0-6.16-1.21-1.69-3.28-1.95-4.1-2.06-.51-.06-3.98-.51-6.15 2.06"/><path fill="url(#b)" d="M1931.05 1169.67c-2.46 3.08-.68 8.95 2.05 12.32 2.3 2.81 5.17 3.8 6.16 4.1 3.5 1.13 10.01 1.65 12.3-2.05 2.3-3.7-.94-9.45-4.1-12.32-4.76-4.33-13.37-5.87-16.41-2.05"/><path fill="url(#c)" d="M2277.72 1299.04c-12.08 1.41-21.13 4-28.72 6.16-12.29 3.49-18.42 5.25-22.56 8.21-10.61 7.58-6.59 13.51-20.52 32.86-7.59 10.51-13.37 15.15-12.3 22.59.86 6.05 5.7 9.91 6.15 10.26 10.5 8.16 24.9-2.4 65.64-10.26 12.74-2.47 19.1-3.7 26.67-4.11 15.42-.84 19.57 1.58 26.66-2.06 9.83-5.03 13.87-15.81 16.41-22.58 2.49-6.62.66-5.55 4.11-28.75 1.88-12.8 3.07-17.4 0-20.54-4.09-4.17-12.43-2.44-14.36-2.05-5.85 1.21-8.8 4-12.31 6.16-9.21 5.65-13.93 1.64-34.87 4.11"/><path fill="url(#d)" d="M1701.31 1785.72c0 .43.12 2.97 2.05 4.1 1.56.91 3.32.29 4.1 0 .41-.14 3.67-1.35 4.1-4.1.5-3.11-2.89-6.74-6.15-6.17-2.73.5-4.2 3.72-4.1 6.17"/><defs><radialGradient id="a" cx="0" cy="0" r="1" gradientTransform="matrix(0 6.29027 -6.26365 0 1640.48 1303.2)" gradientUnits="userSpaceOnUse"><stop stop-color="#38D175" stop-opacity=".3"/><stop offset="1" stop-color="#38D175" stop-opacity="0"/></radialGradient><radialGradient id="b" cx="0" cy="0" r="1" gradientTransform="matrix(0 9.7173 -11.2282 0 1941.11 1177.21)" gradientUnits="userSpaceOnUse"><stop stop-color="#38D175" stop-opacity=".3"/><stop offset="1" stop-color="#38D175" stop-opacity="0"/></radialGradient><radialGradient id="c" cx="0" cy="0" r="1" gradientTransform="scale(73.8278 46.9905)rotate(90 1.15 29.561)" gradientUnits="userSpaceOnUse"><stop stop-color="#38D175" stop-opacity=".3"/><stop offset="1" stop-color="#38D175" stop-opacity="0"/></radialGradient><radialGradient id="d" cx="0" cy="0" r="1" gradientTransform="matrix(0 5.40069 -5.15469 0 1706.46 1784.89)" gradientUnits="userSpaceOnUse"><stop stop-color="#38D175" stop-opacity=".3"/><stop offset="1" stop-color="#38D175" stop-opacity="0"/></radialGradient></defs></svg>