<svg xmlns="http://www.w3.org/2000/svg" width="4018" height="2672" fill="none" viewBox="0 0 4018 2672"><path fill="url(#a)" d="M1855.15 1184.04c-5.37 5.71-3.46 9.8-10.25 16.43-6.4 6.26-11.08 5.58-18.46 10.27-8.91 5.64-12.85 13.49-18.47 24.64-4.57 9.07-10.99 21.83-10.25 39.01.35 7.97.94 21.71 10.25 30.81 7.35 7.16 16.48 7.88 38.98 8.21 66.77.95 72.74-4.15 75.9-8.21 7.79-10.04 7.26-25.12 4.1-34.91-7.43-22.98-32.04-24.95-32.82-43.13-.43-10.1 7.03-13.49 6.15-28.75-.33-5.66-.78-13.36-6.15-18.48-9.42-8.93-29.64-5.83-38.98 4.11"/><path fill="url(#b)" d="M1795.67 855.482c-5.05 2.957-10.24 8.851-14.36 36.963-6.05 41.194-9.07 61.79 4.1 80.087 10.24 14.21 30.11 27.106 45.13 22.588 9.91-2.977 9.43-11.068 26.67-22.588 13.9-9.303 17.76-6.387 26.66-14.375 2.55-2.279 16.88-15.668 16.41-34.909-.41-16.818-11.98-32.076-24.61-39.017-11.45-6.283-20.45-3.922-32.82-14.374-5.95-5.031-5.07-6.592-10.26-10.268-10.11-7.146-26.32-10.308-36.92-4.107"/><path fill="url(#c)" d="M1295.15 865.749c-4.12 4.846-1.82 12.444 0 18.482 1.3 4.23 3.37 11.088 8.21 12.321 2.03.513 2.95-.35 8.2-2.054 10.51-3.388 12.21-1.663 14.36-4.107 4.27-4.846.27-14.765-2.05-20.535-1.35-3.368-2.52-4.969-4.1-6.16-3.08-2.3-6.63-2.198-10.26-2.054-6.19.267-11.28.472-14.36 4.107"/><defs><radialGradient id="a" cx="0" cy="0" r="1" gradientTransform="matrix(0 69.4345 -65.729 0 1863.39 1244.09)" gradientUnits="userSpaceOnUse"><stop stop-color="#38D175" stop-opacity=".3"/><stop offset="1" stop-color="#38D175" stop-opacity="0"/></radialGradient><radialGradient id="b" cx="0" cy="0" r="1" gradientTransform="scale(62.074 71.9331)rotate(90 8.383 21.23)" gradientUnits="userSpaceOnUse"><stop stop-color="#38D175" stop-opacity=".3"/><stop offset="1" stop-color="#38D175" stop-opacity="0"/></radialGradient><radialGradient id="c" cx="0" cy="0" r="1" gradientTransform="matrix(0 17.5604 -17.4802 0 1310.33 879.138)" gradientUnits="userSpaceOnUse"><stop stop-color="#38D175" stop-opacity=".3"/><stop offset="1" stop-color="#38D175" stop-opacity="0"/></radialGradient></defs></svg>