<svg xmlns="http://www.w3.org/2000/svg" width="4018" height="2672" fill="none" viewBox="0 0 4018 2672"><path fill="url(#a)" d="M1740.28 1069.05c-16.92 9.46-26.15 18.25-34.87 26.69-12.94 12.53-20.04 19.57-18.46 26.7 1.89 8.5 13.84 7.12 32.82 22.58 7.36 6 13.84 11.3 18.46 20.54 7.12 14.27 3.04 24.56 8.21 26.69 5.49 2.26 10.46-9.24 30.76-22.58 16.8-11.05 28.72-16.43 28.72-16.43 8.97-4.05 13.68-5.24 16.41-10.27 2.79-5.13 1.3-10.23-2.05-22.59 0 0-1.87-6.9-10.25-39.01-6.3-24.09-4.56-25.82-8.21-28.75-13.21-10.62-43.32 6.22-61.54 16.43"/><path fill="url(#b)" d="M1849 1190.2c-10.99 7.91-15.69 24.66-10.26 36.96 1.05 2.37 3.45 6.8 8.21 10.27 9.48 6.9 16.27 1.23 45.13 2.05 6.97.21 10.73.66 14.36-2.05 6.72-5.01 6.31-15.93 6.15-20.53s-.55-14.97-8.21-22.59c-6.87-6.84-15.61-7.46-26.66-8.22-12.64-.88-21.01-1.45-28.72 4.11"/><path fill="url(#c)" d="M1992.59 1225.11c-13.01 1.36-20.64 15.05-22.56 18.48-4.33 7.74-5.01 14.25-6.16 26.7-1.68 18.11-2.52 27.15 2.05 32.85 9.52 11.87 33.44 8.28 45.13 4.11 6.77-2.42 14.48-6.82 20.51-10.27 6.55-3.73 9.87-5.66 12.31-8.21 5.83-6.1 11.3-17.31 8.21-26.7-2.47-7.45-7.47-5.05-24.62-18.48-11.75-9.2-18.62-17.55-30.77-18.48-1.15-.08-2.4-.18-4.1 0"/><defs><radialGradient id="a" cx="0" cy="0" r="1" gradientTransform="matrix(0 71.6538 -68.5312 0 1755.26 1120.89)" gradientUnits="userSpaceOnUse"><stop stop-color="#38D175" stop-opacity=".3"/><stop offset="1" stop-color="#38D175" stop-opacity="0"/></radialGradient><radialGradient id="b" cx="0" cy="0" r="1" gradientTransform="matrix(0 27.6853 -38.0915 0 1874.57 1213.21)" gradientUnits="userSpaceOnUse"><stop stop-color="#38D175" stop-opacity=".3"/><stop offset="1" stop-color="#38D175" stop-opacity="0"/></radialGradient><radialGradient id="c" cx="0" cy="0" r="1" gradientTransform="scale(45.2217 43.1029)rotate(90 7.489 36.91)" gradientUnits="userSpaceOnUse"><stop stop-color="#38D175" stop-opacity=".3"/><stop offset="1" stop-color="#38D175" stop-opacity="0"/></radialGradient></defs></svg>