<svg xmlns="http://www.w3.org/2000/svg" width="4018" height="2672" fill="none" viewBox="0 0 4018 2672"><path fill="url(#a)" d="M1375.15 933.514c-8.86 7.085-12.92 15.258-14.35 18.482-3 6.694-3.61 12.156-4.11 16.428-.86 7.556-1.52 13.204 2.05 16.428 2.06 1.848 5.32 2.731 8.21 2.053 7.94-1.848 11.06-14.847 12.31-14.374.67.267-.35 4.004 0 4.107.55.143 3.32-9.323 8.2-20.535 1.77-4.046 2.67-6.099 4.1-8.214 4.03-5.956 7.06-6.387 8.21-10.268 1.27-4.251-.45-10.206-4.1-12.321-5.95-3.45-15.45 4.148-20.52 8.214"/><path fill="url(#b)" d="M1490.03 1093.69c-3.51 4.43-2.24 9.18 2.05 30.8 5.43 27.37 6.42 34.91 12.31 36.96 4.49 1.58 10.33-.57 14.35-2.05 4.6-1.68 5.26-3.06 12.31-6.16 6.52-2.86 7.18-2.24 10.26-4.11 6.25-3.82 9.09-9.86 10.25-12.32.99-2.09 5.48-11.66 2.06-22.59-3.06-9.71-10.51-14.6-16.41-18.48-3.35-2.2-13.05-8.38-26.67-8.21-6.67.08-15.82.2-20.51 6.16"/><path fill="url(#c)" d="M1516.69 1769.29c-5.17-2.24-11.22-4.87-16.41-2.06-4.35 2.35-7.67 8.28-6.15 12.33 1.31 3.49 5.29 3.12 18.46 8.21 5.66 2.2 4.12 1.95 14.36 6.16 10.71 4.39 11.22 4.19 14.36 6.16 5.23 3.29 6.21 5.4 10.25 6.16 1.07.21 6.1 1.01 10.26-2.05 5.15-3.78 6.98-11.99 4.1-16.43-2.6-4.02-7.03-1.85-22.56-6.16-6.07-1.68-10.75-3.02-16.41-6.16-5.13-2.83-5.66-4.17-10.26-6.16"/><path fill="url(#d)" d="M2177.2 1584.47c-1.45 2.3-2.91 7.27 10.26 30.8 10.01 17.89 11.34 15.94 14.36 24.65 6.73 19.46 8.2 24.64 8.2 24.64 1.03 3.57 2.22 7.97 6.16 10.27 3.38 1.97 8.66 2.28 10.26 0 2.35-3.37-5.36-9.45-10.26-22.59-3.67-9.8-.8-10.25-4.1-22.59-2.57-9.61-3.98-8.15-14.36-30.8-5.54-12.08-7.59-17.87-12.31-18.48-3-.39-6.5 1.41-8.21 4.1"/><path fill="url(#e)" d="M2429.51 841.108c-3.44-5.421-15.05-2.382-49.23 2.053-9.97 1.294-15.01 1.951-18.46 2.054-19.84.616-23.92-4.354-34.87-2.054-9.5 1.992-23.12 9.221-26.67 22.589-3.57 13.368 4.7 26.367 12.31 32.856 8.82 7.495 13.33 3.326 24.62 10.267 11.38 6.982 16.61 17.27 26.66 36.963 4.56 8.912 7.14 15.525 12.31 28.749 7.9 20.186 11.86 30.265 14.36 41.075 1.29 5.52 3.18 14.78 8.2 26.69 5.28 12.49 8.19 14.09 10.26 14.38 5.48.75 12.31-6.68 14.36-14.38 1.7-6.43-.04-12.59-12.31-34.91-11.55-21.006-12.12-19.404-16.41-28.748-7.71-16.859-3.51-16.941-12.31-39.016-8.45-21.192-12.67-31.788-14.36-34.91-2.91-5.4-4.86-8.316-4.1-12.321 1.7-9.035 15.37-14.21 26.67-18.481 9.99-3.779 10.54-2.444 18.46-6.161 7.84-3.675 17.97-8.624 20.51-18.481.76-2.957 1.5-5.853 0-8.214"/><path fill="url(#f)" d="M2125.92 978.692c-.39.328-5.29 4.456-4.1 8.213.99 3.142 5.62 4.005 6.15 4.107 3.43.596 5.75-.759 12.31-4.107 11.41-5.811 10.4-4.764 16.41-8.213 7.47-4.292 6.34-4.374 10.26-6.161 5.8-2.649 8.86-2.752 14.36-6.16 3.16-1.951 6.44-4.005 6.15-6.161-.31-2.279-4.49-4.169-8.2-4.107-4.6.062-5.91 3.039-14.36 8.214-5.42 3.306-9.99 5.216-12.31 6.161-2.28.944-6.54 2.669-12.31 4.107-8.47 2.115-10.93 1.293-14.36 4.107"/><path fill="url(#g)" d="M1787.46 876.016c-3.88 4.538-5.25 8.768-8.2 16.428-3.51 9.138-3.29 7.577-4.11 10.267-2.64 8.707-.69 10.637-2.05 22.589-.98 8.604-2.77 14.333-2.05 24.642.21 2.895.58 5.667 2.05 6.16 2.22.739 6.18-3.758 8.21-8.214 1.7-3.737 1.13-5.442 2.05-14.374.22-2.095.06-.247 2.05-14.375 1.72-12.259 1.6-11.951 2.05-14.374 1.6-8.543 2.4-12.814 4.1-16.428 2.2-4.682 4.72-7.66 4.11-12.321-.11-.781-.46-3.553-2.06-4.107-1.96-.698-4.69 2.423-6.15 4.107"/><defs><radialGradient id="a" cx="0" cy="0" r="1" gradientTransform="matrix(0 31.3533 -22.086 0 1378.1 955.779)" gradientUnits="userSpaceOnUse"><stop stop-color="#F95C65" stop-opacity=".3"/><stop offset="1" stop-color="#F95C65" stop-opacity="0"/></radialGradient><radialGradient id="b" cx="0" cy="0" r="1" gradientTransform="matrix(0 37.2416 -33.443 0 1521.44 1124.77)" gradientUnits="userSpaceOnUse"><stop stop-color="#F95C65" stop-opacity=".3"/><stop offset="1" stop-color="#F95C65" stop-opacity="0"/></radialGradient><radialGradient id="c" cx="0" cy="0" r="1" gradientTransform="matrix(0 20.2427 -36.7635 0 1530.52 1786.26)" gradientUnits="userSpaceOnUse"><stop stop-color="#F95C65" stop-opacity=".3"/><stop offset="1" stop-color="#F95C65" stop-opacity="0"/></radialGradient><radialGradient id="d" cx="0" cy="0" r="1" gradientTransform="matrix(0 48.055 -25.2939 0 2201.58 1628.37)" gradientUnits="userSpaceOnUse"><stop stop-color="#F95C65" stop-opacity=".3"/><stop offset="1" stop-color="#F95C65" stop-opacity="0"/></radialGradient><radialGradient id="e" cx="0" cy="0" r="1" gradientTransform="matrix(0 109.287 -65.4773 0 2364.9 947.492)" gradientUnits="userSpaceOnUse"><stop stop-color="#F95C65" stop-opacity=".3"/><stop offset="1" stop-color="#F95C65" stop-opacity="0"/></radialGradient><radialGradient id="f" cx="0" cy="0" r="1" gradientTransform="matrix(0 17.5236 -32.9221 0 2154.56 973.625)" gradientUnits="userSpaceOnUse"><stop stop-color="#F95C65" stop-opacity=".3"/><stop offset="1" stop-color="#F95C65" stop-opacity="0"/></radialGradient><radialGradient id="g" cx="0" cy="0" r="1" gradientTransform="matrix(0 42.1869 -12.4377 0 1783.32 913.996)" gradientUnits="userSpaceOnUse"><stop stop-color="#F95C65" stop-opacity=".3"/><stop offset="1" stop-color="#F95C65" stop-opacity="0"/></radialGradient></defs></svg>