<svg xmlns="http://www.w3.org/2000/svg" width="4018" height="2672" fill="none" viewBox="0 0 4018 2672"><path fill="url(#a)" d="M1730.03 1066.99c-4.56 2.45-.76.78-30.77 20.54-18.87 12.42-22.57 14.54-28.72 20.53-6.18 6.04-15.67 15.53-20.51 30.8-3.24 10.27-5.75 18.18-2.06 24.65 7.72 13.49 31.1.88 57.44 16.42 14.67 8.65 14.95 17.01 26.67 18.49 11.73 1.47 22.03-5.57 34.87-14.38 18.26-12.5 20.2-21.09 32.82-22.59 4.94-.59 9.58.15 18.46-2.05 7.43-1.83 11.49-2.83 14.36-6.16 6.38-7.41 2.89-21.83-2.05-30.8-6.38-11.59-13.29-10.6-18.46-22.59-3-6.94-1.19-8.46-4.11-18.48-2.17-7.48-5.45-18.77-12.3-24.65-17.87-15.27-59.39 6.92-65.64 10.27"/><path fill="url(#b)" d="M1840.79 1165.56c-26.52 4.76-59.46 10.7-71.79 34.91-5.4 10.59-.53 12.28-4.1 39.01-4.95 36.95-14.94 39.02-18.47 73.93-.14 1.34-.77 14.58-2.05 41.07-1.47 30.41-1.37 30.64-2.05 32.86-1.6 5.27-4.55 12.01-38.97 49.28-11.51 12.47-17.83 18.91-16.41 26.7 1.66 9.09 12.14 10.63 12.31 18.48.2 10.02-16.68 18.58-24.62 22.59-12.8 6.46-17.85 5.09-26.67 12.32-4.55 3.73-11.42 9.36-12.3 16.42-2.16 17.46 33.41 34.61 55.38 45.18 32.06 15.44 48.1 23.19 63.59 16.43 11.88-5.17 18.85-19.2 32.82-47.23 6.83-13.72 6.65-15.67 18.46-43.12 6.18-14.34 14.53-33.09 24.62-53.4 14.01-28.19 21.13-42.34 26.66-45.17 25.56-13.06 51.41 23.98 82.06 12.32 12.18-4.64 20.43-18.83 36.92-47.23 11.49-19.76 21.74-37.42 26.67-63.66 2.91-15.46 6.97-37.15-2.06-61.6-5.7-15.45-14.11-25.16-22.56-34.91-9.13-10.54-25.7-29.7-53.33-41.07-32.52-13.39-61.38-8.2-84.11-4.11"/><path fill="url(#c)" d="M1676.69 1738.96c-17.72 8.48-14.93 12.38-41.02 26.69-11.51 6.31-16.06 7.77-24.62 14.38-7.1 5.48-16.94 13.3-22.56 26.69-1.21 2.9-8.66 20.62-2.05 26.7 4.82 4.46 12.67-1.5 34.87-6.16 7.98-1.69 23.75-4.89 43.08-4.11 25.04 1.01 32.82 2.06 32.82 2.06 8.28 1.1 11.89 2.05 16.41 0 5.74-2.63 7.42-7.6 14.36-22.59 10.76-23.27 11.3-21.22 12.3-26.7 2.92-15.87-2.32-28.85-4.1-32.85-2.38-5.3-3.55-7.97-6.15-10.27-14.16-12.59-46.34 2.81-53.34 6.16"/><path fill="url(#d)" d="M1810.03 1613.22c-20.52-2.61-30.75-3.92-38.98-8.21-1.39-.74-4.37-2.36-8.2-2.06-7.61.62-15.43 8.67-14.36 14.38.61 3.26 4.22 6.24 20.51 10.27 24.41 6.01 43.92 6.16 45.13 6.16 34.97.02 61.62-3.56 65.64-4.11 14.81-2.03 12.08-2.32 55.38-10.27 42.08-7.72 43.04-7.14 51.29-10.26 7.13-2.69 14.56-6.19 51.28-30.81 23.71-15.89 35.55-23.84 38.97-26.69 45.23-37.79 65.25-95.45 67.69-102.68 7.1-21.13 8.39-35.19 22.57-47.23 12.98-11 29.93-14.54 38.97-16.43 18.92-3.94 33.95-2.5 38.98-2.05 42.73 3.78 86.17.06 110.77-2.05 28.32-2.43 15.61-4.52 100.51-20.54 44-8.29 57.64-9.67 84.1-18.48 20.74-6.9 40.86-13.76 63.59-28.75 24.19-15.95 20.62-20.9 57.44-53.39 36.35-32.1 51.79-37.82 53.33-55.44 1.07-12.28-5.41-21.36-18.46-39.02-14.42-19.51-39-52.82-82.05-63.66-21.32-5.36-37.44-2.79-67.69 2.05-31.51 5.06-48.78 12.2-90.26 26.7-83.9 29.32-81.81 24.03-121.03 41.07-44.69 19.43-67.05 29.14-86.15 49.28-16.92 17.85-18.48 28.12-49.23 61.61-17.5 19.06-22.4 21.62-30.77 34.91-8.25 13.08-8.78 19.01-22.56 61.6-14.84 45.86-19.7 55.94-22.57 61.61-5.93 11.68-13.91 27.13-28.72 43.12-11.98 12.96-21.1 18.34-38.97 30.8-49.23 34.3-41.87 36.47-67.69 51.34-8.91 5.14-32.6 13.7-80 30.8-24.23 8.75-40.95 14.34-63.59 16.43-9.01.82-20.25 1.87-34.87 0"/><defs><radialGradient id="a" cx="0" cy="0" r="1" gradientTransform="matrix(0 73.6002 -94.9553 0 1741.1 1125.01)" gradientUnits="userSpaceOnUse"><stop stop-color="#38D175" stop-opacity=".3"/><stop offset="1" stop-color="#38D175" stop-opacity="0"/></radialGradient><radialGradient id="b" cx="0" cy="0" r="1" gradientTransform="scale(185.377 218.071)rotate(90 1.75 8.074)" gradientUnits="userSpaceOnUse"><stop stop-color="#38D175" stop-opacity=".3"/><stop offset="1" stop-color="#38D175" stop-opacity="0"/></radialGradient><radialGradient id="c" cx="0" cy="0" r="1" gradientTransform="matrix(0 53.5321 -78.7048 0 1662.403 1781.441)" gradientUnits="userSpaceOnUse"><stop stop-color="#38D175" stop-opacity=".3"/><stop offset="1" stop-color="#38D175" stop-opacity="0"/></radialGradient><radialGradient id="d" cx="0" cy="0" r="1" gradientTransform="scale(483.183 267.423)rotate(90 -.245 4.864)" gradientUnits="userSpaceOnUse"><stop stop-color="#38D175" stop-opacity=".3"/><stop offset="1" stop-color="#38D175" stop-opacity="0"/></radialGradient></defs></svg>