<svg xmlns="http://www.w3.org/2000/svg" width="4018" height="2672" fill="none" viewBox="0 0 4018 2672"><path fill="url(#a)" d="M1404.34 916.593c10.2-13.841 44.66-33.349 62.28-36.614 15.8-2.69 22.73 14.354 32.76 26.038 22.93 28.092 33.21 27.455 66.19 16.202 5.97-1.827 11.45-3.552 15.25-4.415 10.13-2.628 5.47 3.471 2.52 7.66-6.85 9.158-18.61 23.882-26.87 34.499-9.32 11.971-16.89 20.802-25.54 32.589-5.23 6.899-9.52 14.538-16.21 19.938-11.01 9.08-24.8 7.6-38.7 9.47-13.34 1.15-26.94 8.52-40.19 4.31-6.11-2.12-11.53-7.02-16.35-11.68-4.84-4.83-9.84-9.7-13.66-15.303-7.04-9.61-5.13-25.217-5.42-37.558 0-8.153-.02-16.757.03-24.704.08-8.892.57-15.073 3.73-20.124l.16-.267z"/><path fill="url(#b)" d="M2127.95 1527.82c4.19-.31 8.37 1.33 12.25 3.02 7.43 3.32 17.52 8.91 25.62 13.75 16.82 9.68 33.91 21.28 52.97 23.93 4.12.59 8.36.84 12.57.94 8.94.76 31.43-1.85 33 3.43.46 1.93-1.51 5.03-4.96 9.32-4.96 6.08-11.69 13.78-17.11 20.15-9.52 11.44-17.99 21.91-34.15 21.91-36.25-.55-68.74 11.46-103.22 23.61-6.77 2.16-17.23 6.86-22.5 4.46-5.17-2.5-5.5-11.19-4.8-19.53.71-10.33 4.59-19.03 9.02-28.48 6.44-14.09 15.98-34.91 23.43-51.17 5.15-9.39 8.2-24.5 17.68-25.32h.25z"/><path fill="url(#c)" d="M1347.03 1436.91c4.02.78 12.76 8.6 20.84 10.94 26.46 8.26 58.75-1.99 84.47-4.68 11.76-1.46 6.83 5.96 3.29 12.55-6.82 11.85-18.84 32.4-26.43 45.42-8.8 16.8-16.9 19.59-33.8 24.05-9.25 2.5-18.48 5.22-26.38 8.93-7.84 3.7-15.28 8.34-23.94 9.84-28.2 4.91-20.24-17.76-16.86-35.55l9.68-49.67c2.77-11.71 2.63-22.49 8.97-21.89l.18.04z"/><defs><radialGradient id="a" cx="0" cy="0" r="1" gradientTransform="matrix(0 73.9305 -93.3225 0 1493.69 953.626)" gradientUnits="userSpaceOnUse"><stop stop-color="#F95C65" stop-opacity=".3"/><stop offset="1" stop-color="#F95C65" stop-opacity="0"/></radialGradient><radialGradient id="b" cx="0" cy="0" r="1" gradientTransform="matrix(0 62.6141 -93.5424 0 2170.89 1590.39)" gradientUnits="userSpaceOnUse"><stop stop-color="#F95C65" stop-opacity=".3"/><stop offset="1" stop-color="#F95C65" stop-opacity="0"/></radialGradient><radialGradient id="c" cx="0" cy="0" r="1" gradientTransform="matrix(0 53.907 -67.593 0 1392.15 1490.73)" gradientUnits="userSpaceOnUse"><stop stop-color="#F95C65" stop-opacity=".3"/><stop offset="1" stop-color="#F95C65" stop-opacity="0"/></radialGradient></defs></svg>