<svg xmlns="http://www.w3.org/2000/svg" width="4018" height="2672" fill="none" viewBox="0 0 4018 2672"><path fill="url(#a)" d="M1402.52 880.8c11.67-8.645 27.4-17.147 39.67-24.95 13.11-7.844 28.94-14.682 43.75-17.352 9.09-.78 21.25 2.588 24.5 10.884 2.72 9.117-8.31 27.763-13.07 35.731-13.7 21.828-32.78 38.256-50.57 56.286-11.5 11.458-22.35 24.868-35.79 34.54-10.07 7.454-20.41 14.908-33.01 15.257-18.48 2.177-30.56-8.871-31.11-27.168.16-8.049 4.24-17.372 7.3-25.381 2.67-7.002 6.93-12.793 11.98-18.296 11.3-12.116 24.08-28.174 36.12-39.387l.23-.184z"/><path fill="url(#b)" d="M1891.4 1133.57c21.11 8.95 35.84 32.52 26.34 54.91-2.36 5.87-6.09 10.88-10.48 15.54-3.47 3.74-8.17 8.71-7.94 13.41.47 5.09 4.96 6.41 10.52 8.77 3.88 1.58 7.77 3.59 11.14 6.1 10.58 8.21 19.83 25.44 17.39 39.01-3.69 13-17.29 19.14-28 26.33-9.31 6.12-19.89 11.31-30.81 14.03-6.64 1.72-13.19 3.14-19.85 5.03-17.15 5.23-34.92 10.74-52.78 8.97-11.1-.64-21.48-3.78-31.55-7.84-8.84-3.68-17.68-6.97-25.33-12.65-32.76-23.13-10.2-66.25 17.43-82.86 7.9-4.66 17.81-6.1 27.04-5.96 3.89-.12 10.36 1.28 12.69-1.04 1.56-2.22-1.27-6.99-2.17-10.05-6.03-13.9-.78-27.99 8.74-39.94 7.86-9.79 17.7-18.05 27.83-25.42 14.71-10.82 32.46-15.38 49.34-6.53l.37.19z"/><path fill="url(#c)" d="M2151.4 1530.9c10.36.8 20.27 5.71 30.32 9.1 17.78 6.77 35.85 15.58 51.73 25.77 12.64 8.62 26.73 26.94 20.92 42.69-1.94 5.01-6.81 8.66-11.3 11.52-6.05 3.96-11.71 6.47-18.91 8.75-13.7 4.31-28.99 6.53-43.12 6.73-5.6.13-11.06.39-16.68 1.32-9.72 1.5-18.31 5.07-28.16 6.22-13.72 1.46-28.1 1.23-41.35-1.79-20.19-4.86-50.34-14.5-48.13-39.98 1.77-14.66 13.5-27.27 22.48-38.83 8.62-11.89 20.6-18.91 34.75-21.91 15.16-3.35 31.27-9.16 47.1-9.57h.37z"/><defs><radialGradient id="a" cx="0" cy="0" r="1" gradientTransform="scale(81.9881 76.5398)rotate(90 2.737 14.69)" gradientUnits="userSpaceOnUse"><stop stop-color="#F95C65" stop-opacity=".3"/><stop offset="1" stop-color="#F95C65" stop-opacity="0"/></radialGradient><radialGradient id="b" cx="0" cy="0" r="1" gradientTransform="scale(102.472 98.6529)rotate(90 2.74 15.18)" gradientUnits="userSpaceOnUse"><stop stop-color="#F95C65" stop-opacity=".3"/><stop offset="1" stop-color="#F95C65" stop-opacity="0"/></radialGradient><radialGradient id="c" cx="0" cy="0" r="1" gradientTransform="matrix(0 56.4862 -104.556 0 2151.16 1587.38)" gradientUnits="userSpaceOnUse"><stop stop-color="#F95C65" stop-opacity=".3"/><stop offset="1" stop-color="#F95C65" stop-opacity="0"/></radialGradient></defs></svg>