<svg xmlns="http://www.w3.org/2000/svg" width="4018" height="2672" fill="none" viewBox="0 0 4018 2672"><path fill="url(#a)" d="M1526.95 1153.24c-2.94 2.24-7.63 5.91-10.26 12.32-1.46 3.55-1.03 4.89-2.05 10.27-1.74 9.16-3.92 10.22-6.15 18.48-2.16 7.99-4.8 17.76 0 22.59 4.24 4.27 12.22 2.52 14.35 2.05 1.6-.35 9.42-2.07 12.31-8.21 1.56-3.31.37-5.05 0-12.32-.37-7.42-.72-14.01 2.05-20.54 2.01-4.74 3.9-5.3 8.21-14.37 1.29-2.73 2.3-5.14 2.05-8.22-.06-.82-.57-6.24-4.1-8.21-4.82-2.69-12.09 2.85-16.41 6.16"/><path fill="url(#b)" d="M1738.23 1071.1c-5.19 3.02-7.06 3.45-12.31 6.16-6.64 3.43-11.65 5.99-16.41 10.27-8.49 7.61-5.84 11.29-16.41 22.58-3.92 4.19-5.8 5.3-6.15 8.22-.64 5.26 4.45 10 12.31 16.43 17.39 14.25 17.99 11.95 24.61 18.48 10.46 10.31 10.11 17.17 24.62 30.8 4.08 3.84 6.15 5.77 8.2 6.16 11.88 2.3 15.86-20.51 41.03-34.91 10.09-5.77 18.85-7.47 22.56-16.43 1.83-4.39 1.93-9.36 2.05-14.37.23-9.43-1.56-16.59-2.05-18.48-4.06-15.55-10.46-15.3-14.36-30.8-1.35-5.45-1.37-8.67-4.1-14.38-2.26-4.72-5.05-10.57-10.26-12.32-6.03-2.01-8.28 6.14-20.51 10.27-9.64 3.26-12.04-.21-20.51 4.1-4.62 2.37-4.72 3.8-12.31 8.22"/><path fill="url(#c)" d="M1867.46 1397.6c37.17 11.34 45.37 13.41 57.44 10.27 24.63-6.43 42.25-28.58 63.59-55.44 13.62-17.13 14.58-22.32 28.71-36.97 17.48-18.13 24.09-18.54 30.77-30.8 10.71-19.61 10.73-49.47-2.05-57.5-13.86-8.72-30.19 16.19-55.38 8.22-15.86-5.01-28.97-21.05-36.93-30.8-5.72-7.01-9-12.47-10.25-14.38-17.38-26.51-63.18-37.93-98.46-30.8-17.17 3.47-35.72 12.28-57.44 22.59-7.24 3.43-10.85 5.15-12.31 6.16-15.36 10.64-22.85 30.49-26.66 90.35-2.65 41.65-3.98 62.49 0 69.82 6.33 11.71 15.5 17.72 118.97 49.28"/><path fill="url(#d)" d="M1881.82 1635.81c-8.39 4.21-14.46 14.25-14.36 24.64.1 9.7 5.56 18.11 12.31 22.59 4.96 3.29 10.89 3.62 22.56 4.11 37.52 1.6 39.29 1.5 43.08 0 3.84-1.52 17.52-7.58 24.62-22.59 2.62-5.57 6.89-12.86 4.1-20.54-3.18-8.78-13.09-11.93-14.36-12.32-12.55-3.8-17.87 5.92-34.87 8.22-21.87 2.95-29.7-10.82-43.08-4.11"/><path fill="url(#e)" d="M1580.28 1814.46c-1.8-10.26 7.32-20.65 16.41-24.64 5.74-2.52 9.42-1.56 14.36-2.05 19.08-1.93 25.35-22.32 43.08-36.96 7.14-5.9 23.22-10.11 55.38-18.49 49.46-12.89 61.27-10.26 67.69-8.21 4.41 1.42 27.45 8.77 30.77 24.64 2.1 9.96-5.43 14.62-22.56 47.23-11.65 22.18-9.7 22.92-14.36 26.7-10.97 8.91-22.01 4.99-69.74 4.11-16.04-.29-24.07-.46-34.88 0-17.08.69-34.19 1.25-51.28 2.05-12.78.59-24.06 1.19-30.77-6.16-.84-.9-3.34-3.86-4.1-8.22"/><path fill="url(#f)" d="M1301.31 1609.11c12.08-1.54 16.06-10.14 26.66-16.42 15.35-9.1 19.16.08 38.98-8.22 8.65-3.63 8.61-5.48 22.56-12.32 11.57-5.69 20.53-8.81 24.62-10.27 58.54-21.02 88.02-31.87 100.51-41.07 8.82-6.48 12.23-10.51 20.51-12.32 13.64-2.97 24.13 3.64 49.23 16.43 0 0 19 9.67 47.18 22.59 20.04 9.18 36.39 15.77 53.34 22.59 20.14 8.11 30.21 12.15 36.92 14.37 35.03 11.54 64.74 14.46 86.15 16.43 20.29 1.87 30.38 3.12 43.08 2.05 10.22-.86 23.22-2.93 55.38-14.37 14.84-5.28 25.69-9.67 69.75-28.75 48.51-21.01 53.6-23.57 61.54-28.75 19.03-12.4 30.97-24.48 47.18-41.07 15.07-15.44 35.67-36.24 55.38-67.76 26.65-42.59 18.32-51.16 41.03-73.93 8.34-8.38 21-18.79 18.46-28.75-2.4-9.4-16.19-10.12-18.46-20.53-1.28-5.84 2.15-9.82 10.25-22.59 17.58-27.68 13.81-28.4 24.62-41.07 8.94-10.5 15.34-17.99 26.66-22.59 11.04-4.48 16.09-1.89 32.83-6.16 11.34-2.9 18.78-6.57 26.66-10.27 25.72-12.07 49.97-21.5 73.85-30.8 10.73-4.17 6.46-2.22 65.64-22.59 31.51-10.84 47.26-16.26 53.33-18.48 27.22-9.94 54.87-18.73 82.05-28.75 12.78-4.72 30.32-11.31 47.18-4.11 5.5 2.36 8.68 5.22 12.31 8.22 35.1 28.99 59.51 27.06 80 55.44 7.55 10.45 8.12 16.1 8.21 18.48.3 8.26-3.8 15.06-24.62 36.97-23.92 25.17-27.36 25.48-36.92 39.01-7.78 11.01-8.19 14.6-16.41 24.64-10.77 13.17-22.28 21.89-26.67 24.65-16.88 10.63-44.94-7.09-104.61-26.7-56-18.4-76.05-17.27-90.26-14.37-11.02 2.26-10.26 3.88-34.87 10.26-13.5 3.49-32.35 7.83-63.59 14.38-30.05 6.28-39.22 7.84-41.03 14.37-2.69 9.74 13.4 21.87 14.36 22.59 8.51 6.31 17.46 7.95 30.77 10.27 19.61 3.41 29.13 1.6 30.77 6.16 1.56 4.33-5.29 10.94-10.26 14.37-8.61 5.94-16.98 6-34.87 6.16-43.98.39-44.9.42-49.23 0-15.79-1.49-34.87-4.1-34.87-4.1-14.98-2.06-21.44-3.29-28.72 0-8.55 3.86-12.43 11.37-16.41 18.48-1.42 2.52-14.63 21.54-41.03 59.55 0 0-10.81 15.55-26.66 34.91-42.85 52.28-95.72 83.91-118.98 96.51-27.67 14.99-21.37 7.38-80 34.91-15.69 7.38-30.09 14.48-51.28 18.49-18.6 3.51-33.84 3.01-47.18 2.05-36.33-2.65-103.4-7.54-172.31-41.07-37.66-18.32-56.47-27.48-63.59-32.86-11.98-9.05-20.49-17.64-34.87-18.48-12.51-.72-24.59 4.7-36.92 10.27-12.29 5.54-20.76 11.15-22.56 12.32-41.38 27.11-122.01 53.19-135.39 57.5-14.73 4.76-24.9 7.33-36.92 16.43-11 8.33-15.43 16.01-20.52 14.37-6.7-2.18-10.01-19.18-4.1-24.64 1.87-1.73 4.15-1.79 6.16-2.06"/><defs><radialGradient id="a" cx="0" cy="0" r="1" gradientTransform="matrix(0 36.6701 -20.8539 0 1526.64 1183.04)" gradientUnits="userSpaceOnUse"><stop stop-color="#38D175" stop-opacity=".3"/><stop offset="1" stop-color="#38D175" stop-opacity="0"/></radialGradient><radialGradient id="b" cx="0" cy="0" r="1" gradientTransform="scale(67.7289 71.0835)rotate(90 5.08 20.826)" gradientUnits="userSpaceOnUse"><stop stop-color="#38D175" stop-opacity=".3"/><stop offset="1" stop-color="#38D175" stop-opacity="0"/></radialGradient><radialGradient id="c" cx="0" cy="0" r="1" gradientTransform="scale(154.897 125.938)rotate(90 1.041 11.23)" gradientUnits="userSpaceOnUse"><stop stop-color="#38D175" stop-opacity=".3"/><stop offset="1" stop-color="#38D175" stop-opacity="0"/></radialGradient><radialGradient id="d" cx="0" cy="0" r="1" gradientTransform="matrix(0 28.7395 -53.7894 0 1921.25 1659.57)" gradientUnits="userSpaceOnUse"><stop stop-color="#38D175" stop-opacity=".3"/><stop offset="1" stop-color="#38D175" stop-opacity="0"/></radialGradient><radialGradient id="e" cx="0" cy="0" r="1" gradientTransform="matrix(0 53.3824 -114.132 0 1694.18 1775.78)" gradientUnits="userSpaceOnUse"><stop stop-color="#38D175" stop-opacity=".3"/><stop offset="1" stop-color="#38D175" stop-opacity="0"/></radialGradient><radialGradient id="f" cx="0" cy="0" r="1" gradientTransform="matrix(0 920 -2407.26 0 2008 1022)" gradientUnits="userSpaceOnUse"><stop stop-color="#38D175" stop-opacity=".3"/><stop offset="1" stop-color="#38D175" stop-opacity="0"/></radialGradient></defs></svg>