<svg xmlns="http://www.w3.org/2000/svg" width="4018" height="2672" fill="none" viewBox="0 0 4018 2672"><path fill="url(#a)" d="M1664.38 1280.56c-6.11-4.52-16.92 1.23-18.46 2.05-11.4 6.06-15.03 18.07-16.41 22.59-1.91 6.3-5.23 17.23 0 22.59 1.93 1.99 3.63 1.76 30.77 0 4.39-.29 6.42-.41 8.21-2.06 3.57-3.28 1.76-8.68 0-24.64-1.69-15.09-.97-18.21-4.11-20.53"/><path fill="url(#b)" d="M1769 1319.57c-6.93 7.31 3.55 18.85-4.1 39.02-1.48 3.88-2.67 5.56-8.21 14.37 0 0-11.51 18.26-22.56 36.97-14.96 25.27-26.96 65.34-14.36 75.97 3.84 3.25 11.59 5.12 18.46 4.11 2.79-.41 7.06-1.03 10.26-4.11 6.07-5.85 1.47-13.98 4.1-26.69 2.48-11.99 7.51-9.2 14.36-26.7 6.4-16.38 8.2-28.75 8.2-28.75 1.17-8 .97-12.91 4.11-14.37 4.12-1.93 8.08 4.78 18.46 6.16 2.19.29 8.53 1.13 14.36-2.05 9.17-5.01 11.28-16.78 12.3-22.59 1.42-7.97-.61-7.68 0-20.54.72-14.8 3.68-20.18 0-24.64-2.64-3.22-6.81-3.59-12.3-4.11-38.69-3.61-40.54-4.74-43.08-2.05"/><path fill="url(#c)" d="M1853.1 1196.36c-2.23.82-3.65 3.04-6.15 12.32-3.73 13.8-3.02 17.79-2.05 20.54.59 1.7 1 2.85 2.05 4.11 2.58 3.08 6.67 3.96 20.51 4.1 10.48.11 9.48-.39 14.36 0 7.92.62 8.62 1.77 16.41 2.06 5.89.2 6.13-.39 12.31 0 5.8.37 6.91.98 8.2 0 2.94-2.24-.2-7.48 0-18.49.17-8.91 2.32-11.41 0-14.37-2.44-3.1-7.42-3.61-12.3-4.11-3.57-.37-5.95-.12-8.21 0-8.43.43-15.16-.94-20.51-2.05-6.83-1.42-13.75-2.4-20.51-4.11-.85-.2-2.42-.61-4.11 0"/><path fill="url(#d)" d="M1961.82 1576.26a767 767 0 0 0-28.72 16.43c-10.95 6.59-14.74 9.24-16.41 14.37-2.29 7.09.25 16.31 6.16 20.54 3.24 2.32 6.11 2.13 18.46 2.05 22.09-.16 17.99.39 24.61 0 12.09-.72 20.13-1.19 30.77-4.11 3.04-.84.54-.28 28.72-12.32 5.07-2.18 9.13-3.88 12.31-8.21 4.27-5.81 4.16-12.47 4.1-14.38-.16-5.07-2.15-8.91-6.15-16.42-4.86-9.12-7.28-13.7-12.31-16.43-3.14-1.73-7.26-2.78-14.36-2.06-19.69 2-39.77 15.3-47.18 20.54"/><defs><radialGradient id="a" cx="0" cy="0" r="1" gradientTransform="matrix(0 25.1773 -21.9189 0 1648.62 1304.02)" gradientUnits="userSpaceOnUse"><stop stop-color="#38D175" stop-opacity=".3"/><stop offset="1" stop-color="#38D175" stop-opacity="0"/></radialGradient><radialGradient id="b" cx="0" cy="0" r="1" gradientTransform="matrix(0 86.0993 -55.8499 0 1770.34 1404.19)" gradientUnits="userSpaceOnUse"><stop stop-color="#38D175" stop-opacity=".3"/><stop offset="1" stop-color="#38D175" stop-opacity="0"/></radialGradient><radialGradient id="c" cx="0" cy="0" r="1" gradientTransform="matrix(0 21.9905 -37.9393 0 1882.06 1218.03)" gradientUnits="userSpaceOnUse"><stop stop-color="#38D175" stop-opacity=".3"/><stop offset="1" stop-color="#38D175" stop-opacity="0"/></radialGradient><radialGradient id="d" cx="0" cy="0" r="1" gradientTransform="matrix(0 37.1488 -62.9916 0 1978.85 1592.64)" gradientUnits="userSpaceOnUse"><stop stop-color="#38D175" stop-opacity=".3"/><stop offset="1" stop-color="#38D175" stop-opacity="0"/></radialGradient></defs></svg>