<svg xmlns="http://www.w3.org/2000/svg" width="4018" height="2672" fill="none" viewBox="0 0 4018 2672"><path fill="url(#a)" d="M1885.92 1103.96c-68.59-6.78-119.71 51.83-135.38 69.82-10.44 11.97-29.23 33.98-38.98 67.76-6.11 21.17-3.73 29.86 2.06 117.05 3.79 57.15 3.59 65.51 12.3 78.03 23.88 34.28 70.73 36.76 75.9 36.97 23.28.9 42.2-8.3 80-26.7 27.24-13.24 47.94-23.57 67.69-45.18 14.01-15.32 9.99-17.12 28.72-39.01 23.92-27.95 34.13-29.33 45.13-49.29 1.93-3.51 12.68-23.59 12.31-49.28-.15-9.51-2.03-35.26-34.88-75.98-32.96-40.86-63.83-79.14-114.87-84.19"/><path fill="url(#b)" d="M1906.44 1613.22c-2.65 2.9-11.57 12.71-8.21 20.54 3.08 7.14 14.42 7.92 18.46 8.21 4.25.29 17.4 1.21 24.62-8.21 7.63-9.96 5.5-27.37-4.1-32.86-12.6-7.18-29.6 11.05-30.77 12.32"/><path fill="url(#c)" d="M1910.54 1701.52c-2.16 3.56-7.39 12.18-4.1 18.49 5.58 10.74 35.38 14.04 47.18-2.06 7.83-10.7 6.72-28.66-2.06-34.91-10.99-7.82-32.22 3.97-41.02 18.48"/><defs><radialGradient id="a" cx="0" cy="0" r="1" gradientTransform="scale(163.849 185.116)rotate(90 2.232 9.192)" gradientUnits="userSpaceOnUse"><stop stop-color="#38D175" stop-opacity=".3"/><stop offset="1" stop-color="#38D175" stop-opacity="0"/></radialGradient><radialGradient id="b" cx="0" cy="0" r="1" gradientTransform="scale(24.2225 21.4537)rotate(90 1.896 77.44)" gradientUnits="userSpaceOnUse"><stop stop-color="#38D175" stop-opacity=".3"/><stop offset="1" stop-color="#38D175" stop-opacity="0"/></radialGradient><radialGradient id="c" cx="0" cy="0" r="1" gradientTransform="matrix(0 24.2512 -26.7477 0 1932.13 1704.8)" gradientUnits="userSpaceOnUse"><stop stop-color="#38D175" stop-opacity=".3"/><stop offset="1" stop-color="#38D175" stop-opacity="0"/></radialGradient></defs></svg>