<svg xmlns="http://www.w3.org/2000/svg" width="4018" height="2672" fill="none" viewBox="0 0 4018 2672"><path fill="url(#a)" d="M2622.33 1303.14c17.83-13.51 20.91-18.97 55.39-53.39 32.35-32.28 37.62-35.44 36.92-43.12-1.19-12.9-17.35-17.91-69.74-43.12-63.78-30.7-65.27-35.53-80-34.91-30.2 1.25-28.33 21.74-86.16 49.28-24.94 11.87-31.3 10.92-86.15 34.91-15.84 6.92-28.27 12.67-43.08 22.59-22.73 15.23-46.97 31.46-45.13 47.23 1.91 16.26 30.71 24.95 84.11 41.07 15.55 4.7 40.28 11.46 71.79 16.43 32.45 5.11 49.13 7.61 71.8 4.1 24.65-3.82 43.18-12.52 51.28-16.42 17.25-8.28 28.78-16.93 38.97-24.65"/><defs><radialGradient id="a" cx="0" cy="0" r="1" gradientTransform="matrix(0 108.65 -205.207 0 2509.49 1237.2)" gradientUnits="userSpaceOnUse"><stop stop-color="#F95C65" stop-opacity=".3"/><stop offset="1" stop-color="#F95C65" stop-opacity="0"/></radialGradient></defs></svg>