<svg xmlns="http://www.w3.org/2000/svg" width="4018" height="2672" fill="none" viewBox="0 0 4018 2672"><path fill="url(#a)" d="M2011.05 1210.74c34.91-9.35 37.87-4.4 49.23-10.27 18.2-9.41 24.43-30.23 36.93-71.87 11.36-37.91 17.04-56.84 10.25-69.82-14.97-28.59-66.25-30.09-90.25-30.81-33.77-1-60.09 6.45-110.77 0-11.47-1.45-18.36-2.89-24.62-8.21-21.27-18.11-16.53-65.239 0-98.567 19.53-39.407 49.27-46.902 45.13-61.605-4.76-16.818-49.23-26.675-82.05-12.321-17.11 7.475-29.87 24.149-55.39 57.498-26.79 35.012-24.3 39.283-38.97 51.337-17.4 14.293-24.56 11.315-69.75 30.803-35.61 15.365-53.41 23.045-67.69 36.965-14.17 13.82-20.61 33.61-34.87 71.87-8.94 23.99-7.2 24.03-16.41 49.28-11.28 30.93-14.97 33.85-32.82 75.98-22.83 53.91-21.09 59.27-32.82 69.82-11.47 10.31-17.68 9.26-65.64 24.64-68.04 21.83-76.95 30.81-82.05 39.02-11.14 17.87-13.6 46.99 0 61.61 18.54 19.94 50.11-5.22 94.36 14.37 27.18 12.03 44.18 34.31 49.23 41.07 21.49 28.79 16.37 46.64 36.92 61.61 10.61 7.72 18.28 7.53 53.33 12.32 0 0 42.85 5.83 86.16 14.37 78.38 15.46 87.36 30.11 90.25 36.96 5.36 12.69 1.89 27.11 0 34.91-6.6 27.42-24.76 34.21-22.56 49.29 2.11 14.52 21.11 22.77 34.87 28.75 40.53 17.59 79.41 5.62 84.1 4.1 27.88-9.03 24.23-19.34 53.34-30.8 11.92-4.68 51.34-20.21 90.25-2.05 5.71 2.65 34.57 16.12 45.13 45.17 9.93 27.32-6.3 40.87 4.1 59.56 16.66 29.92 74.98 25.21 82.06 24.64 9.49-.76 61.99-5.01 86.15-43.13 12.51-19.75 3.94-27.29 14.36-75.98 10.93-51.05 23.51-57.43 24.61-86.24.29-7.56 2.61-74.26-36.92-92.41-14.91-6.84-17.44 4.99-51.28 2.05-20.41-1.76-34.93-7.33-53.33-14.37-22.81-8.73-34.28-13.12-34.88-20.54-.69-8.64 14.16-11.93 34.88-30.8 8.55-7.8 22.7-20.68 30.76-39.01 8.68-19.76 2.55-28.22 6.16-65.72.45-4.62.84-7.53 10.25-55.44 13.5-68.63 15.25-75.51 10.26-80.09-11.83-10.88-45.25 6.39-96.41 32.86-51.03 26.41-83.86 49.71-96.41 39.02-3.38-2.88-4.31-7.4-6.15-16.43-1.15-5.57-4.89-23.86 4.1-36.97 3.22-4.68 8.51-9.36 34.87-16.42"/><defs><radialGradient id="a" cx="0" cy="0" r="1" gradientTransform="matrix(0 485.31 -458.043 0 1797.36 1325.867)" gradientUnits="userSpaceOnUse"><stop stop-color="#38D175" stop-opacity=".3"/><stop offset="1" stop-color="#38D175" stop-opacity="0"/></radialGradient></defs></svg>