<svg xmlns="http://www.w3.org/2000/svg" width="4018" height="2672" fill="none" viewBox="0 0 4018 2672"><path fill="url(#a)" d="M2610.03 1239.49c-27.51-6.31-49.09 16.22-80 18.48-35.45 2.59-36.78-24.87-90.26-32.86-7.53-1.13-37.27-5.03-71.8 6.16-13.06 4.23-50.6 16.41-51.28 34.91-.61 16.88 29.79 30.39 49.23 39.02 31.55 14 59.22 16.84 98.47 20.53 30.33 2.86 45.49 4.3 63.58 2.06 30.92-3.82 49.95-13.49 84.11-30.81 21.25-10.78 30.48-17.82 30.77-26.69.3-9.41-9.52-18.07-12.31-20.54-8.35-7.37-17.4-9.54-20.51-10.26"/><defs><radialGradient id="a" cx="0" cy="0" r="1" gradientTransform="matrix(0 52.6764 -163.085 0 2479.77 1276.21)" gradientUnits="userSpaceOnUse"><stop stop-color="#F95C65" stop-opacity=".3"/><stop offset="1" stop-color="#F95C65" stop-opacity="0"/></radialGradient></defs></svg>