<svg xmlns="http://www.w3.org/2000/svg" width="4018" height="2672" fill="none" viewBox="0 0 4018 2672"><path fill="url(#a)" d="M2037.72 1652.24c9.47 9.11 40.78-3.8 55.38-24.64 2.98-4.26 9.34-13.33 6.16-20.54-3.9-8.83-19.76-9.65-28.72-8.21-13.81 2.19-22.18 11.43-24.62 14.37-9.84 11.83-15.53 31.97-8.2 39.02"/><path fill="url(#b)" d="M2004.9 1257.97c-1.31 1.87-2.96 4.62-4.1 8.21-3.25 10.09-1.15 22.06 2.05 22.59 2.15.37 5.02-4.41 6.15-8.21 1.17-3.99-.08-5.24 0-12.32.08-7.54 1.54-11.56 0-12.32-.59-.31-1.74-.15-4.1 2.05"/><defs><radialGradient id="a" cx="0" cy="0" r="1" gradientTransform="matrix(0 28.4625 -32.8659 0 2067.26 1626.74)" gradientUnits="userSpaceOnUse"><stop stop-color="#F95C65" stop-opacity=".3"/><stop offset="1" stop-color="#F95C65" stop-opacity="0"/></radialGradient><radialGradient id="b" cx="0" cy="0" r="1" gradientTransform="matrix(0 16.4974 -5.26593 0 2004.44 1272.29)" gradientUnits="userSpaceOnUse"><stop stop-color="#F95C65" stop-opacity=".3"/><stop offset="1" stop-color="#F95C65" stop-opacity="0"/></radialGradient></defs></svg>