<svg xmlns="http://www.w3.org/2000/svg" width="4018" height="2672" fill="none" viewBox="0 0 4018 2672"><path fill="url(#a)" d="M2409 1023.87c-1.78.35-2.97.61-5.37 1.15-40.09 8.95-69.25 22.09-76.68 25.54-17.17 7.95-33.95 15.69-53.33 30.81-18.96 14.76-35.74 27.84-45.13 51.33-2.36 5.9-16.62 41.5 0 63.66 3.55 4.75 7.01 6.86 53.33 24.64 22.55 8.65 33.91 13 38.98 14.38 20.98 5.67 36.45 5.91 65.64 6.16 38.52.33 63.71.31 94.36-10.27 20.41-7.04 29.97-14.21 32.82-16.43 21.68-16.86 29.86-38.93 32.82-47.23 7.46-20.96 6.66-38.75 6.15-45.17-2.24-28.42-15.22-47.77-20.51-55.45-6.46-9.36-22.96-33.29-53.34-43.12-26.56-8.61-53.72-3.18-69.74 0"/><path fill="url(#b)" d="M2575.15 1385.28c-6.17-.57-10.62-1.66-12.3-2.05-20.6-4.7-77.17-6.71-135.39 18.48-40.82 17.66-83.38 36.1-88.2 71.88-4.33 32.07 23.87 62.01 45.12 75.97 34.73 22.82 72.39 17.07 116.93 10.27 33.93-5.17 98.81-15.99 149.74-67.76 16.82-17.09 48.72-49.53 38.98-78.04-7.63-22.36-40.43-41-65.65-36.96-12.84 2.05-26.03 10.39-49.23 8.21"/><defs><radialGradient id="a" cx="0" cy="0" r="1" gradientTransform="matrix(0 111.197 -166.175 0 2386.73 1130.43)" gradientUnits="userSpaceOnUse"><stop stop-color="#F95C65" stop-opacity=".3"/><stop offset="1" stop-color="#F95C65" stop-opacity="0"/></radialGradient><radialGradient id="b" cx="0" cy="0" r="1" gradientTransform="matrix(0 94.6766 -176.514 0 2515.33 1471.19)" gradientUnits="userSpaceOnUse"><stop stop-color="#F95C65" stop-opacity=".3"/><stop offset="1" stop-color="#F95C65" stop-opacity="0"/></radialGradient></defs></svg>