<svg xmlns="http://www.w3.org/2000/svg" width="4018" height="2672" fill="none" viewBox="0 0 4018 2672"><path fill="url(#a)" d="M1892.08 1323.68c-20.99-4.23-40.95 13.02-61.54 30.8-35.86 30.97-49.21 68.4-57.44 92.41-11.01 32.13-20.2 58.95-10.25 90.35 2.54 8.01 11.54 36.43 38.97 51.34 33.44 18.17 69.87 3.02 82.05-2.05 7.98-3.33 26.05-11.07 41.03-28.75 25.62-30.25 24.16-68.26 22.56-98.57-.51-9.63-6.65-125.7-55.38-135.53"/><path fill="url(#b)" d="M1939.26 1101.9c-59.74-17.1-146.14 5.03-157.95 55.45-6.2 26.41 8.65 58.11 30.77 73.92 17.45 12.49 38.29 11.75 80 10.27 39.69-1.4 59.53-2.09 75.89-14.37 23.68-17.75 40.78-54.46 28.72-84.2-11.3-27.86-43.05-36.96-57.43-41.07"/><path fill="url(#c)" d="M1723.87 1157.35c-21.23-.29-33.91 15.46-100.51 106.78-34.13 46.78-51.14 70.74-49.23 98.57.43 6.12 2.44 35.5 22.56 47.23 10.34 6.04 21.42 5.03 28.72 4.1 39.75-5.05 68.47-20.98 94.36-32.85 63.81-29.26 76.94-18.44 94.36-41.07 14.91-19.41 25.02-53.02 12.31-75.98-15-27.11-53.54-24.52-59.49-51.34-2.89-13.02 5.04-18.87 0-30.8-6.42-15.2-27.16-24.44-43.08-24.64"/><path fill="url(#d)" d="M1531.05 1438.68c-21.19 23.92-18.95 56.47-18.46 63.65 2.91 42.53 33.33 67.28 38.97 71.88 40.85 33.24 91.68 23.12 104.62 20.53 11.71-2.34 84.33-18.36 98.46-75.98 5.64-23.02 2.05-53.04-16.41-73.92-18.17-20.56-42.42-22.82-84.1-26.7-53.09-4.93-96.9-9.01-123.08 20.54"/><defs><radialGradient id="a" cx="0" cy="0" r="1" gradientTransform="matrix(0 137.122 -94.8121 0 1853.4 1460.15)" gradientUnits="userSpaceOnUse"><stop stop-color="#38D175" stop-opacity=".3"/><stop offset="1" stop-color="#38D175" stop-opacity="0"/></radialGradient><radialGradient id="b" cx="0" cy="0" r="1" gradientTransform="scale(110.384 73.0722)rotate(90 .562 16.563)" gradientUnits="userSpaceOnUse"><stop stop-color="#38D175" stop-opacity=".3"/><stop offset="1" stop-color="#38D175" stop-opacity="0"/></radialGradient><radialGradient id="c" cx="0" cy="0" r="1" gradientTransform="matrix(0 128.695 -129.119 0 1703.1 1286.04)" gradientUnits="userSpaceOnUse"><stop stop-color="#38D175" stop-opacity=".3"/><stop offset="1" stop-color="#38D175" stop-opacity="0"/></radialGradient><radialGradient id="d" cx="0" cy="0" r="1" gradientTransform="matrix(0 91.7717 -122.403 0 1634.68 1506.45)" gradientUnits="userSpaceOnUse"><stop stop-color="#38D175" stop-opacity=".3"/><stop offset="1" stop-color="#38D175" stop-opacity="0"/></radialGradient></defs></svg>