<svg xmlns="http://www.w3.org/2000/svg" width="4018" height="2672" fill="none" viewBox="0 0 4018 2672"><g clip-path="url(#a)"><path fill="url(#b)" d="M1758.74 1056.72c-6.81 3.41-29.68 15.63-49.23 43.13-9.35 13.14-14.42 20.27-14.36 30.8.04 8.19 5.5 17.21 16.41 34.91 10.14 16.43 15.35 24.72 22.57 28.75 1.56.86 15.12 8.15 30.77 4.11 14.09-3.64 11.96-11.85 38.97-32.86 8.16-6.34 12.99-9.2 16.41-16.43 1.66-3.51 3.71-9.59 2.05-24.64-1.11-10.06-3.28-18.6-12.31-43.12-10.35-28.2-12.69-31.03-16.41-32.86-9.35-4.58-20.2.86-34.87 8.21"/><path fill="url(#c)" d="M1307.3 1416.09c-11.84 8.44-11.88 33.69-11.96 84.19-.04 24.31 1.45 25.96 0 41.07-2.83 29.49-10.05 39.51-3.98 49.28 7.44 12 28.74 13.62 43.81 10.27 28.45-6.32 27.12-28.73 63.74-51.34 32.26-19.94 65.72-24.64 65.72-24.64 22.4-3.16 34.63.27 39.84-8.21 6.64-10.85-2.96-33.33-17.93-45.18-11.26-8.91-16.54-4.68-45.81-14.37-14.62-4.85-25.62-9.98-43.81-18.49-23.53-10.98-22.77-12.34-33.85-16.42-20.41-7.52-42.48-15.65-55.75-6.16z"/><path fill="url(#d)" d="M1323.95 1652.24c-3.61 3.08-33.95 29.67-34.87 71.87-.27 12.1-.82 37.23 16.41 49.28 15.43 10.81 35.67 4.52 36.92 4.11 20.33-6.63 19.04-23.08 38.98-30.8 18.52-7.19 25.27 4.83 43.08-2.05 18.74-7.25 33.74-29.27 32.82-51.34-.66-15.61-9.07-26.59-12.31-30.8-9.97-13.02-22.36-18.22-32.82-22.59-10.16-4.25-25.44-10.66-45.13-8.22-21.68 2.69-36 14.52-43.08 20.54"/><path fill="url(#e)" d="M1709.51 1496.17c-10.03 3.45-10.7 8.26-24.61 18.48-11.18 8.22-13.87 7.4-20.51 14.38-2.49 2.59-13.44 14.08-10.26 20.53 2.21 4.46 8.92 1.89 22.56 6.16 3.55 1.11 10.59 4.85 24.62 12.32 6.28 3.35 13.82 7.46 24.61 10.27 5.62 1.46 9.19 1.83 12.31 0 5.15-3.02 5.93-10.27 6.16-12.32 1.06-9.94-4.97-11.93-6.16-24.64-.7-7.52 1.27-8.17 0-16.43-.53-3.47-1.72-7.1-4.1-14.37-4.1-12.55-5.29-13.72-6.16-14.38-5.66-4.41-14.91-1.23-18.46 0"/><path fill="url(#f)" d="M2560.79 1142.97c-34.27 3.45-56.67 22.82-65.64 30.8-5.84 5.2-18.97 17.11-28.72 36.97-12.49 25.44-11.61 47.95-10.25 82.14.76 19.3 1.25 29.08 6.15 34.91 15.63 18.56 53.72 10.98 77.95 6.16 15.96-3.19 27.73-7.6 51.28-16.43 23.98-8.99 35.96-13.49 45.13-20.54 11.82-9.07 10.17-12.32 36.92-47.23 19.02-24.82 23.18-27.53 22.57-34.91-.47-5.56-3.43-11.21-43.08-39.01-20.02-14.05-30.21-21.15-38.97-24.64-7.96-3.19-27.68-10.81-53.34-8.22"/><path fill="url(#g)" d="M2045.92 1559.83c-27.73 33.56-18.15 77.79-12.3 104.73 5.19 23.92 12.06 55.67 38.97 69.82 24.72 13 52.39 3.84 57.44 2.05 36.94-13.02 35.57-44.23 71.79-55.44 23.49-7.27 30.98 3.71 49.23-6.16 22.11-11.97 38.09-42.65 30.77-65.71-4.06-12.78-13.39-17.32-61.54-41.07-76.82-37.91-83.22-41.26-98.46-41.07-9.7.12-50.36 1.97-75.9 32.85"/><path fill="url(#h)" d="M2216.18 1824.73c-8.27-1.46-11.53.51-16.41-2.05-5.93-3.12-8.02-9.65-8.21-10.27-2.73-8.99 3.26-17.58 8.21-24.64 3.98-5.69 7.65-10.95 14.36-14.38 8.55-4.35 16.76-2.97 32.82 0 8.1 1.5 19.81 3.74 34.87 10.27 19.36 8.4 16.86 12.01 30.77 16.43 18.05 5.73 28.57 1.64 34.87 10.27 3.04 4.15 4.53 10.47 2.05 14.37-1.56 2.45-4.88 4.23-20.51 4.11-14.52-.1-20.33-1.71-30.77-2.06-2.91-.1-2.48.03-26.67 2.06-30.21 2.52-35.83 2.75-43.07 0-3.64-1.38-6.59-3.1-12.31-4.11"/></g><defs><radialGradient id="b" cx="0" cy="0" r="1" gradientTransform="matrix(0 76.401 -63.8976 0 1759.05 1123.23)" gradientUnits="userSpaceOnUse"><stop stop-color="#F95C65" stop-opacity=".3"/><stop offset="1" stop-color="#F95C65" stop-opacity="0"/></radialGradient><radialGradient id="c" cx="0" cy="0" r="1" gradientTransform="matrix(0 95.3172 -108.807 0 1397.8 1507.11)" gradientUnits="userSpaceOnUse"><stop stop-color="#F95C65" stop-opacity=".3"/><stop offset="1" stop-color="#F95C65" stop-opacity="0"/></radialGradient><radialGradient id="d" cx="0" cy="0" r="1" gradientTransform="matrix(0 74.2631 -84.1625 0 1373.16 1705.43)" gradientUnits="userSpaceOnUse"><stop stop-color="#F95C65" stop-opacity=".3"/><stop offset="1" stop-color="#F95C65" stop-opacity="0"/></radialGradient><radialGradient id="e" cx="0" cy="0" r="1" gradientTransform="scale(45.4781 42.8208)rotate(90 .736 36.623)" gradientUnits="userSpaceOnUse"><stop stop-color="#F95C65" stop-opacity=".3"/><stop offset="1" stop-color="#F95C65" stop-opacity="0"/></radialGradient><radialGradient id="f" cx="0" cy="0" r="1" gradientTransform="scale(120.401 98.6004)rotate(90 4.404 16.99)" gradientUnits="userSpaceOnUse"><stop stop-color="#F95C65" stop-opacity=".3"/><stop offset="1" stop-color="#F95C65" stop-opacity="0"/></radialGradient><radialGradient id="g" cx="0" cy="0" r="1" gradientTransform="scale(128.232 107.131)rotate(90 .778 16.03)" gradientUnits="userSpaceOnUse"><stop stop-color="#F95C65" stop-opacity=".3"/><stop offset="1" stop-color="#F95C65" stop-opacity="0"/></radialGradient><radialGradient id="h" cx="0" cy="0" r="1" gradientTransform="matrix(0 30.0987 -79.9404 0 2270.82 1800.72)" gradientUnits="userSpaceOnUse"><stop stop-color="#F95C65" stop-opacity=".3"/><stop offset="1" stop-color="#F95C65" stop-opacity="0"/></radialGradient><clipPath id="a"><path fill="#fff" d="M1289 837h1440v998H1289z"/></clipPath></defs></svg>