<svg xmlns="http://www.w3.org/2000/svg" width="4018" height="2672" fill="none" viewBox="0 0 4018 2672"><path fill="url(#a)" d="M2273.61 900.658c-24.45 12.424-38.29 24.786-49.23 32.856-17.99 13.266-17.86 7.29-71.79 32.856-38.15 18.092-32.31 18.277-49.23 24.642-18.2 6.859-29.38 8.297-88.21 16.428-74.52 10.29 6.98-.84-73.84 10.27-51.47 7.06-63.8 8.75-84.11 12.32-28.3 4.99-42.46 7.47-59.48 12.32-41.44 11.81-69.03 26.94-75.9 30.8-19.43 10.91-32.64 18.3-47.18 32.86-12 12.01-21.85 28.71-41.03 61.6-13.12 22.51-19.77 34.03-24.61 47.23-1.64 4.48-19.84 55.08-6.15 63.66 5.27 3.31 13.84-.51 18.46-4.1 10.07-7.83 9.82-21.22 12.3-39.02 2.61-18.73 7.49-37.15 12.31-49.29 7.2-18.15 13.97-21.6 47.18-63.65 24.82-31.44 20.21-28.47 26.67-34.91 6.58-6.57 30.09-28.3 116.92-41.07 26.89-3.97 52.12-5.38 102.57-8.22 52.71-2.95 60.32-1.7 86.15-6.16 31.18-5.4 25.31-8.15 80-20.53 40.51-9.18 51.06-9.33 67.69-20.538 18.07-12.177 16.54-19.344 36.92-30.802 20.66-11.602 26.98-6.9 47.18-20.535 14.51-9.795 21.52-19.159 28.72-28.749 4.25-5.668 10.3-13.841 8.21-16.428-1.64-2.033-8-.205-20.52 6.16"/><path fill="url(#b)" d="M1838.75 1167.61c-3.41.6-6.96 1.23-8.39 1.5-8.97 1.75-31.14 8.03-51.1 25.2-17.56 15.09-25.54 31.83-30.77 43.12-8.78 18.95-28.17 60.76-10.26 104.73 13.93 34.19 42.65 50.66 51.28 55.44 19.37 10.74 39.57 12.63 80 16.43 20.62 1.93 33.4 1.5 47.18-2.05 15.47-3.99 26.79-10.48 32.82-14.38 23.25-15.05 34.71-34.82 38.98-43.12 9.33-18.19 11.14-34.05 12.31-45.18 1.27-12.19 3.61-37.39-8.21-65.71-5.37-12.9-11.03-26.43-24.61-36.96-20.74-16.06-32.74-4.03-61.54-20.54-20.08-11.52-24.54-23.26-38.98-22.59-6.58.31-26.64 3.76-28.71 4.11"/><path fill="url(#c)" d="M1338.23 1611.17c24.02-10.7 18.3-13.25 57.44-34.91 29.41-16.28 44.72-21.52 57.43-24.64 15.61-3.84 23.43-5.77 30.77-4.11 28.17 6.35 42.24 45.28 53.34 75.98 7.89 21.85 5.7 24.93 16.41 53.39 9.56 25.38 13.45 28.65 12.3 36.96-2.15 15.61-18.36 22.33-73.84 49.29-36.6 17.78-78.05 27.12-110.77 51.34-5.56 4.1-19.16 14.7-34.87 12.32-7.8-1.19-13.36-5.16-20.52-10.27-5.49-3.92-19.05-13.62-26.66-28.75-4.35-8.67-4.19-14.01-4.11-49.28.09-41.03.15-61.57 0-63.66-1.74-26.99-4.96-32.28 0-41.07 6.77-11.97 18.08-11.46 43.08-22.59"/><path fill="url(#d)" d="M2445.92 1147.08c7.55-15.36 33.3-12.96 92.31-18.48 43.55-4.07 36.78-6.06 55.39-6.16 52.02-.29 84.43 15.36 94.36 20.53 20.2 10.52 31.73 16.53 34.87 28.75 2.7 10.6-2.46 19.74-43.08 71.87-28.64 36.76-32.84 40.93-41.03 45.18-11.83 6.14-30.6 6.22-67.69 6.16-27.2-.06-53.25-1.21-84.1-8.21-27.71-6.31-33.03-11.34-34.87-16.43-5.29-14.54 19.44-24.23 18.46-47.23-.84-19.74-19.59-24.62-24.62-55.45-1.68-10.28-2.5-15.42 0-20.53"/><defs><radialGradient id="a" cx="0" cy="0" r="1" gradientTransform="scale(348.387 193.03)rotate(90 -.022 5.608)" gradientUnits="userSpaceOnUse"><stop stop-color="#38D175" stop-opacity=".3"/><stop offset="1" stop-color="#38D175" stop-opacity="0"/></radialGradient><radialGradient id="b" cx="0" cy="0" r="1" gradientTransform="scale(135.493 125.845)rotate(90 1.765 12.01)" gradientUnits="userSpaceOnUse"><stop stop-color="#38D175" stop-opacity=".3"/><stop offset="1" stop-color="#38D175" stop-opacity="0"/></radialGradient><radialGradient id="c" cx="0" cy="0" r="1" gradientTransform="matrix(0 140.11 -136.806 0 1429.31 1687.02)" gradientUnits="userSpaceOnUse"><stop stop-color="#38D175" stop-opacity=".3"/><stop offset="1" stop-color="#38D175" stop-opacity="0"/></radialGradient><radialGradient id="d" cx="0" cy="0" r="1" gradientTransform="matrix(0 86.2534 -139.553 0 2583.89 1208.69)" gradientUnits="userSpaceOnUse"><stop stop-color="#38D175" stop-opacity=".3"/><stop offset="1" stop-color="#38D175" stop-opacity="0"/></radialGradient></defs></svg>