<svg xmlns="http://www.w3.org/2000/svg" width="4018" height="2672" fill="none" viewBox="0 0 4018 2672"><path fill="url(#a)" d="M1680.8 1114.22c1.64-5.95 11.3-12.79 18.46-18.48 3.79-3.02 1.15-1.15 14.36-12.32 7.59-6.43 11.38-9.63 12.3-10.27 8.19-5.69 11.27-4.25 28.72-12.32 6.11-2.83 12.39-5.28 18.46-8.21 10.44-5.05 16.6-8.75 20.52-6.16 1 .65 2.03 2.48 4.1 6.16 1.09 1.93 2.52 4.47 4.1 8.21 3.12 7.44 4.43 14.05 6.15 20.54.52 1.93 2.4 7.45 6.16 18.48 6.15 18.05 9.23 27.06 10.26 28.75.82 1.33 3.15 5.01 4.1 10.27.8 4.41.16 7.47 0 8.21-.95 4.27-3.22 7.1-4.1 8.21-7.39 9.2-26.59 15.2-41.03 26.7-13.48 10.74-17.95 22.38-24.62 20.53-1.17-.33-1.99-.94-8.2-8.21-8.23-9.63-10.26-12.32-10.26-12.32-17.99-23.92-26.99-35.88-30.77-39.02-8.22-6.84-15.07-15.71-24.61-20.53-.64-.33-3.2-1.54-4.1-4.11-.64-1.81-.17-3.49 0-4.11"/><path fill="url(#b)" d="M2017.2 1218.95c11.18-17.58 31.55-22.69 45.13-26.69 33.77-9.96 63.84-29.76 96.41-43.13 70.48-28.95 106.03-42.79 135.39-57.5 0 0 33.99-16.1 82.05-26.69 3.12-.68 2.34-.19 14.36-2.06 6.15-.94 9.06-1.49 12.3 0 1.09.5 3.59 1.87 6.16 6.17 4.27 7.12 2.93 12.64 4.1 20.53.62 4.09 3.82 10.95 10.26 24.64 3.81 8.13 7.3 14.77 6.15 22.59-.47 3.16-1.5 5.2-2.05 6.16-2.75 4.81-7.34 7.02-10.26 8.22-19.09 7.78-36.92 8.21-36.92 8.21-16 .39-31.86 7.78-63.59 22.59-15.65 7.31-31.2 14.66-49.23 28.75-3.3 2.58-13.19 10.47-24.62 22.59-4.92 5.23-23.09 25.01-41.02 59.55-7.32 14.1-3.53 9.32-16.41 36.96-18.85 40.39-31.65 60.68-34.87 65.71-6.57 10.25-9.5 12.86-18.46 26.7-10.14 15.67-11.23 19.18-18.47 28.75-8.16 10.76-15.54 17.88-22.56 24.64-2.5 2.4-11.96 10.53-30.77 26.69-16.45 14.13-16.86 14.42-18.46 16.43-5.99 7.5-8.9 14.36-14.36 14.38-3.3 0-6.28-2.49-8.21-4.11-2.93-2.47-4.34-5.01-6.15-8.22-1.58-2.81-6.19-11.72-8.2-14.37-5.77-7.64-8.39-9.59-12.31-14.37-8.43-10.31-5.11-12.1-16.41-30.81-4.06-6.71-6.96-10.57-10.26-18.48-2.48-5.95-3.67-10.57-4.1-12.32-1.4-5.69-3-12.24-2.05-20.53.39-3.39 1.35-8.48 4.1-14.38a626 626 0 0 1 18.46-28.75c5.01-7.35 7.74-10.98 12.31-18.48 6.83-11.19 10.28-16.94 12.31-24.64 1.31-5.01 1.56-10.86 2.05-22.59.47-11.27.12-19.73 0-22.59-.62-13.57-1.87-15.89-2.05-22.59-.47-16.3 6.05-30.35 10.25-36.96"/><path fill="url(#c)" d="M2214.13 1391.44c5.52-7.57 15.8-4.86 43.08-6.16 17.78-.84 32.33-2.89 55.38-6.16 16.78-2.36 19.8-3.35 30.77-4.1 16.08-1.11 17.29.43 36.92 0 24.48-.56 36.7-.83 47.18-4.11 8.39-2.63 14.05-5.69 22.57-4.11 4.47.82 6.05 2.26 18.46 8.22 10.97 5.25 16.45 7.9 18.46 8.21 9.03 1.42 10.77-2.98 32.82-8.21 10.07-2.41 11.24-1.85 16.41-4.11 7.76-3.39 8.17-5.98 18.46-12.32 8.74-5.38 14.83-9.04 22.57-8.22 1.97.21 6.52.74 10.25 4.11 1.64 1.48 3.45 3.82 6.16 14.37 3.03 11.87 1.82 13.15 4.1 16.43 3.47 4.97 7.65 4.03 16.41 8.22 7.04 3.34 12.21 8.4 22.56 18.48 9.17 8.93 13.75 13.39 16.41 18.48 1.99 3.82 9.6 18.38 4.11 30.8-3.08 6.96-10.94 12.86-26.67 24.64-5.39 4.05-7.43 5.24-8.2 8.22-2.59 10 12.92 25.3 14.35 26.69 3.37 3.27 5.85 4.93 6.16 8.22.43 4.52-3.57 8.66-8.21 12.32-10.29 8.11-19.36 10.33-30.77 14.37-18.13 6.45-27.18 9.65-36.92 16.43-9.23 6.41-15.24 13.06-24.61 12.32-1.5-.12-6.4-.55-10.26-4.11-3.53-3.22-4.02-7.04-6.15-18.48-3.27-17.43-4.17-19.53-6.16-20.53-2.89-1.46-6.05.41-16.41 6.16 0 0-15.57 8.62-26.67 14.37-10.38 5.38-12.8 5.18-24.61 10.27-11.16 4.81-13.03 6.72-47.18 26.7-24.12 14.1-29.5 16.83-32.82 18.48-8.68 4.29-16.72 7.66-32.82 14.37-8.68 3.62-19.98 8.22-34.87 12.32-14.75 4.07-19 3.8-22.57 2.06-7.05-3.45-8.53-11.19-12.31-22.59-7.56-22.94-9.37-15.22-26.66-57.5-7.16-17.5-6.59-18.17-12.31-30.8-10.38-22.92-12.51-21.24-16.41-32.86-5.15-15.38-4.8-28.44-4.1-53.39.45-16.49 1.84-15.56 2.05-32.86.18-16.69-1.07-20.35 2.05-24.64"/><defs><radialGradient id="a" cx="0" cy="0" r="1" gradientTransform="matrix(0 78.5545 -74.205 0 1754.68 1124.16)" gradientUnits="userSpaceOnUse"><stop stop-color="#F95C65" stop-opacity=".3"/><stop offset="1" stop-color="#F95C65" stop-opacity="0"/></radialGradient><radialGradient id="b" cx="0" cy="0" r="1" gradientTransform="scale(235.125 235.589)rotate(90 1.913 7.42)" gradientUnits="userSpaceOnUse"><stop stop-color="#F95C65" stop-opacity=".3"/><stop offset="1" stop-color="#F95C65" stop-opacity="0"/></radialGradient><radialGradient id="c" cx="0" cy="0" r="1" gradientTransform="scale(224.767 148.512)rotate(90 .37 10.461)" gradientUnits="userSpaceOnUse"><stop stop-color="#F95C65" stop-opacity=".3"/><stop offset="1" stop-color="#F95C65" stop-opacity="0"/></radialGradient></defs></svg>