<svg xmlns="http://www.w3.org/2000/svg" width="4018" height="2672" fill="none" viewBox="0 0 4018 2672"><path fill="url(#a)" d="M1777.21 1190.2c-8.44 7.8-14.43 15.13-20.52 22.59-9.68 11.85-11.38 15.83-12.31 18.48-2.31 6.69-1.39 9.86-2.05 24.64-.57 13.02-1.33 11.5-2.05 24.64-.78 14.34-.37 25.45 0 34.91.29 7.21.66 16.49 2.05 28.75 1.21 10.64 2.75 19.7 4.11 26.7 0 .02 1.41 5.11 0 8.21-1.21 2.63-4.37 3.6-6.16 4.11-18.03 5.19-27.07 7.66-28.72 8.21-11.22 3.82-16.82 5.73-22.56 6.16-7.77.6-9.44-.88-18.46 0-6.91.68-11.69 2.1-18.46 4.11-12.91 3.84-19.86 5.98-20.52 10.27-.34 2.26 1.17 4.29 4.11 8.21 3.65 4.89 7.5 7.7 8.2 8.22 7.08 5.17 13.6 11.04 20.51 16.42 0 0 5.81 4.52 26.67 22.59 0 0 5.56 2.59 8.21 6.16 1.99 2.69 2.99 6.84 2.05 10.27-1.36 4.93-5.91 5.4-16.41 12.32-7.92 5.22-6.61 5.79-16.41 12.32-4.15 2.75-6.81 4.27-12.31 8.22-4.23 3.02-4.6 3.51-8.21 6.16-13.14 9.63-17.88 10.18-18.46 14.37-.65 4.7 4.64 9.04 6.16 10.27 5.04 4.13 9.37 3.41 18.46 6.16 3.55 1.09 8.57 2.92 14.36 6.16 3.71 1.72 9.23 4.31 15.85 7.58 11.18 5.54 17.89 9.4 21.07 10.9 7.43 3.49 20.08 6.49 45.13 12.32 6.73 1.56 24.8 5.73 49.23 10.27 21.99 4.09 26.4 4.11 28.72 4.11 10.89 0 21.08-2.75 41.02-8.22 19.82-5.44 34.44-10.68 38.98-12.32 11.85-4.31 10.93-4.52 26.66-10.27 13.75-5.03 17.91-6.14 26.67-10.26 10.22-4.81 9.29-5.53 16.41-8.22 7.71-2.91 12.76-3.55 20.51-8.21 5.93-3.55 7.57-5.94 8.21-8.22.8-2.89-.04-5.54-2.05-10.26-3.47-8.11-6.83-14.01-8.21-16.43-7.87-13.9-6.68-13.49-12.31-22.59-3.58-5.81-4.73-6.94-6.58-11.11-3.51-7.88-3.18-13.1-11.88-27.91-2.17-3.69-6.36-10.55-10.25-20.53-2.3-5.89-3.53-9.96-4.11-14.38-.75-5.85-.16-9.4 0-10.26.8-4.34 2.49-7.52 4.11-10.27 4.84-8.17 9.23-12.49 12.3-16.43 2.53-3.2 2.49-4.19 12.31-30.8 6.3-17.04 7.47-20.41 8.21-22.59 4.74-13.84 7.09-20.74 8.2-26.69 2.12-11.36 1.29-19.72 0-32.86-1.41-14.52-2.85-27.89-10.25-43.12-1.77-3.64-4.74-9.66-10.26-16.43-1.89-2.32-7.14-8.52-24.62-20.54-10.6-7.31-16.94-11.66-26.66-16.42-2.85-1.4-15.49-7.5-34.87-12.33-18.49-4.6-29.46-7.35-43.08-6.16-30.46 2.65-52.53 23.06-69.74 39.02"/><path fill="url(#b)" d="M1945.41 1621.44c-5.4.7-21.74 2.63-34.87 4.1-21.52 2.45-32.29 3.66-38.98 4.11-15.98 1.07-29.11.72-55.38 0-26.67-.72-40-1.09-43.08-2.05-7.61-2.38-17.68-6.82-24.61-2.06-3 2.06-4.68 5.34-6.16 8.22-3.61 7.06-3.98 13.61-4.1 16.43-1.15 25.83 0 41.07 0 41.07 2.28 30.26 4.41 23.92 4.1 36.96-.18 8.34-1.21 16.96 4.1 24.64 2.98 4.29 7.49 7.68 8.21 8.22 4.27 3.14 8.49 4.94 12.31 6.16 27.83 8.83 49.23 8.21 49.23 8.21 35.16-1.03 53.66-4.93 90.25-8.21 36-3.23 35.29-.99 57.44-4.11 25.99-3.66 48.06-9.71 73.85-18.48 0 0 90.05-28.9 196.92-82.14 11.28-5.63 8.64-5.63 18.46-10.27 6.59-3.1 10.69-4.25 12.31-8.21 1.43-3.47.14-7.01-2.05-12.33-5.23-12.69-10.01-22.11-10.26-22.58-5.85-11.52-2.54-11.15-10.26-30.81-3.73-9.5-6.72-17.1-12.3-26.69-5.54-9.51-5.95-7.8-12.31-18.48-9.11-15.34-9.97-19.02-14.36-20.54-7.82-2.71-16.84 5.92-24.62 12.32-16.3 13.43-36.98 20.41-55.38 30.81-24.72 13.94-44.18 21.76-71.79 32.85-34.45 13.84-69.93 28.07-106.67 32.86"/><defs><radialGradient id="a" cx="0" cy="0" r="1" gradientTransform="scale(188.896 227.05)rotate(90 1.779 7.848)" gradientUnits="userSpaceOnUse"><stop stop-color="#38D175" stop-opacity=".3"/><stop offset="1" stop-color="#38D175" stop-opacity="0"/></radialGradient><radialGradient id="b" cx="0" cy="0" r="1" gradientTransform="matrix(0 131.685 -264.148 0 2001.87 1643.77)" gradientUnits="userSpaceOnUse"><stop stop-color="#38D175" stop-opacity=".3"/><stop offset="1" stop-color="#38D175" stop-opacity="0"/></radialGradient></defs></svg>