<svg xmlns="http://www.w3.org/2000/svg" width="4018" height="2672" fill="none" viewBox="0 0 4018 2672"><path fill="url(#a)" d="M1723.87 1071.1c-12.92 8.52-7.85 7.02-26.66 20.54-4.19 2.99-10.94 7.74-16.41 16.42-2.96 4.71-4.52 7.15-4.11 10.27.91 6.88 10.2 8.03 26.67 18.48 10.69 6.78 16.04 10.19 20.51 16.43 4.37 6.12 5.3 10.74 12.31 18.48 3.82 4.21 6.28 6.86 10.26 8.22 4.12 1.41 8.88 1.08 20.51-4.11 16.06-7.17 17.33-11.15 32.82-18.48 9.21-4.36 11.41-4.19 16.41-8.22 2.3-1.84 12.82-10.28 12.31-20.53-.31-6.02-4.19-8.01-8.21-14.38-10.31-16.28.35-26.53-8.2-47.23-1.85-4.45-7.86-19.01-20.51-22.59-3.9-1.08-8.31-1.12-22.57 4.11-23.51 8.65-39.96 19.18-45.13 22.59"/><path fill="url(#b)" d="M1857.2 1159.4c-2.01 1.97-1.27 2.22-8.2 22.59-6.46 19.03-8.12 21.77-8.21 28.75-.08 5.56-.2 15.42 6.16 22.59 6.64 7.49 16.61 7.76 32.82 8.21 19.07.53 28.63.8 36.92-6.16 11.22-9.41 12-24.97 12.31-30.8.61-11.89-3.22-20.66-4.1-22.59-.29-.66-3.22-6.96-8.21-12.32-14.69-15.79-46.77-22.76-59.49-10.27"/><path fill="url(#c)" d="M2292.08 1299.04c-16.27 3.28-27.12 6.92-36.93 10.27-18.97 6.46-23.69 9.85-26.66 12.32-7.51 6.26-11.28 13-14.36 18.48-5.07 9.01-10.79 19.22-8.21 30.8.41 1.83 1.77 7.95 6.16 12.32 15.89 15.85 47.22-15.3 92.3-6.16 12.78 2.59 22.71 7.62 32.83 2.05 11.17-6.14 13.94-20.49 14.35-22.58 2.24-11.54-1.78-20.54-8.2-34.91-6.22-13.93-9.33-20.89-16.41-24.65-6.65-3.53-16.14-1.72-34.87 2.06"/><path fill="url(#d)" d="M1877.72 1637.86c-9.25 6.98-18.96 14.29-20.51 26.7-1.71 13.55 7.5 23.88 8.2 24.64 2.42 2.65 7.78 7.5 34.87 12.32 12.35 2.2 21.17 3.78 34.87 4.11 31.8.78 47.7 1.15 55.39-8.22 14.15-17.25-1.48-63.68-30.77-75.98-13.72-5.77-27.92-2.97-43.08 0-22.73 4.46-36.12 14.3-38.97 16.43"/><path fill="url(#e)" d="M1699.26 1496.17c-20 10.23-19.16 14.89-34.87 22.59-16.78 8.22-27.31 7.6-28.72 14.38-1.38 6.59 7.22 13.59 8.2 14.37 6.51 5.18 13.77 5.65 18.46 6.16 9.4 1.05 2.59 1.66 57.44 18.48 10.52 3.23 15.47 4.64 22.56 4.11 7.88-.6 21.97-3.86 24.62-12.32 1.95-6.22-4.33-8.85-12.31-24.64-8.14-16.14-7.44-25.04-18.46-41.07-3.26-4.77-5.29-6.84-8.2-8.22-5.15-2.44-12.25-2.26-28.72 6.16"/><path fill="url(#f)" d="M1346.44 1471.53c-32.58 4.66-47 .06-53.34 10.27-5.37 8.64 3.61 14.19 2.06 39.01-1.11 17.44-6.08 23.31-2.06 34.91.68 1.96 4.44 12.76 14.36 18.49 10.71 6.18 25.6 1.37 55.39-8.22 21.78-7 32.96-12.98 38.97-16.43 8.82-5.09 13.81-9.03 18.46-12.32 38.01-26.92 71.59-23.18 73.85-36.96 1.6-9.77-13.95-19.8-24.62-26.7-22.91-14.78-46.91-16.53-59.48-16.42-26.63.22-25.99 8.99-63.59 14.37"/><defs><radialGradient id="a" cx="0" cy="0" r="1" gradientTransform="matrix(0 68.4186 -75.9389 0 1752.57 1112.24)" gradientUnits="userSpaceOnUse"><stop stop-color="#38D175" stop-opacity=".3"/><stop offset="1" stop-color="#38D175" stop-opacity="0"/></radialGradient><radialGradient id="b" cx="0" cy="0" r="1" gradientTransform="matrix(0 44.4007 -44.1458 0 1884.92 1197.38)" gradientUnits="userSpaceOnUse"><stop stop-color="#38D175" stop-opacity=".3"/><stop offset="1" stop-color="#38D175" stop-opacity="0"/></radialGradient><radialGradient id="c" cx="0" cy="0" r="1" gradientTransform="matrix(0 46.3614 -73.4532 0 2278.73 1341.45)" gradientUnits="userSpaceOnUse"><stop stop-color="#38D175" stop-opacity=".3"/><stop offset="1" stop-color="#38D175" stop-opacity="0"/></radialGradient><radialGradient id="d" cx="0" cy="0" r="1" gradientTransform="matrix(0 43.9581 -69.4138 0 1926.41 1662.03)" gradientUnits="userSpaceOnUse"><stop stop-color="#38D175" stop-opacity=".3"/><stop offset="1" stop-color="#38D175" stop-opacity="0"/></radialGradient><radialGradient id="e" cx="0" cy="0" r="1" gradientTransform="matrix(0 43.8588 -65.8942 0 1701.41 1532.51)" gradientUnits="userSpaceOnUse"><stop stop-color="#38D175" stop-opacity=".3"/><stop offset="1" stop-color="#38D175" stop-opacity="0"/></radialGradient><radialGradient id="f" cx="0" cy="0" r="1" gradientTransform="matrix(0 59.9097 -101.437 0 1392.81 1517.06)" gradientUnits="userSpaceOnUse"><stop stop-color="#38D175" stop-opacity=".3"/><stop offset="1" stop-color="#38D175" stop-opacity="0"/></radialGradient></defs></svg>