<svg xmlns="http://www.w3.org/2000/svg" width="4018" height="2672" fill="none" viewBox="0 0 4018 2672"><path fill="url(#a)" d="M1849 1159.4c-8.06 2.26-14.95 6.28-28.72 14.37-14.5 8.53-34.48 20.25-53.33 41.07-14.13 15.61-26.07 28.79-30.77 49.29-1.29 5.64-2.4 13.41 8.2 65.71 9.54 47 12.64 51.62 16.41 55.44 12.13 12.22 19.8 4.54 65.65 16.43 29.78 7.72 42.89 15.22 71.79 16.43 14.2.6 21.64-.76 26.67-2.05 4.43-1.13 28.61-7.36 43.07-28.75 3.63-5.38 7.2-19.33 14.36-47.23 2.98-11.58 3.82-16.21 8.21-32.86 1.66-6.32 2.75-10.16 4.1-16.43 2.01-9.24 3.49-16.03 4.1-24.64.39-5.58 1.11-16.88-2.05-30.8 0 0-2.83-12.47-8.2-22.59-11.16-21.05-34.77-30.25-63.59-41.07-31.1-11.66-51.7-19.08-75.9-12.32"/><path fill="url(#b)" d="M1522.85 1257.97c-12.23-2.55-7.63.61-53.34-2.06-17.6-1.02-25.02-1.89-36.92 0-11.53 1.83-25.35 4.03-34.87 12.32-20.1 17.54-12.7 55.18-8.21 78.04 5.5 27.93 12.58 63.9 43.08 80.08 23.45 12.45 48.68 6.78 51.28 6.16 15.88-3.77 18.61-10.65 55.39-28.74 18.36-9.04 18.81-7.89 24.61-12.33 24.9-19.07 28.53-49.51 28.72-51.33.55-5.3 2.34-28.12-12.31-49.29-16.9-24.41-44.24-30.1-57.43-32.85"/><path fill="url(#c)" d="M1412.08 1582.42c-12.21 4.89-27.8 11.38-69.75 30.8-41.51 19.22-44.61 21.38-47.18 26.7-9.94 20.57 7.37 48.15 28.72 82.14 12.74 20.29 22.73 29.96 32.82 36.96 11.72 8.11 23.31 16.16 36.93 14.38 20.32-2.67 32.98-25.61 47.18-51.34 12.3-22.32 7.2-21.75 16.41-34.91 16-22.84 30.07-22.63 51.28-49.29 9.43-11.86 15.18-19.28 16.41-30.8 1.7-15.89-5.64-35.28-20.52-43.12-3.3-1.75-11.67-5.38-43.07 2.05-16.74 3.97-29.93 8.69-49.23 16.43"/><path fill="url(#d)" d="M1697.21 1722.06c-11.06 4.86-22.73 9.98-32.82 16.43-15.59 9.93-27.66 17.64-28.72 28.74-1.4 14.52 16.78 27.11 36.92 41.07 15.16 10.52 25.23 17.5 41.03 20.54 25.35 4.89 45.78-4.19 59.48-10.27 18.87-8.36 40.02-17.74 45.13-36.96 2.3-8.63-1.89-20.8-10.26-45.18-7.5-21.87-11.4-32.94-18.46-39.01-12.94-11.18-35.09-16.45-49.23-8.22-10.23 5.98-9.29 14.97-24.61 24.64-4.86 3.06-5.58 2.55-18.46 8.22"/><path fill="url(#e)" d="M2037.72 1009.49c-4.84-.84-23.67-4.06-32.82 6.16-4.47 5.01-6.1 12.65-8.21 22.59-1.39 6.59-1.76 11.4-2.05 14.38-1.33 14.02-3.71 18.73-8.2 39.01-5.44 24.58-8.17 36.86-6.16 43.13 6.18 19.16 28.08 27.16 32.82 28.75 25.19 8.37 47.14-4.56 53.34-8.22 8.82-5.19 13.14-10.72 14.35-12.32 6.04-8.01 4.85-12.38 8.21-18.48 7.9-14.27 25.33-9.9 55.38-26.7 16.87-9.42 18.16-14.6 18.47-16.42 2.21-13.37-19.33-26.74-22.57-28.75-20.92-12.98-29.35-4.27-53.33-14.38-25.48-10.74-25.77-24.7-49.23-28.75"/><path fill="url(#f)" d="M2450.03 1046.46c-14.01 4.6-19.88 10.9-28.72 16.42-21.15 13.23-30.3 3.89-69.75 14.38-25.19 6.69-39.13 10.41-45.12 22.59-8.19 16.63 2.79 40.35 16.41 53.39 19.79 18.95 47.44 17.56 69.74 16.43 41.07-2.08 73.13-19.63 82.05-24.65 19.98-11.21 23.34-17.9 43.08-24.64 20-6.84 30.05-4.58 38.97-14.37 8.86-9.74 11.88-26.18 6.16-39.02-6.26-14.04-20.76-18.71-32.82-22.59-14.55-4.68-27.47-3.8-53.34-2.05-16.78 1.13-23.14 2.94-26.66 4.11"/><path fill="url(#g)" d="M2501.31 1165.56c-41.93 16.35-37.79 21.07-84.11 39.02-38.87 15.07-47.75 14.04-61.53 26.69-23.14 21.21-39.02 61.5-24.62 86.25 10.65 18.27 38.54 21.09 94.36 26.69 51.55 5.18 77.33 7.77 104.61-2.05 22.92-8.25 16.23-12.57 82.06-49.28 13.8-7.7 22.64-12.28 32.82-22.59 5.41-5.51 24.71-25.63 28.71-57.5 1.58-12.51 3.8-30.19-6.15-45.18-13.95-21.02-42.81-23.22-61.54-24.64-38.27-2.89-67.79 8.24-104.61 22.59"/><path fill="url(#h)" d="M2624.39 1333.95c-15.33 5.5-12.6 17.12-32.83 30.8-19.56 13.22-29.21 7.17-61.53 18.48-26.55 9.28-48.11 16.84-55.39 34.91-8.68 21.56 7.26 47.48 18.46 65.71 15.98 26 24.91 23.25 36.93 47.23 13.62 27.15 7.67 41.59 20.51 49.29 12.33 7.39 28.9.76 51.28-8.22 34.87-13.98 35.65-26.14 61.54-30.8 18.89-3.41 26.42 1.64 36.92-6.16 12.47-9.28 14.87-26.12 16.41-36.96 2.73-19.18-.67-33.29-4.1-49.29-15.02-70.29-7.65-71.99-18.46-86.24-16.27-21.44-47.49-36.76-69.74-28.75"/><path fill="url(#i)" d="M1641.82 1081.37c-13.76 20.28-24.23 35.73-41.03 41.07-13.99 4.45-26.31-.04-43.07-6.16-10.26-3.74-31.96-12.96-59.49-39.02-32.45-30.72-24.23-38.69-49.23-57.5-28.06-21.109-47.1-17.6-55.39-36.962-7.71-18.029 1.6-37.825 4.11-43.123 6.64-14.108 16.31-21.603 57.43-47.231 34.98-21.787 52.48-32.691 59.49-34.909 13.27-4.21 12.6-1.684 84.1-4.107 33.52-1.15 45.81-2.115 65.64 2.054 13.91 2.915 26.73 5.606 41.03 14.374 38.46 23.574 46.5 65.876 47.18 69.819 2.65 15.278 5.7 32.856-4.1 47.23-13.73 20.125-35.92 9.529-63.59 34.905-11.1 10.19-20.35 23.66-26.67 32.86-9.19 13.39-8.45 14.97-16.41 26.7"/><defs><radialGradient id="a" cx="0" cy="0" r="1" gradientTransform="matrix(0 130.728 -131.863 0 1867.24 1287.56)" gradientUnits="userSpaceOnUse"><stop stop-color="#38D175" stop-opacity=".3"/><stop offset="1" stop-color="#38D175" stop-opacity="0"/></radialGradient><radialGradient id="b" cx="0" cy="0" r="1" gradientTransform="matrix(0 89.7682 -104.286 0 1488.68 1344.57)" gradientUnits="userSpaceOnUse"><stop stop-color="#38D175" stop-opacity=".3"/><stop offset="1" stop-color="#38D175" stop-opacity="0"/></radialGradient><radialGradient id="c" cx="0" cy="0" r="1" gradientTransform="matrix(0 106.074 -116.434 0 1408.7 1667.57)" gradientUnits="userSpaceOnUse"><stop stop-color="#38D175" stop-opacity=".3"/><stop offset="1" stop-color="#38D175" stop-opacity="0"/></radialGradient><radialGradient id="d" cx="0" cy="0" r="1" gradientTransform="matrix(0 72.5217 -91.6318 0 1727.22 1757.71)" gradientUnits="userSpaceOnUse"><stop stop-color="#38D175" stop-opacity=".3"/><stop offset="1" stop-color="#38D175" stop-opacity="0"/></radialGradient><radialGradient id="e" cx="0" cy="0" r="1" gradientTransform="rotate(90 492 1579.31)scale(78.9668 91.692)" gradientUnits="userSpaceOnUse"><stop stop-color="#38D175" stop-opacity=".3"/><stop offset="1" stop-color="#38D175" stop-opacity="0"/></radialGradient><radialGradient id="f" cx="0" cy="0" r="1" gradientTransform="matrix(0 64.648 -131.071 0 2434.7 1105.59)" gradientUnits="userSpaceOnUse"><stop stop-color="#38D175" stop-opacity=".3"/><stop offset="1" stop-color="#38D175" stop-opacity="0"/></radialGradient><radialGradient id="g" cx="0" cy="0" r="1" gradientTransform="matrix(0 103.15 -174.722 0 2500.27 1245.66)" gradientUnits="userSpaceOnUse"><stop stop-color="#38D175" stop-opacity=".3"/><stop offset="1" stop-color="#38D175" stop-opacity="0"/></radialGradient><radialGradient id="h" cx="0" cy="0" r="1" gradientTransform="matrix(0 125.88 -122.765 0 2594.92 1457.67)" gradientUnits="userSpaceOnUse"><stop stop-color="#38D175" stop-opacity=".3"/><stop offset="1" stop-color="#38D175" stop-opacity="0"/></radialGradient><radialGradient id="i" cx="0" cy="0" r="1" gradientTransform="scale(182.299 135.898)rotate(90 .678 7.95)" gradientUnits="userSpaceOnUse"><stop stop-color="#38D175" stop-opacity=".3"/><stop offset="1" stop-color="#38D175" stop-opacity="0"/></radialGradient></defs></svg>