<svg xmlns="http://www.w3.org/2000/svg" width="4018" height="2672" fill="none" viewBox="0 0 4018 2672"><path fill="url(#a)" d="M2432.59 1055.7c-8.41 4.97-20.1-9.26-41.03-16.43-26.95-9.22-52.39-.92-61.54 2.05-9.04 2.94-41.88 13.66-59.48 47.23-3.61 6.9-17.07 32.57-8.21 61.61 12.39 40.62 57.93 53.29 65.64 55.44 47.78 13.31 88.27-12.67 100.52-20.53 9.31-5.98 66.54-42.69 61.53-92.41-3.69-36.65-39.79-66.2-49.23-61.6-6.11 2.97.06 19.75-8.2 24.64"/><path fill="url(#b)" d="M2576.18 1217.92c24.08-12.05 67.51 19.68 65.64 45.18-.59 8.01-5.68 16.02-12.31 20.54 0 0-9.23 6.28-53.33 0 0 0-9.21 1.37-12.31 0-9.33-4.13-11.16-53.97 12.31-65.72"/><path fill="url(#c)" d="M2063.36 1575.23c49.31-46.73 121.03-31.48 143.59-26.69 17.64 3.76 95.24 20.25 112.82 78.03 6.61 21.71 2.13 40.66 0 49.28-17.33 69.82-101.43 97.11-112.82 100.63-11.26 3.47-111.73 33.02-160-24.65-27.63-33.02-23.71-77.37-22.56-90.35 1.04-11.85 5.45-54.48 38.97-86.25"/><path fill="url(#d)" d="M1300.84 1673.8c26.03-43.21 97.04-59.92 133.33-30.8 1.11.9 24.47 20.22 22.56 47.23-2.95 41.93-63.81 59.94-69.74 61.6-24.08 6.8-74.77 12.57-92.31-16.43-15.2-25.11 4.78-59.32 6.16-61.6"/><path fill="url(#e)" d="M1322.85 1456.13c22.52-34.54 70.85-48.46 108.71-32.85 20.15 8.29 48.78 29.69 49.24 59.55.55 36.78-42.12 60.31-67.7 67.76-29.95 8.73-80.49 8.2-98.46-24.64-16.7-30.49 6.52-67.25 8.21-69.82"/><path fill="url(#f)" d="M1296.18 1261.05c-.99 2.56-9.79 26.69 2.05 43.12 9.68 13.41 23.26 8.01 59.49 22.59 23.96 9.65 22.89 13.98 41.02 18.48 12 2.98 35.84 8.52 55.39-4.11 5.99-3.86 9.21-7.92 14.36-14.37 8.8-11.05 23.63-29.63 24.61-53.39 1.11-26.33-15.01-52.8-36.92-65.71-29.79-17.56-62.32-5.34-98.46 8.21-24.95 9.36-51.74 19.4-61.54 45.18"/><path fill="url(#g)" d="M1706.44 1084.45c-21.46 17.57-32.19 26.36-34.88 34.91-5.68 18.05 6.28 42.26 24.62 53.39 17.6 10.67 36.43 6.49 47.18 4.1 27.9-6.18 71.84-29.65 69.74-63.65-1.27-20.66-19.07-38.06-36.92-45.18-24.1-9.63-46.24.33-53.33 4.11-3.9 2.07-8.07 5.48-16.41 12.32"/><defs><radialGradient id="a" cx="0" cy="0" r="1" gradientTransform="matrix(0 89.3751 -115.485 0 2374.85 1119.96)" gradientUnits="userSpaceOnUse"><stop stop-color="#F95C65" stop-opacity=".3"/><stop offset="1" stop-color="#F95C65" stop-opacity="0"/></radialGradient><radialGradient id="b" cx="0" cy="0" r="1" gradientTransform="matrix(0 35.5713 -42.2385 0 2599.64 1250.86)" gradientUnits="userSpaceOnUse"><stop stop-color="#F95C65" stop-opacity=".3"/><stop offset="1" stop-color="#F95C65" stop-opacity="0"/></radialGradient><radialGradient id="c" cx="0" cy="0" r="1" gradientTransform="scale(149.858 122.402)rotate(90 .451 14.052)" gradientUnits="userSpaceOnUse"><stop stop-color="#F95C65" stop-opacity=".3"/><stop offset="1" stop-color="#F95C65" stop-opacity="0"/></radialGradient><radialGradient id="d" cx="0" cy="0" r="1" gradientTransform="matrix(0 64.4617 -83.9197 0 1372.92 1692.89)" gradientUnits="userSpaceOnUse"><stop stop-color="#F95C65" stop-opacity=".3"/><stop offset="1" stop-color="#F95C65" stop-opacity="0"/></radialGradient><radialGradient id="e" cx="0" cy="0" r="1" gradientTransform="matrix(0 69.2326 -86.0841 0 1394.72 1486.15)" gradientUnits="userSpaceOnUse"><stop stop-color="#F95C65" stop-opacity=".3"/><stop offset="1" stop-color="#F95C65" stop-opacity="0"/></radialGradient><radialGradient id="f" cx="0" cy="0" r="1" gradientTransform="matrix(0 75.0546 -100.523 0 1392.63 1274)" gradientUnits="userSpaceOnUse"><stop stop-color="#F95C65" stop-opacity=".3"/><stop offset="1" stop-color="#F95C65" stop-opacity="0"/></radialGradient><radialGradient id="g" cx="0" cy="0" r="1" gradientTransform="matrix(0 57.8781 -71.5171 0 1741.66 1121.82)" gradientUnits="userSpaceOnUse"><stop stop-color="#F95C65" stop-opacity=".3"/><stop offset="1" stop-color="#F95C65" stop-opacity="0"/></radialGradient></defs></svg>