<svg xmlns="http://www.w3.org/2000/svg" width="4018" height="2672" fill="none" viewBox="0 0 4018 2672"><path fill="url(#a)" d="M1664.38 1508.49c-1.31 3-4.49 11.91 0 20.54 1.13 2.15 4.95 8.54 12.31 10.27 6.52 1.52 11.92-1.54 16.41-4.11 6.61-3.78 18.89-10.78 18.46-22.59-.37-10.23-10.07-19.06-20.51-20.53-12.55-1.79-22.79 7.53-26.67 16.42"/><path fill="url(#b)" d="M1356.69 1461.26c-8.02 1.05-29.21 3.8-32.82 16.43-2.03 7.09 1.7 16.41 8.21 20.54 7.01 4.47 12.26-.33 32.82-2.06 16.24-1.35 33.56-.1 34.87 0 13.19 1.01 15.98 2.43 20.51 0 8.94-4.78 13.97-18.87 10.26-30.8-.52-1.66-4.47-13.78-14.36-16.43-10.79-2.89-15.53 9-34.87 12.32-11.14 1.91-11.45-1.7-24.62 0"/><defs><radialGradient id="a" cx="0" cy="0" r="1" gradientTransform="matrix(0 23.9288 -24.756 0 1686.82 1515.77)" gradientUnits="userSpaceOnUse"><stop stop-color="#F95C65" stop-opacity=".3"/><stop offset="1" stop-color="#F95C65" stop-opacity="0"/></radialGradient><radialGradient id="b" cx="0" cy="0" r="1" gradientTransform="matrix(0 25.7954 -54.2274 0 1377.54 1474.29)" gradientUnits="userSpaceOnUse"><stop stop-color="#F95C65" stop-opacity=".3"/><stop offset="1" stop-color="#F95C65" stop-opacity="0"/></radialGradient></defs></svg>