<svg xmlns="http://www.w3.org/2000/svg" width="4018" height="2672" fill="none" viewBox="0 0 4018 2672"><path fill="url(#a)" d="M1795.67 1048.51c-15.27-9.08-45.34 8.15-61.54 22.59-12.15 10.82-14.79 18.56-28.72 24.64-9.37 4.09-15.69 3.86-20.51 10.27-4.93 6.55-6.05 17.02-2.05 24.64 1.92 3.66 4.65 5.96 26.66 16.43 17.52 8.34 21.01 9.36 24.62 14.37 4.47 6.22 2.44 9.33 6.15 20.54 1.01 3.02 9.62 28.38 20.51 28.75 7.76.26 7.25-12.45 24.62-26.7 11.18-9.16 18.97-15.54 30.77-18.48 4.02-1.01 9.29-1.79 12.31-6.16 2.46-3.57 2.34-7.97 2.05-14.38-.35-8.13-1.99-14.12-2.05-14.37-4.97-17.87-14.22-37.7-20.52-53.39-9.47-23.6-7.5-25.9-12.3-28.75"/><path fill="url(#b)" d="m1846.95 1198.42 49.23 4.1-2.05 34.91-49.23-4.11z"/><path fill="url(#c)" d="M2066.44 1426.35c-4.54.97-6.94 5.71-8.21 8.22-.45.88-5.82 11.87 0 18.48 3.26 3.7 8.19 3.98 10.26 4.11 2.03.12 8.43.51 12.31-4.11 3.83-4.58 2.42-10.74 2.05-12.32-1.81-7.87-9.56-15.85-16.41-14.38"/><defs><radialGradient id="a" cx="0" cy="0" r="1" gradientTransform="matrix(0 82.3777 -75.1338 0 1755.55 1128.36)" gradientUnits="userSpaceOnUse"><stop stop-color="#38D175" stop-opacity=".3"/><stop offset="1" stop-color="#38D175" stop-opacity="0"/></radialGradient><radialGradient id="b" cx="0" cy="0" r="1" gradientTransform="scale(25.641 19.5082)rotate(90 5.26 67.691)" gradientUnits="userSpaceOnUse"><stop stop-color="#38D175" stop-opacity=".3"/><stop offset="1" stop-color="#38D175" stop-opacity="0"/></radialGradient><radialGradient id="c" cx="0" cy="0" r="1" gradientTransform="matrix(0 15.5223 -13.9342 0 2069.47 1441.7)" gradientUnits="userSpaceOnUse"><stop stop-color="#38D175" stop-opacity=".3"/><stop offset="1" stop-color="#38D175" stop-opacity="0"/></radialGradient></defs></svg>