<svg xmlns="http://www.w3.org/2000/svg" width="4018" height="2672" fill="none" viewBox="0 0 4018 2672"><path fill="url(#a)" d="m1846.95 1190.2 49.23 2.06-6.15 49.28h-51.47z"/><path fill="url(#b)" d="M1863.36 1350.37c1.93-3.32 4.8-8.15 10.26-10.26 4.2-1.65 5.62 0 14.36 0 11.44 0 15.17-2.88 18.46 0 2.72 2.38 3.22 7.04 2.05 10.26-1.52 4.21-5.4 4.75-10.26 8.22-4.65 3.3-4.18 5.03-14.36 20.53-5.68 8.67-8.61 13.08-12.31 16.43-2.5 2.28-12.53 11.38-18.46 8.22-3.36-1.81-3.94-6.8-4.1-8.22-.86-7.64 4.23-10.27 8.21-20.53 4.49-11.65.53-14.93 6.15-24.65"/><path fill="url(#c)" d="M1965.92 1280.56c-4-14.91-5.23-15.84-4.1-18.49 1.44-3.32 3.86-2.91 14.36-10.26 6.17-4.32 5.37-4.48 8.21-6.16 7.54-4.48 15.09-4.4 26.66-4.11 12.08.29 18.11.43 22.57 4.11 5.66 4.68 7.22 11.82 8.2 16.42 1.11 5.1 2.38 11.01 0 16.43-3.22 7.35-9.89 6.33-34.87 16.43-12.64 5.11-17.46 8.01-24.62 6.16-1.31-.33-8-2.2-12.3-8.21-1.79-2.51-1.83-3.84-4.11-12.32"/><path fill="url(#d)" d="M1836.69 1407.87c-6.32 1.95-9.11 9.8-14.36 24.64-3.89 11.03-1.86 10.25-6.15 22.59-3.59 10.33-6.24 14.4-4.1 18.48.49.95 2.33 4.01 12.3 6.16 10.22 2.2 18.69 1.22 26.67 0a331 331 0 0 0 30.77-6.16c16.14-3.98 24.23-5.97 30.77-8.21 8.08-2.75 42.09-14.39 41.02-24.64-.3-2.86-3.24-4.85-8.2-8.22-3.04-2.05-8.35-4.99-16.41-6.16-10.63-1.54-12.14 1.98-24.62 2.06-10.6.08-18.89-2.41-24.61-4.11-5.27-1.58-10.42-3.8-20.51-8.21-17.42-7.6-19.04-9.31-22.57-8.22"/><defs><radialGradient id="a" cx="0" cy="0" r="1" gradientTransform="matrix(0 25.6687 -28.8103 0 1867.37 1215.87)" gradientUnits="userSpaceOnUse"><stop stop-color="#38D175" stop-opacity=".3"/><stop offset="1" stop-color="#38D175" stop-opacity="0"/></radialGradient><radialGradient id="b" cx="0" cy="0" r="1" gradientTransform="matrix(0 32.7984 -30.0889 0 1878.99 1371.63)" gradientUnits="userSpaceOnUse"><stop stop-color="#38D175" stop-opacity=".3"/><stop offset="1" stop-color="#38D175" stop-opacity="0"/></radialGradient><radialGradient id="c" cx="0" cy="0" r="1" gradientTransform="matrix(0 30.1127 -40.8739 0 2002.3 1271.54)" gradientUnits="userSpaceOnUse"><stop stop-color="#38D175" stop-opacity=".3"/><stop offset="1" stop-color="#38D175" stop-opacity="0"/></radialGradient><radialGradient id="d" cx="0" cy="0" r="1" gradientTransform="matrix(0 36.7373 -71.1634 0 1882.48 1444.31)" gradientUnits="userSpaceOnUse"><stop stop-color="#38D175" stop-opacity=".3"/><stop offset="1" stop-color="#38D175" stop-opacity="0"/></radialGradient></defs></svg>