<svg xmlns="http://www.w3.org/2000/svg" width="4018" height="2672" fill="none" viewBox="0 0 4018 2672"><path fill="url(#a)" d="M2624.39 1120.38c-28.72-8.09-52.19.47-90.26 14.38-33.97 12.4-50.95 18.6-61.54 34.91-16.33 25.15-12.23 58.99 0 82.14 3.04 5.75 11.92 22.07 30.77 32.85 25.39 14.52 51.59 9.16 86.15 2.06 20.95-4.3 40.29-8.28 61.54-22.59 15.88-10.7 39.06-26.33 43.08-53.39 3.98-26.86-13.35-48.55-20.51-57.5-4.35-5.42-20.87-24.87-49.23-32.86"/><path fill="url(#b)" d="M2612.08 1015.65c-10.61-.67-45.42-1.91-84.1 16.43-13.32 6.31-44.78 21.21-43.08 36.97.65 6.16 6.3 11.39 20.51 18.48 28.62 14.27 49.15 14.76 88.21 20.53 41.64 6.16 58.33 11.52 84.1 6.16 10.6-2.19 24.35-6.57 32.82-18.48 2.01-2.83 6.75-9.69 6.15-18.48-.47-6.8-4-12.86-14.36-22.59-9.39-8.81-21.55-20.02-43.07-28.75-4.31-1.74-21.91-8.64-47.18-10.27"/><path fill="url(#c)" d="M2404.9 1083.42c-20.58.9-63.22 2.81-102.57 34.91-14.58 11.91-34.23 27.95-30.77 43.12 4.05 17.66 37.54 26.14 61.54 24.64 13.34-.84 22.61-4.68 41.03-12.32 23.4-9.71 23.88-13.88 53.33-28.75 29.46-14.88 39.59-16.07 41.03-24.64 1.99-11.95-15.18-25.09-26.67-30.8-11.67-5.79-23.18-6.78-36.92-6.16"/><path fill="url(#d)" d="M2624.39 1707.68c-34.88-7.23-52.33-10.82-71.8-6.16-33.64 8.07-56.88 32.14-67.69 53.39-4.04 7.95-9.87 19.8-6.15 32.86 3.32 11.72 12.63 18.4 18.46 22.59 10.42 7.47 21.99 9.77 45.12 14.37 14.84 2.96 23.12 4.54 34.88 4.11 8.22-.31 8.53-1.23 26.66-4.11 30.53-4.82 34.83-3 47.18-8.21 4.31-1.83 13.36-6.1 22.57-14.38 8.45-7.59 22.09-19.83 22.56-36.96.51-18.25-14.23-31.38-20.51-36.96-6.3-5.61-17.42-13.53-51.28-20.54"/><path fill="url(#e)" d="M2339.26 1835c1.72-1.81 5.29-6.06 6.15-12.32 1.54-11.23-6.93-19.32-8.21-20.54-6.4-6.09-14.29-7.31-24.61-8.21-31.92-2.81-56.41-.12-57.44 0-20.94 2.42-31.67 3.39-43.07 8.21-17.25 7.31-27.9 17.64-30.77 20.54-4.6 4.62-7.94 8.99-10.26 12.32z"/><defs><radialGradient id="a" cx="0" cy="0" r="1" gradientTransform="matrix(0 88.2981 -116.443 0 2578.27 1205.55)" gradientUnits="userSpaceOnUse"><stop stop-color="#F95C65" stop-opacity=".3"/><stop offset="1" stop-color="#F95C65" stop-opacity="0"/></radialGradient><radialGradient id="b" cx="0" cy="0" r="1" gradientTransform="scale(115.956 50.5411)rotate(90 .67 21.76)" gradientUnits="userSpaceOnUse"><stop stop-color="#F95C65" stop-opacity=".3"/><stop offset="1" stop-color="#F95C65" stop-opacity="0"/></radialGradient><radialGradient id="c" cx="0" cy="0" r="1" gradientTransform="matrix(0 51.5019 -98.7422 0 2369.9 1134.76)" gradientUnits="userSpaceOnUse"><stop stop-color="#F95C65" stop-opacity=".3"/><stop offset="1" stop-color="#F95C65" stop-opacity="0"/></radialGradient><radialGradient id="d" cx="0" cy="0" r="1" gradientTransform="matrix(0 64.7399 -109.318 0 2586.88 1764.17)" gradientUnits="userSpaceOnUse"><stop stop-color="#F95C65" stop-opacity=".3"/><stop offset="1" stop-color="#F95C65" stop-opacity="0"/></radialGradient><radialGradient id="e" cx="0" cy="0" r="1" gradientTransform="matrix(0 21.1741 -87.2725 0 2258.32 1813.83)" gradientUnits="userSpaceOnUse"><stop stop-color="#F95C65" stop-opacity=".3"/><stop offset="1" stop-color="#F95C65" stop-opacity="0"/></radialGradient></defs></svg>